<svg width="400" height="400" viewBox="0 0 400 400" fill="none" xmlns="http://www.w3.org/2000/svg">
<path d="M198.536 384.528C302.635 384.528 387.024 335.806 387.024 275.704C387.024 215.602 302.635 166.88 198.536 166.88C94.437 166.88 10.0481 215.602 10.0481 275.704C10.0481 335.806 94.437 384.528 198.536 384.528Z" fill="#F0F0F0"/>
<path d="M315.704 323.24C333.36 323.24 347.672 314.977 347.672 304.784C347.672 294.591 333.36 286.328 315.704 286.328C298.049 286.328 283.736 294.591 283.736 304.784C283.736 314.977 298.049 323.24 315.704 323.24Z" fill="#E0E0E0"/>
<path d="M94.9279 328.928L29.7199 291.28C27.6799 290.104 27.6799 288.2 29.7199 287.024L136.408 225.424C137.549 224.844 138.812 224.542 140.092 224.542C141.372 224.542 142.634 224.844 143.776 225.424L208.984 263.072C211.024 264.248 211.024 266.152 208.984 267.328L102.296 328.928C101.154 329.508 99.8922 329.81 98.6119 329.81C97.3317 329.81 96.0695 329.508 94.9279 328.928Z" fill="#E0E0E0"/>
<path d="M92.7039 280.624C92.7039 280.624 92.24 265.112 85.584 252.544C78.928 239.976 69.056 231.664 59.32 230.072C49.584 228.48 40.92 236.84 50.888 243.904C60.856 250.968 78.9599 258.84 85.5999 282.712L92.7039 280.624Z" fill="#0EA5C6"/>
<g opacity="0.15">
<path opacity="0.15" d="M92.7039 280.624C92.7039 280.624 92.24 265.112 85.584 252.544C78.928 239.976 69.056 231.664 59.32 230.072C49.584 228.48 40.92 236.84 50.888 243.904C60.856 250.968 78.9599 258.84 85.5999 282.712L92.7039 280.624Z" fill="black"/>
</g>
<path d="M90.1599 276.392C90.1941 276.4 90.2297 276.4 90.2639 276.392C90.3973 276.351 90.5093 276.259 90.5752 276.137C90.6412 276.014 90.6558 275.87 90.6159 275.736C82.3999 249.384 63.5919 237.104 54.7999 234.296C54.7348 234.275 54.6661 234.267 54.5978 234.272C54.5296 234.278 54.4631 234.296 54.4021 234.328C54.3411 234.359 54.287 234.402 54.2427 234.454C54.1983 234.506 54.1648 234.567 54.1439 234.632C54.1009 234.765 54.1121 234.909 54.175 235.033C54.238 235.158 54.3476 235.252 54.4799 235.296C63.0959 238.048 81.5199 250.112 89.5999 276C89.633 276.12 89.7071 276.225 89.8093 276.297C89.9115 276.368 90.0355 276.402 90.1599 276.392Z" fill="white"/>
<path d="M42.16 267.616C42.816 269.576 44.784 270.752 46.624 271.704C48.464 272.656 50.464 273.68 51.336 275.56C53.08 279.352 49.184 284.096 51.088 287.816C51.5457 288.566 52.1513 289.216 52.8678 289.724C53.5843 290.233 54.3969 290.591 55.256 290.776C56.6709 291.115 58.1021 291.382 59.544 291.576C60.2332 291.633 60.9252 291.646 61.616 291.616C63.624 291.512 65.792 291.616 67.512 292.808C70.224 294.688 70.76 298.408 72.24 301.328C73.1572 303.076 74.4437 304.603 76.0103 305.803C77.5769 307.004 79.386 307.849 81.312 308.28C84.512 309.016 89.448 308.744 90.424 307.392C91.16 306.36 89.568 302.888 89.624 301.624C89.8255 298.371 89.7184 295.105 89.304 291.872C89.055 290.409 88.9851 288.92 89.096 287.44C89.2614 285.787 89.4187 284.128 89.568 282.464C89.72 280.672 90.272 279.264 89.8 277.432C89.2511 275.664 88.4422 273.987 87.4 272.456C86.448 270.912 85.488 269.384 84.512 267.856C83.4306 266.011 82.1247 264.308 80.624 262.784C79.2677 261.53 77.6702 260.566 75.9289 259.95C74.1876 259.333 72.3391 259.078 70.496 259.2C67.432 259.416 64.32 260.84 61.224 260.4C58.128 259.96 55.328 258.888 52.216 258.8C48.968 258.72 45.544 259.784 43.416 262.384C42.793 263.086 42.3525 263.93 42.1334 264.843C41.9143 265.755 41.9235 266.708 42.16 267.616Z" fill="#0EA5C6"/>
<path d="M88.5121 299.088C88.5724 299.078 88.6302 299.057 88.6819 299.024C88.7337 298.992 88.7785 298.95 88.8135 298.9C88.8486 298.85 88.8733 298.793 88.8861 298.733C88.8989 298.674 88.8996 298.612 88.8881 298.552C84.0241 269.64 54.6961 262.776 47.6961 262.624C47.5723 262.622 47.4525 262.668 47.3627 262.754C47.2729 262.839 47.2203 262.956 47.2161 263.08C47.214 263.141 47.2242 263.202 47.2461 263.259C47.2681 263.317 47.3013 263.369 47.3439 263.413C47.3864 263.457 47.4374 263.492 47.4938 263.516C47.5502 263.54 47.6108 263.552 47.6721 263.552C54.5201 263.704 83.2081 270.424 87.9681 298.704C87.9915 298.826 88.0612 298.934 88.1627 299.006C88.2641 299.077 88.3894 299.107 88.5121 299.088Z" fill="white"/>
<path d="M56.8401 281.688C56.9342 281.681 57.0238 281.645 57.0961 281.584C57.1761 281.52 65.4561 274.76 77.8561 277.792C77.9708 277.805 78.0862 277.776 78.1806 277.709C78.2751 277.643 78.3419 277.544 78.3685 277.432C78.3951 277.319 78.3796 277.201 78.325 277.1C78.2704 276.998 78.1804 276.92 78.0721 276.88C74.3995 275.913 70.5585 275.771 66.8243 276.462C63.0901 277.154 59.555 278.662 56.4721 280.88C56.4032 280.945 56.356 281.03 56.3369 281.123C56.3178 281.216 56.3276 281.313 56.3651 281.4C56.4026 281.487 56.466 281.561 56.5466 281.611C56.6272 281.661 56.7213 281.685 56.8161 281.68L56.8401 281.688Z" fill="white"/>
<path d="M202.712 26.712L100.8 85.544C99.7258 86.2476 98.8313 87.1929 98.1881 88.3042C97.5449 89.4156 97.1708 90.6621 97.0959 91.944V321.784C97.0959 324.144 98.7599 325.112 100.8 323.92L202.704 265.096C203.778 264.392 204.673 263.447 205.316 262.336C205.959 261.224 206.333 259.978 206.408 258.696V28.848C206.4 26.488 204.752 25.528 202.712 26.712ZM201.112 237.496C201.112 239.52 199.696 240.808 197.912 241.816L105.248 295.312C103.496 296.32 102.048 295.504 102.048 293.472V113.472C102.112 112.367 102.435 111.292 102.991 110.335C103.547 109.377 104.32 108.564 105.248 107.96L197.904 54.456C199.664 53.432 201.104 54.256 201.104 56.28L201.112 237.496Z" fill="#37474F"/>
<path d="M100.344 324.16C99.2372 324.626 98.0426 324.847 96.8424 324.807C95.6422 324.767 94.465 324.467 93.3919 323.928L89.1519 321.48C88.0721 320.781 87.1725 319.837 86.5261 318.725C85.8797 317.613 85.5048 316.364 85.4319 315.08V85.248C85.4538 84.2904 85.6744 83.3478 86.0799 82.48C86.2072 82.1748 86.3541 81.8782 86.5199 81.592L98.1759 88.328C97.9277 88.7653 97.7112 89.2198 97.5279 89.688C97.2477 90.4219 97.0961 91.1986 97.0799 91.984V321.792C97.1039 324 98.5199 324.952 100.344 324.16Z" fill="#263238"/>
<path d="M152.64 274.312C155.84 272.448 158.488 273.96 158.488 277.688C158.38 279.718 157.793 281.695 156.777 283.456C155.761 285.217 154.344 286.714 152.64 287.824C149.44 289.688 146.792 288.176 146.792 284.448C146.902 282.418 147.488 280.442 148.504 278.681C149.52 276.92 150.937 275.423 152.64 274.312Z" fill="#0EA5C6"/>
<path d="M151.76 61.088C153.128 60.288 154.24 60.936 154.24 62.52C154.194 63.3817 153.945 64.2204 153.514 64.9682C153.083 65.7159 152.482 66.3517 151.76 66.824C150.384 67.624 149.272 66.976 149.272 65.384C149.319 64.5225 149.568 63.6842 150.001 62.9376C150.433 62.191 151.036 61.5572 151.76 61.088Z" fill="black"/>
<path d="M142.168 76.2L161.368 65.12C162.512 64.464 163.44 64.928 163.44 66.168C163.39 66.864 163.176 67.5384 162.816 68.1361C162.456 68.7339 161.96 69.2382 161.368 69.608L142.168 80.688C141.024 81.344 140.096 80.88 140.096 79.64C140.146 78.944 140.36 78.2696 140.72 77.6719C141.08 77.0741 141.576 76.5698 142.168 76.2Z" fill="black"/>
<path d="M201.08 237.496C201.08 239.52 199.664 240.808 197.88 241.816L105.248 295.312C103.496 296.32 102.048 295.504 102.048 293.472V113.472C102.112 112.367 102.435 111.292 102.991 110.335C103.547 109.377 104.32 108.564 105.248 107.96L197.904 54.456C199.664 53.432 201.104 54.256 201.104 56.28L201.08 237.496Z" fill="#0EA5C6"/>
<path d="M206.4 28.264C206.136 26.336 204.592 25.64 202.744 26.712L100.8 85.544C99.707 86.2297 98.8068 87.1823 98.1838 88.312L86.5278 81.6C87.154 80.4743 88.0572 79.5271 89.1518 78.848L191.048 20C192.197 19.4161 193.467 19.1118 194.756 19.1118C196.045 19.1118 197.315 19.4161 198.464 20L202.72 22.4C203.719 23.0548 204.566 23.9177 205.201 24.9298C205.836 25.9419 206.245 27.0792 206.4 28.264Z" fill="#455A64"/>
<path d="M213.984 62.208C213.624 62.0403 213.225 61.9726 212.829 62.012C212.434 62.0514 212.056 62.1965 211.736 62.432L119.08 115.912C118.152 116.516 117.379 117.329 116.823 118.287C116.267 119.244 115.944 120.319 115.88 121.424V301.424C115.846 301.803 115.906 302.185 116.055 302.536C116.205 302.886 116.438 303.194 116.736 303.432C117.32 303.816 119.672 305.096 120.216 305.44C120.579 305.624 120.986 305.704 121.391 305.67C121.797 305.636 122.185 305.49 122.512 305.248L215.2 251.784C216.96 250.776 218.4 249.488 218.4 247.464V66.248C218.44 65.855 218.376 65.4584 218.213 65.0986C218.05 64.7388 217.794 64.4287 217.472 64.2L213.984 62.208Z" fill="#E0E0E0"/>
<path d="M218.4 247.464C218.4 249.488 216.976 250.776 215.2 251.784L122.528 305.28C120.776 306.296 119.328 305.472 119.328 303.448V123.448C119.39 122.343 119.713 121.269 120.269 120.313C120.825 119.356 121.599 118.545 122.528 117.944L215.2 64.424C216.96 63.4 218.4 64.232 218.4 66.248V247.464Z" fill="#FAFAFA"/>
<path d="M216.608 64.8C217.472 64.8 217.568 65.824 217.568 66.264V247.464C217.568 248.872 216.712 249.992 214.784 251.096L122.128 304.592C121.822 304.782 121.472 304.892 121.112 304.912C120.248 304.912 120.152 303.888 120.152 303.448V123.448C120.217 122.489 120.501 121.558 120.982 120.725C121.464 119.893 122.129 119.183 122.928 118.648L215.592 65.112C215.897 64.9165 216.247 64.8034 216.608 64.784V64.8ZM216.608 63.984C216.103 64.0047 215.613 64.1563 215.184 64.424L122.528 117.912C121.599 118.513 120.825 119.324 120.269 120.281C119.713 121.237 119.39 122.311 119.328 123.416V303.416C119.328 304.856 120.048 305.68 121.088 305.68C121.59 305.664 122.079 305.515 122.504 305.248L215.2 251.784C216.96 250.776 218.4 249.488 218.4 247.464V66.248C218.4 64.816 217.688 63.984 216.64 63.984H216.608Z" fill="#E0E0E0"/>
<path d="M171.2 121.536C184.568 113.824 195.4 120.072 195.4 135.504C195.4 150.936 184.56 169.696 171.2 177.408C157.84 185.12 147.008 178.872 147.008 163.44C147.008 148.008 157.832 129.248 171.2 121.536Z" fill="#0EA5C6"/>
<path d="M173.192 131.528L176.608 138.776L184.24 135.848C185.296 135.448 185.712 136.928 184.952 138.352L179.432 148.752L180.736 158.136C180.912 159.424 179.816 161.128 178.872 161.008L172.048 160.208L165.216 168.936C164.28 170.136 163.176 169.736 163.36 168.208L164.664 157.312L159.136 153.312C158.376 152.76 158.792 150.792 159.848 149.984L167.48 144.096L170.896 132.896C171.368 131.312 172.728 130.528 173.192 131.528Z" fill="#FAFAFA"/>
<path d="M138.016 218.512C138.016 221.824 140.496 223.072 143.544 221.312L195.392 191.376C198.44 189.616 200.912 185.512 200.912 182.2C200.912 178.888 198.44 177.648 195.392 179.408L143.544 209.336C140.496 211.104 138.016 215.2 138.016 218.512Z" fill="#0EA5C6"/>
<path opacity="0.6" d="M138.016 218.512C138.016 221.824 140.496 223.072 143.544 221.312L195.392 191.376C198.44 189.616 200.912 185.512 200.912 182.2C200.912 178.888 198.44 177.648 195.392 179.408L143.544 209.336C140.496 211.104 138.016 215.2 138.016 218.512Z" fill="white"/>
<path d="M143.32 213.464L195.616 183.264C196.632 182.68 197.456 183.096 197.456 184.2C197.411 184.818 197.22 185.417 196.901 185.947C196.581 186.478 196.141 186.927 195.616 187.256L143.32 217.456C142.304 218.04 141.472 217.624 141.472 216.52C141.517 215.901 141.708 215.301 142.029 214.77C142.35 214.239 142.793 213.791 143.32 213.464Z" fill="#455A64"/>
<path d="M138.016 238.464C138.016 241.776 140.496 243.024 143.544 241.264L195.392 211.328C198.44 209.568 200.912 205.464 200.912 202.152C200.912 198.84 198.44 197.6 195.392 199.36L143.544 229.288C140.496 231.056 138.016 235.2 138.016 238.464Z" fill="#0EA5C6"/>
<path opacity="0.6" d="M138.016 238.464C138.016 241.776 140.496 243.024 143.544 241.264L195.392 211.328C198.44 209.568 200.912 205.464 200.912 202.152C200.912 198.84 198.44 197.6 195.392 199.36L143.544 229.288C140.496 231.056 138.016 235.2 138.016 238.464Z" fill="white"/>
<path d="M146.656 231.488C147.616 230.936 148.384 231.384 148.384 232.48C148.353 233.081 148.18 233.666 147.88 234.187C147.579 234.709 147.16 235.152 146.656 235.48C145.704 236.024 144.928 235.584 144.928 234.48C144.961 233.881 145.135 233.298 145.435 232.778C145.735 232.258 146.153 231.816 146.656 231.488Z" fill="#455A64"/>
<path d="M153.333 231.043C154.007 229.876 154.007 228.614 153.334 228.226C152.66 227.837 151.568 228.468 150.894 229.635C150.221 230.802 150.221 232.064 150.894 232.452C151.568 232.841 152.66 232.21 153.333 231.043Z" fill="#455A64"/>
<path d="M157.6 225.192C158.56 224.64 159.328 225.088 159.328 226.184C159.297 226.785 159.124 227.37 158.824 227.891C158.524 228.413 158.104 228.856 157.6 229.184C156.648 229.728 155.872 229.288 155.872 228.184C155.905 227.585 156.079 227.002 156.379 226.482C156.679 225.962 157.097 225.52 157.6 225.192Z" fill="#455A64"/>
<path d="M163.016 222.04C163.968 221.488 164.744 221.936 164.744 223.04C164.711 223.639 164.537 224.223 164.237 224.742C163.937 225.262 163.519 225.704 163.016 226.032C162.064 226.584 161.288 226.136 161.288 225.032C161.322 224.433 161.496 223.85 161.796 223.33C162.096 222.811 162.514 222.369 163.016 222.04Z" fill="#455A64"/>
<path d="M168.472 218.896C169.424 218.344 170.192 218.792 170.192 219.888C170.161 220.488 169.989 221.072 169.69 221.593C169.391 222.114 168.974 222.558 168.472 222.888C167.512 223.44 166.744 222.992 166.744 221.888C166.775 221.288 166.948 220.704 167.248 220.184C167.549 219.664 167.968 219.223 168.472 218.896Z" fill="#455A64"/>
<path d="M175.144 218.453C175.818 217.285 175.818 216.024 175.144 215.635C174.471 215.247 173.379 215.878 172.705 217.045C172.031 218.212 172.031 219.473 172.705 219.862C173.378 220.251 174.47 219.62 175.144 218.453Z" fill="#455A64"/>
<path d="M179.376 212.6C180.328 212.048 181.104 212.496 181.104 213.592C181.071 214.192 180.897 214.777 180.597 215.298C180.297 215.819 179.879 216.262 179.376 216.592C178.416 217.144 177.648 216.696 177.648 215.592C177.679 214.992 177.852 214.408 178.152 213.888C178.453 213.368 178.872 212.927 179.376 212.6Z" fill="#455A64"/>
<path d="M186.045 212.157C186.719 210.99 186.719 209.729 186.045 209.34C185.372 208.952 184.28 209.583 183.606 210.75C182.933 211.917 182.933 213.178 183.606 213.567C184.28 213.956 185.372 213.325 186.045 212.157Z" fill="#455A64"/>
<path d="M190.28 206.304C191.232 205.752 192.008 206.2 192.008 207.304C191.974 207.903 191.8 208.486 191.5 209.006C191.2 209.526 190.782 209.967 190.28 210.296C189.32 210.848 188.552 210.4 188.552 209.296C188.583 208.696 188.756 208.112 189.056 207.592C189.357 207.072 189.776 206.631 190.28 206.304Z" fill="#455A64"/>
<path d="M195.728 203.152C196.68 202.6 197.456 203.048 197.456 204.152C197.423 204.751 197.249 205.335 196.949 205.854C196.649 206.374 196.231 206.816 195.728 207.144C194.776 207.696 194 207.248 194 206.144C194.034 205.545 194.207 204.962 194.508 204.442C194.808 203.923 195.226 203.481 195.728 203.152Z" fill="#455A64"/>
<path d="M161.056 245.12L184.8 231.416C186.832 230.24 188.48 231.192 188.48 233.544V237.008C188.413 238.289 188.045 239.536 187.406 240.648C186.767 241.761 185.874 242.706 184.8 243.408L161.064 257.112C159.024 258.288 157.376 257.336 157.376 254.984V251.52C157.441 250.239 157.809 248.991 158.448 247.879C159.088 246.766 159.981 245.821 161.056 245.12Z" fill="#0EA5C6"/>
<path d="M160.8 251.128V251.352C160.8 252.528 161.6 253.008 162.648 252.416L183.2 240.584C183.737 240.233 184.183 239.76 184.503 239.204C184.822 238.648 185.006 238.024 185.04 237.384V237.152C185.04 235.976 184.24 235.496 183.2 236.088L162.696 247.928C162.148 248.271 161.689 248.741 161.36 249.298C161.03 249.855 160.838 250.482 160.8 251.128Z" fill="#FAFAFA"/>
<path opacity="0.7" d="M155.776 173.112L252.312 117.384C253.328 116.8 254.152 117.272 254.152 118.448V195.248C254.119 195.889 253.935 196.512 253.615 197.068C253.296 197.625 252.849 198.097 252.312 198.448L155.776 254.16C154.76 254.752 153.936 254.272 153.936 253.096V176.296C153.971 175.658 154.156 175.038 154.476 174.484C154.796 173.931 155.241 173.461 155.776 173.112Z" fill="#37474F"/>
<path opacity="0.7" d="M154.472 174.488L149.776 171.768C149.442 172.317 149.255 172.942 149.232 173.584V250.384C149.211 250.61 149.249 250.838 149.342 251.045C149.434 251.252 149.578 251.432 149.76 251.568C150.104 251.768 154.12 254.064 154.44 254.272C154.264 254.134 154.125 253.954 154.037 253.749C153.949 253.543 153.914 253.319 153.936 253.096V176.296C153.96 175.658 154.144 175.036 154.472 174.488Z" fill="#263238"/>
<path opacity="0.5" d="M253.544 117.216C252.888 116.816 249.232 114.72 248.936 114.544C248.726 114.442 248.493 114.399 248.261 114.419C248.028 114.438 247.806 114.52 247.616 114.656L151.08 170.4C150.536 170.741 150.087 171.214 149.776 171.776L154.472 174.496C154.783 173.934 155.232 173.461 155.776 173.12L252.32 117.384C252.496 117.261 252.699 117.181 252.912 117.152C253.125 117.123 253.341 117.145 253.544 117.216Z" fill="#455A64"/>
<path d="M168.8 173.864C168.821 173.848 168.846 173.84 168.872 173.84C168.898 173.84 168.923 173.848 168.944 173.864C168.967 173.89 168.984 173.921 168.995 173.954C169.006 173.987 169.011 174.021 169.008 174.056V175.304C169.006 175.396 168.984 175.486 168.944 175.568C168.914 175.639 168.864 175.7 168.8 175.744L167.456 176.544V182.592C167.454 182.684 167.432 182.774 167.392 182.856C167.362 182.927 167.312 182.988 167.248 183.032L166.24 183.608C166.22 183.625 166.194 183.634 166.168 183.634C166.142 183.634 166.116 183.625 166.096 183.608C166.054 183.556 166.034 183.49 166.04 183.424V177.368L164.688 178.168C164.668 178.185 164.642 178.194 164.616 178.194C164.59 178.194 164.564 178.185 164.544 178.168C164.521 178.144 164.503 178.115 164.492 178.083C164.481 178.051 164.477 178.017 164.48 177.984V176.736C164.482 176.644 164.504 176.554 164.544 176.472C164.572 176.4 164.623 176.338 164.688 176.296L168.8 173.864Z" fill="#FAFAFA"/>
<path d="M173.896 177.28C173.917 177.262 173.944 177.253 173.972 177.253C174 177.253 174.027 177.262 174.048 177.28C174.091 177.334 174.111 177.403 174.104 177.472V178.72C174.106 178.809 174.086 178.896 174.048 178.976C174.015 179.05 173.962 179.114 173.896 179.16L170.272 181.256C170.252 181.273 170.226 181.282 170.2 181.282C170.174 181.282 170.148 181.273 170.128 181.256C170.104 181.232 170.086 181.203 170.075 181.171C170.064 181.139 170.06 181.106 170.064 181.072V173.456C170.062 173.364 170.084 173.273 170.128 173.192C170.156 173.12 170.207 173.058 170.272 173.016L173.84 170.952C173.86 170.935 173.886 170.926 173.912 170.926C173.938 170.926 173.964 170.935 173.984 170.952C174.007 170.976 174.024 171.006 174.035 171.037C174.047 171.069 174.051 171.103 174.048 171.136V172.384C174.046 172.476 174.024 172.566 173.984 172.648C173.956 172.72 173.905 172.782 173.84 172.824L171.44 174.184V175.456L173.632 174.192C173.652 174.175 173.678 174.166 173.704 174.166C173.73 174.166 173.756 174.175 173.776 174.192C173.799 174.216 173.816 174.246 173.827 174.277C173.839 174.309 173.843 174.343 173.84 174.376V175.632C173.838 175.721 173.816 175.808 173.776 175.888C173.748 175.96 173.697 176.022 173.632 176.064L171.44 177.328V178.648L173.896 177.28Z" fill="#FAFAFA"/>
<path d="M177.648 168.744C177.926 168.573 178.232 168.454 178.552 168.392C178.784 168.341 179.026 168.378 179.232 168.496C179.44 168.637 179.593 168.847 179.664 169.088C179.77 169.449 179.819 169.824 179.808 170.2C179.813 170.742 179.735 171.282 179.576 171.8C179.428 172.263 179.201 172.696 178.904 173.08L179.848 175.344C179.856 175.381 179.856 175.419 179.848 175.456C179.847 175.531 179.831 175.604 179.8 175.672C179.773 175.73 179.732 175.779 179.68 175.816L178.64 176.416C178.536 176.472 178.464 176.48 178.424 176.416C178.378 176.374 178.342 176.322 178.32 176.264L177.464 174.232L176.76 174.64V177.16C176.761 177.251 176.742 177.341 176.704 177.424C176.673 177.497 176.62 177.559 176.552 177.6L175.552 178.184C175.532 178.201 175.506 178.21 175.48 178.21C175.454 178.21 175.428 178.201 175.408 178.184C175.363 178.133 175.34 178.067 175.344 178V170.4C175.346 170.308 175.368 170.218 175.408 170.136C175.436 170.064 175.487 170.002 175.552 169.96L177.648 168.744ZM176.8 172.8L177.664 172.304C177.877 172.18 178.06 172.011 178.2 171.808C178.349 171.569 178.421 171.29 178.408 171.008C178.408 170.68 178.344 170.488 178.2 170.448C178.107 170.429 178.011 170.429 177.919 170.45C177.826 170.471 177.74 170.511 177.664 170.568L176.8 171.064V172.8Z" fill="#FAFAFA"/>
<path d="M183.312 171.648C183.273 171.606 183.238 171.561 183.208 171.512L182.488 169.984V173.888C182.488 173.976 182.469 174.064 182.432 174.144C182.402 174.22 182.349 174.284 182.28 174.328L181.28 174.904C181.259 174.92 181.234 174.928 181.208 174.928C181.182 174.928 181.157 174.92 181.136 174.904C181.113 174.878 181.096 174.847 181.085 174.814C181.074 174.781 181.069 174.747 181.072 174.712V167.096C181.074 167.004 181.096 166.914 181.136 166.832C181.166 166.761 181.216 166.7 181.28 166.656L182.168 166.144C182.272 166.088 182.352 166.088 182.4 166.144C182.437 166.183 182.469 166.226 182.496 166.272L183.736 168.824L184.984 164.824C185.01 164.739 185.042 164.656 185.08 164.576C185.126 164.467 185.208 164.376 185.312 164.32L186.2 163.8C186.22 163.783 186.246 163.774 186.272 163.774C186.298 163.774 186.324 163.783 186.344 163.8C186.367 163.824 186.384 163.854 186.395 163.885C186.407 163.917 186.411 163.951 186.408 163.984V171.6C186.406 171.692 186.384 171.782 186.344 171.864C186.316 171.936 186.265 171.998 186.2 172.04L185.192 172.616C185.173 172.635 185.147 172.645 185.12 172.645C185.093 172.645 185.067 172.635 185.048 172.616C185.003 172.565 184.98 172.499 184.984 172.432V168.528L184.264 170.888C184.236 170.975 184.204 171.06 184.168 171.144C184.129 171.228 184.065 171.298 183.984 171.344L183.496 171.632C183.416 171.688 183.36 171.688 183.312 171.648Z" fill="#FAFAFA"/>
<path d="M189.848 161.6C190.121 161.429 190.431 161.325 190.752 161.296C190.996 161.281 191.24 161.333 191.456 161.448C191.657 161.562 191.821 161.732 191.928 161.936C192.04 162.148 192.1 162.384 192.104 162.624C192.104 162.696 192.088 162.767 192.056 162.832C192.031 162.888 191.993 162.938 191.944 162.976L190.936 163.552C190.887 163.588 190.829 163.607 190.768 163.608C190.719 163.597 190.672 163.575 190.632 163.544L190.56 163.464C190.519 163.425 190.47 163.395 190.416 163.376C190.34 163.354 190.26 163.354 190.184 163.376C190.064 163.394 189.95 163.438 189.848 163.504C189.75 163.561 189.656 163.625 189.568 163.696C189.481 163.763 189.403 163.841 189.336 163.928C189.264 164.01 189.207 164.105 189.168 164.208C189.121 164.311 189.097 164.423 189.096 164.536C189.091 164.582 189.096 164.628 189.109 164.672C189.123 164.716 189.146 164.757 189.176 164.792C189.243 164.847 189.33 164.873 189.416 164.864C189.57 164.862 189.723 164.841 189.872 164.8L190.576 164.616C190.816 164.549 191.063 164.517 191.312 164.52C191.505 164.529 191.69 164.599 191.84 164.72C191.99 164.864 192.098 165.047 192.152 165.248C192.23 165.54 192.265 165.842 192.256 166.144C192.258 166.543 192.198 166.939 192.08 167.32C191.961 167.705 191.795 168.073 191.584 168.416C191.372 168.76 191.12 169.077 190.832 169.36C190.552 169.643 190.235 169.885 189.888 170.08C189.599 170.261 189.274 170.375 188.936 170.416C188.683 170.447 188.427 170.402 188.2 170.288C187.991 170.173 187.82 169.997 187.712 169.784C187.587 169.536 187.524 169.262 187.528 168.984C187.527 168.908 187.547 168.834 187.584 168.768C187.604 168.713 187.64 168.665 187.688 168.632L188.696 168.048C188.747 168.016 188.804 167.997 188.864 167.992C188.908 168.001 188.949 168.02 188.984 168.048C189.018 168.078 189.05 168.11 189.08 168.144C189.126 168.195 189.18 168.238 189.24 168.272C189.327 168.294 189.417 168.294 189.504 168.272C189.642 168.261 189.774 168.214 189.888 168.136C190.138 167.992 190.367 167.814 190.568 167.608C190.736 167.433 190.833 167.202 190.84 166.96C190.847 166.914 190.841 166.868 190.822 166.825C190.804 166.783 190.774 166.746 190.736 166.72C190.645 166.674 190.54 166.66 190.44 166.68C190.267 166.695 190.095 166.727 189.928 166.776L189.2 166.96C189.009 167.039 188.799 167.062 188.595 167.026C188.391 166.991 188.202 166.899 188.048 166.76C187.762 166.349 187.632 165.85 187.68 165.352C187.686 164.995 187.737 164.64 187.832 164.296C187.938 163.927 188.083 163.571 188.264 163.232C188.453 162.887 188.684 162.568 188.952 162.28C189.214 162.009 189.516 161.78 189.848 161.6Z" fill="#FAFAFA"/>
<path d="M195.2 161.672C195.217 161.216 195.281 160.763 195.392 160.32C195.495 159.876 195.65 159.446 195.856 159.04C196.053 158.64 196.3 158.266 196.592 157.928C196.878 157.607 197.216 157.337 197.592 157.128C197.889 156.936 198.231 156.826 198.584 156.808C198.855 156.802 199.118 156.893 199.328 157.064C199.549 157.264 199.71 157.522 199.792 157.808C199.91 158.175 199.975 158.558 199.984 158.944C199.984 159.28 199.984 159.632 199.984 160C199.984 160.368 199.984 160.712 199.984 161.04C199.968 161.496 199.903 161.949 199.792 162.392C199.684 162.839 199.529 163.274 199.328 163.688C199.13 164.087 198.88 164.459 198.584 164.792C198.3 165.111 197.964 165.382 197.592 165.592C197.294 165.789 196.949 165.902 196.592 165.92C196.323 165.933 196.059 165.842 195.856 165.664C195.634 165.462 195.473 165.201 195.392 164.912C195.273 164.545 195.209 164.162 195.2 163.776C195.2 163.464 195.2 163.12 195.2 162.752C195.2 162.384 195.2 162.016 195.2 161.672ZM198.56 161.768C198.56 161.624 198.56 161.464 198.56 161.288C198.56 161.112 198.56 160.936 198.56 160.752C198.56 160.568 198.56 160.4 198.56 160.232C198.56 160.064 198.56 159.92 198.56 159.792C198.557 159.624 198.531 159.457 198.48 159.296C198.449 159.172 198.385 159.059 198.296 158.968C198.217 158.895 198.115 158.852 198.008 158.848C197.86 158.858 197.717 158.905 197.592 158.984C197.435 159.074 197.294 159.191 197.176 159.328C197.058 159.467 196.959 159.62 196.88 159.784C196.802 159.957 196.74 160.136 196.696 160.32C196.657 160.515 196.63 160.713 196.616 160.912C196.616 161.056 196.616 161.208 196.616 161.376C196.616 161.544 196.616 161.72 196.616 161.904C196.616 162.088 196.616 162.264 196.616 162.432C196.616 162.6 196.616 162.76 196.616 162.896C196.617 163.184 196.71 163.464 196.88 163.696C197.04 163.864 197.272 163.856 197.592 163.696C197.905 163.511 198.152 163.23 198.296 162.896C198.46 162.54 198.56 162.159 198.592 161.768H198.56Z" fill="#FAFAFA"/>
<path d="M205 152.96C205.02 152.943 205.046 152.934 205.072 152.934C205.098 152.934 205.124 152.943 205.144 152.96C205.187 153.014 205.207 153.083 205.2 153.152V154.4C205.201 154.488 205.182 154.576 205.144 154.656C205.114 154.729 205.064 154.793 205 154.84L202.704 156.16V157.76L204.848 156.52C204.868 156.503 204.894 156.494 204.92 156.494C204.946 156.494 204.972 156.503 204.992 156.52C205.034 156.572 205.054 156.638 205.048 156.704V157.96C205.048 158.048 205.029 158.136 204.992 158.216C204.964 158.288 204.913 158.35 204.848 158.392L202.704 159.624V162.176C202.705 162.264 202.686 162.352 202.648 162.432C202.62 162.504 202.569 162.566 202.504 162.608L201.496 163.192C201.475 163.208 201.45 163.216 201.424 163.216C201.398 163.216 201.373 163.208 201.352 163.192C201.329 163.166 201.312 163.135 201.301 163.102C201.29 163.069 201.286 163.035 201.288 163V155.384C201.289 155.295 201.311 155.207 201.352 155.128C201.38 155.053 201.43 154.989 201.496 154.944L205 152.96Z" fill="#FAFAFA"/>
<path d="M210.272 149.792C210.547 149.625 210.856 149.521 211.176 149.488C211.42 149.473 211.664 149.525 211.88 149.64C212.079 149.756 212.243 149.925 212.352 150.128C212.464 150.34 212.524 150.576 212.528 150.816C212.526 150.889 212.507 150.96 212.472 151.024C212.452 151.083 212.413 151.134 212.36 151.168L211.36 151.744C211.313 151.783 211.253 151.803 211.192 151.8C211.142 151.792 211.094 151.77 211.056 151.736L210.984 151.656C210.943 151.617 210.894 151.587 210.84 151.568C210.764 151.547 210.684 151.547 210.608 151.568C210.488 151.586 210.374 151.63 210.272 151.696C210.174 151.753 210.08 151.817 209.992 151.888C209.905 151.955 209.827 152.033 209.76 152.12C209.688 152.204 209.628 152.298 209.584 152.4C209.543 152.505 209.521 152.616 209.52 152.728C209.512 152.772 209.514 152.818 209.527 152.861C209.54 152.904 209.564 152.943 209.595 152.975C209.626 153.007 209.665 153.031 209.708 153.046C209.75 153.06 209.796 153.063 209.84 153.056C209.994 153.053 210.147 153.032 210.296 152.992L211 152.808C211.24 152.741 211.487 152.709 211.736 152.712C211.929 152.721 212.114 152.791 212.264 152.912C212.415 153.056 212.522 153.239 212.576 153.44C212.65 153.733 212.685 154.034 212.68 154.336C212.679 154.734 212.62 155.131 212.504 155.512C212.383 155.896 212.217 156.264 212.008 156.608C211.798 156.953 211.546 157.27 211.256 157.552C210.976 157.835 210.659 158.077 210.312 158.272C210.027 158.46 209.7 158.575 209.36 158.608C209.108 158.639 208.851 158.595 208.624 158.48C208.415 158.365 208.245 158.189 208.136 157.976C208.011 157.728 207.948 157.454 207.952 157.176C207.953 157.101 207.969 157.028 208 156.96C208.025 156.906 208.063 156.859 208.112 156.824L209.12 156.24C209.171 156.208 209.228 156.189 209.288 156.184C209.332 156.192 209.373 156.212 209.408 156.24C209.439 156.27 209.468 156.302 209.496 156.336C209.547 156.385 209.603 156.428 209.664 156.464C209.751 156.486 209.841 156.486 209.928 156.464C210.066 156.453 210.198 156.406 210.312 156.328C210.562 156.184 210.791 156.006 210.992 155.8C211.161 155.626 211.259 155.395 211.264 155.152C211.268 155.106 211.261 155.061 211.243 155.019C211.225 154.977 211.196 154.94 211.16 154.912C211.064 154.879 210.96 154.879 210.864 154.912C210.691 154.927 210.519 154.959 210.352 155.008L209.6 155.2C209.409 155.279 209.199 155.302 208.995 155.266C208.791 155.231 208.602 155.139 208.448 155C208.159 154.591 208.028 154.09 208.08 153.592C208.082 153.235 208.133 152.879 208.232 152.536C208.332 152.165 208.477 151.807 208.664 151.472C208.853 151.127 209.084 150.807 209.352 150.52C209.618 150.23 209.929 149.984 210.272 149.792Z" fill="#FAFAFA"/>
<path d="M217.664 152C217.684 151.983 217.71 151.974 217.736 151.974C217.762 151.974 217.788 151.983 217.808 152C217.853 152.051 217.876 152.117 217.872 152.184V153.44C217.869 153.529 217.847 153.616 217.808 153.696C217.78 153.768 217.729 153.83 217.664 153.872L214.032 156C214.012 156.017 213.986 156.026 213.96 156.026C213.934 156.026 213.908 156.017 213.888 156C213.865 155.974 213.848 155.943 213.837 155.91C213.826 155.877 213.821 155.843 213.824 155.808V148.192C213.827 148.103 213.849 148.016 213.888 147.936C213.916 147.864 213.967 147.802 214.032 147.76L217.6 145.68C217.62 145.663 217.646 145.654 217.672 145.654C217.698 145.654 217.724 145.663 217.744 145.68C217.767 145.706 217.784 145.737 217.795 145.77C217.806 145.803 217.81 145.837 217.808 145.872V147.12C217.806 147.212 217.784 147.302 217.744 147.384C217.714 147.455 217.664 147.516 217.6 147.56L215.24 148.92V150.192L217.432 148.928C217.453 148.912 217.478 148.904 217.504 148.904C217.53 148.904 217.555 148.912 217.576 148.928C217.599 148.954 217.616 148.985 217.627 149.018C217.638 149.051 217.642 149.085 217.64 149.12V150.4C217.638 150.492 217.616 150.582 217.576 150.664C217.548 150.736 217.497 150.798 217.432 150.84L215.24 152.104V153.424L217.664 152Z" fill="#FAFAFA"/>
<path d="M221.416 143.48C221.695 143.311 222.001 143.189 222.32 143.12C222.552 143.074 222.793 143.111 223 143.224C223.208 143.367 223.358 143.58 223.424 143.824C223.537 144.181 223.589 144.554 223.576 144.928C223.582 145.471 223.501 146.011 223.336 146.528C223.185 146.989 222.958 147.422 222.664 147.808L223.616 150.064C223.624 150.104 223.624 150.144 223.616 150.184C223.613 150.257 223.593 150.328 223.56 150.392C223.538 150.452 223.495 150.503 223.44 150.536L222.4 151.136C222.304 151.2 222.224 151.208 222.184 151.136C222.142 151.091 222.107 151.039 222.08 150.984L221.232 148.952L220.528 149.36V151.88C220.527 151.969 220.505 152.057 220.464 152.136C220.436 152.211 220.386 152.275 220.32 152.32L219.312 152.896C219.292 152.913 219.266 152.922 219.24 152.922C219.214 152.922 219.188 152.913 219.168 152.896C219.125 152.842 219.105 152.773 219.112 152.704V145.088C219.112 145 219.131 144.912 219.168 144.832C219.196 144.76 219.247 144.698 219.312 144.656L221.416 143.48ZM220.552 147.552L221.416 147.048C221.63 146.928 221.811 146.758 221.944 146.552C222.098 146.315 222.174 146.035 222.16 145.752C222.16 145.416 222.088 145.232 221.944 145.184C221.759 145.154 221.57 145.197 221.416 145.304L220.552 145.808V147.552Z" fill="#FAFAFA"/>
<path d="M226.288 148.92C226.091 149.032 225.955 148.952 225.88 148.68L224.28 142.216C224.28 142.168 224.28 142.136 224.28 142.12V142.072C224.281 142 224.298 141.929 224.328 141.864C224.35 141.804 224.393 141.753 224.448 141.72L225.408 141.16C225.512 141.104 225.584 141.096 225.632 141.16C225.671 141.2 225.698 141.25 225.712 141.304L226.776 145.88L227.84 140.08C227.851 139.996 227.878 139.914 227.92 139.84C227.965 139.741 228.041 139.66 228.136 139.608L229.104 139.056C229.121 139.042 229.142 139.035 229.164 139.035C229.186 139.035 229.207 139.042 229.224 139.056C229.242 139.077 229.256 139.101 229.264 139.127C229.272 139.153 229.275 139.181 229.272 139.208C229.276 139.224 229.276 139.24 229.272 139.256C229.272 139.256 229.272 139.312 229.272 139.376L227.712 147.648C227.698 147.788 227.655 147.923 227.584 148.044C227.514 148.166 227.418 148.271 227.304 148.352L226.288 148.92Z" fill="#FAFAFA"/>
<path d="M230.584 146.44C230.564 146.457 230.538 146.466 230.512 146.466C230.486 146.466 230.46 146.457 230.44 146.44C230.415 146.415 230.397 146.385 230.386 146.351C230.375 146.318 230.371 146.283 230.376 146.248V138.632C230.373 138.542 230.396 138.454 230.44 138.376C230.468 138.301 230.518 138.237 230.584 138.192L231.584 137.616C231.604 137.599 231.63 137.59 231.656 137.59C231.682 137.59 231.708 137.599 231.728 137.616C231.751 137.642 231.768 137.673 231.779 137.706C231.79 137.739 231.794 137.773 231.792 137.808V145.424C231.79 145.513 231.768 145.6 231.728 145.68C231.698 145.753 231.648 145.817 231.584 145.864L230.584 146.44Z" fill="#FAFAFA"/>
<path d="M234.48 139.072C234.48 139.176 234.48 139.32 234.48 139.504V140.632C234.48 140.816 234.48 140.952 234.48 141.056C234.488 141.215 234.509 141.373 234.544 141.528C234.571 141.656 234.632 141.775 234.72 141.872C234.756 141.913 234.8 141.946 234.85 141.968C234.9 141.99 234.954 142.001 235.008 142C235.162 141.997 235.312 141.95 235.44 141.864C235.601 141.773 235.747 141.657 235.872 141.52C235.978 141.404 236.07 141.275 236.144 141.136C236.213 141.009 236.27 140.875 236.312 140.736C236.351 140.619 236.38 140.498 236.4 140.376C236.417 140.269 236.446 140.164 236.488 140.064C236.527 139.989 236.589 139.927 236.664 139.888L237.664 139.312C237.681 139.298 237.702 139.291 237.724 139.291C237.746 139.291 237.767 139.298 237.784 139.312C237.819 139.358 237.836 139.415 237.832 139.472C237.821 139.892 237.757 140.309 237.64 140.712C237.522 141.134 237.353 141.539 237.136 141.92C236.925 142.299 236.673 142.653 236.384 142.976C236.114 143.291 235.795 143.561 235.44 143.776C235.144 143.963 234.805 144.071 234.456 144.088C234.187 144.093 233.925 143.999 233.72 143.824C233.499 143.622 233.336 143.366 233.248 143.08C233.136 142.714 233.074 142.335 233.064 141.952C233.064 141.64 233.064 141.296 233.064 140.928C233.064 140.56 233.064 140.2 233.064 139.856C233.092 138.942 233.316 138.044 233.72 137.224C233.917 136.824 234.165 136.45 234.456 136.112C234.737 135.793 235.07 135.522 235.44 135.312C235.724 135.131 236.048 135.024 236.384 135C236.648 134.98 236.911 135.044 237.136 135.184C237.364 135.335 237.54 135.553 237.64 135.808C237.768 136.134 237.833 136.482 237.832 136.832C237.831 136.904 237.815 136.975 237.784 137.04C237.762 137.1 237.719 137.151 237.664 137.184L236.664 137.768C236.576 137.816 236.52 137.824 236.488 137.768C236.441 137.705 236.41 137.63 236.4 137.552C236.381 137.463 236.352 137.377 236.312 137.296C236.276 137.212 236.218 137.14 236.144 137.088C236.063 137.036 235.968 137.011 235.872 137.016C235.719 137.036 235.572 137.088 235.44 137.168C235.277 137.266 235.131 137.391 235.008 137.536C234.888 137.677 234.791 137.837 234.72 138.008C234.641 138.177 234.582 138.354 234.544 138.536C234.512 138.713 234.49 138.892 234.48 139.072Z" fill="#FAFAFA"/>
<path d="M242.84 137.472C242.86 137.455 242.886 137.446 242.912 137.446C242.938 137.446 242.964 137.455 242.984 137.472C243.007 137.496 243.024 137.526 243.035 137.557C243.047 137.589 243.051 137.623 243.048 137.656V138.904C243.046 138.996 243.024 139.086 242.984 139.168C242.956 139.24 242.905 139.302 242.84 139.344L239.2 141.456C239.18 141.473 239.154 141.482 239.128 141.482C239.102 141.482 239.076 141.473 239.056 141.456C239.013 141.402 238.993 141.333 239 141.264V133.648C238.999 133.56 239.018 133.472 239.056 133.392C239.084 133.32 239.135 133.258 239.2 133.216L242.768 131.152C242.832 131.152 242.88 131.152 242.92 131.152C242.963 131.206 242.983 131.275 242.976 131.344V132.592C242.978 132.681 242.958 132.768 242.92 132.848C242.892 132.925 242.838 132.99 242.768 133.032L240.416 134.392V135.664L242.6 134.4C242.621 134.382 242.648 134.373 242.676 134.373C242.704 134.373 242.731 134.382 242.752 134.4C242.795 134.454 242.815 134.523 242.808 134.592V135.84C242.809 135.931 242.79 136.021 242.752 136.104C242.717 136.174 242.664 136.235 242.6 136.28L240.416 137.544V138.864L242.84 137.472Z" fill="#FAFAFA"/>
<path d="M206.024 172.312L215.552 166.816C216.08 166.512 216.504 166.752 216.512 167.368V167.608C216.493 167.94 216.396 168.263 216.23 168.551C216.063 168.838 215.831 169.083 215.552 169.264L206.024 174.768C205.496 175.072 205.064 174.824 205.064 174.216V173.976C205.082 173.643 205.178 173.318 205.345 173.029C205.511 172.74 205.744 172.494 206.024 172.312Z" fill="#FAFAFA"/>
<path d="M164.544 196.256L201.864 174.72C202.392 174.416 202.824 174.664 202.824 175.28V175.52C202.807 175.852 202.711 176.176 202.544 176.464C202.377 176.752 202.144 176.996 201.864 177.176L164.544 198.712C164.016 199.016 163.592 198.768 163.592 198.16V197.92C163.609 197.587 163.705 197.264 163.87 196.975C164.035 196.686 164.266 196.44 164.544 196.256Z" fill="#FAFAFA"/>
<path d="M219.848 164.336L242.12 151.472C242.656 151.16 243.08 151.408 243.08 152.024V152.264C243.063 152.595 242.967 152.918 242.802 153.206C242.636 153.493 242.406 153.738 242.128 153.92L219.848 166.784C219.32 167.088 218.888 166.84 218.888 166.232V165.992C218.907 165.66 219.004 165.337 219.17 165.049C219.337 164.762 219.569 164.517 219.848 164.336Z" fill="#FAFAFA"/>
<path d="M190.728 187.584L200.256 182.08C200.784 181.776 201.216 182.024 201.216 182.632V182.872C201.198 183.205 201.102 183.53 200.935 183.819C200.769 184.108 200.536 184.354 200.256 184.536L190.728 190.032C190.2 190.336 189.768 190.088 189.768 189.48V189.24C189.787 188.908 189.884 188.585 190.051 188.297C190.217 188.01 190.449 187.765 190.728 187.584Z" fill="#FAFAFA"/>
<path d="M204.8 179.432L242.112 157.904C242.648 157.592 243.072 157.84 243.072 158.456V158.696C243.055 159.027 242.959 159.35 242.794 159.638C242.629 159.925 242.398 160.17 242.12 160.352L204.8 181.888C204.264 182.192 203.84 181.944 203.84 181.336V181.096C203.857 180.762 203.953 180.438 204.12 180.149C204.287 179.859 204.52 179.614 204.8 179.432Z" fill="#FAFAFA"/>
<path d="M164.488 202.736L186.768 189.872C187.296 189.56 187.728 189.808 187.728 190.424V190.664C187.709 190.996 187.612 191.319 187.446 191.607C187.279 191.894 187.047 192.139 186.768 192.32L164.488 205.184C163.96 205.496 163.536 205.248 163.536 204.632V204.392C163.554 204.061 163.649 203.738 163.814 203.45C163.98 203.163 164.211 202.918 164.488 202.736Z" fill="#FAFAFA"/>
<path d="M164.544 189.816L180.872 180.392C181.4 180.088 181.824 180.336 181.824 180.944V181.184C181.807 181.517 181.711 181.84 181.546 182.129C181.381 182.418 181.15 182.664 180.872 182.848L164.544 192.272C164.016 192.576 163.592 192.328 163.592 191.712V191.48C163.608 191.147 163.703 190.823 163.868 190.534C164.034 190.245 164.265 189.999 164.544 189.816Z" fill="#FAFAFA"/>
<path d="M227.56 153.44L242.312 144.92C242.848 144.608 243.272 144.856 243.272 145.472V145.712C243.255 146.044 243.159 146.368 242.992 146.656C242.825 146.944 242.592 147.188 242.312 147.368L227.56 155.888C227.032 156.192 226.6 155.944 226.6 155.336V155.096C226.619 154.764 226.716 154.441 226.883 154.153C227.049 153.866 227.281 153.621 227.56 153.44Z" fill="#FAFAFA"/>
<path d="M185.024 177.984L222.344 156.448C222.872 156.144 223.304 156.392 223.304 157V157.24C223.285 157.572 223.188 157.895 223.021 158.183C222.855 158.47 222.623 158.715 222.344 158.896L185.024 180.432C184.496 180.736 184.064 180.488 184.064 179.88V179.64C184.083 179.308 184.18 178.985 184.346 178.697C184.513 178.41 184.745 178.165 185.024 177.984Z" fill="#FAFAFA"/>
<path d="M206.024 192.272L215.552 186.776C216.08 186.464 216.504 186.712 216.512 187.328V187.568C216.493 187.9 216.396 188.223 216.23 188.511C216.063 188.798 215.831 189.043 215.552 189.224L206.024 194.728C205.496 195.032 205.064 194.784 205.064 194.176V193.936C205.082 193.603 205.178 193.278 205.345 192.989C205.511 192.7 205.744 192.454 206.024 192.272Z" fill="#FAFAFA"/>
<path d="M164.544 216.216L201.864 194.68C202.392 194.376 202.824 194.624 202.824 195.24V195.48C202.807 195.812 202.711 196.136 202.544 196.424C202.377 196.712 202.144 196.956 201.864 197.136L164.544 218.672C164.016 218.976 163.592 218.728 163.592 218.12V217.88C163.609 217.548 163.705 217.224 163.87 216.935C164.035 216.646 164.266 216.4 164.544 216.216Z" fill="#FAFAFA"/>
<path d="M219.848 184.296L242.12 171.424C242.656 171.12 243.08 171.368 243.08 171.984V172.224C243.063 172.555 242.967 172.878 242.802 173.166C242.636 173.453 242.406 173.698 242.128 173.88L219.848 186.744C219.32 187.048 218.888 186.8 218.888 186.192V185.952C218.907 185.62 219.004 185.297 219.17 185.009C219.337 184.722 219.569 184.477 219.848 184.296Z" fill="#FAFAFA"/>
<path d="M190.728 207.544L200.256 202.04C200.784 201.736 201.216 201.984 201.216 202.592V202.832C201.198 203.165 201.102 203.49 200.935 203.779C200.769 204.068 200.536 204.314 200.256 204.496L190.728 209.992C190.2 210.296 189.768 210.048 189.768 209.44V209.2C189.787 208.868 189.884 208.545 190.051 208.257C190.217 207.97 190.449 207.725 190.728 207.544Z" fill="#FAFAFA"/>
<path d="M204.8 199.392L242.112 177.864C242.648 177.552 243.072 177.8 243.072 178.416V178.656C243.055 178.987 242.959 179.31 242.794 179.598C242.629 179.885 242.398 180.13 242.12 180.312L204.8 201.848C204.264 202.152 203.84 201.904 203.84 201.296V201.056C203.857 200.722 203.953 200.398 204.12 200.109C204.287 199.819 204.52 199.574 204.8 199.392Z" fill="#FAFAFA"/>
<path d="M164.488 222.696L186.768 209.832C187.296 209.52 187.728 209.768 187.728 210.384V210.624C187.709 210.956 187.612 211.279 187.446 211.567C187.279 211.854 187.047 212.099 186.768 212.28L164.488 225.144C163.96 225.456 163.536 225.208 163.536 224.592V224.352C163.554 224.021 163.649 223.698 163.814 223.41C163.98 223.123 164.211 222.878 164.488 222.696Z" fill="#FAFAFA"/>
<path d="M164.544 209.776L180.872 200.352C181.4 200.048 181.824 200.296 181.824 200.904V201.144C181.807 201.476 181.711 201.8 181.546 202.089C181.381 202.378 181.15 202.624 180.872 202.808L164.544 212.232C164.016 212.536 163.592 212.288 163.592 211.672V211.44C163.608 211.107 163.703 210.783 163.868 210.494C164.034 210.205 164.265 209.959 164.544 209.776Z" fill="#FAFAFA"/>
<path d="M227.56 173.392L242.312 164.872C242.848 164.568 243.272 164.816 243.272 165.432V165.672C243.255 166.004 243.159 166.328 242.992 166.616C242.825 166.904 242.592 167.148 242.312 167.328L227.56 175.848C227.032 176.152 226.6 175.904 226.6 175.296V175.056C226.62 174.723 226.717 174.399 226.883 174.11C227.05 173.822 227.282 173.576 227.56 173.392Z" fill="#FAFAFA"/>
<path d="M185.024 197.944L222.344 176.408C222.872 176.104 223.304 176.352 223.304 176.96V177.2C223.285 177.532 223.188 177.855 223.021 178.143C222.855 178.43 222.623 178.675 222.344 178.856L185.024 200.392C184.496 200.696 184.064 200.448 184.064 199.84V199.6C184.083 199.268 184.18 198.945 184.346 198.657C184.513 198.37 184.745 198.125 185.024 197.944Z" fill="#FAFAFA"/>
<path d="M223.064 198.536C225.464 197.16 227.384 198.272 227.384 201.032C227.302 202.531 226.868 203.989 226.118 205.288C225.367 206.588 224.321 207.692 223.064 208.512C220.664 209.888 218.744 208.776 218.744 206.016C218.826 204.517 219.26 203.059 220.01 201.76C220.761 200.46 221.807 199.356 223.064 198.536Z" fill="#0EA5C6"/>
<path d="M223.2 206.808C222.99 206.807 222.789 206.724 222.64 206.576L220.744 204.736C220.61 204.585 220.539 204.389 220.544 204.187C220.548 203.986 220.629 203.793 220.77 203.649C220.91 203.504 221.1 203.418 221.302 203.407C221.503 203.397 221.701 203.463 221.856 203.592L222.912 204.624L226.688 195.64C226.723 195.536 226.779 195.44 226.853 195.358C226.926 195.276 227.016 195.211 227.116 195.165C227.216 195.12 227.325 195.096 227.435 195.094C227.545 195.092 227.654 195.113 227.755 195.156C227.857 195.198 227.949 195.261 228.025 195.341C228.101 195.42 228.159 195.515 228.197 195.618C228.235 195.721 228.252 195.831 228.245 195.941C228.239 196.051 228.21 196.158 228.16 196.256L223.936 206.32C223.885 206.439 223.807 206.545 223.706 206.627C223.606 206.709 223.487 206.766 223.36 206.792L223.2 206.808Z" fill="#FAFAFA"/>
<path opacity="0.3" d="M231.424 194.504L235.424 192.216C236.224 191.752 236.896 192.128 236.896 193.072V197.648C236.867 198.159 236.718 198.655 236.463 199.099C236.207 199.542 235.851 199.919 235.424 200.2L231.424 202.488C230.624 202.96 229.952 202.576 229.952 201.64V197.064C229.979 196.552 230.126 196.053 230.382 195.608C230.638 195.163 230.995 194.785 231.424 194.504Z" fill="white"/>
<path d="M178.104 224.296C180.504 222.92 182.424 224.04 182.424 226.792C182.344 228.292 181.911 229.752 181.16 231.053C180.41 232.354 179.362 233.46 178.104 234.28C175.704 235.656 173.784 234.536 173.784 231.784C173.868 230.285 174.303 228.827 175.053 227.526C175.804 226.226 176.848 225.119 178.104 224.296Z" fill="#F28F8F"/>
<path opacity="0.3" d="M186.4 220.552L190.4 218.264C191.2 217.792 191.872 218.176 191.872 219.112V223.688C191.849 224.2 191.703 224.699 191.447 225.143C191.191 225.588 190.832 225.964 190.4 226.24L186.4 228.536C185.6 229 184.928 228.624 184.928 227.68V223.104C184.956 222.593 185.104 222.096 185.36 221.652C185.615 221.209 185.972 220.832 186.4 220.552Z" fill="white"/>
<path d="M179.72 231.64C179.514 231.639 179.316 231.559 179.168 231.416L175.968 228.32C175.879 228.251 175.805 228.165 175.751 228.066C175.698 227.966 175.666 227.857 175.657 227.745C175.649 227.632 175.665 227.52 175.703 227.414C175.741 227.308 175.801 227.211 175.88 227.13C175.958 227.049 176.052 226.985 176.157 226.943C176.261 226.901 176.374 226.882 176.486 226.886C176.599 226.89 176.709 226.918 176.81 226.968C176.911 227.018 177 227.089 177.072 227.176L180.272 230.264C180.421 230.414 180.505 230.617 180.505 230.828C180.505 231.039 180.421 231.242 180.272 231.392C180.128 231.544 179.929 231.633 179.72 231.64Z" fill="#FAFAFA"/>
<path d="M176.36 233.776C176.243 233.776 176.128 233.749 176.024 233.696C175.835 233.604 175.69 233.442 175.62 233.245C175.55 233.047 175.56 232.83 175.648 232.64L179.128 225.256C179.22 225.065 179.383 224.919 179.582 224.848C179.782 224.778 180.001 224.789 180.192 224.88C180.38 224.972 180.526 225.134 180.596 225.331C180.666 225.529 180.656 225.746 180.568 225.936L177.088 233.32C177.023 233.457 176.919 233.573 176.79 233.654C176.661 233.735 176.512 233.777 176.36 233.776Z" fill="#FAFAFA"/>
<path d="M325.456 149.6C331.152 149.6 334.008 151.488 336.384 156.688C338.656 161.656 344.176 179.168 343.832 182.672C343.488 186.176 331.28 201.328 331.28 201.328L326.168 195.08L334.456 181.616L326.688 165.416L325.456 149.6Z" fill="#FFA8A7"/>
<path d="M322.048 298.96L317.6 305.104C317.6 305.104 319.8 307.072 324.176 307.24C328.136 307.392 329.224 305.896 329.368 305.584C329.744 304.784 329.576 303.12 329.44 301.448C329.336 300.184 329.368 298.016 328.64 298.016L322.048 298.96Z" fill="#263238"/>
<path d="M315.496 300.624C315.496 300.624 306.872 301.896 304.848 301.68C302.76 301.88 299.608 301.896 298 302.36C295.344 303.12 296.992 307.16 302 308.496C305.2 309.36 310.448 309.416 313.736 310.4C317.024 311.384 319.336 312.864 323.192 311.776C325.8 311.032 325.904 308.936 325.656 307.392C325.232 304.824 325.16 302.336 323.768 302.064C322.048 301.72 315.496 300.624 315.496 300.624Z" fill="#263238"/>
<path d="M337.192 203.312C336.448 196.856 332.936 191.792 329.24 186.048L319.696 214.16L317.296 222.96C317.296 222.96 317.464 243.16 317.776 247.992C318.088 252.824 321.328 292.12 321.328 292.12L321.912 299.88C327.408 301.4 328.56 299.96 328.616 298.76C328.672 297.56 329.272 292.776 329.272 292.776C329.272 292.776 334.488 264.04 334.696 259.88C334.952 255.02 334.262 250.157 332.664 245.56C333.728 235.48 338.776 216.952 337.192 203.312Z" fill="#FFA8A7"/>
<path d="M321.296 292.128L321.88 299.888C327.376 301.408 328.528 299.968 328.584 298.768C328.584 298.496 328.64 298.024 328.696 297.472C327.808 299.456 325.992 298.88 324.952 296.048C323.912 293.216 319.352 268.528 319.352 268.528C320.304 280.096 321.296 292.128 321.296 292.128Z" fill="#F28F8F"/>
<path d="M329.24 186.048L301.28 189.248C301.28 189.248 294.376 238.616 293.848 243.272C293.127 248.45 294.089 253.722 296.592 258.312C298.456 262.112 313.24 294.624 314.992 300.6C314.992 300.6 307.792 301.4 304.864 301.648C301.488 302.528 302.984 303.712 304.008 304.416C305.288 305.288 307.968 305.216 310.904 305.424C314.032 305.656 316.744 305.52 319.416 305.552C324.016 305.608 324.216 303.472 324.216 303.472C323.536 300.472 322.952 297.456 322.488 294.424C321.088 285.376 318.096 266.984 316.088 261.04C314.552 256.432 310.328 250.8 310.328 250.8L319.68 214.136C330.248 210.992 333.704 206.48 334.92 200.056C335.936 194.784 331.2 189.272 329.24 186.048Z" fill="#FFA8A7"/>
<path d="M312.152 144.416L313.304 156.424L324.04 155.76L323.176 142.44L312.152 144.416Z" fill="#FFA8A7"/>
<path d="M333.68 154.72C332.592 151.52 330.368 149.68 325.456 149.624L323.648 149.68C323.304 151.448 318.048 152.88 312.792 151.072C310.523 151.3 308.274 151.696 306.064 152.256C302.764 157.666 300.866 163.815 300.544 170.144C300.408 173.64 300.816 177.52 301.552 184.76C300.312 193.024 297.416 208.816 295.56 225.608C296.308 225.694 297.066 225.605 297.774 225.348C298.482 225.091 299.121 224.674 299.64 224.128C300.832 222.856 302.176 220.512 303.544 212.544C303.544 222.616 306.104 226.144 309.608 228.368C312.478 230.157 315.821 231.038 319.2 230.896C332.344 229.888 334.872 227.696 336.584 223.744C338.392 210.68 338.496 204.304 337.536 200.432C336.576 196.56 334.512 193.344 331.808 188.432C330.672 186.344 329.12 182.472 329.408 181.28C330.88 175.528 333.264 169.968 333.936 164.816C334.464 160.512 334.4 156.856 333.68 154.72Z" fill="#0EA5C6"/>
<g opacity="0.6">
<path opacity="0.6" d="M333.68 154.72C332.592 151.52 330.368 149.68 325.456 149.624L323.648 149.68C323.304 151.448 318.048 152.88 312.792 151.072C310.523 151.3 308.274 151.696 306.064 152.256C302.764 157.666 300.866 163.815 300.544 170.144C300.408 173.64 300.816 177.52 301.552 184.76C300.312 193.024 297.416 208.816 295.56 225.608C296.308 225.694 297.066 225.605 297.774 225.348C298.482 225.091 299.121 224.674 299.64 224.128C300.832 222.856 302.176 220.512 303.544 212.544C303.544 222.616 306.104 226.144 309.608 228.368C312.478 230.157 315.821 231.038 319.2 230.896C332.344 229.888 334.872 227.696 336.584 223.744C338.392 210.68 338.496 204.304 337.536 200.432C336.576 196.56 334.512 193.344 331.808 188.432C330.672 186.344 329.12 182.472 329.408 181.28C330.88 175.528 333.264 169.968 333.936 164.816C334.464 160.512 334.4 156.856 333.68 154.72Z" fill="black"/>
</g>
<path d="M306.064 152.256C300.312 152.528 297.776 158.024 297.536 163.184C297.088 172.712 296.464 181.288 295.136 185.32C293.68 189.64 284.36 198.528 281.536 199.328C278.712 200.128 274.976 198.528 273.976 199.92C272.976 201.312 277.016 201.84 277.176 202.568C277.336 203.296 272.088 204.856 269.112 204.344C266.136 203.832 266.896 208.92 271.36 210.928C275.824 212.936 281.616 211.344 287.016 207.416C292.416 203.488 302.28 195.632 304.76 189.672C307.249 183.878 308.88 177.753 309.6 171.488C312.152 154.192 306.064 152.256 306.064 152.256Z" fill="#FFA8A7"/>
<path d="M298.4 121.328C298.308 120.764 298.308 120.188 298.4 119.624C298.534 118.894 298.825 118.202 299.253 117.596C299.681 116.989 300.236 116.484 300.879 116.113C301.522 115.742 302.238 115.516 302.977 115.45C303.716 115.383 304.461 115.478 305.16 115.728C304.955 114.624 305.124 113.482 305.641 112.485C306.159 111.488 306.995 110.692 308.016 110.224C308.81 109.927 309.656 109.792 310.503 109.825C311.351 109.858 312.183 110.059 312.952 110.416C313.874 110.743 314.641 111.402 315.104 112.264C315.643 111.342 316.442 110.6 317.402 110.131C318.362 109.663 319.439 109.489 320.498 109.632C321.556 109.775 322.548 110.228 323.35 110.934C324.151 111.64 324.725 112.568 325 113.6C326.6 113.232 328.936 113.96 329.672 115.584C330.472 117.432 329.48 119.712 329.864 121.648C330.112 122.896 330.664 124.048 330.88 125.344C331.113 126.762 331.247 128.195 331.28 129.632C331.512 135.56 317.752 139.416 318.024 143.48L310.688 134.552C310.688 134.184 309.648 133.256 309.416 132.952C308.976 132.36 308.616 131.728 308.184 131.112C306.913 129.326 305.159 127.938 303.128 127.112C301.689 126.451 300.444 125.432 299.512 124.152C298.924 123.312 298.543 122.344 298.4 121.328Z" fill="#263238"/>
<path d="M304.192 131.24C304.192 131.24 301.792 134.776 302.12 135.144C302.677 135.515 303.294 135.786 303.944 135.944L304.192 131.24Z" fill="#F28F8F"/>
<path d="M311.456 120.048C309.144 121.224 305.152 123.392 304.12 131.76C303.072 140.344 305.016 143.328 306.208 144.456C307.008 145.256 311.16 145.488 313.32 144.832C316.032 144.032 321.896 141.152 324.648 136.72C327.848 131.504 328.552 124.56 324.816 121.832C319.56 118 313.408 119.056 311.456 120.048Z" fill="#FFA8A7"/>
<path d="M306.4 144.608C307.376 145.144 310.136 145.408 312.192 145.064L312.128 143.52C311.247 143.905 310.33 144.205 309.392 144.416C308.41 144.628 307.401 144.693 306.4 144.608Z" fill="#F28F8F"/>
<path d="M310.44 119.8C309.461 120.154 308.551 120.676 307.752 121.344C307.352 121.681 307.028 122.098 306.8 122.568C306.62 123.006 306.554 123.482 306.608 123.952C306.676 124.595 306.911 125.209 307.29 125.732C307.669 126.256 308.178 126.671 308.768 126.936C308.457 127.36 308.244 127.847 308.143 128.363C308.042 128.879 308.056 129.41 308.184 129.92C308.609 131.106 309.337 132.16 310.296 132.976C310.347 133.028 310.407 133.071 310.472 133.104C310.541 133.114 310.611 133.109 310.678 133.088C310.744 133.067 310.805 133.032 310.856 132.984C312.304 132.016 313.2 130.344 315.256 131.016C317.944 131.896 317.816 135.224 315.704 137.296C314.949 138.054 313.953 138.523 312.888 138.624C312.347 138.634 311.821 138.446 311.408 138.096C311.408 138.096 311.48 142.432 315.248 144.152C315.248 144.152 319.44 145.488 323.296 144.248C324.712 142.44 327.096 140.136 329.056 138.072C335.52 131.288 335.888 121.416 326.36 118.304C326.032 118.192 325.704 118.096 325.368 118.008C322.304 117.21 319.095 117.142 316 117.808C314.459 118.136 312.961 118.641 311.536 119.312C311.2 119.488 310.8 119.64 310.44 119.8Z" fill="#263238"/>
<path d="M310.136 136C309.886 135.914 309.656 135.779 309.459 135.603C309.262 135.428 309.102 135.214 308.988 134.976C308.874 134.738 308.809 134.479 308.796 134.216C308.783 133.952 308.822 133.688 308.912 133.44C309.103 132.94 309.481 132.534 309.967 132.31C310.453 132.086 311.008 132.061 311.512 132.24L310.136 136Z" fill="#263238"/>
</svg>
