<svg width="400" height="400" viewBox="0 0 400 400" fill="none" xmlns="http://www.w3.org/2000/svg">
<path d="M145.288 333.6C188.344 356.096 258.16 356.096 301.216 333.6C344.272 311.104 344.272 274.64 301.216 252.144C258.16 229.648 188.344 229.656 145.288 252.144C102.232 274.632 102.232 311.072 145.288 333.6Z" fill="#F5F5F5"/>
<path d="M174.168 242.12C173.968 241.848 174.08 223.632 167.904 218.216C161.728 212.8 156.28 217.096 159.856 223.584C162.256 227.864 168.888 235.44 168.896 242.696L174.168 242.12Z" fill="#0EA5C6"/>
<path opacity="0.6" d="M174.168 242.12C173.968 241.848 174.08 223.632 167.904 218.216C161.728 212.8 156.28 217.096 159.856 223.584C162.256 227.864 168.888 235.44 168.896 242.696L174.168 242.12Z" fill="white"/>
<path d="M172 242.544C171.918 242.544 171.839 242.514 171.779 242.46C171.718 242.405 171.68 242.329 171.672 242.248C169.816 224.784 162.824 218.528 162.752 218.464C162.686 218.407 162.646 218.326 162.64 218.239C162.634 218.152 162.663 218.066 162.72 218C162.777 217.934 162.858 217.894 162.945 217.888C163.032 217.882 163.118 217.911 163.184 217.968C163.48 218.224 170.448 224.424 172.328 242.176C172.337 242.264 172.311 242.352 172.256 242.421C172.2 242.49 172.12 242.534 172.032 242.544H172Z" fill="white"/>
<path d="M172.976 261.4C170.712 251.12 167.48 245.152 154.688 238.568C142.904 232.496 132.768 226.08 144.552 223.752C154.336 221.816 173.168 237.352 173.84 250.952L172.976 261.4Z" fill="#0EA5C6"/>
<path d="M171.72 248.48C171.653 248.481 171.587 248.462 171.531 248.425C171.476 248.388 171.433 248.334 171.408 248.272C167.544 237.968 155.2 228 144.504 226.504C144.418 226.49 144.34 226.443 144.288 226.373C144.235 226.303 144.213 226.215 144.224 226.128C144.23 226.085 144.244 226.043 144.267 226.005C144.289 225.968 144.318 225.935 144.353 225.909C144.388 225.883 144.428 225.864 144.471 225.854C144.513 225.843 144.557 225.841 144.6 225.848C155.528 227.376 168.088 237.536 172.032 248.04C172.061 248.123 172.056 248.213 172.018 248.293C171.981 248.372 171.914 248.433 171.832 248.464L171.72 248.48Z" fill="white"/>
<path d="M267.144 276.992C266.808 277.44 266.752 278.472 266.408 279.872C266.06 280.902 265.98 282.003 266.176 283.072C266.98 284.414 268.255 285.409 269.752 285.864C271.592 286.44 273.856 285.96 276.048 284.648C278.24 283.336 279.896 281.744 283.024 280.856C286.152 279.968 287.704 279.256 289.184 278.056C290.92 276.664 293.232 272.824 289.92 271.936C286.608 271.048 279.4 274.184 272.848 274.472L267.144 276.992Z" fill="#263238"/>
<path d="M267.144 272.896V277.808C267.342 278.361 267.692 278.848 268.153 279.213C268.614 279.578 269.168 279.806 269.752 279.872C270.291 279.958 270.843 279.9 271.352 279.704C272.148 279.398 272.837 278.868 273.337 278.178C273.837 277.488 274.126 276.667 274.168 275.816L274.36 272.896H267.144Z" fill="#FFA8A7"/>
<path d="M276.52 242.56C276.56 248.664 274.808 275.048 274.808 275.048C274.808 275.048 272.312 278.208 266.888 275.048L265.04 245.6L276.52 242.56Z" fill="#0EA5C6"/>
<path opacity="0.5" d="M276.52 242.56C276.56 248.664 274.808 275.048 274.808 275.048C274.808 275.048 272.312 278.208 266.888 275.048L265.04 245.6L276.52 242.56Z" fill="black"/>
<path d="M260.68 297.936C261.368 292.84 266.656 283.256 275.736 279.208C284.816 275.16 295.8 276.304 297.888 278.064C299.976 279.824 300.52 283.504 296.152 284.688C291.784 285.872 288.352 287.888 291.056 290.168C293.76 292.448 294.6 295.592 290.176 296.448C285.752 297.304 280.528 294.152 279.296 296.968C278.064 299.784 280.664 301.944 275.736 302.96C270.808 303.976 264.752 300.168 261.336 305.784L260.68 297.936Z" fill="#0EA5C6"/>
<path d="M260.976 301.792C260.934 301.8 260.891 301.8 260.848 301.792C260.808 301.775 260.772 301.751 260.741 301.72C260.711 301.689 260.686 301.653 260.67 301.613C260.654 301.573 260.645 301.53 260.646 301.486C260.646 301.443 260.655 301.4 260.672 301.36C267.408 285.36 286.88 278.16 293.672 278.592C293.76 278.598 293.842 278.639 293.9 278.704C293.958 278.77 293.989 278.856 293.984 278.944C293.982 278.988 293.971 279.031 293.952 279.07C293.934 279.11 293.907 279.145 293.874 279.174C293.841 279.204 293.803 279.226 293.761 279.24C293.72 279.254 293.676 279.259 293.632 279.256C288.24 278.928 268.296 285 261.28 301.616C261.251 301.671 261.208 301.717 261.154 301.748C261.1 301.779 261.038 301.795 260.976 301.792Z" fill="white"/>
<path d="M287.64 292C287.595 292.008 287.549 292.008 287.504 292C287.416 291.952 278.272 287.904 269.824 289.8C269.782 289.811 269.738 289.813 269.695 289.806C269.653 289.799 269.612 289.783 269.575 289.76C269.538 289.737 269.507 289.707 269.482 289.671C269.458 289.635 269.441 289.595 269.432 289.552C269.423 289.51 269.422 289.467 269.429 289.424C269.436 289.382 269.452 289.341 269.475 289.305C269.521 289.231 269.595 289.179 269.68 289.16C278.344 287.216 287.688 291.352 287.776 291.392C287.848 291.421 287.907 291.474 287.943 291.542C287.98 291.611 287.99 291.69 287.974 291.765C287.958 291.841 287.915 291.908 287.854 291.956C287.793 292.003 287.717 292.027 287.64 292.024V292Z" fill="white"/>
<path d="M212.52 217.912L183.904 234.432L251.872 273.672L273.336 261.28L280.488 257.152L212.52 217.912Z" fill="#0EA5C6"/>
<path d="M280.488 257.152V261.288L259.024 273.68L259.016 269.544L280.488 257.152Z" fill="#0EA5C6"/>
<path opacity="0.2" d="M280.488 257.152V261.288L259.024 273.68L259.016 269.544L280.488 257.152Z" fill="black"/>
<path d="M215.584 238.568C215.584 238.568 240.648 231 245 229.808C249.352 228.616 257.72 226.608 260.16 227.704C262.6 228.8 263.84 230.064 264.064 233.592C264.112 234.256 264.064 237.48 264.064 237.48C264.064 237.48 251.952 241.224 242.032 241.224C232.112 241.224 215.584 238.568 215.584 238.568Z" fill="#0EA5C6"/>
<path opacity="0.6" d="M215.584 238.568C215.584 238.568 240.648 231 245 229.808C249.352 228.616 257.72 226.608 260.16 227.704C262.6 228.8 263.84 230.064 264.064 233.592C264.112 234.256 264.064 237.48 264.064 237.48C264.064 237.48 251.952 241.224 242.032 241.224C232.112 241.224 215.584 238.568 215.584 238.568Z" fill="black"/>
<path d="M237.008 195.976L235.344 204.96L226.128 206.024L227.456 193.624L237.008 195.976Z" fill="#FFA8A7"/>
<path d="M245.6 188.8C245.6 188.8 246.808 192.504 246.44 192.736C245.778 192.877 245.098 192.914 244.424 192.848L245.6 188.8Z" fill="#F28F8F"/>
<path d="M243.2 176.92C244.8 178.592 246.296 181.384 245.6 188.464C244.872 196.224 242.552 198.296 241.6 198.744C240.136 199.424 235.2 198.24 233.552 197.048C231.536 195.56 227.728 191.848 226.736 187.28C225.568 181.904 227.064 175.792 230.992 174.552C236.56 172.8 241.888 175.504 243.2 176.92Z" fill="#FFA8A7"/>
<path d="M246.856 180.736C245.912 182.512 244.136 186.936 239.088 188.184C239.088 188.184 238.808 185.176 236.312 185.144C233.816 185.112 232.968 188.192 234.208 190.336C235.448 192.48 237.008 191.992 237.008 191.992C237.008 191.992 236.752 196.224 233.704 197.736C233.704 197.736 230.032 199.408 226.688 197.272C225.184 196.312 223.44 192.144 222.544 188.8C220.64 181.728 220.984 176.312 225.48 175.2C226.424 172.232 227.952 171.28 230.776 171.096C236.872 170.688 240.808 175.2 245.872 175.2C248.512 175.2 247.928 178.712 246.856 180.736Z" fill="#263238"/>
<path d="M225.6 175.712L222.544 174.4C222.63 174.2 222.754 174.019 222.91 173.867C223.065 173.714 223.25 173.594 223.452 173.513C223.654 173.433 223.87 173.392 224.087 173.395C224.305 173.397 224.52 173.443 224.72 173.528C224.92 173.614 225.102 173.738 225.254 173.894C225.406 174.049 225.526 174.233 225.607 174.436C225.688 174.638 225.728 174.854 225.726 175.071C225.723 175.289 225.678 175.504 225.592 175.704L225.6 175.712Z" fill="#263238"/>
<path d="M215.648 235.552C215.648 240.352 215.192 245.376 217.2 248.904C219.208 252.432 228.304 259.696 238.544 257.968C245.232 256.84 266.856 248.6 266.856 248.6C266.856 248.6 276.456 245.072 276.52 242.56C276.584 238.848 276.328 233.632 267.936 233.856C260.288 234.056 237.592 237.776 237.592 237.776L215.648 235.552Z" fill="#0EA5C6"/>
<path opacity="0.5" d="M215.648 235.552C215.648 240.352 215.192 245.376 217.2 248.904C219.208 252.432 228.304 259.696 238.544 257.968C245.232 256.84 266.856 248.6 266.856 248.6C266.856 248.6 276.456 245.072 276.52 242.56C276.584 238.848 276.328 233.632 267.936 233.856C260.288 234.056 237.592 237.776 237.592 237.776L215.648 235.552Z" fill="black"/>
<path d="M217.432 204.432C218.232 201.92 221.432 199.184 224.632 199.776C230.496 200.864 236.912 202.768 238.608 203.264C238.608 203.264 237.808 216.192 244.472 220.064L245.344 236.52C245.344 236.52 243.704 239.792 241.176 241.408C238.432 243.144 234.624 245.76 227.736 245.184C225.353 244.996 223.037 244.306 220.94 243.159C218.842 242.012 217.012 240.433 215.568 238.528C215.568 238.528 215.648 222.976 215.912 216.016C216.152 210.144 216.864 206.16 217.432 204.432Z" fill="#0EA5C6"/>
<path opacity="0.2" d="M217.432 204.432C218.232 201.92 221.432 199.184 224.632 199.776C230.496 200.864 236.912 202.768 238.608 203.264C238.608 203.264 237.808 216.192 244.472 220.064L245.344 236.52C245.344 236.52 243.704 239.792 241.176 241.408C238.432 243.144 234.624 245.76 227.736 245.184C225.353 244.996 223.037 244.306 220.94 243.159C218.842 242.012 217.012 240.433 215.568 238.528C215.568 238.528 215.648 222.976 215.912 216.016C216.152 210.144 216.864 206.16 217.432 204.432Z" fill="black"/>
<path d="M244.656 223.288C244.656 223.288 241.192 219.696 239.976 215.528C239.976 215.528 239.976 221.624 244.728 224.92L244.656 223.288Z" fill="#0EA5C6"/>
<path opacity="0.4" d="M244.656 223.288C244.656 223.288 241.192 219.696 239.976 215.528C239.976 215.528 239.976 221.624 244.728 224.92L244.656 223.288Z" fill="black"/>
<path d="M267.432 211.48L271.152 206.136C271.152 206.136 272.04 204.848 272.368 204.312C272.696 203.776 272.92 201.984 271.824 201.528C269.84 200.728 265.712 198.752 264.504 198.744C264.008 198.744 261.936 202.216 258.384 206.896C256.256 209.696 253.32 213.584 253.32 213.928C253.32 214.272 252.56 214.624 255.648 216.2C257.862 217.287 260.153 218.207 262.504 218.952L267.432 211.48Z" fill="#0EA5C6"/>
<path opacity="0.6" d="M267.432 211.48L271.152 206.136C271.152 206.136 272.04 204.848 272.368 204.312C272.696 203.776 272.92 201.984 271.824 201.528C269.84 200.728 265.712 198.752 264.504 198.744C264.008 198.744 261.936 202.216 258.384 206.896C256.256 209.696 253.32 213.584 253.32 213.928C253.32 214.272 252.56 214.624 255.648 216.2C257.862 217.287 260.153 218.207 262.504 218.952L267.432 211.48Z" fill="black"/>
<path d="M269.8 205.68C267.52 208.96 262.656 217.072 262.512 217.296C262.368 217.52 255.312 214.472 253.416 213.648C253.369 213.736 253.337 213.83 253.32 213.928C253.32 214.264 252.56 214.624 255.648 216.2C257.862 217.287 260.153 218.207 262.504 218.952L267.432 211.48L271.152 206.136C271.152 206.136 272.04 204.848 272.368 204.312C272.696 203.776 272.92 201.984 271.824 201.528C272.04 201.64 272.072 202.4 269.8 205.68Z" fill="#263238"/>
<path d="M263.784 200.448L270.824 203.304L262.968 215.312L255.952 212.304L263.784 200.448Z" fill="#0EA5C6"/>
<path opacity="0.8" d="M263.784 200.448L270.824 203.304L262.968 215.312L255.952 212.304L263.784 200.448Z" fill="white"/>
<path d="M238.624 203.264C242.24 204.352 244.448 204.552 248.448 210.704C252.448 216.856 261.208 229.056 262.048 230.528C263.256 232.568 263.776 234.992 262.736 236.872C261.76 238.616 258.928 237.856 254.96 234.368C251.12 231 243.52 221.48 243.52 221.48C241.016 215.677 239.367 209.541 238.624 203.264Z" fill="#FFA8A7"/>
<path d="M261.88 237.776C263.712 237.248 266.472 230.44 268.584 222.72C270.696 215 271.784 213.28 271.784 210.848C271.784 208.416 271.672 205.312 271.672 205.312L268.056 210.52C267.911 209.499 267.603 208.508 267.144 207.584C266.68 206.632 265.808 205.888 265.096 206.456C264.712 206.76 265.72 208.056 265.504 210.992C265.44 212.162 265.513 213.335 265.72 214.488L258.984 230.792L261.88 237.776Z" fill="#FFA8A7"/>
<path d="M238.624 203.264C240.419 203.645 242.171 204.202 243.856 204.928C245.482 205.568 246.865 206.705 247.808 208.176C250.608 212.824 254.608 219.44 254.608 219.44C254.608 219.44 255.296 225.2 248.296 227.216L244.568 223.216C243.045 221.587 241.794 219.723 240.864 217.696C239.288 214.208 237.488 208.704 238.624 203.264Z" fill="#0EA5C6"/>
<path opacity="0.2" d="M238.624 203.264C240.419 203.645 242.171 204.202 243.856 204.928C245.482 205.568 246.865 206.705 247.808 208.176C250.608 212.824 254.608 219.44 254.608 219.44C254.608 219.44 255.296 225.2 248.296 227.216L244.568 223.216C243.045 221.587 241.794 219.723 240.864 217.696C239.288 214.208 237.488 208.704 238.624 203.264Z" fill="black"/>
<path d="M248.056 126.904L173.408 83.8081C171.528 82.7201 169.968 83.3921 169.656 85.2881C169.83 84.0973 170.254 82.957 170.901 81.9421C171.548 80.9272 172.402 80.0609 173.408 79.4001L176.512 77.6001C177.693 77.0006 178.999 76.6882 180.324 76.6882C181.649 76.6882 182.955 77.0006 184.136 77.6001L258.792 120.696C259.915 121.404 260.843 122.384 261.488 123.544L250.752 129.744C250.112 128.581 249.184 127.603 248.056 126.904Z" fill="#37474F"/>
<path d="M262.6 304.384C262.529 305.707 262.146 306.995 261.483 308.142C260.82 309.289 259.895 310.263 258.784 310.984L255.68 312.8C254.604 313.34 253.427 313.646 252.225 313.698C251.022 313.751 249.823 313.548 248.704 313.104C250.504 313.784 251.904 312.768 251.904 310.592V133.504C251.856 132.179 251.471 130.887 250.784 129.752L261.52 123.552C262.204 124.691 262.586 125.985 262.632 127.312L262.6 304.384Z" fill="#263238"/>
<path d="M248.056 126.904L173.408 83.8081C171.304 82.5921 169.6 83.5761 169.6 86.0081V263.08C169.672 264.402 170.054 265.688 170.716 266.835C171.378 267.981 172.3 268.956 173.408 269.68L248.056 312.8C250.168 314.008 251.864 313.024 251.864 310.592V133.504C251.794 132.182 251.412 130.895 250.751 129.748C250.089 128.601 249.166 127.627 248.056 126.904ZM248.288 285.488C248.288 286.952 247.272 287.544 246 286.808L175.464 246.08C174.791 245.644 174.231 245.054 173.832 244.358C173.432 243.662 173.205 242.881 173.168 242.08V111.096C173.168 109.632 174.192 109.04 175.464 109.776L178.272 111.376L246 150.488C246.672 150.924 247.231 151.515 247.629 152.211C248.027 152.907 248.253 153.687 248.288 154.488V285.488Z" fill="#455A64"/>
<path d="M210.728 112.072C211.12 112.325 211.446 112.667 211.68 113.07C211.913 113.473 212.048 113.927 212.072 114.392C212.072 115.248 211.472 115.6 210.728 115.192C210.339 114.937 210.015 114.595 209.783 114.192C209.551 113.789 209.417 113.337 209.392 112.872C209.392 112 209.992 111.64 210.728 112.072Z" fill="#263238"/>
<path d="M210.728 272.736C212.265 273.745 213.543 275.101 214.459 276.695C215.375 278.289 215.903 280.076 216 281.912C216 285.288 213.6 286.664 210.704 284.968C209.164 283.963 207.881 282.609 206.961 281.017C206.041 279.424 205.509 277.637 205.408 275.8C205.432 272.416 207.808 271.048 210.728 272.736Z" fill="#263238"/>
<path d="M223.4 125.704C224.181 126.212 224.831 126.897 225.298 127.703C225.765 128.509 226.035 129.414 226.088 130.344C226.088 132.056 224.88 132.744 223.4 131.896C222.62 131.386 221.97 130.7 221.505 129.892C221.039 129.085 220.77 128.179 220.72 127.248C220.72 125.536 221.92 124.848 223.4 125.704Z" fill="#263238"/>
<path d="M216.84 125.12C216.84 126.264 215.992 126.72 214.936 126.088L197.288 115.896C196.738 115.553 196.278 115.083 195.946 114.527C195.614 113.97 195.418 113.343 195.376 112.696C195.376 111.552 196.232 111.096 197.288 111.728L214.936 121.92C215.485 122.264 215.944 122.733 216.275 123.29C216.606 123.846 216.8 124.474 216.84 125.12Z" fill="#263238"/>
<path d="M183.904 114.648L175.456 109.776C174.192 109.04 173.168 109.632 173.168 111.096V242.12C173.205 242.92 173.432 243.7 173.83 244.396C174.228 245.091 174.785 245.682 175.456 246.12L183.904 251V114.648Z" fill="#263238"/>
<g opacity="0.15">
<path opacity="0.15" d="M248.288 154.464V271.608L178.272 231.2V111.392L246 150.504C246.667 150.937 247.222 151.521 247.62 152.209C248.018 152.897 248.247 153.67 248.288 154.464Z" fill="white"/>
</g>
<path d="M178.712 112.16L245.784 150.888C246.38 151.285 246.877 151.814 247.235 152.434C247.593 153.055 247.803 153.749 247.848 154.464V270.848L178.712 230.936V112.16ZM178.272 111.36V231.2L248.288 271.616V154.464C248.253 153.663 248.027 152.883 247.629 152.187C247.231 151.491 246.672 150.9 246 150.464L178.272 111.352V111.36Z" fill="white"/>
<path d="M248.296 285.488V275.744L183.904 238.568L173.84 244.368C174.218 245.066 174.769 245.656 175.44 246.08L245.992 286.808C247.264 287.544 248.296 286.952 248.296 285.488Z" fill="#37474F"/>
<path d="M248.296 279.872L226.832 292.264V288.136L248.296 275.744V279.872Z" fill="#0EA5C6"/>
<path opacity="0.2" d="M248.296 279.872L226.832 292.264V288.136L248.296 275.744V279.872Z" fill="black"/>
<path d="M158.864 248.896L226.832 288.136V292.264L158.864 253.024V248.896Z" fill="#0EA5C6"/>
<path opacity="0.2" d="M158.864 248.896L226.832 288.136V292.264L158.864 253.024V248.896Z" fill="black"/>
<path d="M183.904 234.432L158.864 248.896L226.832 288.136L248.296 275.744V271.608L183.904 234.432Z" fill="#0EA5C6"/>
<path d="M183.904 234.432L158.864 248.896L226.832 288.136L248.296 275.744V271.608L183.904 234.432Z" fill="#0EA5C6"/>
<path d="M184.528 201.76C182.4 201.76 180.776 201.888 176.848 207.584C173.52 212.384 162.632 227.44 161.984 228.152C161.336 228.864 166.896 231.4 166.896 231.4L181.6 216.624L184.528 201.76Z" fill="#FFA8A7"/>
<path d="M164.192 226.936C164.192 226.936 165.36 226.312 168.312 226.336C170.144 226.336 171.288 226.464 171.512 225.872C171.808 224.984 172.528 223.352 172.904 223.36V227.704L164.192 226.936Z" fill="#F28F8F"/>
<path d="M159.024 292.056C154.104 298.552 150.264 300.056 148.92 301.464C147.576 302.872 148.352 305.648 151.64 306.264C154.928 306.88 158.488 306.128 160.608 304.008C162.728 301.888 164.192 299.128 166.352 297.608C168.512 296.088 169.624 295.656 169.952 293.832C170.28 292.008 168.632 286.584 168.632 286.584L159.024 292.056Z" fill="#263238"/>
<path d="M161.384 282.152C161.84 284.512 162.352 286.576 160.744 289.416C160.222 290.328 159.648 291.21 159.024 292.056C156.152 295.92 153.816 298.936 153.424 299.464C153.032 299.992 155.448 301.672 158.224 300.52C161 299.368 163.392 295.256 165.2 292.776C166 291.672 166.8 290.672 167.424 289.896C168.269 288.864 168.707 287.557 168.656 286.224L168.504 282.456L161.384 282.152Z" fill="#FFA8A7"/>
<path d="M171 301.288C166.08 307.792 162.24 309.288 160.896 310.704C159.552 312.12 160.336 314.88 163.616 315.504C166.896 316.128 170.464 315.36 172.584 313.248C174.704 311.136 176.168 308.36 178.336 306.848C180.504 305.336 181.608 304.888 181.928 303.064C182.248 301.24 180.616 295.816 180.616 295.816L171 301.288Z" fill="#263238"/>
<path d="M173.36 291.384C173.824 293.744 174.328 295.808 172.72 298.648C172.202 299.563 171.627 300.444 171 301.288C168.128 305.152 165.792 308.168 165.4 308.696C165.008 309.224 167.424 310.912 170.2 309.76C172.976 308.608 175.368 304.496 177.176 302.016C177.976 300.912 178.776 299.904 179.4 299.136C180.245 298.1 180.683 296.792 180.632 295.456L180.488 291.688L173.36 291.384Z" fill="#FFA8A7"/>
<path d="M205.44 233.6C209.208 241.344 207.72 249.016 197.536 254.04C191.848 256.848 180.84 261.808 180.84 261.808C180.84 261.808 182.44 266.208 182.496 273.624C182.552 280.152 180.816 294.352 180.816 294.352C180.816 294.352 176.56 296.328 173.512 294.352C173.512 294.352 172.16 285.552 171.112 276.68C169.84 265.536 168.768 258.984 169.336 256.584C169.84 254.464 174.272 251.36 177.656 248.984L165.848 254.536C165.848 254.536 168.384 258.04 168.984 264.352C169.712 271.984 168.792 285.104 168.792 285.104C167.663 285.656 166.432 285.968 165.176 286.02C163.92 286.073 162.667 285.864 161.496 285.408C161.496 285.408 153.184 253.048 154.432 248.56C156.224 242.12 180.752 232.312 182 229.784L205.44 233.6Z" fill="#0EA5C6"/>
<path opacity="0.2" d="M205.44 233.6C209.208 241.344 207.72 249.016 197.536 254.04C191.848 256.848 180.84 261.808 180.84 261.808C180.84 261.808 182.44 266.208 182.496 273.624C182.552 280.152 180.816 294.352 180.816 294.352C180.816 294.352 176.56 296.328 173.512 294.352C173.512 294.352 172.16 285.552 171.112 276.68C169.84 265.536 168.768 258.984 169.336 256.584C169.84 254.464 174.272 251.36 177.656 248.984L165.848 254.536C165.848 254.536 168.384 258.04 168.984 264.352C169.712 271.984 168.792 285.104 168.792 285.104C167.663 285.656 166.432 285.968 165.176 286.02C163.92 286.073 162.667 285.864 161.496 285.408C161.496 285.408 153.184 253.048 154.432 248.56C156.224 242.12 180.752 232.312 182 229.784L205.44 233.6Z" fill="black"/>
<path d="M197.072 201.776C204.752 202.496 205.976 201.264 208.272 207.488L201.232 225.432L205.44 233.6C204.448 235.08 192.72 241.384 182.416 233.864C180.608 227.282 179.165 220.605 178.096 213.864C177.296 208.192 182.32 201.936 184.808 201.688C185.705 201.581 186.608 201.531 187.512 201.536L197.072 201.776Z" fill="#0EA5C6"/>
<path opacity="0.6" d="M197.072 201.776C204.752 202.496 205.976 201.264 208.272 207.488L201.232 225.432L205.44 233.6C204.448 235.08 192.72 241.384 182.416 233.864C180.608 227.282 179.165 220.605 178.096 213.864C177.296 208.192 182.32 201.936 184.808 201.688C185.705 201.581 186.608 201.531 187.512 201.536L197.072 201.776Z" fill="white"/>
<path d="M170.296 226.92C171.896 226.968 171.832 225.944 172.232 224.944C172.704 223.768 173.136 222.72 173.136 222.72L174.192 226.528L175.64 233.584C175.64 233.584 171.392 233.528 168.272 233.584C165.152 233.64 161.608 232.6 161.248 230.384C161.024 229.008 162.048 227.08 165.248 226.776C166.932 226.695 168.62 226.743 170.296 226.92Z" fill="#FFA8A7"/>
<path d="M173.304 217.912C171.704 218.472 172.12 221.152 172.792 224.152C173.464 227.152 174.576 232.192 174.92 233.52C175.264 234.848 175.72 235.672 177.704 235.672C179.688 235.672 182.92 235.888 184.32 235.672C185.72 235.456 185.92 234.216 185.632 231.392C185.295 228.169 184.793 224.964 184.128 221.792C183.568 219.112 183.224 217.688 181.56 217.688C179.624 217.664 174.984 217.328 173.304 217.912Z" fill="#263238"/>
<path d="M173.2 226.016C173.36 226.72 174.8 227.304 176.112 227.36C178.011 227.434 179.913 227.306 181.784 226.976C183.12 226.616 183.968 228.92 182.68 231.024C181.392 233.128 178.48 233.768 174.928 233.576C173.862 232.526 173.156 231.165 172.912 229.688C172.805 228.457 172.902 227.216 173.2 226.016Z" fill="#FFA8A7"/>
<path d="M201.264 225.432C201.264 225.432 200.464 226.76 197.976 226.76C200.176 225.264 202.088 222.304 203.88 218.76L201.264 225.432Z" fill="#0EA5C6"/>
<path opacity="0.1" d="M201.264 225.432C201.264 225.432 200.464 226.76 197.976 226.76C200.176 225.264 202.088 222.304 203.88 218.76L201.264 225.432Z" fill="white"/>
<path d="M204.744 202.584C208.984 203.384 210.752 207.384 210.88 215.224C211.008 223.064 210 249.048 209.912 250.2C209.821 251.083 209.967 251.975 210.334 252.783C210.701 253.591 211.276 254.287 212 254.8C215.024 256.96 218.672 258.696 220.456 259.904C222.808 261.504 220.456 264.112 217.568 264.288C214.864 264.456 210.536 262.112 209.432 261.192C209.979 261.918 210.403 262.729 210.688 263.592C211.16 265.432 210.688 266.512 209.84 266.128C209.36 265.912 208.776 265.184 207.12 263.16C204.248 259.632 203.632 258.048 203.6 253.664C203.6 250.696 203.352 235.392 203.112 229.568C202.96 226 202.992 218.248 203.056 213.432C203.12 208.616 203.856 203.264 204.744 202.584Z" fill="#FFA8A7"/>
<path d="M178.464 187.2C178.464 187.2 175.768 182.896 177.664 178.76C179.56 174.624 187.312 169.224 196.152 173.064C204.552 176.72 203.808 186.384 203.84 190.76C203.896 194.904 178.464 187.2 178.464 187.2Z" fill="#263238"/>
<path d="M180.928 178.504C182.152 176.104 189.928 172.272 197.32 176.024C204.712 179.776 203.856 189.88 203.856 196.824V209.624C203.856 211.448 199.576 213.96 195.464 212.504L195.76 193.808C195.76 193.808 196.912 182.392 193.36 179.656C189.808 176.92 180.928 178.504 180.928 178.504Z" fill="#263238"/>
<path d="M195.76 188.544C196.24 188.832 196.928 187.904 197.52 187.28C198.112 186.656 200.056 185.816 201.016 187.848C201.976 189.88 199.768 192.688 198.456 193.6C198.089 193.919 197.63 194.114 197.146 194.156C196.661 194.197 196.176 194.084 195.76 193.832L195.632 201.72C195.632 201.72 193.688 205.992 189.032 206.624C184.376 207.256 185.328 203.424 186.856 201.528V198.64C185.692 198.889 184.495 198.948 183.312 198.816C182.704 198.656 181.248 196.904 180.312 194.944C179.264 192.736 177.512 188.824 179.072 182.208C180.744 175.104 188.376 174.888 192.936 177.752C197.496 180.616 195.76 188.544 195.76 188.544Z" fill="#FFA8A7"/>
<path d="M186.864 198.64C186.864 198.64 191.184 197.768 192.688 196.968C193.577 196.508 194.305 195.788 194.776 194.904C194.546 195.775 194.143 196.591 193.592 197.304C192.488 198.712 186.864 199.752 186.864 199.752V198.64Z" fill="#F28F8F"/>
<path d="M186.912 188.36C186.918 188.531 186.975 188.697 187.075 188.836C187.175 188.976 187.314 189.082 187.474 189.143C187.634 189.204 187.809 189.216 187.976 189.179C188.143 189.141 188.296 189.054 188.414 188.931C188.532 188.807 188.612 188.651 188.642 188.482C188.672 188.313 188.652 188.139 188.584 187.982C188.516 187.825 188.403 187.691 188.259 187.597C188.116 187.504 187.948 187.455 187.776 187.456C187.66 187.458 187.545 187.483 187.439 187.53C187.332 187.577 187.236 187.644 187.156 187.728C187.075 187.812 187.012 187.911 186.971 188.02C186.929 188.128 186.909 188.244 186.912 188.36Z" fill="#263238"/>
<path d="M187.832 185.088L189.68 186.112C189.811 185.858 189.839 185.564 189.759 185.29C189.678 185.016 189.495 184.783 189.248 184.64C189.126 184.574 188.992 184.533 188.854 184.52C188.716 184.507 188.577 184.522 188.445 184.563C188.313 184.605 188.19 184.673 188.085 184.763C187.98 184.854 187.894 184.964 187.832 185.088Z" fill="#263238"/>
<path d="M197.296 171.4L197.8 174.456C198.215 174.384 198.584 174.151 198.828 173.808C199.072 173.465 199.171 173.04 199.104 172.624C199.069 172.424 198.993 172.232 198.883 172.061C198.772 171.89 198.628 171.743 198.459 171.629C198.291 171.515 198.101 171.436 197.901 171.397C197.701 171.357 197.495 171.358 197.296 171.4Z" fill="#263238"/>
<path d="M200.992 172.912L198.16 174.144C198.335 174.524 198.651 174.82 199.041 174.969C199.431 175.119 199.865 175.11 200.248 174.944C200.433 174.862 200.599 174.744 200.737 174.597C200.875 174.449 200.982 174.276 201.051 174.086C201.121 173.896 201.151 173.695 201.141 173.493C201.131 173.291 201.08 173.094 200.992 172.912Z" fill="#263238"/>
<path d="M187.504 193.704L185.528 194.448C185.57 194.581 185.639 194.705 185.73 194.811C185.822 194.917 185.934 195.003 186.059 195.064C186.185 195.126 186.322 195.161 186.462 195.168C186.601 195.175 186.741 195.153 186.872 195.104C187.137 194.997 187.351 194.791 187.469 194.531C187.586 194.27 187.599 193.974 187.504 193.704Z" fill="#F28F8F"/>
<path d="M179.2 185.816L180.888 184.512C180.808 184.398 180.706 184.302 180.587 184.229C180.469 184.156 180.337 184.107 180.2 184.086C180.062 184.066 179.922 184.073 179.787 184.107C179.653 184.142 179.526 184.203 179.416 184.288C179.191 184.467 179.043 184.725 179.003 185.009C178.963 185.293 179.033 185.582 179.2 185.816Z" fill="#263238"/>
<path d="M179.72 188.112C179.728 188.281 179.785 188.444 179.885 188.581C179.984 188.717 180.122 188.822 180.28 188.881C180.439 188.94 180.611 188.952 180.776 188.914C180.941 188.877 181.091 188.791 181.208 188.669C181.325 188.547 181.403 188.393 181.433 188.226C181.464 188.06 181.444 187.888 181.378 187.733C181.311 187.577 181.201 187.445 181.06 187.351C180.919 187.258 180.753 187.208 180.584 187.208C180.35 187.214 180.128 187.313 179.966 187.482C179.804 187.651 179.716 187.878 179.72 188.112Z" fill="#263238"/>
<path d="M183.32 187.72L184.024 192.88L181.176 192.48L183.32 187.72Z" fill="#F28F8F"/>
<path d="M180.888 177.736C180.888 177.736 184.8 186.112 196.456 184.936C196.456 184.936 197.8 179.096 193.2 176.84C188.6 174.584 183.096 174.456 180.888 177.736Z" fill="#263238"/>
<path d="M192.928 183.888C194.296 184.064 194.696 186.152 194.36 187.888C194.024 189.624 195.672 189.768 196.96 187.888C197.789 186.448 198.258 184.829 198.328 183.168L192.928 183.888Z" fill="#263238"/>
<path d="M177.688 249.008C177.688 249.008 184.792 244.208 186.864 243.256C186.864 243.256 182.864 242.456 180.928 239.832C181.253 241.074 181.825 242.239 182.608 243.256L165.88 254.56L177.688 249.008Z" fill="#0EA5C6"/>
<path opacity="0.4" d="M177.688 249.008C177.688 249.008 184.792 244.208 186.864 243.256C186.864 243.256 182.864 242.456 180.928 239.832C181.253 241.074 181.825 242.239 182.608 243.256L165.88 254.56L177.688 249.008Z" fill="black"/>
<path d="M342.592 177.352L293.504 149.016C292.24 148.288 291.216 148.872 291.216 150.336V219.4C291.254 220.2 291.481 220.98 291.879 221.675C292.276 222.371 292.834 222.962 293.504 223.4L342.592 251.736C343.856 252.464 344.88 251.872 344.88 250.416V181.312C344.837 180.519 344.607 179.747 344.209 179.059C343.812 178.37 343.258 177.786 342.592 177.352Z" fill="#E0E0E0"/>
<path d="M279.2 206.84L294.792 215.848V203.456L279.536 205.216C278.088 205.384 277.936 206.112 279.2 206.84Z" fill="#E0E0E0"/>
<path d="M300.28 163.248L335.816 183.768C336.365 184.112 336.824 184.581 337.155 185.138C337.487 185.694 337.68 186.322 337.72 186.968C337.72 188.104 336.872 188.568 335.816 187.928L300.28 167.416C299.732 167.072 299.274 166.602 298.943 166.045C298.612 165.489 298.418 164.862 298.376 164.216C298.4 163.072 299.2 162.64 300.28 163.248Z" fill="#F0F0F0"/>
<path d="M300.264 175.632L335.8 196.152C336.35 196.496 336.81 196.965 337.142 197.521C337.474 198.078 337.67 198.705 337.712 199.352C337.712 200.488 336.856 200.952 335.8 200.312L300.264 179.8C299.717 179.454 299.26 178.984 298.929 178.428C298.598 177.872 298.403 177.246 298.36 176.6C298.4 175.456 299.2 175.024 300.264 175.632Z" fill="#F0F0F0"/>
<path d="M300.28 188L335.816 208.52C336.36 208.86 336.816 209.323 337.147 209.872C337.477 210.421 337.674 211.041 337.72 211.68C337.72 212.824 336.872 213.28 335.816 212.648L300.28 192.16C299.737 191.82 299.281 191.357 298.95 190.808C298.619 190.259 298.422 189.64 298.376 189C298.4 187.856 299.2 187.424 300.28 188Z" fill="#F0F0F0"/>
<path d="M300.28 200.424L335.816 220.936C336.364 221.281 336.823 221.75 337.154 222.307C337.485 222.863 337.679 223.49 337.72 224.136C337.72 225.28 336.872 225.736 335.816 225.104L300.28 204.584C299.731 204.241 299.272 203.771 298.941 203.214C298.61 202.658 298.416 202.03 298.376 201.384C298.4 200.248 299.2 199.816 300.28 200.424Z" fill="#F0F0F0"/>
<path d="M300.28 212.8L335.816 233.32C336.365 233.664 336.824 234.133 337.155 234.69C337.487 235.246 337.68 235.874 337.72 236.52C337.72 237.656 336.872 238.12 335.816 237.48L300.28 216.968C299.732 216.624 299.274 216.154 298.943 215.597C298.612 215.041 298.418 214.414 298.376 213.768C298.4 212.64 299.2 212.208 300.28 212.8Z" fill="#F0F0F0"/>
<path d="M294.792 94.568V126.456C294.832 127.256 295.06 128.035 295.457 128.73C295.855 129.425 296.411 130.016 297.08 130.456L335.432 152.592C336.696 153.328 337.72 152.736 337.72 151.272V119.352C337.682 118.552 337.455 117.772 337.057 117.077C336.66 116.381 336.103 115.79 335.432 115.352L297.08 93.216C295.824 92.52 294.792 93.104 294.792 94.568Z" fill="#F0F0F0"/>
<path d="M283.496 108.8L298.4 110.52V122.912L282.848 110.4C282.678 110.288 282.552 110.121 282.491 109.927C282.43 109.732 282.439 109.523 282.516 109.334C282.592 109.145 282.731 108.989 282.91 108.892C283.089 108.794 283.296 108.762 283.496 108.8Z" fill="#F0F0F0"/>
<path d="M337.72 110.512C339.283 111.53 340.584 112.903 341.516 114.518C342.449 116.133 342.988 117.946 343.088 119.808C343.088 123.232 340.688 124.608 337.72 122.904C336.157 121.884 334.856 120.511 333.924 118.894C332.991 117.277 332.453 115.464 332.352 113.6C332.352 110.192 334.76 108.8 337.72 110.512Z" fill="#0EA5C6"/>
<path opacity="0.7" d="M337.72 110.512C339.283 111.53 340.584 112.903 341.516 114.518C342.449 116.133 342.988 117.946 343.088 119.808C343.088 123.232 340.688 124.608 337.72 122.904C336.157 121.884 334.856 120.511 333.924 118.894C332.991 117.277 332.453 115.464 332.352 113.6C332.352 110.192 334.76 108.8 337.72 110.512Z" fill="white"/>
<path d="M303.856 103.656L328.656 117.976C329.204 118.321 329.662 118.791 329.993 119.347C330.324 119.903 330.518 120.53 330.56 121.176C330.56 122.312 329.704 122.776 328.656 122.136L303.856 107.816C303.309 107.471 302.85 107.001 302.52 106.445C302.189 105.889 301.994 105.262 301.952 104.616C301.952 103.48 302.808 103.048 303.856 103.656Z" fill="#E6E6E6"/>
<path d="M303.856 113.68L328.656 128C329.204 128.345 329.662 128.815 329.993 129.371C330.324 129.927 330.518 130.554 330.56 131.2C330.56 132.336 329.704 132.8 328.656 132.16L303.856 117.84C303.309 117.495 302.85 117.025 302.52 116.469C302.189 115.913 301.994 115.286 301.952 114.64C301.952 113.504 302.808 113.072 303.856 113.68Z" fill="#E6E6E6"/>
<path d="M303.856 123.704L328.656 138.024C329.204 138.369 329.662 138.839 329.993 139.395C330.324 139.951 330.518 140.578 330.56 141.224C330.56 142.36 329.704 142.824 328.656 142.184L303.856 127.864C303.309 127.519 302.85 127.049 302.52 126.493C302.189 125.937 301.994 125.31 301.952 124.664C301.952 123.528 302.808 123.096 303.856 123.704Z" fill="#E6E6E6"/>
<path d="M142.264 136L93.1842 107.664C91.9202 106.936 90.8962 107.528 90.8962 108.984V178.08C90.9334 178.88 91.1602 179.66 91.558 180.356C91.9558 181.051 92.5132 181.642 93.1842 182.08L142.264 210.4C143.528 211.128 144.552 210.536 144.552 209.08V140C144.515 139.2 144.288 138.42 143.89 137.724C143.493 137.029 142.935 136.438 142.264 136Z" fill="#E0E0E0"/>
<path d="M99.9521 121.936L135.488 142.448C136.038 142.792 136.498 143.261 136.83 143.817C137.162 144.374 137.358 145.001 137.4 145.648C137.4 146.792 136.544 147.248 135.488 146.616L99.9521 126.096C99.4045 125.751 98.9464 125.281 98.6154 124.725C98.2845 124.169 98.0901 123.542 98.0481 122.896C98.0481 121.76 98.9041 121.328 99.9521 121.936Z" fill="#F0F0F0"/>
<path d="M99.944 134.32L135.48 154.832C136.028 155.177 136.486 155.647 136.817 156.203C137.148 156.759 137.342 157.386 137.384 158.032C137.384 159.176 136.528 159.632 135.48 158.992L99.944 138.48C99.3951 138.137 98.936 137.667 98.6048 137.11C98.2737 136.554 98.0801 135.926 98.04 135.28C98.04 134.144 98.888 133.712 99.944 134.32Z" fill="#F0F0F0"/>
<path d="M99.9521 146.712L135.488 167.2C136.038 167.544 136.498 168.013 136.83 168.57C137.162 169.126 137.358 169.753 137.4 170.4C137.4 171.536 136.544 172 135.488 171.36L99.9521 150.848C99.4054 150.502 98.948 150.032 98.6171 149.476C98.2863 148.92 98.0913 148.294 98.0481 147.648C98.0481 146.536 98.9041 146.104 99.9521 146.712Z" fill="#F0F0F0"/>
<path d="M99.9521 159.104L135.488 179.624C136.033 179.963 136.49 180.426 136.822 180.975C137.154 181.524 137.352 182.144 137.4 182.784C137.4 183.928 136.544 184.384 135.488 183.752L99.9521 163.2C99.4097 162.859 98.9549 162.395 98.6242 161.846C98.2935 161.298 98.0962 160.679 98.0481 160.04C98.0481 158.928 98.9041 158.496 99.9521 159.104Z" fill="#F0F0F0"/>
<path d="M99.9521 171.504L135.488 192C136.038 192.344 136.498 192.813 136.83 193.37C137.162 193.926 137.358 194.553 137.4 195.2C137.4 196.336 136.544 196.8 135.488 196.16L99.9521 175.648C99.4045 175.303 98.9464 174.833 98.6154 174.277C98.2845 173.721 98.0901 173.094 98.0481 172.448C98.0481 171.328 98.9041 170.896 99.9521 171.504Z" fill="#F0F0F0"/>
<path d="M140.976 201.384L154.936 209.44C155.111 209.537 155.314 209.572 155.511 209.537C155.708 209.503 155.888 209.402 156.019 209.251C156.15 209.1 156.226 208.908 156.232 208.708C156.239 208.508 156.177 208.312 156.056 208.152L140.976 188.992V201.384Z" fill="#E0E0E0"/>
<path d="M55.1201 199.904V231.792C55.1579 232.592 55.385 233.372 55.7828 234.067C56.1805 234.763 56.7375 235.354 57.4081 235.792L95.7601 257.928C97.0241 258.656 98.0481 258.072 98.0481 256.608V224.688C98.0103 223.888 97.7832 223.108 97.3855 222.413C96.9877 221.717 96.4307 221.126 95.7601 220.688L57.4081 198.584C56.1441 197.848 55.1201 198.44 55.1201 199.904Z" fill="#F0F0F0"/>
<path d="M109.816 248.312L94.4722 232.368V244.8L108.872 249.8C109.068 249.892 109.291 249.91 109.498 249.85C109.706 249.789 109.885 249.655 110.001 249.472C110.117 249.29 110.162 249.071 110.128 248.857C110.094 248.644 109.983 248.45 109.816 248.312Z" fill="#F0F0F0"/>
<path d="M98.0482 215.848C99.6111 216.866 100.912 218.238 101.845 219.854C102.777 221.469 103.316 223.282 103.416 225.144C103.416 228.56 101.016 229.944 98.0482 228.24C96.4861 227.221 95.1861 225.849 94.2535 224.233C93.3209 222.618 92.7819 220.806 92.6802 218.944C92.6802 215.52 95.0882 214.136 98.0482 215.848Z" fill="#0EA5C6"/>
<path opacity="0.7" d="M98.0482 215.848C99.6111 216.866 100.912 218.238 101.845 219.854C102.777 221.469 103.316 223.282 103.416 225.144C103.416 228.56 101.016 229.944 98.0482 228.24C96.4861 227.221 95.1861 225.849 94.2535 224.233C93.3209 222.618 92.7819 220.806 92.6802 218.944C92.6802 215.52 95.0882 214.136 98.0482 215.848Z" fill="white"/>
<path d="M64.1842 208.992L88.9842 223.312C89.5319 223.657 89.9899 224.127 90.3209 224.683C90.6518 225.24 90.8463 225.866 90.8882 226.512C90.8882 227.648 90.0322 228.112 88.9762 227.472L64.1762 213.152C63.6273 212.809 63.1682 212.339 62.837 211.783C62.5059 211.226 62.3123 210.599 62.2722 209.952C62.2802 208.8 63.1282 208.384 64.1842 208.992Z" fill="#E6E6E6"/>
<path d="M64.1842 219.016L88.9842 233.336C89.5319 233.681 89.9899 234.151 90.3209 234.707C90.6518 235.263 90.8463 235.89 90.8882 236.536C90.8882 237.672 90.0322 238.136 88.9762 237.496L64.1762 223.176C63.6273 222.832 63.1682 222.363 62.837 221.806C62.5059 221.25 62.3123 220.622 62.2722 219.976C62.2802 218.84 63.1282 218.4 64.1842 219.016Z" fill="#E6E6E6"/>
<path d="M64.1842 229.04L88.9842 243.36C89.5319 243.705 89.9899 244.175 90.3209 244.731C90.6518 245.287 90.8463 245.914 90.8882 246.56C90.8882 247.696 90.0322 248.16 88.9762 247.52L64.1762 233.2C63.6273 232.856 63.1682 232.387 62.837 231.83C62.5059 231.274 62.3123 230.646 62.2722 230C62.2802 228.864 63.1282 228.432 64.1842 229.04Z" fill="#E6E6E6"/>
<path d="M83.7361 51.2001V83.088C83.7733 83.8884 84.0001 84.6684 84.3979 85.3639C84.7957 86.0593 85.3531 86.6503 86.0241 87.088L124.376 109.232C125.64 109.96 126.664 109.368 126.664 107.904V76C126.627 75.1997 126.4 74.4197 126.002 73.7242C125.604 73.0288 125.047 72.4378 124.376 72L86.0241 49.88C84.8001 49.152 83.7361 49.7441 83.7361 51.2001Z" fill="#F0F0F0"/>
<path d="M138.4 99.6161L123.056 83.6641V96.0561L137.456 101.056C137.644 101.129 137.852 101.136 138.044 101.074C138.236 101.013 138.401 100.887 138.512 100.719C138.622 100.55 138.672 100.348 138.651 100.148C138.631 99.9468 138.542 99.7592 138.4 99.6161Z" fill="#F0F0F0"/>
<path d="M126.664 67.144C128.221 68.1656 129.516 69.5395 130.443 71.1546C131.37 72.7696 131.903 74.5803 132 76.44C132 79.864 129.6 81.24 126.632 79.536C125.07 78.5171 123.77 77.1444 122.838 75.5294C121.905 73.9143 121.366 72.1022 121.264 70.24C121.296 66.824 123.704 65.432 126.664 67.144Z" fill="#0EA5C6"/>
<path opacity="0.7" d="M126.664 67.144C128.221 68.1656 129.516 69.5395 130.443 71.1546C131.37 72.7696 131.903 74.5803 132 76.44C132 79.864 129.6 81.24 126.632 79.536C125.07 78.5171 123.77 77.1444 122.838 75.5294C121.905 73.9143 121.366 72.1022 121.264 70.24C121.296 66.824 123.704 65.432 126.664 67.144Z" fill="white"/>
<path d="M92.8002 60.2881L117.6 74.6081C118.148 74.9531 118.606 75.423 118.937 75.9792C119.268 76.5354 119.462 77.1622 119.504 77.8081C119.504 78.9441 118.648 79.4081 117.6 78.7681L92.8002 64.4481C92.2513 64.1045 91.7922 63.635 91.461 63.0785C91.1299 62.5219 90.9363 61.8944 90.8962 61.2481C90.8962 60.1121 91.7442 59.6801 92.8002 60.2881Z" fill="#E6E6E6"/>
<path d="M92.8002 70.312L117.6 84.632C118.148 84.977 118.606 85.4469 118.937 86.0031C119.268 86.5594 119.462 87.1861 119.504 87.832C119.504 88.968 118.648 89.432 117.6 88.792L92.8002 74.472C92.2513 74.1285 91.7922 73.6589 91.461 73.1024C91.1299 72.5459 90.9363 71.9184 90.8962 71.272C90.8962 70.136 91.7442 69.704 92.8002 70.312Z" fill="#E6E6E6"/>
<path d="M92.8002 80.3359L117.6 94.6559C118.148 95.001 118.606 95.4708 118.937 96.0271C119.268 96.5833 119.462 97.2101 119.504 97.8559C119.504 98.9919 118.648 99.4559 117.6 98.8159L92.8002 84.4959C92.2513 84.1524 91.7922 83.6829 91.461 83.1263C91.1299 82.5698 90.9363 81.9423 90.8962 81.2959C90.8962 80.1599 91.7442 79.7279 92.8002 80.3359Z" fill="#E6E6E6"/>
</svg>
