<svg width="51" height="50" viewBox="0 0 51 50" fill="none" xmlns="http://www.w3.org/2000/svg">
<path fill-rule="evenodd" clip-rule="evenodd" d="M30.8147 43.3792C31.0202 43.2487 31.2445 43.1498 31.4778 43.08C40.5499 40.3659 47.1621 31.9551 47.1621 22C47.1621 9.84974 37.3124 0 25.1621 0C13.0118 0 3.16211 9.84974 3.16211 22C3.16211 30.6556 8.1607 38.1437 15.4287 41.7352C15.4369 41.7392 15.4335 41.7517 15.4244 41.751C15.4185 41.7505 15.414 41.7561 15.4158 41.7617L17.4332 48.1502C17.9276 49.7156 19.7707 50.3878 21.1567 49.5082L30.8147 43.3792Z" fill="#99004D"/>
<path d="M32.2155 17.4273C32.811 16.8318 32.811 15.8665 32.2155 15.2711L31.891 14.9466C31.2956 14.3511 30.3303 14.3511 29.7348 14.9466L25.1621 19.5193L20.5894 14.9466C19.994 14.3511 19.0286 14.3511 18.4332 14.9466L18.1087 15.2711C17.5133 15.8665 17.5133 16.8318 18.1087 17.4273L22.6814 22L18.1087 26.5727C17.5133 27.1682 17.5133 28.1335 18.1087 28.7289L18.4332 29.0534C19.0286 29.6489 19.994 29.6489 20.5894 29.0534L25.1621 24.4807L29.7348 29.0534C30.3303 29.6489 31.2956 29.6489 31.891 29.0534L32.2155 28.7289C32.811 28.1335 32.811 27.1682 32.2155 26.5727L27.6428 22L32.2155 17.4273Z" fill="white"/>
</svg>
