<svg width="25" height="25" viewBox="0 0 25 25" fill="none" xmlns="http://www.w3.org/2000/svg">
<path d="M2.08333 6.25016H0V11.4585H0.0104167L0 20.8335C0 21.9793 0.9375 22.9168 2.08333 22.9168H20.8333V20.8335H2.08333V6.25016ZM7.29167 15.6252H21.875L18.2292 10.9377L15.625 14.0731L11.9792 9.37516L7.29167 15.6252ZM22.9167 4.16683H14.5833L12.5 2.0835H6.25C5.10417 2.0835 4.17708 3.021 4.17708 4.16683L4.16667 16.6668C4.16667 17.8127 5.10417 18.7502 6.25 18.7502H22.9167C24.0625 18.7502 25 17.8127 25 16.6668V6.25016C25 5.10433 24.0625 4.16683 22.9167 4.16683ZM22.9167 16.6668H6.25V4.16683H11.6354L13.1042 5.63558L13.7188 6.25016H22.9167V16.6668Z" fill="white"/>
</svg>
