<svg width="451" height="452" viewBox="0 0 451 452" fill="none" xmlns="http://www.w3.org/2000/svg">
<path d="M225.629 451.653C349.892 451.653 450.628 389.718 450.628 313.318C450.628 236.917 349.892 174.982 225.629 174.982C101.365 174.982 0.628906 236.917 0.628906 313.318C0.628906 389.718 101.365 451.653 225.629 451.653Z" fill="#F5F5F5"/>
<path d="M373.983 381.156C409.236 381.156 437.814 363.586 437.814 341.911C437.814 320.237 409.236 302.666 373.983 302.666C338.73 302.666 310.152 320.237 310.152 341.911C310.152 363.586 338.73 381.156 373.983 381.156Z" fill="#E0E0E0"/>
<path d="M212.441 363.082L140.435 318.796L222.74 268.197L294.757 312.473L212.441 363.082Z" fill="#E0E0E0"/>
<path d="M16.3691 349.384L109.242 406.48L187.139 358.6L94.2665 301.504L16.3691 349.384Z" fill="#E0E0E0"/>
<path d="M153.698 81.0146V75.3936C153.659 75.0688 153.541 74.7604 153.357 74.4982C153.173 74.236 152.928 74.0288 152.647 73.8967L120.774 54.4269C120.015 54.0203 119.176 53.8086 118.326 53.8086C117.476 53.8086 116.638 54.0203 115.878 54.4269L24.2775 110.433C23.9961 110.565 23.7514 110.772 23.5671 111.035C23.3829 111.297 23.2652 111.605 23.2256 111.93V117.551C23.2643 117.876 23.3816 118.185 23.566 118.447C23.7504 118.71 23.9955 118.917 24.2775 119.048L56.1402 138.487C56.8998 138.894 57.7381 139.105 58.5883 139.105C59.4384 139.105 60.2767 138.894 61.0363 138.487L152.637 82.4809C152.919 82.3496 153.164 82.1427 153.348 81.8803C153.533 81.6179 153.65 81.3091 153.689 80.984L153.698 81.0146Z" fill="#F0F0F0"/>
<path d="M24.2779 113.396L56.1406 132.866C56.8988 133.277 57.7377 133.492 58.5886 133.492C59.4396 133.492 60.2785 133.277 61.0367 132.866L152.637 76.8599C153.986 76.0351 153.986 74.7012 152.637 73.8662L120.775 54.4269C120.015 54.0203 119.177 53.8086 118.327 53.8086C117.476 53.8086 116.638 54.0203 115.879 54.4269L24.2779 110.433C22.9295 111.238 22.9295 112.572 24.2779 113.396Z" fill="#FAFAFA"/>
<path d="M58.5883 133.496V139.106C57.7364 139.12 56.8949 138.906 56.1402 138.485L24.2775 119.066C23.9955 118.935 23.7504 118.728 23.566 118.466C23.3816 118.203 23.2643 117.895 23.2256 117.57V111.938C23.2443 111.711 23.3131 111.491 23.4264 111.297C23.0535 112.02 23.3308 112.855 24.2775 113.435L56.1402 132.875C56.8929 133.301 57.7358 133.515 58.5883 133.496Z" fill="#E0E0E0"/>
<path d="M75.7051 86.0039L102.7 102.388L147.291 75.1387L120.305 58.7441L75.7051 86.0039Z" fill="#E0E0E0"/>
<path d="M103.007 101.146L76.9677 85.2302C77.6443 82.8793 77.594 80.3592 76.8242 78.041L102.701 93.7838C102.701 93.7838 103.198 95.5251 103.007 101.146Z" fill="white"/>
<path d="M101.371 91.5737C102.098 92.0738 102.703 92.7494 103.139 93.5456C103.574 94.3418 103.827 95.2362 103.876 96.1561V101.512C103.876 103.203 102.748 103.885 101.371 103.05L75.7432 87.3275V86.0037L101.065 101.38C101.897 101.889 102.566 101.472 102.566 100.463V95.4942C102.538 94.9423 102.387 94.4054 102.126 93.9276C101.865 93.4497 101.501 93.0444 101.065 92.7448L75.7432 77.3176V75.8105L101.371 91.5737Z" fill="#EBEBEB"/>
<path d="M75.7432 75.8613L120.305 48.6016L145.962 64.2833C146.69 64.7837 147.297 65.4608 147.733 66.259C148.168 67.0573 148.42 67.954 148.467 68.8758V74.2626C148.501 74.592 148.451 74.925 148.321 75.2262C148.191 75.5275 147.987 75.7857 147.731 75.9733L103.14 103.233C103.392 103.041 103.592 102.782 103.719 102.482C103.847 102.181 103.898 101.85 103.867 101.522V96.1559C103.82 95.2353 103.569 94.3396 103.133 93.5429C102.698 92.7462 102.09 92.0711 101.362 91.5736L75.7432 75.8613Z" fill="#FAFAFA"/>
<path d="M103.141 93.5191C103.595 94.3048 103.849 95.2035 103.877 96.1259V101.492C103.908 101.82 103.857 102.151 103.729 102.452C103.602 102.752 103.402 103.011 103.15 103.203L147.741 75.9433C147.997 75.7557 148.201 75.4975 148.331 75.1963C148.461 74.895 148.511 74.562 148.477 74.2326V68.8764C148.449 67.9539 148.195 67.0553 147.741 66.2695L103.141 93.5191Z" fill="#F0F0F0"/>
<path d="M48.2601 45.2207L48.002 48.8458L78.1434 66.0652L78.8224 63.9471L48.2601 45.2207Z" fill="#EBEBEB"/>
<path d="M78.421 64.7919L49.2262 46.8496L44.1484 49.9656L73.917 68.5087L78.421 64.7919Z" fill="white"/>
<path d="M68.4372 66.584L65.5684 102.611C65.5825 103.018 65.688 103.415 65.876 103.77C66.064 104.124 66.3291 104.425 66.6489 104.648L83.5844 115.085C83.8546 115.244 84.1557 115.335 84.4642 115.35L73.9452 69.7203C73.6384 69.7024 73.3386 69.6157 73.0655 69.4658L71.851 68.7122L68.4372 66.584Z" fill="#E0E0E0"/>
<path d="M75.2077 69.4258L78.2295 66.6662L80.4385 64.6296C80.668 64.2427 80.9358 63.9575 80.7923 63.6113L91.1774 108.905C91.3208 109.221 91.3591 109.923 90.9479 110.188L85.7171 114.954C85.3212 115.177 84.8716 115.269 84.4261 115.218L73.9072 69.5887C74.3464 69.6695 74.7982 69.6129 75.2077 69.4258Z" fill="#F0F0F0"/>
<path d="M80.4486 63.315C81.0415 63.6816 80.8981 64.0889 80.4486 64.6388L75.2083 69.4146C74.8748 69.6001 74.504 69.6971 74.1277 69.6971C73.7514 69.6971 73.3807 69.6001 73.0471 69.4146L68.4379 66.5837C67.8355 66.2171 67.7303 65.6876 68.1989 65.4025C68.5068 65.2695 68.8392 65.2132 69.1706 65.2379C69.5021 65.2626 69.8239 65.3677 70.1114 65.545L73.7452 67.7853C73.8564 67.8452 73.9792 67.8765 74.1038 67.8765C74.2284 67.8765 74.3513 67.8452 74.4624 67.7853L78.2875 64.2416C78.4883 64.1194 78.4883 63.926 78.2875 63.8038L48.2607 45.2199L49.6951 44.334L80.4486 63.315Z" fill="#FAFAFA"/>
<path d="M39.5586 46.9629L68.2752 64.6201V122.805L39.5586 105.138V46.9629Z" fill="#EBEBEB"/>
<path d="M67.3475 65.5867L39.5584 48.6016C37.8588 50.5204 35.633 51.8177 33.1992 52.3082L60.7588 69.222C60.7588 69.222 62.5374 68.774 67.3475 65.5867Z" fill="white"/>
<path d="M58.0913 69.1718C58.9195 69.6135 59.833 69.8435 60.7593 69.8435C61.6856 69.8435 62.5991 69.6135 63.4273 69.1718L68.0939 66.2595C69.5665 65.3532 69.5665 63.897 68.0939 62.9908L40.716 46.25L39.5589 46.9628L66.4969 63.5305C66.6955 63.5921 66.87 63.7208 66.9942 63.897C67.1183 64.0733 67.1854 64.2877 67.1854 64.508C67.1854 64.7283 67.1183 64.9427 66.9942 65.119C66.87 65.2952 66.6955 65.4239 66.4969 65.4856L62.1459 68.1535C61.6489 68.4195 61.1004 68.558 60.5442 68.558C59.9879 68.558 59.4394 68.4195 58.9424 68.1535L32.014 51.5757L30.6943 52.3801L58.0913 69.1718Z" fill="#FAFAFA"/>
<path d="M30.7031 52.3789V110.554L58.0906 127.295C58.9188 127.737 59.8323 127.967 60.7585 127.967C61.6848 127.967 62.5983 127.737 63.4265 127.295L68.1122 124.433C68.4168 124.29 68.6796 124.063 68.8731 123.774C69.0666 123.486 69.1836 123.147 69.2119 122.794V64.6188C69.1822 64.9731 69.0624 65.312 68.8652 65.5991C68.6681 65.8862 68.4011 66.1105 68.0931 66.2481L63.4265 69.1706C62.5983 69.6123 61.6848 69.8423 60.7585 69.8423C59.8323 69.8423 58.9188 69.6123 58.0906 69.1706L30.7031 52.3789Z" fill="#EBEBEB"/>
<path d="M60.7594 69.7921C61.6877 69.8115 62.6056 69.5803 63.4273 69.12L68.0939 66.2484C68.3984 66.108 68.6614 65.8823 68.855 65.5955C69.0486 65.3086 69.1657 64.9712 69.1936 64.6191V122.794C69.1653 123.147 69.0483 123.486 68.8548 123.775C68.6613 124.063 68.3985 124.291 68.0939 124.434L63.4082 127.295C62.5864 127.755 61.6686 127.987 60.7402 127.967L60.7594 69.7921Z" fill="#F0F0F0"/>
<path d="M291.448 280.977C291.305 278.4 290.979 275.315 290.587 271.731C289.124 258.126 287.126 239.491 292.423 221.641C295.646 210.775 303.411 197.894 315.536 194.32C318.233 193.526 324.755 192.355 327.26 198.515C327.612 199.405 327.822 200.352 327.882 201.316C328.14 205.226 326.486 208.678 324.65 211.824C322.536 215.48 320.088 218.952 317.717 222.333C315.479 225.531 313.155 228.83 311.128 232.251C308.938 235.969 307.02 239.86 305.39 243.89L304.616 243.534C306.243 239.463 308.161 235.531 310.353 231.773C312.39 228.321 314.723 225.001 316.98 221.793C319.333 218.433 321.762 214.971 323.865 211.356C325.625 208.301 327.212 205.032 326.973 201.377C326.921 200.514 326.734 199.668 326.419 198.872C324.181 193.363 318.176 194.462 315.699 195.185C303.899 198.668 296.315 211.274 293.16 221.905C287.919 239.583 289.908 258.106 291.362 271.629C291.744 275.223 292.079 278.329 292.223 280.926L291.448 280.977Z" fill="#0EA5C6"/>
<path d="M292.309 295.782C292.246 295.791 292.181 295.791 292.118 295.782C291.934 295.744 291.762 295.66 291.614 295.538C291.466 295.416 291.347 295.259 291.267 295.079C291.1 294.575 291.1 294.025 291.267 293.521C291.402 292.545 291.402 291.554 291.267 290.578C291.267 290.028 291.181 289.448 291.181 288.928V282.605C291.944 271.246 295.07 260.209 300.332 250.294C304.999 241.649 310.163 235.896 316.589 232.169C320.053 230.142 323.852 228.845 327.777 228.35C331.242 227.943 334.726 228.923 337.55 231.1C340.467 233.554 341.777 237.759 340.677 241.089C339.902 243.421 338.133 245.162 336.326 246.741C333.103 249.541 329.584 252.046 326.19 254.469C323.369 256.506 320.452 258.543 317.727 260.783C309.389 267.636 302.394 276.164 297.138 285.884C296.278 287.462 295.465 289.091 294.719 290.721L294.413 291.362C294.115 291.944 293.853 292.546 293.629 293.165C293.581 293.297 293.533 293.572 293.466 293.888C293.418 294.468 293.244 295.029 292.959 295.527C292.78 295.695 292.548 295.786 292.309 295.782ZM329.154 229.195C328.724 229.195 328.293 229.195 327.854 229.256C324.044 229.73 320.357 230.989 317 232.963C310.727 236.598 305.668 242.25 301.078 250.742C295.887 260.534 292.8 271.43 292.041 282.646V288.908C292.041 289.397 292.041 289.926 292.127 290.486C292.281 291.553 292.281 292.638 292.127 293.704C292.025 294.035 292.025 294.392 292.127 294.723C292.152 294.774 292.187 294.819 292.23 294.854C292.273 294.89 292.323 294.914 292.376 294.926C292.547 294.55 292.663 294.148 292.72 293.735C292.766 293.452 292.83 293.173 292.912 292.9C293.145 292.246 293.42 291.61 293.734 290.996L294.03 290.364C294.795 288.715 295.618 287.075 296.478 285.476C298.266 282.182 300.25 279.012 302.417 275.986C306.701 270.025 311.7 264.688 317.287 260.111C320.041 257.871 322.967 255.783 325.798 253.767C329.183 251.353 332.673 248.859 335.877 246.089C337.579 244.612 339.252 242.952 339.96 240.834C340.916 237.851 339.74 234.073 337.091 231.843C334.804 230.027 332.005 229.094 329.154 229.195Z" fill="#0EA5C6"/>
<path d="M291.592 287.086H291.487C291.433 287.073 291.382 287.048 291.337 287.014C291.293 286.979 291.255 286.935 291.226 286.885C291.198 286.835 291.179 286.779 291.171 286.72C291.163 286.662 291.167 286.603 291.181 286.546C299.07 253.044 320.882 238.096 332.53 234.542C332.636 234.51 332.75 234.525 332.847 234.582C332.943 234.639 333.015 234.734 333.046 234.847C333.076 234.962 333.063 235.085 333.009 235.189C332.956 235.294 332.866 235.372 332.759 235.407C321.284 238.9 299.797 253.655 292.003 286.76C291.977 286.854 291.922 286.936 291.848 286.995C291.774 287.054 291.684 287.086 291.592 287.086Z" fill="#0EA5C6"/>
<path d="M291.544 259.591C291.431 259.581 291.327 259.524 291.254 259.432C291.18 259.341 291.144 259.222 291.151 259.102C293.666 222.922 315.89 203.096 318.415 200.968C318.457 200.93 318.507 200.901 318.56 200.884C318.614 200.867 318.67 200.861 318.725 200.868C318.781 200.875 318.834 200.893 318.883 200.923C318.931 200.952 318.974 200.992 319.007 201.039C319.042 201.085 319.068 201.138 319.083 201.195C319.099 201.252 319.103 201.311 319.097 201.37C319.091 201.428 319.074 201.485 319.047 201.537C319.02 201.589 318.984 201.634 318.941 201.671C316.445 203.779 294.479 223.37 292.003 259.174C291.99 259.293 291.936 259.402 291.851 259.48C291.766 259.557 291.656 259.597 291.544 259.591Z" fill="#0EA5C6"/>
<path d="M288.895 133.414L235.717 100.737C235.306 100.423 234.824 100.23 234.32 100.178C233.817 100.126 233.309 100.217 232.849 100.442L229.024 102.794C228.603 103.106 228.269 103.532 228.055 104.028C227.841 104.524 227.756 105.072 227.809 105.615V260.61C227.887 262.12 228.298 263.589 229.01 264.898C229.721 266.207 230.712 267.32 231.902 268.145L285.07 300.781C285.481 301.097 285.962 301.292 286.466 301.346C286.97 301.399 287.478 301.31 287.939 301.087L291.764 298.724C292.18 298.411 292.509 297.985 292.719 297.492C292.93 296.998 293.012 296.453 292.959 295.914V140.95C292.885 139.442 292.479 137.974 291.773 136.665C291.067 135.356 290.081 134.242 288.895 133.414Z" fill="#263238"/>
<path d="M239.265 263.268L235.439 265.62V278.511C235.459 278.889 235.562 279.256 235.739 279.584C235.917 279.911 236.165 280.189 236.463 280.395L238.251 281.495C238.568 281.666 238.919 281.755 239.274 281.755C239.63 281.755 239.98 281.666 240.297 281.495L242.086 280.395C242.721 279.958 243.212 279.321 243.491 278.573L246.943 267.982L239.265 263.268Z" fill="#263238"/>
<path d="M235.439 278.513C235.459 278.89 235.562 279.258 235.739 279.585C235.917 279.912 236.165 280.19 236.463 280.397L238.251 281.496C238.374 281.576 238.513 281.625 238.657 281.639C238.801 281.653 238.946 281.633 239.081 281.579C239.216 281.525 239.338 281.439 239.438 281.328C239.538 281.217 239.612 281.083 239.657 280.936L243.09 270.336L235.439 265.621V278.513Z" fill="#37474F"/>
<path d="M277.631 286.781L273.806 289.144V302.025C273.823 302.403 273.924 302.772 274.1 303.101C274.276 303.43 274.523 303.71 274.819 303.919L276.617 305.019C276.933 305.19 277.282 305.279 277.636 305.279C277.989 305.279 278.338 305.19 278.654 305.019L280.452 303.919C281.087 303.482 281.578 302.845 281.857 302.096L285.3 291.496L277.631 286.781Z" fill="#263238"/>
<path d="M273.806 302.024C273.823 302.402 273.924 302.771 274.1 303.1C274.276 303.429 274.523 303.709 274.819 303.918L276.617 305.018C276.741 305.097 276.88 305.146 277.023 305.161C277.167 305.175 277.312 305.154 277.447 305.1C277.583 305.046 277.705 304.961 277.804 304.849C277.904 304.738 277.979 304.604 278.023 304.458L281.475 293.857L273.825 289.143L273.806 302.024Z" fill="#37474F"/>
<path d="M232.15 103.212L285.319 135.797C286.509 136.624 287.5 137.739 288.211 139.049C288.922 140.36 289.333 141.831 289.411 143.343V298.337C289.513 298.881 289.451 299.446 289.236 299.951C289.02 300.457 288.662 300.877 288.211 301.155C287.759 301.432 287.238 301.552 286.719 301.498C286.2 301.444 285.711 301.218 285.319 300.852L232.15 268.206C230.961 267.38 229.972 266.267 229.262 264.958C228.553 263.649 228.143 262.18 228.067 260.67V105.717C227.965 105.173 228.025 104.609 228.24 104.104C228.455 103.599 228.813 103.179 229.264 102.902C229.715 102.626 230.236 102.507 230.754 102.562C231.272 102.618 231.76 102.845 232.15 103.212Z" fill="#37474F"/>
<path d="M154.941 315.069L212.451 350.424L292.969 300.925L289.134 298.562L231.624 263.207L154.941 310.354V315.069Z" fill="#455A64"/>
<path d="M212.451 350.423V345.708L292.969 296.209V300.924L212.451 350.423Z" fill="#263238"/>
<path d="M212.815 343.56L212.231 343.142C222.435 326.697 222.368 298.287 221.536 291.158C221.469 290.68 221.421 290.385 221.412 290.273L222.11 290.15C222.11 290.374 222.186 290.639 222.224 290.955C222.97 295.995 227.187 323.377 232.179 331.687L231.586 332.094C227.637 325.567 224.261 307.95 222.569 297.788C222.674 309.325 221.096 330.292 212.815 343.56Z" fill="#FAFAFA"/>
<path d="M246.399 318.449C245.529 318.174 225.198 311.616 223.324 302.065L224.022 301.912C225.801 311.026 246.389 317.665 246.6 317.736L246.399 318.449Z" fill="#FAFAFA"/>
<path d="M225.878 314.58L225.361 312.248C225.291 311.82 225.086 311.43 224.78 311.141C224.475 310.853 224.086 310.683 223.678 310.659C223.342 310.607 222.998 310.666 222.694 310.828C222.389 310.99 222.139 311.247 221.976 311.566L221.316 311.27C221.538 310.805 221.889 310.423 222.323 310.179C222.756 309.935 223.25 309.839 223.736 309.906C224.088 309.93 224.431 310.033 224.742 310.208C225.054 310.384 225.327 310.628 225.543 310.924C225.658 309.959 226.121 309.079 226.834 308.47C227.104 308.32 227.407 308.246 227.712 308.257C228.017 308.268 228.314 308.362 228.574 308.531L228.259 309.203C228.099 309.094 227.916 309.03 227.727 309.018C227.538 309.005 227.349 309.045 227.178 309.132C226.365 309.621 226.05 311.505 226.002 312.187L225.878 314.58Z" fill="#FAFAFA"/>
<path d="M227.876 322.35L227.245 320.232C226.527 317.839 225.332 316.464 223.917 316.372C223.325 316.36 222.744 316.532 222.243 316.866C221.742 317.201 221.343 317.684 221.096 318.256L220.455 317.93C220.758 317.215 221.253 316.612 221.877 316.197C222.502 315.782 223.229 315.574 223.965 315.598C224.816 315.649 226.279 316.138 227.369 318.501C227.608 316.637 228.325 313.643 230.171 312.391C230.833 312.004 231.578 311.806 232.333 311.815C233.089 311.824 233.829 312.04 234.483 312.442L234.187 313.124C233.639 312.779 233.018 312.589 232.381 312.573C231.745 312.557 231.116 312.715 230.553 313.032C228.096 314.662 227.933 320.048 227.933 320.109L227.876 322.35Z" fill="#FAFAFA"/>
<path d="M219.241 327.523L218.609 327.176C220.025 324.274 223.133 322.187 225.829 322.329C226.401 322.336 226.965 322.48 227.478 322.75C227.991 323.019 228.44 323.408 228.794 323.887C229.053 322.422 229.589 321.028 230.368 319.789C231.147 318.55 232.153 317.492 233.326 316.678C234.585 315.787 236.038 315.257 237.546 315.137C239.053 315.018 240.564 315.313 241.933 315.996L241.655 316.678C240.394 316.056 239.005 315.788 237.619 315.898C236.234 316.009 234.898 316.494 233.737 317.309C232.497 318.165 231.462 319.318 230.715 320.676C229.968 322.034 229.529 323.559 229.434 325.13V327.054L228.765 325.262C228.543 324.625 228.144 324.075 227.621 323.686C227.099 323.296 226.477 323.086 225.839 323.083C223.362 322.95 220.541 324.865 219.241 327.523Z" fill="#FAFAFA"/>
<path d="M215.359 338.765L214.737 338.398C215.598 336.728 220.178 328.337 225.6 326.82C226.366 326.586 227.169 326.528 227.957 326.649C228.745 326.771 229.499 327.068 230.171 327.523L229.808 328.164C229.216 327.765 228.551 327.504 227.857 327.397C227.164 327.29 226.457 327.34 225.782 327.543C221.804 328.663 217.692 334.284 215.359 338.765Z" fill="#FAFAFA"/>
<path d="M285.299 249.062V253.777L212.451 298.561L154.941 263.206V258.492L227.79 213.707L285.299 249.062Z" fill="#263238"/>
<path d="M285.299 249.062L212.451 293.847L154.941 258.492L227.79 213.707L285.299 249.062Z" fill="#455A64"/>
<path d="M285.299 197.211V201.916L212.451 246.71L154.941 211.345V206.64L227.79 161.846L285.299 197.211Z" fill="#263238"/>
<path d="M285.299 197.211L212.451 241.996L154.941 206.64L227.79 161.846L285.299 197.211Z" fill="#455A64"/>
<path d="M212.203 180.501L159.035 147.865C158.624 147.549 158.143 147.354 157.639 147.3C157.135 147.247 156.627 147.336 156.166 147.559C155.477 147.977 153.029 149.494 152.341 149.911C151.922 150.224 151.589 150.651 151.378 151.147C151.166 151.643 151.082 152.19 151.136 152.732V307.686C151.214 309.196 151.625 310.665 152.336 311.975C153.048 313.284 154.038 314.396 155.229 315.221L208.397 347.868C208.807 348.184 209.289 348.379 209.793 348.432C210.297 348.486 210.805 348.397 211.266 348.173C211.954 347.746 214.422 346.239 215.091 345.801C215.512 345.491 215.847 345.067 216.062 344.573C216.278 344.079 216.365 343.532 216.315 342.99V188.047C216.236 186.533 215.823 185.06 215.108 183.749C214.394 182.438 213.398 181.325 212.203 180.501Z" fill="#263238"/>
<path opacity="0.2" d="M212.451 204.288L216.295 201.926V187.771L212.441 190.134L212.451 204.288Z" fill="black"/>
<path opacity="0.2" d="M289.143 157.141L292.988 154.789V140.635L289.134 142.997L289.143 157.141Z" fill="black"/>
<path d="M162.611 310.354L158.786 312.706V325.597C158.805 325.975 158.908 326.342 159.086 326.67C159.264 326.997 159.512 327.275 159.809 327.481L161.598 328.581C161.915 328.752 162.265 328.841 162.621 328.841C162.976 328.841 163.327 328.752 163.644 328.581L165.432 327.481C166.065 327.046 166.556 326.413 166.838 325.669L170.29 315.068L162.611 310.354Z" fill="#263238"/>
<path d="M158.776 325.599C158.796 325.976 158.898 326.344 159.076 326.671C159.254 326.998 159.502 327.276 159.8 327.482L161.588 328.582C161.711 328.662 161.85 328.711 161.994 328.725C162.138 328.739 162.283 328.719 162.418 328.665C162.553 328.611 162.675 328.525 162.775 328.414C162.875 328.302 162.949 328.169 162.994 328.022L166.446 317.422L158.795 312.707L158.776 325.599Z" fill="#37474F"/>
<path d="M200.947 333.928L197.122 336.28V349.172C197.14 349.548 197.241 349.916 197.417 350.243C197.593 350.57 197.839 350.849 198.136 351.055L199.933 352.155C200.249 352.326 200.598 352.415 200.952 352.415C201.306 352.415 201.655 352.326 201.97 352.155L203.768 351.055C204.399 350.617 204.889 349.985 205.174 349.243L208.616 338.642L200.947 333.928Z" fill="#263238"/>
<path d="M197.122 349.12C197.14 349.497 197.241 349.864 197.417 350.191C197.593 350.519 197.839 350.797 198.136 351.004L199.933 352.104C200.057 352.183 200.196 352.232 200.34 352.246C200.484 352.261 200.628 352.24 200.764 352.186C200.899 352.132 201.021 352.047 201.121 351.935C201.22 351.824 201.295 351.69 201.339 351.544L204.782 340.943L197.132 336.229L197.122 349.12Z" fill="#37474F"/>
<path d="M155.19 150.227L208.368 182.864C209.557 183.691 210.547 184.806 211.256 186.117C211.966 187.428 212.375 188.898 212.451 190.409V350.424C212.451 350.424 209.497 348.56 208.368 347.868L155.2 315.221C154.01 314.396 153.019 313.284 152.308 311.975C151.596 310.665 151.185 309.196 151.107 307.686V152.732C151.005 152.189 151.065 151.625 151.28 151.12C151.495 150.615 151.853 150.195 152.304 149.918C152.755 149.641 153.276 149.522 153.794 149.578C154.312 149.633 154.8 149.86 155.19 150.227Z" fill="#37474F"/>
<path opacity="0.2" d="M208.368 182.864L155.19 150.227C154.8 149.86 154.312 149.633 153.794 149.578C153.276 149.522 152.755 149.641 152.304 149.918C151.853 150.195 151.495 150.615 151.28 151.12C151.065 151.625 151.005 152.189 151.107 152.732V166.571L212.451 204.248V190.409C212.375 188.898 211.966 187.428 211.256 186.117C210.547 184.806 209.557 183.691 208.368 182.864Z" fill="black"/>
<path d="M281.465 197.589C281.372 197.586 281.284 197.546 281.218 197.476C281.152 197.406 281.114 197.311 281.112 197.212V150.717L239.466 176.317C239.427 176.344 239.383 176.362 239.338 176.37C239.292 176.378 239.245 176.375 239.2 176.363C239.155 176.35 239.113 176.328 239.076 176.297C239.04 176.267 239.01 176.228 238.988 176.184C238.964 176.142 238.948 176.094 238.941 176.045C238.934 175.996 238.937 175.945 238.948 175.897C238.96 175.849 238.98 175.804 239.009 175.764C239.037 175.724 239.072 175.69 239.112 175.665L281.341 149.739C281.394 149.704 281.456 149.686 281.518 149.686C281.581 149.686 281.642 149.704 281.695 149.739C281.748 149.773 281.791 149.821 281.822 149.878C281.852 149.935 281.867 150 281.867 150.065V197.212C281.868 197.266 281.857 197.32 281.836 197.369C281.816 197.419 281.785 197.463 281.747 197.498C281.709 197.534 281.664 197.561 281.616 197.576C281.567 197.592 281.516 197.596 281.465 197.589Z" fill="#FAFAFA"/>
<path d="M273.795 185.796H273.69C273.599 185.775 273.52 185.715 273.47 185.631C273.419 185.547 273.402 185.446 273.422 185.348L280.556 152.447L266.403 178.546C266.381 178.59 266.352 178.628 266.315 178.659C266.279 178.69 266.238 178.713 266.193 178.726C266.148 178.739 266.101 178.743 266.055 178.736C266.01 178.73 265.965 178.714 265.925 178.689C265.884 178.664 265.848 178.632 265.819 178.592C265.79 178.553 265.768 178.507 265.756 178.459C265.743 178.411 265.74 178.36 265.746 178.31C265.752 178.261 265.768 178.213 265.791 178.169L281.092 149.881C281.135 149.803 281.203 149.745 281.284 149.715C281.364 149.685 281.452 149.686 281.532 149.718C281.61 149.752 281.674 149.815 281.713 149.896C281.752 149.976 281.762 150.068 281.742 150.156L274.092 185.521C274.075 185.594 274.037 185.659 273.984 185.708C273.931 185.758 273.865 185.788 273.795 185.796Z" fill="#FAFAFA"/>
<path d="M258.467 174.055C258.418 174.055 258.37 174.044 258.325 174.023C258.281 174.002 258.241 173.971 258.209 173.932C258.143 173.862 258.106 173.767 258.106 173.668C258.106 173.569 258.143 173.473 258.209 173.403L281.216 149.829C281.282 149.76 281.372 149.721 281.465 149.721C281.558 149.721 281.647 149.76 281.714 149.829C281.78 149.902 281.816 149.998 281.816 150.099C281.816 150.2 281.78 150.297 281.714 150.369L258.706 173.932C258.675 173.969 258.639 173.998 258.598 174.019C258.557 174.04 258.512 174.052 258.467 174.055Z" fill="#FAFAFA"/>
<path d="M281.465 190.062C281.372 190.059 281.284 190.019 281.218 189.949C281.152 189.879 281.114 189.784 281.112 189.685C281.112 183.514 274.647 183.097 274.37 183.087C274.318 183.083 274.267 183.067 274.221 183.041C274.175 183.014 274.134 182.978 274.102 182.934C274.072 182.891 274.051 182.841 274.041 182.788C274.032 182.735 274.033 182.681 274.045 182.628C274.281 181.368 274.201 180.063 273.813 178.846C273.425 177.629 272.743 176.541 271.836 175.694C271.504 175.341 271.106 175.068 270.667 174.893C270.228 174.717 269.76 174.643 269.292 174.675C269.043 174.72 268.805 174.822 268.596 174.973C268.386 175.124 268.209 175.321 268.078 175.551C268.038 175.626 267.975 175.683 267.901 175.715C267.826 175.746 267.743 175.75 267.666 175.724C267.59 175.699 267.524 175.647 267.479 175.577C267.434 175.507 267.412 175.422 267.418 175.337C267.418 175.103 267.81 169.615 263.277 169.075C263.219 169.067 263.163 169.045 263.115 169.009C263.067 168.974 263.027 168.926 263 168.871C262.974 168.818 262.96 168.758 262.96 168.698C262.96 168.638 262.974 168.579 263 168.525C263 168.525 265.008 164.523 264.233 162.558C264.144 162.327 264.005 162.122 263.827 161.959C263.649 161.796 263.438 161.681 263.21 161.621C263.165 161.608 263.123 161.586 263.086 161.555C263.049 161.524 263.018 161.485 262.996 161.442C262.973 161.398 262.96 161.35 262.956 161.3C262.951 161.25 262.957 161.2 262.971 161.153C263 161.058 263.062 160.979 263.143 160.932C263.225 160.884 263.321 160.872 263.411 160.898C263.741 160.988 264.045 161.16 264.301 161.398C264.557 161.637 264.757 161.937 264.884 162.273C265.62 164.136 264.377 167.222 263.841 168.382C267.36 169.105 268.011 172.639 268.106 174.39C268.421 174.153 268.779 173.989 269.158 173.912C269.733 173.852 270.313 173.933 270.854 174.146C271.396 174.359 271.885 174.701 272.285 175.144C273.235 176.036 273.963 177.166 274.402 178.431C274.841 179.697 274.978 181.058 274.8 182.394C276.349 182.608 281.819 183.759 281.81 189.706C281.805 189.8 281.767 189.889 281.703 189.955C281.639 190.021 281.554 190.059 281.465 190.062Z" fill="#FAFAFA"/>
<path d="M281.465 179.9C281.376 179.9 281.29 179.865 281.225 179.801C281.159 179.736 281.119 179.648 281.112 179.554C280.959 177.395 279.782 174.605 278.3 173.912C278.007 173.773 277.681 173.727 277.363 173.781C277.046 173.836 276.75 173.987 276.512 174.218C276.453 174.258 276.385 174.279 276.316 174.279C276.246 174.279 276.178 174.258 276.12 174.218C276.059 174.182 276.01 174.129 275.977 174.064C275.945 173.998 275.932 173.925 275.938 173.851C275.938 173.851 276.254 170.033 274.638 168.454C274.287 168.143 273.872 167.924 273.426 167.818C272.98 167.712 272.517 167.721 272.075 167.843C272.014 167.857 271.951 167.853 271.892 167.832C271.833 167.81 271.78 167.772 271.74 167.721C271.699 167.67 271.672 167.608 271.66 167.542C271.648 167.476 271.653 167.408 271.673 167.344C271.998 166.397 272.63 163.74 271.778 162.793C271.377 162.355 270.641 162.314 269.579 162.681C269.507 162.706 269.428 162.706 269.356 162.68C269.284 162.655 269.221 162.605 269.177 162.538C269.134 162.473 269.11 162.394 269.11 162.314C269.11 162.234 269.134 162.155 269.177 162.09C269.77 161.296 271.233 158.974 270.87 157.864C270.81 157.711 270.713 157.577 270.589 157.477C270.464 157.377 270.317 157.314 270.162 157.294C270.117 157.282 270.075 157.261 270.037 157.231C269.999 157.202 269.968 157.164 269.944 157.122C269.92 157.079 269.904 157.032 269.897 156.983C269.89 156.934 269.893 156.884 269.904 156.836C269.913 156.787 269.931 156.741 269.958 156.7C269.984 156.66 270.018 156.625 270.058 156.599C270.097 156.574 270.142 156.557 270.188 156.55C270.234 156.543 270.28 156.547 270.325 156.561C270.593 156.602 270.847 156.718 271.06 156.897C271.273 157.076 271.438 157.311 271.539 157.579C271.931 158.791 270.975 160.634 270.306 161.652C270.651 161.565 271.01 161.568 271.354 161.662C271.697 161.756 272.013 161.938 272.276 162.192C273.328 163.353 272.821 165.807 272.505 166.957C272.972 166.898 273.444 166.945 273.893 167.094C274.341 167.243 274.755 167.491 275.106 167.823C276.531 169.208 276.684 171.896 276.665 173.128C276.964 172.978 277.291 172.901 277.621 172.901C277.952 172.901 278.278 172.978 278.578 173.128C280.385 173.973 281.638 176.977 281.819 179.411C281.823 179.46 281.818 179.509 281.803 179.556C281.789 179.603 281.766 179.646 281.736 179.683C281.705 179.72 281.668 179.75 281.627 179.772C281.585 179.793 281.54 179.806 281.494 179.808L281.465 179.9Z" fill="#FAFAFA"/>
<path d="M302.063 133.568C302.018 133.028 301.838 132.51 301.542 132.067C301.246 131.625 300.845 131.275 300.38 131.053L243.377 96.0033C242.11 95.3206 240.709 94.9648 239.289 94.9648C237.869 94.9648 236.468 95.3206 235.201 96.0033L147.531 149.912C147.066 150.134 146.665 150.484 146.369 150.926C146.073 151.368 145.893 151.886 145.848 152.427V157.142C145.893 157.682 146.073 158.2 146.369 158.642C146.665 159.085 147.066 159.435 147.531 159.657L204.534 194.696C205.8 195.384 207.201 195.742 208.622 195.742C210.043 195.742 211.444 195.384 212.71 194.696L300.38 140.798C300.845 140.576 301.246 140.226 301.542 139.784C301.838 139.342 302.018 138.824 302.063 138.283V133.568Z" fill="#37474F"/>
<path d="M204.533 189.982L147.53 154.942C145.274 153.547 145.274 151.297 147.53 149.912L235.201 96.0033C236.468 95.3206 237.869 94.9648 239.289 94.9648C240.709 94.9648 242.11 95.3206 243.377 96.0033L300.38 131.053C302.646 132.448 302.646 134.688 300.38 136.083L212.71 189.982C211.444 190.669 210.043 191.028 208.621 191.028C207.2 191.028 205.799 190.669 204.533 189.982Z" fill="#455A64"/>
<path opacity="0.1" d="M289.134 147.701L262.302 183.067L216.296 211.355L216.286 192.496L289.134 147.701Z" fill="black"/>
<path opacity="0.1" d="M285.299 201.916L262.301 234.919L216.295 263.217V244.348L285.299 201.916Z" fill="black"/>
<path opacity="0.1" d="M285.299 253.777L262.301 286.78L216.295 315.079V296.21L285.299 253.777Z" fill="black"/>
<path d="M179.766 356.777L109.232 400.146L29.8047 351.197L100.339 307.838L179.766 356.777Z" fill="#0EA5C6"/>
<path opacity="0.5" d="M179.766 356.777L109.232 400.146L29.8047 351.197L100.339 307.838L179.766 356.777Z" fill="black"/>
<path d="M100.339 249.053V307.839L29.8047 351.198V292.422L100.339 249.053Z" fill="#0EA5C6"/>
<path opacity="0.23" d="M100.339 249.053V307.839L29.8047 351.198V292.422L100.339 249.053Z" fill="black"/>
<path d="M109.232 341.361V400.147L29.8047 351.198V292.422L109.232 341.361Z" fill="#0EA5C6"/>
<path opacity="0.38" d="M109.232 341.361V400.147L29.8047 351.198V292.422L109.232 341.361Z" fill="black"/>
<path d="M179.766 297.992V356.778L100.339 307.839V249.053L179.766 297.992Z" fill="#0EA5C6"/>
<path opacity="0.4" d="M179.766 297.992V356.778L100.339 307.839V249.053L179.766 297.992Z" fill="black"/>
<path d="M179.767 356.778V297.992L109.232 341.361V400.147L179.767 356.778Z" fill="#0EA5C6"/>
<path opacity="0.23" d="M179.767 356.778V297.992L109.232 341.361V400.147L179.767 356.778Z" fill="black"/>
<path d="M100.339 249.052L100.434 216.508L179.671 265.508L179.766 297.992L100.339 249.052Z" fill="#0EA5C6"/>
<path opacity="0.2" d="M100.339 249.052L100.434 216.508L179.671 265.508L179.766 297.992L100.339 249.052Z" fill="black"/>
<path d="M109.232 341.361L115.85 312.89L185.743 269.918L179.767 297.992L109.232 341.361Z" fill="#0EA5C6"/>
<path opacity="0.3" d="M109.232 341.361L115.85 312.89L185.743 269.918L179.767 297.992L109.232 341.361Z" fill="black"/>
<path d="M29.8048 292.423L21.3896 262.892L91.9238 219.533L100.339 249.054L29.8048 292.423Z" fill="#0EA5C6"/>
<path opacity="0.1" d="M29.8048 292.423L21.3896 262.892L91.9238 219.533L100.339 249.054L29.8048 292.423Z" fill="black"/>
<path d="M29.8049 292.422L13.2041 268.014L92.6411 316.953L109.232 341.361L29.8049 292.422Z" fill="#0EA5C6"/>
<path opacity="0.45" d="M29.8049 292.422L13.2041 268.014L92.6411 316.953L109.232 341.361L29.8049 292.422Z" fill="black"/>
<g opacity="0.7">
<path opacity="0.7" d="M130.001 382.663C129.886 382.663 129.776 382.615 129.694 382.53C129.611 382.444 129.564 382.327 129.562 382.205V371.859C129.564 371.736 129.611 371.618 129.693 371.531C129.775 371.443 129.886 371.393 130.001 371.391C130.116 371.393 130.226 371.444 130.306 371.531C130.387 371.619 130.432 371.737 130.432 371.859V382.205C130.432 382.326 130.386 382.443 130.306 382.529C130.225 382.615 130.116 382.663 130.001 382.663Z" fill="white"/>
<path opacity="0.7" d="M128.73 375.442C128.673 375.452 128.615 375.452 128.558 375.442C128.454 375.391 128.372 375.299 128.329 375.186C128.286 375.072 128.286 374.945 128.329 374.831L129.878 371.033L131.599 373.151C131.661 373.246 131.687 373.362 131.674 373.476C131.66 373.59 131.608 373.696 131.526 373.771C131.444 373.847 131.339 373.888 131.231 373.886C131.123 373.884 131.019 373.84 130.939 373.762L130.126 372.744L129.17 375.188C129.129 375.272 129.065 375.341 128.986 375.386C128.908 375.432 128.819 375.451 128.73 375.442Z" fill="white"/>
<path opacity="0.7" d="M134.008 380.229C133.893 380.226 133.784 380.176 133.704 380.088C133.623 380.001 133.578 379.883 133.578 379.761V369.425C133.578 369.303 133.623 369.187 133.704 369.101C133.785 369.015 133.894 368.967 134.008 368.967C134.123 368.967 134.232 369.015 134.313 369.101C134.393 369.187 134.439 369.303 134.439 369.425V379.751C134.44 379.812 134.43 379.873 134.409 379.931C134.388 379.988 134.357 380.04 134.317 380.085C134.277 380.129 134.229 380.165 134.176 380.19C134.123 380.214 134.066 380.228 134.008 380.229Z" fill="white"/>
<path opacity="0.7" d="M132.737 373.009C132.68 373.018 132.622 373.018 132.565 373.009C132.512 372.985 132.465 372.95 132.425 372.906C132.386 372.861 132.355 372.81 132.334 372.753C132.314 372.696 132.304 372.635 132.306 372.574C132.308 372.513 132.321 372.453 132.345 372.398L133.884 368.549L135.606 370.657C135.685 370.744 135.729 370.861 135.729 370.983C135.729 371.104 135.685 371.221 135.606 371.308C135.566 371.351 135.518 371.386 135.465 371.409C135.413 371.432 135.356 371.444 135.3 371.444C135.243 371.444 135.186 371.432 135.134 371.409C135.081 371.386 135.034 371.351 134.994 371.308L134.181 370.29L133.224 372.734C133.185 372.832 133.115 372.913 133.026 372.963C132.937 373.013 132.835 373.029 132.737 373.009Z" fill="white"/>
</g>
<g opacity="0.7">
<path opacity="0.7" d="M118.44 389.679C118.277 389.682 118.116 389.64 117.972 389.557C117.799 389.439 117.659 389.274 117.566 389.078C117.474 388.883 117.432 388.665 117.446 388.447V387.174C117.448 387.052 117.496 386.935 117.578 386.849C117.66 386.764 117.771 386.716 117.886 386.716C118 386.716 118.109 386.764 118.19 386.85C118.271 386.936 118.316 387.053 118.316 387.174V388.447C118.316 388.63 118.316 388.732 118.402 388.752C118.488 388.773 118.536 388.752 118.679 388.671C118.949 388.406 119.161 388.083 119.301 387.722C119.441 387.362 119.507 386.973 119.492 386.583V381.288C119.492 381.167 119.538 381.05 119.618 380.964C119.699 380.878 119.808 380.83 119.923 380.83C120.037 380.83 120.146 380.878 120.227 380.964C120.308 381.05 120.353 381.167 120.353 381.288V386.583C120.374 387.133 120.274 387.681 120.059 388.181C119.845 388.682 119.523 389.122 119.119 389.465C118.915 389.6 118.681 389.673 118.44 389.679Z" fill="white"/>
<path opacity="0.7" d="M113.879 385.412V384.618C113.993 382.579 114.552 380.596 115.514 378.828C116.475 377.06 117.811 375.555 119.416 374.435C120.984 373.478 122.476 373.335 123.623 374.048C124.235 374.495 124.723 375.109 125.036 375.825C125.349 376.542 125.475 377.335 125.402 378.121V378.386L113.879 385.412ZM122.017 374.476C121.251 374.513 120.507 374.759 119.856 375.189C118.481 376.152 117.317 377.419 116.442 378.904C115.568 380.388 115.003 382.056 114.787 383.793L124.513 377.806C124.554 377.216 124.452 376.625 124.216 376.089C123.979 375.554 123.617 375.093 123.164 374.751C122.811 374.554 122.415 374.459 122.017 374.476Z" fill="white"/>
</g>
<path opacity="0.7" d="M13.2041 268.014L92.6411 316.953L109.232 341.361L91.7613 317.818L13.2041 268.014Z" fill="white"/>
<path opacity="0.7" d="M179.767 297.992L109.232 341.361V400.147L110.552 342.543L179.767 297.992Z" fill="white"/>
<path d="M76.2596 274.48C83.5368 273.36 90.1828 268.37 94.4286 262.098C96.4086 259.167 97.8672 255.874 98.7318 252.383C99.6501 249.118 99.8011 245.664 99.1717 242.322C97.8616 236.732 93.0038 233.422 87.8687 232.73C85.2629 232.365 82.6133 232.64 80.1229 233.534C77.5406 234.478 75.3003 236.258 73.7159 238.626C72.7225 239.887 72.0975 241.431 71.9181 243.066C71.9029 243.706 72.1149 244.329 72.5119 244.81C72.909 245.292 73.4618 245.596 74.0602 245.662C75.6 245.8 77.1388 245.385 78.4303 244.481C80.0052 243.541 81.3923 242.282 82.5136 240.775C84.9188 237.614 86.7187 233.981 87.8113 230.082C88.5779 226.737 88.5779 223.245 87.8113 219.899C87.2289 216.4 85.7269 213.148 83.4794 210.521C80.9029 208.026 77.6333 206.492 74.1654 206.153C70.7139 205.648 67.1996 205.996 63.8951 207.171C62.4436 207.639 61.0989 208.423 59.9457 209.472C59.1233 210.287 58.1862 211.631 58.5209 212.955C58.8556 214.279 60.6725 214.869 61.906 214.696C63.7318 214.332 65.4041 213.366 66.6874 211.936C68.1176 210.437 69.3323 208.722 70.2925 206.845C71.0059 205.496 71.3782 203.973 71.3731 202.426C71.2488 195.97 64.5453 191.795 59.2954 190.613C57.8782 190.298 56.4266 190.195 54.9827 190.308C54.495 190.308 54.7914 191.163 55.1835 191.133C58.0086 190.996 60.8162 191.671 63.3118 193.088C65.7739 194.293 67.8418 196.254 69.2502 198.719C69.8778 199.934 70.1876 201.307 70.1472 202.693C70.1069 204.08 69.7178 205.429 69.0207 206.601C68.0843 208.337 66.9185 209.922 65.559 211.305C64.421 212.405 62.6902 213.678 61.0932 213.556C60.8296 213.555 60.5714 213.475 60.3482 213.326C60.125 213.176 59.9457 212.963 59.831 212.71C59.7828 212.376 59.8087 212.034 59.9066 211.712C60.0046 211.391 60.1719 211.098 60.3951 210.857C61.2396 209.889 62.2839 209.143 63.4456 208.678C66.3145 207.408 69.4209 206.864 72.5206 207.089C75.715 207.151 78.8215 208.213 81.4521 210.144C83.7437 212.17 85.3712 214.92 86.0996 217.995C87.0222 221.12 87.309 224.417 86.9411 227.669C86.3732 230.941 85.1926 234.058 83.4698 236.834C81.7007 239.95 79.4822 242.943 76.1544 244.165C75.332 244.481 73.6107 244.939 73.2856 243.666C72.9605 242.394 73.8976 240.825 74.5001 239.838C75.8323 237.605 77.7745 235.86 80.0655 234.838C82.2763 233.894 84.6629 233.511 87.0367 233.718C91.5407 234.074 96.1117 236.579 97.6799 241.345C98.4666 244.193 98.5522 247.209 97.9286 250.102C97.366 253.274 96.2953 256.319 94.7633 259.104C91.468 265.021 86.4774 269.658 80.5245 272.331C79.1093 272.983 77.6557 273.533 76.1735 274.042C76.0205 274.103 76.0875 274.511 76.2596 274.48Z" fill="#E0E0E0"/>
<path d="M45.8598 186.071C42.0347 185.776 36.7657 188.984 38.64 191.326C40.5143 193.668 45.4868 189.88 45.4868 189.88C45.4868 189.88 45.0183 194.615 46.6439 195.154C48.2696 195.694 50.469 191.173 48.8433 188.281C49.6273 188.61 50.4767 188.723 51.3126 188.609C52.1485 188.495 52.9438 188.158 53.6247 187.629C55.9388 185.817 53.4908 184.106 50.2299 184.411C50.2299 184.411 52.5632 176.265 47.8488 177.823C45.4868 178.587 44.6549 181.53 45.8598 186.071Z" fill="#0EA5C6"/>
<path opacity="0.65" d="M45.8598 186.071C42.0347 185.776 36.7657 188.984 38.64 191.326C40.5143 193.668 45.4868 189.88 45.4868 189.88C45.4868 189.88 45.0183 194.615 46.6439 195.154C48.2696 195.694 50.469 191.173 48.8433 188.281C49.6273 188.61 50.4767 188.723 51.3126 188.609C52.1485 188.495 52.9438 188.158 53.6247 187.629C55.9388 185.817 53.4908 184.106 50.2299 184.411C50.2299 184.411 52.5632 176.265 47.8488 177.823C45.4868 178.587 44.6549 181.53 45.8598 186.071Z" fill="white"/>
<path d="M49.4172 187.802C49.2056 187.581 48.9821 187.374 48.7479 187.181C48.4132 186.906 48.0593 186.641 47.7247 186.376C47.3988 186.124 47.0569 185.896 46.7015 185.694C46.4969 185.573 46.2862 185.464 46.0703 185.368C45.7723 185.219 45.4409 185.163 45.1141 185.205C45.0284 185.208 44.945 185.235 44.8725 185.283C44.8001 185.332 44.7412 185.401 44.7021 185.482C44.663 185.563 44.6451 185.654 44.6503 185.745C44.6555 185.836 44.6835 185.924 44.7315 185.999C44.9944 186.303 45.3226 186.533 45.6878 186.672L46.2042 186.967C46.558 187.191 46.8736 187.445 47.1605 187.7C47.4473 187.955 47.8298 188.199 48.1167 188.454C48.61 188.88 49.1614 189.223 49.7519 189.472C49.7784 189.487 49.808 189.495 49.838 189.495C49.868 189.495 49.8976 189.487 49.9241 189.472C50.4118 189.065 49.6946 188.097 49.4172 187.802Z" fill="#455A64"/>
<path d="M354.284 74.0495C350.105 80.037 344.511 112.958 342.398 123.518C332.233 123.203 318.635 122.693 313.49 122.123C307.752 121.482 295.503 120.229 289.488 121.105C274.56 123.141 275.144 133.589 275.507 136.318C275.899 139.434 277.993 140.86 286.026 138.915C287.823 138.494 289.656 138.266 291.496 138.233C292.27 138.233 293.906 137.815 294.518 138.518C295.474 139.536 292.71 141.247 292.022 141.715C290.96 142.448 289.851 143.375 289.631 144.699C289.568 144.941 289.571 145.197 289.641 145.437C289.71 145.677 289.843 145.891 290.023 146.053C290.412 146.222 290.848 146.222 291.238 146.053C294.904 145.126 298.44 143.692 301.757 141.786C303.007 140.984 304.322 140.302 305.687 139.75C307.762 139.037 309.904 139.454 311.989 139.454C316.473 139.454 340.179 141.959 350.717 143.1C358.014 143.884 358.788 136.216 361.303 128.447C364.392 118.814 371.707 68.1535 371.707 68.1535C364.325 67.0131 359.257 66.9418 354.284 74.0495Z" fill="#FFA8A7"/>
<path d="M371.823 67.358C368.294 66.6656 360.347 65.6168 356.025 70.7591C351.703 75.9015 350.68 81.2985 348.777 89.0884C346.874 96.8784 343.498 110.829 343.498 110.829C343.498 110.829 349.073 119.352 366.525 116.939L371.823 67.358Z" fill="#37474F"/>
<path d="M415.648 336.616L403.379 336.626L399.851 308.267L415.333 307.615L415.648 336.616Z" fill="#FFA8A7"/>
<path d="M374.911 322.451C372.827 326.31 366.123 325.994 360.567 324.63L359.927 296.749L376.327 296.057L374.911 322.451Z" fill="#FFA8A7"/>
<path d="M414.816 157.416C415.256 169.483 413.755 240.835 413.755 240.835C414.166 244.297 417.532 250.336 418.23 262.83C419.253 280.976 415.782 319.671 415.782 319.671C415.782 319.671 408.753 323.582 401.18 320.588C401.18 320.588 393.472 264.582 390.661 246.68C388.232 231.1 385.115 189.309 385.115 189.309L379.061 242.872C380.171 249.212 380.63 255.661 380.429 262.107C380.18 270.437 375.724 310.883 375.724 310.883C370.64 312.654 365.179 312.792 360.022 311.281C360.022 311.281 356.369 248.513 355.948 240.906C355.47 232.23 355.795 155.645 355.795 155.645L414.816 157.416Z" fill="#0EA5C6"/>
<path opacity="0.2" d="M385.134 189.329C385.134 189.329 374.414 186.091 367.108 179.146C367.108 179.146 370.532 185.368 380.228 190.887L379.674 237.637L385.134 189.329Z" fill="black"/>
<path d="M389.398 360.271C389.006 360.699 389.236 363.52 389.714 364.253C390.192 364.986 393.118 367.471 398.196 367.654C403.044 367.817 407.328 366.941 410.092 364.904C412.856 362.868 414.156 360.699 414.319 357.776C414.481 354.854 414.07 352.013 415.275 349.701C416.413 347.573 418.259 345.139 418.632 343.989C419.463 341.494 418.45 338.021 418.45 338.021L389.398 360.271Z" fill="#263238"/>
<path d="M401.639 334.131C401.645 335.244 401.497 336.353 401.199 337.42C400.161 340.893 398.601 344.163 396.58 347.104C395.184 349.008 393.424 350.607 391.942 352.45C390.356 354.198 389.384 356.474 389.188 358.896C389.131 362.969 393.3 364.14 396.484 364.609C399.936 365.093 403.446 364.745 406.755 363.59C408.497 363.031 410.051 361.947 411.228 360.469C412.406 358.991 413.157 357.183 413.391 355.261C413.525 354.13 413.391 352.99 413.506 351.859C413.83 349.263 414.753 346.793 416.193 344.67C417.026 343.442 417.738 342.124 418.316 340.74C419.205 338.194 418.316 335.414 417.589 332.96C416.968 330.832 416.26 328.418 415.562 328.653C415.562 329.783 415.562 329.885 414.883 330.689C413.927 331.707 413.974 333.123 412.97 334.009C413.261 333.069 413.459 332.1 413.563 331.117C413.61 330.716 413.519 330.31 413.305 329.976C412.96 329.677 412.554 329.468 412.119 329.365C410.607 328.889 409.053 328.579 407.481 328.439C405.985 328.229 404.467 328.281 402.987 328.591C402.549 328.699 402.158 328.961 401.878 329.335C401.632 329.752 401.508 330.238 401.524 330.73C401.524 331.392 401.629 333.052 401.639 334.131Z" fill="#455A64"/>
<path d="M398.005 344.854C399.382 343.673 402.538 343.52 404.278 343.652C406.041 343.737 407.756 344.298 409.26 345.282C409.482 345.439 409.749 345.507 410.014 345.474C410.279 345.44 410.523 345.307 410.704 345.098C410.81 344.979 410.89 344.838 410.939 344.683C410.988 344.528 411.005 344.363 410.989 344.201C410.972 344.038 410.923 343.881 410.844 343.741C410.765 343.6 410.659 343.48 410.532 343.387C408.87 342.188 406.925 341.51 404.919 341.432C400.654 341.3 399.439 342.125 399.439 342.125C399.439 342.125 397.536 343.53 398.005 344.854Z" fill="#F5F5F5"/>
<path d="M394.906 349.13C396.637 347.938 400.127 347.948 401.858 348.111C403.593 348.228 405.268 348.829 406.716 349.853C406.936 350.01 407.202 350.077 407.465 350.044C407.728 350.01 407.971 349.877 408.15 349.669C408.258 349.552 408.34 349.411 408.391 349.256C408.442 349.101 408.46 348.937 408.445 348.773C408.429 348.61 408.38 348.453 408.301 348.312C408.223 348.171 408.115 348.05 407.988 347.959C406.298 346.697 404.311 345.963 402.25 345.841C397.976 345.698 396.905 346.665 396.905 346.665C396.419 346.89 395.987 347.228 395.641 347.654C395.295 348.081 395.044 348.585 394.906 349.13Z" fill="#F5F5F5"/>
<path d="M406.449 337.033C404.644 336.771 402.806 337.009 401.113 337.726C400.386 338.204 399.937 339.487 400.425 339.762C401.906 339.054 403.529 338.746 405.149 338.866C406.749 338.966 408.321 339.359 409.796 340.027C410.169 340.18 410.609 340.404 410.991 340.607C411.114 340.674 411.248 340.714 411.385 340.723C411.522 340.733 411.66 340.713 411.789 340.665C411.919 340.616 412.038 340.54 412.139 340.441C412.241 340.342 412.322 340.222 412.378 340.088C412.469 339.857 412.476 339.598 412.398 339.361C412.32 339.124 412.163 338.926 411.957 338.805C410.262 337.8 408.383 337.196 406.449 337.033Z" fill="#F5F5F5"/>
<path d="M332.529 339.843C332.095 341.007 332.095 342.304 332.529 343.468C332.95 344.558 338.018 347.938 345.056 347.796C350.29 347.66 355.394 346.036 359.84 343.091C362.603 341.34 365.405 341.126 368.886 341.055C372.367 340.983 377.014 339.405 377.856 337.715C378.697 336.024 377.952 333 377.952 333L332.529 339.843Z" fill="#263238"/>
<path d="M361.887 317.95L361.342 317.798C361.032 317.698 360.707 317.667 360.385 317.706C360.041 317.794 359.73 317.993 359.496 318.276C358.772 319.179 358.132 320.155 357.583 321.189C356.006 323.663 352.802 325.628 349.36 327.39C347.007 328.581 344.722 329.488 342.302 330.496C339.883 331.504 336.565 332.074 334.652 333.337C331.783 335.18 331.238 340.119 334.279 342.237C336.919 344.07 343.957 346.259 351.492 344.385C355.614 343.367 360.338 338.968 365.693 338.795C369.106 338.683 375.571 337.99 377.875 335.353C378.746 334.182 377.875 330.262 377.101 326.881C376.298 323.195 376.661 317.716 375.112 317.716L375.016 319.559C374.873 320.109 373.658 320.649 373.276 321.077L371.899 322.624C371.335 323.341 370.646 323.936 369.871 324.376C368.504 325.028 366.907 324.641 365.444 324.233C365.387 324.233 366.18 321.402 366.266 321.127C366.353 320.913 366.379 320.676 366.343 320.445C366.27 320.22 366.124 320.029 365.932 319.906C364.724 318.964 363.347 318.298 361.887 317.95Z" fill="#455A64"/>
<path d="M352.63 325.577C352.897 325.092 353.275 324.686 353.727 324.396C354.18 324.106 354.694 323.942 355.221 323.917C356.78 323.693 359.448 325.037 361.083 326.616C361.237 326.763 361.355 326.949 361.427 327.157C361.498 327.364 361.52 327.587 361.492 327.806C361.464 328.025 361.385 328.234 361.264 328.413C361.143 328.592 360.982 328.737 360.796 328.835C360.563 328.958 360.3 329.001 360.043 328.957C359.785 328.913 359.548 328.785 359.362 328.591C357.571 326.692 355.157 325.611 352.63 325.577Z" fill="#F5F5F5"/>
<path d="M347.715 328.194C348.073 327.707 348.537 327.318 349.066 327.061C349.595 326.804 350.175 326.686 350.756 326.718C350.756 326.718 354.791 327.044 357.172 329.651C357.319 329.794 357.432 329.972 357.5 330.171C357.568 330.371 357.59 330.584 357.563 330.794C357.537 331.004 357.463 331.205 357.349 331.378C357.234 331.551 357.082 331.692 356.905 331.789C356.679 331.906 356.425 331.947 356.177 331.905C355.929 331.863 355.699 331.741 355.518 331.555C354.538 330.406 353.328 329.508 351.977 328.926C350.626 328.344 349.169 328.094 347.715 328.194Z" fill="#F5F5F5"/>
<path d="M342.312 330.496C342.719 330.049 343.211 329.699 343.756 329.473C344.3 329.246 344.884 329.147 345.468 329.183C347.754 329.452 349.903 330.481 351.607 332.126C351.754 332.27 351.867 332.449 351.935 332.649C352.003 332.849 352.024 333.063 351.998 333.274C351.972 333.485 351.898 333.686 351.784 333.86C351.669 334.034 351.517 334.176 351.34 334.274C351.114 334.393 350.858 334.434 350.609 334.39C350.361 334.346 350.131 334.22 349.953 334.03C349.025 332.849 347.851 331.915 346.525 331.302C345.199 330.689 343.756 330.413 342.312 330.496Z" fill="#F5F5F5"/>
<path d="M392.268 67.5819C396.781 68.1318 402.117 68.4271 406.43 69.0279C411.986 69.8018 416.318 75.9218 417.676 85.3919C419.168 95.8192 412.895 125.716 412.895 125.716L414.893 160.97C406.755 167.354 372.1 170.705 354.83 157.426C354.83 157.426 355.232 97.4281 356.58 88.182C358.435 75.5043 361.361 67.6328 374.749 66.7266L392.268 67.5819Z" fill="#455A64"/>
<path d="M423.126 143.954C421.663 146.561 420.19 149.168 418.679 151.744C418.125 152.701 417.561 153.648 416.977 154.585C416.661 155.044 416.292 155.458 415.878 155.817C415.151 156.347 413.64 156.011 412.76 156.041C408.438 156.197 404.128 156.537 399.831 157.06C399.472 157.048 399.114 157.12 398.784 157.271C398.453 157.422 398.158 157.649 397.919 157.935C397.742 158.33 397.707 158.779 397.82 159.199C397.932 159.619 398.185 159.981 398.531 160.216C399.235 160.666 400.034 160.918 400.855 160.949L404.584 161.418C405.116 161.437 405.633 161.613 406.076 161.927C407.434 163.098 404.842 164.503 404.068 165.074C402.51 166.226 400.847 167.208 399.105 168.006C391.33 171.489 390.384 174.014 391.818 176.886C393.061 179.381 398.435 188.454 412.091 180.643C417.589 177.497 425.957 167.558 429.772 162.752C435.261 155.817 444.546 140.349 444.546 140.349C449.825 132.631 450.504 129.464 450.628 126.256C450.753 123.049 434.372 98.3753 428.806 89.7096C423.241 81.0439 420.592 70.5046 406.43 69.0586C406.43 69.0586 401.036 87.2657 409.968 99.0473L430.594 129.688C430.594 129.688 425.134 140.38 423.126 143.954Z" fill="#FFA8A7"/>
<path d="M438.091 101.462C435.443 97.3884 432.679 93.193 430.011 89.0384C418.775 71.5746 419.722 68.3772 403.522 68.1328C402.088 70.4749 401.237 80.556 403.398 90.6778C405.206 99.1806 412.005 105.178 412.005 105.178L420.114 116.879C420.114 116.879 425.077 116.716 431.025 112.072C434.46 109.51 436.957 105.761 438.091 101.462Z" fill="#37474F"/>
<path d="M402.949 21.6886C402.135 20.3964 401.006 19.3636 399.684 18.7002C398.363 18.0367 396.896 17.7674 395.442 17.9209L394.601 39.7837L393.224 47.8587L393.463 56.8503C394.262 56.7299 395.02 56.396 395.665 55.8796C396.311 55.3632 396.823 54.6812 397.154 53.8972C398.416 51.3107 401.935 38.8061 401.935 38.8061C405.091 28.5315 404.422 23.8881 402.949 21.6886Z" fill="#263238"/>
<path d="M393.644 39.8852C393.999 38.5564 394.683 37.3537 395.624 36.4026C396.8 35.0585 401.485 33.6023 403.618 37.8384C405.75 42.0745 402.155 47.665 399.382 49.3757C395.834 51.5752 393.749 48.5814 393.749 48.5814L393.835 68.7131C392.181 72.7863 384.713 76.4114 380.266 75.8412C376.728 75.3626 373.467 72.3993 376.632 68.0818L376.374 62.3386C376.374 62.3386 371.64 63.3569 369.298 63.1023C365.406 62.6746 362.814 59.5485 361.437 55.1494C359.219 48.0825 358.234 42.3393 359.171 28.1646C360.204 12.6357 377.062 11.5868 386.463 17.2078C395.863 22.8288 393.644 39.8852 393.644 39.8852Z" fill="#FFA8A7"/>
<path d="M353.806 12.0345C353.376 8.64353 354.475 5.00823 357.813 3.80664C359.037 3.26108 360.382 3.09493 361.691 3.32733C363.001 3.55972 364.222 4.18121 365.214 5.12024C365.633 3.92395 366.356 2.87563 367.303 2.09309C368.25 1.31056 369.384 0.824817 370.576 0.690464C371.768 0.556112 372.972 0.778471 374.052 1.33255C375.132 1.88664 376.045 2.75048 376.689 3.82701C377.576 2.39323 378.945 1.37629 380.514 0.985965C381.482 0.755839 382.484 0.734592 383.459 0.923483C384.435 1.11237 385.365 1.50757 386.195 2.08572C387.553 3.15493 389.15 5.1406 388.748 7.71689C391.435 6.56622 394.237 7.52341 396.236 10.0488C397.425 11.5952 398.098 13.5189 398.148 15.517C398.217 16.5549 398.077 17.5965 397.737 18.5719C397.354 19.4986 396.57 20.1095 396.341 21.1584C396.007 22.0812 395.835 23.0614 395.834 24.0503C396.054 25.7611 396.408 27.4718 396.618 29.1418C396.844 30.8052 396.975 32.4817 397.01 34.162C396.96 34.5572 396.831 34.9363 396.631 35.2736C396.432 35.611 396.166 35.8987 395.853 36.1171C394.96 36.9486 394.268 37.9963 393.835 39.172C393.501 39.9052 393.175 41.7177 392.516 42.2269C390.479 43.7441 390.249 38.836 390.154 37.8889C390.023 35.7154 390.023 33.5352 390.154 31.3617C389.126 31.3475 388.113 31.1047 387.18 30.6487C386.246 30.1927 385.412 29.5338 384.732 28.7141C384.026 27.793 383.561 26.6902 383.383 25.5167C383.273 24.8443 383.222 24.1625 383.23 23.4801C381.901 25.8222 378.812 26.7794 376.613 26.535C372.922 26.1786 371.65 24.4984 371.057 23.2662C370.824 24.4807 370.322 25.6187 369.594 26.5859C368.651 27.5294 367.515 28.2266 366.276 28.6225C365.207 28.9262 364.08 28.9142 363.017 28.5877C361.954 28.2612 360.995 27.6325 360.242 26.7692C358.74 29.0603 354.934 28.042 354.093 27.4005C352.18 25.924 351.559 24.1623 351.348 21.6472C351.138 19.132 352.094 16.2604 354.714 15.2726C354.242 14.2556 353.935 13.1607 353.806 12.0345Z" fill="#263238"/>
<path d="M376.374 62.3078C376.374 62.3078 384.923 60.0065 387.849 58.1328C389.58 57.0536 390.963 55.442 391.818 53.5098C391.448 55.4158 390.723 57.2234 389.685 58.8253C387.62 61.9514 376.47 64.7619 376.47 64.7619L376.374 62.3078Z" fill="#F28F8F"/>
<path d="M376.852 39.2133C376.884 39.5991 377.022 39.9662 377.249 40.269C377.475 40.5719 377.781 40.7972 378.126 40.9168C378.472 41.0365 378.844 41.0452 379.194 40.942C379.545 40.8388 379.859 40.6282 380.098 40.3364C380.337 40.0445 380.49 39.6843 380.538 39.3005C380.587 38.9167 380.528 38.5262 380.37 38.1776C380.211 37.829 379.96 37.5377 379.648 37.3398C379.335 37.142 378.975 37.0463 378.611 37.0647C378.112 37.1065 377.649 37.3548 377.32 37.7565C376.991 38.1582 376.823 38.6813 376.852 39.2133Z" fill="#263238"/>
<path d="M373.993 53.9474C374.036 54.4442 374.216 54.9163 374.51 55.3052C374.803 55.694 375.198 55.9824 375.644 56.1344C376.09 56.2865 376.569 56.2956 377.02 56.1605C377.471 56.0254 377.875 55.7521 378.181 55.3747C378.488 54.9972 378.683 54.5321 378.744 54.0373C378.804 53.5425 378.726 53.0397 378.52 52.5915C378.315 52.1432 377.99 51.7693 377.586 51.5161C377.182 51.2629 376.717 51.1417 376.249 51.1675C375.606 51.2222 375.008 51.5445 374.586 52.0647C374.163 52.5849 373.95 53.2612 373.993 53.9474Z" fill="#F28F8F"/>
<path d="M378.392 32.4313L382.331 34.4678C382.577 33.8928 382.606 33.2394 382.412 32.6425C382.218 32.0456 381.816 31.5508 381.289 31.2602C381.028 31.1271 380.744 31.0519 380.454 31.0391C380.165 31.0262 379.876 31.0761 379.605 31.1855C379.334 31.295 379.087 31.4618 378.878 31.676C378.67 31.8901 378.504 32.147 378.392 32.4313Z" fill="#263238"/>
<path d="M361.256 34.1921L364.612 31.1372C364.437 30.8935 364.217 30.6905 363.966 30.5406C363.714 30.3908 363.437 30.2973 363.15 30.2658C362.864 30.2343 362.574 30.2656 362.299 30.3576C362.024 30.4497 361.77 30.6007 361.552 30.8012C361.104 31.2185 360.824 31.8028 360.769 32.4337C360.714 33.0646 360.888 33.694 361.256 34.1921Z" fill="#263238"/>
<path d="M362.26 38.8164C362.283 39.1931 362.41 39.5541 362.626 39.8541C362.841 40.154 363.134 40.3795 363.47 40.5022C363.805 40.6249 364.167 40.6393 364.51 40.5436C364.853 40.4479 365.161 40.2465 365.397 39.9645C365.633 39.6825 365.785 39.3326 365.834 38.9588C365.884 38.585 365.828 38.204 365.675 37.8637C365.522 37.5233 365.277 37.2389 364.972 37.046C364.668 36.8532 364.316 36.7606 363.962 36.7798C363.484 36.8139 363.038 37.0465 362.72 37.4274C362.402 37.8083 362.236 38.3071 362.26 38.8164Z" fill="#263238"/>
<path d="M371.134 36.5547L371.077 48.6011L365.091 46.7682L371.134 36.5547Z" fill="#F28F8F"/>
<path d="M356.111 53.4076C356.166 53.3945 356.219 53.3698 356.265 53.3348C356.311 53.2998 356.349 53.2553 356.379 53.2039C356.413 53.1536 356.437 53.0965 356.45 53.036C356.462 52.9755 356.463 52.9129 356.453 52.8519C356.442 52.791 356.42 52.733 356.387 52.6815C356.355 52.63 356.313 52.586 356.264 52.5522L351.062 48.866C351.014 48.8317 350.96 48.8079 350.903 48.7959C350.846 48.784 350.787 48.7842 350.73 48.7965C350.673 48.8088 350.619 48.833 350.571 48.8676C350.523 48.9023 350.482 48.9467 350.45 48.9984C350.417 49.0493 350.393 49.107 350.381 49.1679C350.369 49.2289 350.369 49.2917 350.381 49.3527C350.392 49.4137 350.415 49.4715 350.449 49.5226C350.482 49.5738 350.525 49.6171 350.574 49.6501L355.767 53.3363C355.816 53.3745 355.872 53.4007 355.932 53.413C355.991 53.4253 356.052 53.4235 356.111 53.4076Z" fill="#E0E0E0"/>
<path d="M355.556 55.7913C355.637 55.7698 355.711 55.7253 355.77 55.6625C355.829 55.5997 355.871 55.521 355.891 55.4348C355.916 55.312 355.896 55.1833 355.833 55.0766C355.771 54.9699 355.671 54.8937 355.556 54.8646L349.474 53.3677C349.418 53.3525 349.359 53.3495 349.301 53.3587C349.243 53.368 349.188 53.3893 349.138 53.4215C349.089 53.4537 349.045 53.4962 349.011 53.5464C348.977 53.5966 348.952 53.6535 348.939 53.7139C348.913 53.8368 348.933 53.9655 348.996 54.0722C349.059 54.1789 349.158 54.2551 349.273 54.2842L355.355 55.7913C355.422 55.8014 355.489 55.8014 355.556 55.7913Z" fill="#E0E0E0"/>
<path d="M349.904 60.0982H349.962L355.824 57.8173C355.934 57.7741 356.024 57.6859 356.073 57.5723C356.122 57.4587 356.127 57.3289 356.087 57.2114C356.046 57.0939 355.963 56.9984 355.857 56.9459C355.75 56.8934 355.628 56.8881 355.518 56.9314L349.656 59.2123C349.601 59.2338 349.55 59.2668 349.507 59.3093C349.464 59.3518 349.43 59.403 349.406 59.46C349.382 59.5169 349.369 59.5783 349.367 59.6407C349.366 59.7031 349.376 59.7652 349.398 59.8233C349.438 59.9256 349.511 60.0094 349.604 60.0597C349.696 60.1101 349.803 60.1237 349.904 60.0982Z" fill="#E0E0E0"/>
<path d="M300.313 108.946C300.434 109.205 300.623 109.42 300.858 109.565C301.092 109.71 301.361 109.778 301.632 109.762C301.903 109.746 302.163 109.645 302.381 109.473C302.598 109.301 302.764 109.065 302.857 108.794L307.217 97.3379C307.288 97.1543 307.323 96.9573 307.321 96.7588C307.319 96.5603 307.279 96.3643 307.204 96.1826C307.129 96.0009 307.02 95.8372 306.884 95.7013C306.748 95.5653 306.588 95.46 306.413 95.3915C306.238 95.323 306.052 95.2927 305.866 95.3026C305.679 95.3125 305.497 95.3622 305.329 95.4488C305.162 95.5355 305.012 95.6573 304.889 95.8069C304.767 95.9565 304.674 96.1309 304.616 96.3196L300.246 107.775C300.181 107.965 300.154 108.167 300.166 108.368C300.177 108.57 300.227 108.767 300.313 108.946Z" fill="#E0E0E0"/>
<path d="M293.131 108.884C293.27 109.184 293.501 109.425 293.786 109.567C294.07 109.709 294.392 109.744 294.698 109.666C295.003 109.588 295.275 109.401 295.468 109.137C295.661 108.873 295.764 108.546 295.761 108.212L295.617 93.9556C295.588 93.5865 295.43 93.2424 295.174 92.9916C294.918 92.7408 294.583 92.6016 294.235 92.6016C293.887 92.6016 293.552 92.7408 293.296 92.9916C293.04 93.2424 292.882 93.5865 292.854 93.9556L292.987 108.212C292.985 108.445 293.034 108.675 293.131 108.884Z" fill="#E0E0E0"/>
<path d="M280.958 100.952L281.045 101.125L287.633 111.308C287.837 111.631 288.153 111.854 288.511 111.93C288.869 112.007 289.241 111.929 289.546 111.715C289.843 111.493 290.048 111.157 290.117 110.777C290.187 110.397 290.116 110.004 289.919 109.679L283.33 99.4959C283.138 99.1801 282.839 98.9548 282.496 98.8669C282.152 98.7789 281.79 98.8348 281.485 99.0232C281.179 99.2115 280.953 99.5178 280.853 99.8787C280.753 100.24 280.788 100.628 280.949 100.962L280.958 100.952Z" fill="#E0E0E0"/>
</svg>
