<svg width="12" height="23" viewBox="0 0 12 23" fill="none" xmlns="http://www.w3.org/2000/svg">
<path d="M10.1875 5.24984V17.229C10.1875 19.5311 8.32288 21.3957 6.02079 21.3957C3.71871 21.3957 1.85413 19.5311 1.85413 17.229V4.20817C1.85413 2.77067 3.02079 1.604 4.45829 1.604C5.89579 1.604 7.06246 2.77067 7.06246 4.20817V15.1457C7.06246 15.7186 6.59371 16.1873 6.02079 16.1873C5.44788 16.1873 4.97913 15.7186 4.97913 15.1457V5.24984H3.41663V15.1457C3.41663 16.5832 4.58329 17.7498 6.02079 17.7498C7.45829 17.7498 8.62496 16.5832 8.62496 15.1457V4.20817C8.62496 1.90609 6.76038 0.0415039 4.45829 0.0415039C2.15621 0.0415039 0.291626 1.90609 0.291626 4.20817V17.229C0.291626 20.3957 2.85413 22.9582 6.02079 22.9582C9.18746 22.9582 11.75 20.3957 11.75 17.229V5.24984H10.1875Z" fill="white"/>
</svg>
