<svg width="421" height="421" viewBox="0 0 421 421" fill="none" xmlns="http://www.w3.org/2000/svg">
<path d="M85.3789 352.84C155.93 389.694 270.307 389.694 340.859 352.84C411.41 315.986 411.401 256.229 340.859 219.375C270.316 182.52 155.93 182.52 85.3789 219.375C14.8277 256.229 14.8361 315.986 85.3789 352.84Z" fill="#F0F0F0"/>
<path d="M356.116 253.316C345.422 258.368 328.085 258.368 317.384 253.316C306.682 248.264 306.69 239.961 317.384 234.859C328.077 229.756 345.405 229.765 356.116 234.859C366.826 239.953 366.8 248.221 356.116 253.316Z" fill="#E0E0E0"/>
<path d="M77.9945 282.819C77.9945 282.819 78.8365 270.408 74.517 259.866C70.1976 249.325 62.9732 241.915 55.3363 239.877C47.6993 237.84 40.1297 243.826 47.5225 250.251C54.9153 256.675 68.7409 264.363 72.1678 283.931L77.9945 282.819Z" fill="#0EA5C6"/>
<path opacity="0.2" d="M77.9945 282.819C77.9945 282.819 78.8365 270.408 74.517 259.866C70.1976 249.325 62.9732 241.915 55.3363 239.877C47.6993 237.84 40.1297 243.826 47.5225 250.251C54.9153 256.675 68.7409 264.363 72.1678 283.931L77.9945 282.819Z" fill="black"/>
<path d="M75.1738 283.754C75.0636 283.749 74.9595 283.702 74.8839 283.622C74.8084 283.541 74.7673 283.435 74.7696 283.324C75.2832 268.69 64.7498 247.91 50.4106 243.043C50.358 243.025 50.3096 242.996 50.2681 242.959C50.2265 242.923 50.1927 242.878 50.1684 242.828C50.1442 242.778 50.1301 242.723 50.1268 242.668C50.1236 242.612 50.1313 242.557 50.1495 242.504C50.1678 242.452 50.1962 242.403 50.2332 242.362C50.2701 242.32 50.3149 242.286 50.3649 242.262C50.415 242.238 50.4693 242.224 50.5248 242.22C50.5803 242.217 50.6359 242.225 50.6884 242.243C65.3561 247.228 76.1336 268.429 75.6116 283.35C75.6094 283.405 75.5964 283.459 75.5732 283.51C75.55 283.56 75.5172 283.605 75.4765 283.643C75.4358 283.68 75.3882 283.709 75.3362 283.728C75.2843 283.747 75.2291 283.756 75.1738 283.754Z" fill="white"/>
<path d="M75.6789 312.626C74.4164 313.314 73.0074 313.689 71.57 313.721C69.8798 313.823 68.1871 313.567 66.6022 312.971C63.7899 311.91 61.4323 310.294 60.7082 307.246C60.144 304.846 61.0366 302.143 59.9841 299.844C58.9316 297.546 55.7741 296.182 53.6438 295.5C52.1366 295.02 50.5537 294.784 49.0717 294.228C48.3141 293.99 47.6126 293.6 47.0092 293.084C46.4058 292.567 45.9131 291.934 45.5606 291.222C44.1376 287.736 48.0192 283.779 46.7478 280.226C46.1163 278.466 44.3902 277.38 42.8157 276.378C41.2411 275.376 39.5571 274.172 39.1193 272.353C38.9811 271.512 39.0516 270.65 39.3247 269.842C39.5977 269.035 40.065 268.307 40.6854 267.722C43.5145 264.809 48.2634 264.523 52.0524 265.971C53.2208 266.501 54.4184 266.965 55.6393 267.36C60.4219 268.615 65.5076 265.482 70.307 266.611C71.852 266.998 73.2611 267.801 74.3806 268.934C75.5001 270.067 76.2871 271.486 76.6557 273.035C76.883 274.079 76.9167 275.165 77.1609 276.209C77.7755 278.828 80.5289 279.384 81.2025 282.103C81.8003 284.528 81.0425 287.088 80.6215 289.488C79.9816 293.167 79.2574 296.83 78.4912 300.484C78.0814 302.471 77.6576 304.459 77.2198 306.446C76.8156 308.264 77.3461 310.268 76.5294 311.944C76.2597 312.188 75.9757 312.416 75.6789 312.626Z" fill="#0EA5C6"/>
<path d="M77.0261 299.659C76.9254 299.658 76.8284 299.621 76.7527 299.555C76.677 299.488 76.6276 299.397 76.6136 299.297C74.5928 286.221 56.1951 270.753 44.4492 269.187C44.3375 269.173 44.2362 269.115 44.1675 269.025C44.0988 268.936 44.0684 268.823 44.0829 268.712C44.0974 268.6 44.1557 268.499 44.2449 268.43C44.3341 268.361 44.447 268.331 44.5586 268.345C56.574 269.954 75.3758 285.783 77.4387 299.171C77.4483 299.225 77.447 299.281 77.4347 299.335C77.4224 299.388 77.3996 299.439 77.3674 299.484C77.3352 299.528 77.2944 299.566 77.2474 299.595C77.2003 299.624 77.148 299.643 77.0935 299.651L77.0261 299.659Z" fill="white"/>
<path d="M66.2823 281.758C66.172 281.748 66.0704 281.694 65.9994 281.609C65.9285 281.524 65.894 281.414 65.9034 281.304C66.6443 272.808 69.7092 269.558 69.886 269.44C69.9235 269.396 69.9697 269.359 70.0217 269.334C70.0738 269.308 70.1305 269.294 70.1885 269.291C70.2464 269.288 70.3043 269.298 70.3585 269.318C70.4126 269.339 70.4619 269.371 70.5032 269.412C70.5445 269.452 70.577 269.501 70.5985 269.555C70.6201 269.609 70.6303 269.667 70.6284 269.725C70.6266 269.783 70.6128 269.84 70.588 269.892C70.5631 269.944 70.5276 269.991 70.4838 270.029C70.4838 270.029 67.4947 273.229 66.7454 281.396C66.7287 281.504 66.6715 281.602 66.5855 281.669C66.4995 281.736 66.391 281.768 66.2823 281.758Z" fill="white"/>
<path d="M53.2059 288.579C53.123 288.577 53.0424 288.552 52.9737 288.506C52.9049 288.459 52.8511 288.394 52.8186 288.318C52.7967 288.267 52.7852 288.212 52.7848 288.157C52.7844 288.102 52.7951 288.047 52.8164 287.996C52.8376 287.945 52.8688 287.899 52.9082 287.86C52.9477 287.821 52.9945 287.791 53.0459 287.77C53.4332 287.602 62.6026 283.763 70.6185 285.935C70.6737 285.949 70.7257 285.974 70.7712 286.009C70.8168 286.043 70.8552 286.086 70.8841 286.136C70.913 286.185 70.932 286.239 70.9398 286.296C70.9477 286.353 70.9444 286.41 70.93 286.465C70.9156 286.521 70.8905 286.573 70.8561 286.618C70.8216 286.664 70.7785 286.702 70.7293 286.731C70.68 286.76 70.6256 286.779 70.569 286.787C70.5124 286.795 70.4548 286.791 70.3995 286.777C62.67 284.68 53.4669 288.537 53.3743 288.579C53.3184 288.587 53.2618 288.587 53.2059 288.579Z" fill="white"/>
<path d="M76.3104 141.271V313.098C76.3391 313.603 76.4858 314.095 76.7387 314.534C76.9917 314.973 77.3439 315.346 77.7671 315.624L81.674 317.889C82.1255 318.117 82.6245 318.237 83.1306 318.237C83.6367 318.237 84.1357 318.117 84.5873 317.889L266.384 212.934C266.807 212.656 267.159 212.282 267.412 211.844C267.665 211.405 267.812 210.913 267.84 210.408V38.5891C267.791 37.3589 267.453 36.1576 266.853 35.0824C266.254 34.0072 265.409 33.0884 264.388 32.4004C263.283 31.8644 262.068 31.5965 260.841 31.6184C259.613 31.6404 258.408 31.9516 257.324 32.5267L79.99 134.956C78.9205 135.642 78.0292 136.572 77.3895 137.67C76.7498 138.768 76.3799 140.002 76.3104 141.271Z" fill="#455A64"/>
<path d="M86.5407 142.997L77.3713 137.684C76.7178 138.77 76.3526 140.004 76.3104 141.271V313.098C76.3391 313.603 76.4858 314.095 76.7387 314.534C76.9917 314.973 77.3439 315.346 77.7671 315.624L81.674 317.889C82.1255 318.117 82.6245 318.237 83.1306 318.237C83.6367 318.237 84.1357 318.117 84.5873 317.889L86.5491 316.752L86.5407 142.997Z" fill="#37474F"/>
<path d="M264.194 36.4839L86.7933 138.93C85.7315 139.621 84.8478 140.554 84.2143 141.651C83.5808 142.748 83.2153 143.98 83.1475 145.245V317.047C83.1475 317.973 83.8042 318.352 84.6041 317.889L266.384 212.933C266.807 212.655 267.159 212.282 267.412 211.843C267.665 211.405 267.812 210.913 267.84 210.407V38.5889C267.84 36.265 266.207 35.364 264.194 36.4839Z" fill="#37474F"/>
<path d="M264.194 36.4839L86.7933 138.93C85.7315 139.621 84.8478 140.554 84.2143 141.651C83.5808 142.748 83.2153 143.98 83.1475 145.245V317.047C83.1475 317.973 83.8042 318.352 84.6041 317.889L266.384 212.933C266.807 212.655 267.159 212.282 267.412 211.843C267.665 211.405 267.812 210.913 267.84 210.407V38.5889C267.84 36.265 266.207 35.364 264.194 36.4839Z" fill="#263238"/>
<path d="M267.84 46.226V38.5806C267.84 36.2651 266.207 35.3221 264.194 36.484L86.7933 138.93C85.7315 139.622 84.8478 140.554 84.2143 141.651C83.5808 142.748 83.2153 143.98 83.1475 145.245V152.882L267.84 46.226Z" fill="#37474F"/>
<path d="M260.447 47.3964C260.403 47.4091 260.357 47.4091 260.313 47.3964C260.275 47.3801 260.241 47.3563 260.213 47.3265C260.184 47.2966 260.163 47.2613 260.148 47.2227C260.134 47.1841 260.128 47.143 260.13 47.102C260.132 47.0609 260.143 47.0207 260.161 46.9839L261.458 44.2305C261.5 44.1668 261.564 44.1205 261.638 44.1C261.712 44.0795 261.791 44.0862 261.86 44.1188C261.929 44.1515 261.985 44.2079 262.016 44.2778C262.047 44.3477 262.052 44.4266 262.03 44.5L260.734 47.2533C260.702 47.2996 260.659 47.3371 260.609 47.3621C260.559 47.3872 260.503 47.399 260.447 47.3964Z" fill="#FAFAFA"/>
<path d="M260.363 47.573C260.313 47.5843 260.262 47.5843 260.212 47.573C260.158 47.5446 260.113 47.5004 260.085 47.4463C260.056 47.3922 260.045 47.3307 260.052 47.2699L260.178 45.468C260.181 45.4271 260.192 45.3872 260.211 45.3506C260.23 45.314 260.256 45.2814 260.287 45.2548C260.318 45.2282 260.354 45.2081 260.393 45.1955C260.433 45.183 260.474 45.1783 260.515 45.1818C260.557 45.1849 260.597 45.1964 260.634 45.2156C260.672 45.2348 260.705 45.2613 260.731 45.2936C260.758 45.3258 260.778 45.3631 260.79 45.4032C260.802 45.4433 260.806 45.4854 260.801 45.527L260.708 46.5205L261.197 46.1248C261.264 46.075 261.347 46.0525 261.43 46.0619C261.513 46.0712 261.589 46.1118 261.643 46.1753C261.701 46.2351 261.734 46.3151 261.734 46.3985C261.734 46.4818 261.701 46.5619 261.643 46.6216L260.565 47.4636C260.541 47.4952 260.511 47.5213 260.476 47.5402C260.441 47.5591 260.403 47.5703 260.363 47.573Z" fill="#FAFAFA"/>
<path d="M262.266 43.5398C262.222 43.5475 262.176 43.5475 262.131 43.5398C262.093 43.5226 262.059 43.498 262.031 43.4673C262.003 43.4367 261.981 43.4006 261.967 43.3614C261.952 43.3221 261.946 43.2804 261.949 43.2387C261.951 43.197 261.962 43.1563 261.98 43.1188L263.285 40.3739C263.301 40.3361 263.325 40.3021 263.355 40.2738C263.385 40.2456 263.42 40.2237 263.459 40.2095C263.497 40.1953 263.538 40.1892 263.579 40.1914C263.621 40.1935 263.661 40.2041 263.698 40.2223C263.736 40.2395 263.77 40.2641 263.798 40.2948C263.826 40.3254 263.848 40.3614 263.862 40.4007C263.877 40.44 263.883 40.4817 263.88 40.5234C263.878 40.565 263.867 40.6058 263.849 40.6433L262.552 43.3882C262.523 43.4373 262.481 43.4774 262.431 43.5041C262.38 43.5309 262.323 43.5432 262.266 43.5398Z" fill="#FAFAFA"/>
<path d="M263.487 42.3529C263.445 42.3497 263.405 42.3382 263.367 42.319C263.33 42.2998 263.297 42.2733 263.271 42.2411C263.244 42.2088 263.224 42.1716 263.212 42.1315C263.2 42.0913 263.196 42.0492 263.201 42.0076L263.293 41.0141L262.805 41.4098C262.739 41.4634 262.655 41.4886 262.57 41.48C262.486 41.4713 262.408 41.4294 262.355 41.3635C262.301 41.2976 262.276 41.2132 262.284 41.1287C262.293 41.0442 262.335 40.9666 262.401 40.913L263.479 40.071C263.529 40.0359 263.59 40.0171 263.651 40.0171C263.713 40.0171 263.773 40.0359 263.824 40.071C263.878 40.0995 263.922 40.1437 263.951 40.1978C263.979 40.2519 263.991 40.3134 263.984 40.3742L263.807 42.1003C263.791 42.173 263.751 42.238 263.692 42.2841C263.634 42.3302 263.561 42.3545 263.487 42.3529Z" fill="#FAFAFA"/>
<path d="M91.7022 140.016C91.209 140.344 90.7997 140.783 90.5072 141.298C90.2147 141.812 90.0472 142.389 90.0182 142.98C90.0182 144.075 90.7844 144.513 91.7022 143.965C92.1952 143.639 92.6045 143.202 92.8971 142.689C93.1897 142.175 93.3572 141.6 93.3862 141.01C93.4115 139.915 92.62 139.477 91.7022 140.016Z" fill="#FAFAFA"/>
<path d="M98.514 136.084C98.0208 136.412 97.6114 136.851 97.3189 137.366C97.0264 137.881 96.859 138.457 96.83 139.048C96.83 140.134 97.5962 140.581 98.514 140.033C99.0071 139.706 99.4165 139.267 99.709 138.752C100.001 138.237 100.169 137.661 100.198 137.069C100.248 135.983 99.4822 135.562 98.514 136.084Z" fill="#FAFAFA"/>
<path d="M105.376 132.144C104.884 132.472 104.475 132.912 104.183 133.426C103.891 133.941 103.723 134.517 103.692 135.108C103.692 136.202 104.458 136.64 105.376 136.093C105.87 135.767 106.279 135.33 106.572 134.817C106.865 134.303 107.032 133.728 107.06 133.137C107.094 132.043 106.328 131.605 105.376 132.144Z" fill="#FAFAFA"/>
<path d="M325.18 148.444H343.704C344.025 148.444 344.342 148.381 344.639 148.259C344.935 148.136 345.204 147.956 345.431 147.729C345.658 147.503 345.838 147.233 345.96 146.937C346.083 146.641 346.146 146.323 346.146 146.003V113.047C346.146 109.938 344.911 106.957 342.713 104.759C340.515 102.561 337.534 101.326 334.425 101.326C331.317 101.326 328.336 102.561 326.138 104.759C323.94 106.957 322.705 109.938 322.705 113.047V146.003C322.705 146.326 322.769 146.647 322.894 146.945C323.019 147.243 323.202 147.514 323.432 147.741C323.662 147.969 323.935 148.148 324.236 148.268C324.536 148.389 324.857 148.449 325.18 148.444Z" fill="#263238"/>
<path d="M343.536 105.949L346.373 104.425C346.283 104.233 346.155 104.062 345.997 103.922C345.838 103.782 345.653 103.676 345.452 103.609C345.251 103.543 345.039 103.519 344.828 103.537C344.617 103.556 344.413 103.617 344.226 103.717C343.845 103.928 343.56 104.278 343.431 104.694C343.303 105.11 343.34 105.56 343.536 105.949Z" fill="#263238"/>
<path d="M343.368 106.269L346.382 107.397C346.466 107.203 346.51 106.994 346.511 106.782C346.512 106.571 346.469 106.362 346.387 106.167C346.304 105.972 346.182 105.797 346.03 105.651C345.877 105.505 345.696 105.391 345.498 105.317C345.089 105.17 344.638 105.187 344.241 105.364C343.844 105.542 343.531 105.866 343.368 106.269Z" fill="#263238"/>
<path d="M321.13 127.765L312.525 127.521C311.944 127.032 302.901 116.827 302.901 116.827C302.901 116.827 299.651 121.955 299.592 122.283C299.533 122.612 308.458 132.152 309.342 133.111C309.591 133.432 309.91 133.692 310.275 133.87C310.64 134.048 311.041 134.14 311.447 134.139C313.78 134.282 322.511 134.896 322.511 134.896L321.13 127.765Z" fill="#F28F8F"/>
<path d="M333.264 136.017L319.025 135.402C317.762 133.676 317.796 129.095 319.067 127.63L334.83 128.06L333.264 136.017Z" fill="#0EA5C6"/>
<path d="M333.264 136.017L319.025 135.402C317.762 133.676 317.796 129.095 319.067 127.63L334.83 128.06L333.264 136.017Z" fill="#0EA5C6"/>
<path opacity="0.1" d="M333.264 136.017L319.025 135.402C317.762 133.676 317.796 129.095 319.067 127.63L334.83 128.06L333.264 136.017Z" fill="black"/>
<path d="M299.92 113.56C301.604 113.375 302.724 112.129 303.103 112.474C303.245 112.64 303.325 112.851 303.328 113.069C303.331 113.287 303.257 113.5 303.12 113.67C302.343 114.26 301.494 114.75 300.594 115.126C300.383 115.982 300.231 116.852 300.139 117.728C299.996 119.017 300.047 121.585 298.944 122.469C295.651 125.104 294.809 120.919 294.944 118.107C295.146 114.638 298.161 113.754 299.92 113.56Z" fill="#F28F8F"/>
<path d="M332.657 231.719C332.686 232.289 332.542 232.855 332.245 233.344C331.477 234.604 330.58 235.781 329.567 236.855C328.136 238.387 325.989 240.223 324.456 241.545C323.614 242.294 323.614 243.422 324.793 243.818C327.076 244.381 329.488 244.043 331.529 242.875C333.053 242.033 335.225 238.278 336.497 237.705C337.954 237.048 338.77 236.712 339.267 236.021C339.64 235.638 339.872 235.14 339.926 234.607C339.979 234.075 339.851 233.541 339.562 233.091C338.871 231.811 337.878 229.841 337.415 230.06L337.549 230.464C337.213 231.508 334.375 232.72 332.91 232.434L332.657 231.719Z" fill="#263238"/>
<path d="M331.369 226.683C331.929 228.33 332.357 230.02 332.649 231.735C332.689 232.3 332.547 232.864 332.245 233.343C331.477 234.606 330.576 235.783 329.559 236.854C328.868 237.604 328.001 238.42 327.117 239.203C327.043 239.316 326.999 239.447 326.991 239.582C326.991 240.374 328.936 240.593 330.072 240.256C331.498 239.751 332.727 238.808 333.584 237.562C334.24 236.72 335.714 235.036 336.648 233.747C336.977 233.36 337.26 232.937 337.49 232.484C337.744 231.914 337.786 231.272 337.608 230.674L337.549 230.489C337.044 228.925 336.733 227.304 336.623 225.664" fill="#FFA8A7"/>
<path d="M344.858 233.461C344.613 234.928 344.489 236.412 344.487 237.899V241.191H339.612V235.583H339.545C339.545 235.583 339.461 234.48 339.326 232.754" fill="#FFA8A7"/>
<path d="M331.369 226.683C328.675 217.969 322.68 202.366 321.854 199.63C321.012 196.717 322.04 171.212 322.747 163.045L348.167 161.664C350.104 169.949 348.217 181.114 347.552 188.094C346.912 194.881 346.112 202.813 346.112 202.813C346.112 202.813 348.1 209.734 347.569 215.241C347.232 218.71 345.599 228.965 344.858 233.445C343.934 233.704 342.967 233.772 342.015 233.645C341.064 233.518 340.149 233.197 339.326 232.704C339.014 228.771 338.425 221.606 337.869 216.925C337.027 209.885 336.749 204.749 336.025 200.64C335.124 195.521 334.804 175.431 334.804 175.431L331.883 198.215C333.036 200.341 333.916 202.605 334.501 204.951C335.343 208.193 336.236 220.351 336.598 225.614C335.035 226.574 333.183 226.952 331.369 226.683Z" fill="#37474F"/>
<path d="M334.804 175.448C334.804 175.448 330.165 173.814 327.521 171.389C328.847 173.46 330.733 175.113 332.96 176.155L333.003 189.492L334.804 175.448Z" fill="#263238"/>
<path d="M338.484 128.169C338.484 128.169 345.388 128.961 346.214 129.331C342.004 133.937 346.483 137.751 346.483 137.751L342.492 151.796C345.254 155.332 347.62 158.102 348.285 162.321C345.321 167.533 328.708 168.257 322.612 164.367C323.143 157.092 324.296 151.888 323.934 149.699C321.029 140.766 321.939 138.896 322.208 136.859C322.739 132.876 326.696 129.399 328.944 127.942H331.058L338.484 128.169Z" fill="#0EA5C6"/>
<path d="M339.604 238.791V238.092C339.003 240.4 337.8 242.506 336.118 244.197C334.577 245.603 332.481 247.22 331.95 248.786C331.42 250.352 334.426 251.059 336.413 250.865C338.347 250.628 340.128 249.694 341.423 248.238C342.694 246.79 342.669 245.797 343.258 244.997C343.848 244.197 345.212 243.313 345.532 242.378C345.624 241.526 345.529 240.664 345.254 239.852C345.026 239.01 344.782 238.042 344.487 238.126V238.656C343.793 239.206 342.932 239.503 342.046 239.498C341.33 239.473 339.604 239.33 339.604 238.791Z" fill="#263238"/>
<path d="M344.487 238.622C343.793 239.172 342.932 239.469 342.046 239.464C341.33 239.464 339.604 239.347 339.604 238.808V238.109C339.003 240.416 337.8 242.523 336.118 244.213L334.948 245.257C334.106 246.167 334.358 246.941 336.286 247.127C338.215 247.312 339.899 246.133 341.338 244.348C342.585 242.555 343.64 240.636 344.487 238.622Z" fill="#FFA8A7"/>
<path d="M326.587 107.069C325.349 107.801 323.816 110.917 323.968 117.442C324.094 122.974 325.888 124.338 326.789 124.734C327.69 125.13 329.433 124.886 331.117 124.608V127.925C331.117 127.925 328.784 130.636 328.927 132.135C329.07 133.634 332.295 134.021 334.484 132.531C336.063 131.305 337.424 129.822 338.509 128.144V120.507C338.509 120.507 339.503 121.475 341.187 120.002C342.576 118.781 343.048 116.735 341.961 115.632C341.68 115.372 341.34 115.183 340.971 115.079C340.603 114.975 340.214 114.96 339.839 115.035C339.463 115.11 339.11 115.272 338.809 115.509C338.507 115.746 338.266 116.051 338.105 116.398C338.105 116.398 337.17 113.796 333.28 112.525C329.727 111.405 327.816 110.083 326.587 107.069Z" fill="#FFA8A7"/>
<path d="M330.148 116.053C330.141 116.145 330.153 116.238 330.182 116.326C330.212 116.414 330.258 116.495 330.32 116.565C330.381 116.635 330.455 116.692 330.538 116.732C330.622 116.773 330.712 116.797 330.805 116.802C330.949 116.815 331.094 116.785 331.221 116.715C331.348 116.646 331.451 116.539 331.517 116.41C331.583 116.281 331.608 116.135 331.59 115.992C331.572 115.848 331.512 115.713 331.416 115.604C331.321 115.495 331.195 115.417 331.055 115.38C330.915 115.344 330.767 115.35 330.63 115.398C330.494 115.447 330.375 115.535 330.289 115.652C330.203 115.768 330.154 115.908 330.148 116.053Z" fill="#263238"/>
<path d="M329.963 120.743L328.38 121.248C328.41 121.356 328.461 121.457 328.531 121.544C328.6 121.632 328.686 121.705 328.784 121.759C328.882 121.813 328.99 121.847 329.101 121.859C329.213 121.871 329.325 121.861 329.432 121.829C329.642 121.749 329.814 121.592 329.912 121.391C330.011 121.189 330.029 120.957 329.963 120.743Z" fill="#F28F8F"/>
<path d="M324.439 113.914L325.854 112.937C325.793 112.845 325.714 112.765 325.622 112.703C325.53 112.641 325.426 112.598 325.318 112.576C325.209 112.554 325.097 112.554 324.988 112.576C324.879 112.597 324.776 112.64 324.683 112.702C324.496 112.834 324.366 113.034 324.32 113.259C324.275 113.485 324.318 113.719 324.439 113.914Z" fill="#263238"/>
<path d="M332.169 114.428L330.763 113.451C330.824 113.358 330.903 113.279 330.995 113.217C331.087 113.155 331.19 113.112 331.299 113.09C331.408 113.068 331.52 113.068 331.629 113.089C331.737 113.111 331.841 113.154 331.933 113.215C332.121 113.348 332.251 113.548 332.295 113.774C332.339 114 332.294 114.234 332.169 114.428Z" fill="#263238"/>
<path d="M324.768 115.547C324.761 115.64 324.772 115.734 324.802 115.822C324.831 115.91 324.878 115.992 324.939 116.063C325 116.133 325.074 116.191 325.157 116.232C325.241 116.274 325.332 116.299 325.425 116.305C325.568 116.318 325.713 116.288 325.84 116.219C325.966 116.149 326.069 116.043 326.135 115.915C326.201 115.786 326.227 115.641 326.21 115.497C326.193 115.354 326.133 115.219 326.038 115.11C325.944 115.001 325.818 114.922 325.679 114.885C325.539 114.847 325.392 114.852 325.255 114.899C325.119 114.946 324.999 115.033 324.912 115.149C324.825 115.264 324.775 115.403 324.768 115.547Z" fill="#263238"/>
<path d="M328.052 115.152L327.942 119.337L325.736 118.655L328.052 115.152Z" fill="#F28F8F"/>
<path d="M331.116 124.616C332.893 124.38 336.556 123.328 337.128 121.879C336.899 122.614 336.449 123.261 335.84 123.732C334.754 124.666 331.116 125.727 331.116 125.727V124.616Z" fill="#F28F8F"/>
<path d="M344.294 145.565L338.846 154.162L342.517 151.804L344.294 145.565Z" fill="#0EA5C6"/>
<g opacity="0.2">
<path opacity="0.2" d="M344.294 145.565L338.846 154.162L342.517 151.804L344.294 145.565Z" fill="black"/>
</g>
<path d="M98.7918 327.757L98.2866 327.471C97.8634 327.192 97.5112 326.819 97.2582 326.381C97.0053 325.942 96.8586 325.45 96.83 324.945V182.183C96.8566 181.677 97.0025 181.185 97.2556 180.746C97.5087 180.307 97.862 179.934 98.2866 179.657L191.134 126.047C191.56 125.772 191.915 125.399 192.17 124.96C192.424 124.521 192.571 124.028 192.599 123.521V115.042C192.627 114.537 192.773 114.045 193.026 113.606C193.279 113.167 193.632 112.794 194.056 112.516L235.6 88.5362C236.05 88.3036 236.55 88.1822 237.057 88.1822C237.563 88.1822 238.063 88.3036 238.513 88.5362L239.018 88.8224C239.443 89.099 239.796 89.4719 240.05 89.9109C240.303 90.3499 240.449 90.8424 240.475 91.3484V95.8784C240.475 96.813 241.132 97.1835 241.94 96.7204L280.066 74.7105C280.518 74.4819 281.017 74.3628 281.523 74.3628C282.029 74.3628 282.528 74.4819 282.979 74.7105L283.485 75.0052C283.91 75.2813 284.263 75.6541 284.516 76.0932C284.77 76.5322 284.915 77.025 284.941 77.5312V220.284C284.915 220.79 284.77 221.283 284.516 221.722C284.263 222.161 283.91 222.534 283.485 222.81L101.705 327.757C101.255 327.989 100.755 328.111 100.248 328.111C99.7416 328.111 99.2421 327.989 98.7918 327.757Z" fill="#E0E0E0"/>
<path d="M100.248 326.915V184.162C100.276 183.656 100.422 183.164 100.675 182.725C100.928 182.286 101.281 181.913 101.705 181.636L194.561 128.026C194.984 127.748 195.336 127.375 195.589 126.936C195.842 126.498 195.989 126.006 196.018 125.5V117.038C196.043 116.532 196.189 116.039 196.442 115.6C196.695 115.161 197.049 114.788 197.474 114.512L239.018 90.5235C239.86 90.0604 240.475 90.4393 240.475 91.3655V99.8444C240.475 100.779 241.132 101.15 241.94 100.686L283.484 76.7063C284.326 76.2348 284.941 76.6137 284.941 77.5483V220.284C284.915 220.79 284.77 221.283 284.516 221.722C284.263 222.161 283.91 222.534 283.484 222.81L101.705 327.757C100.905 328.229 100.248 327.85 100.248 326.915Z" fill="#F5F5F5"/>
<path d="M96.83 191.134V192.372L100.248 194.35L284.941 87.6942V77.5228C284.912 77.0174 284.765 76.5258 284.512 76.0873C284.259 75.6487 283.907 75.2753 283.485 74.9968L282.979 74.7105C282.528 74.4819 282.029 74.3628 281.523 74.3628C281.017 74.3628 280.518 74.4819 280.066 74.7105L241.932 96.7204C241.132 97.1835 240.475 96.813 240.475 95.8784V91.3484C240.449 90.8424 240.303 90.3499 240.05 89.9109C239.796 89.4719 239.443 89.099 239.018 88.8224L238.513 88.5362C238.063 88.3036 237.563 88.1822 237.057 88.1822C236.55 88.1822 236.05 88.3036 235.6 88.5362L194.056 112.516C193.631 112.793 193.277 113.166 193.023 113.605C192.768 114.044 192.62 114.536 192.591 115.042V123.521C192.565 124.027 192.419 124.52 192.166 124.959C191.913 125.398 191.559 125.771 191.134 126.047L98.2866 179.657C97.862 179.934 97.5087 180.307 97.2556 180.746C97.0025 181.185 96.8566 181.677 96.83 182.183V191.134Z" fill="#37474F"/>
<path d="M96.83 191.134V192.372L100.248 194.35L284.941 87.6942V77.5228C284.912 77.0174 284.765 76.5258 284.512 76.0873C284.259 75.6487 283.907 75.2753 283.485 74.9968L282.979 74.7105C282.528 74.4819 282.029 74.3628 281.523 74.3628C281.017 74.3628 280.518 74.4819 280.066 74.7105L241.932 96.7204C241.132 97.1835 240.475 96.813 240.475 95.8784V91.3484C240.449 90.8424 240.303 90.3499 240.05 89.9109C239.796 89.4719 239.443 89.099 239.018 88.8224L238.513 88.5362C238.063 88.3036 237.563 88.1822 237.057 88.1822C236.55 88.1822 236.05 88.3036 235.6 88.5362L194.056 112.516C193.631 112.793 193.277 113.166 193.023 113.605C192.768 114.044 192.62 114.536 192.591 115.042V123.521C192.565 124.027 192.419 124.52 192.166 124.959C191.913 125.398 191.559 125.771 191.134 126.047L98.2866 179.657C97.862 179.934 97.5087 180.307 97.2556 180.746C97.0025 181.185 96.8566 181.677 96.83 182.183V191.134Z" fill="#FAFAFA"/>
<path d="M199.436 129.154V117.307L193.02 113.611C192.758 114.044 192.61 114.536 192.591 115.042V123.521C192.575 124.029 192.43 124.525 192.17 124.961L199.436 129.154Z" fill="#E0E0E0"/>
<path d="M103.667 184.448L97.2594 180.744C96.9946 181.179 96.8467 181.675 96.83 182.183V192.346L100.248 194.325L103.667 184.448Z" fill="#E0E0E0"/>
<path d="M194.561 128.026L101.705 181.636C101.281 181.913 100.928 182.286 100.675 182.725C100.422 183.164 100.276 183.656 100.248 184.162V194.325L284.941 87.6944V77.523C284.941 76.5968 284.284 76.2179 283.484 76.681L241.932 100.67C241.132 101.141 240.475 100.762 240.475 99.8276V91.3487C240.475 90.4225 239.827 90.0436 239.018 90.5067L197.474 114.512C197.049 114.788 196.695 115.161 196.442 115.6C196.189 116.039 196.043 116.532 196.018 117.038V125.517C195.986 126.02 195.838 126.508 195.586 126.944C195.333 127.379 194.982 127.75 194.561 128.026Z" fill="#EBEBEB"/>
<g style="mix-blend-mode:multiply" opacity="0.7">
<g style="mix-blend-mode:multiply" opacity="0.7">
<path d="M109.3 182.444L106.311 184.128L107.456 182.158C107.491 182.11 107.515 182.056 107.527 181.998C107.54 181.941 107.54 181.881 107.528 181.823C107.515 181.766 107.491 181.711 107.457 181.664C107.422 181.616 107.378 181.576 107.327 181.546C107.276 181.517 107.22 181.498 107.161 181.492C107.103 181.485 107.043 181.491 106.987 181.509C106.931 181.527 106.879 181.557 106.835 181.596C106.791 181.635 106.756 181.683 106.732 181.737L104.787 185.105C104.764 185.155 104.752 185.21 104.752 185.265C104.752 185.32 104.764 185.375 104.787 185.425C104.8 185.479 104.825 185.53 104.86 185.574C104.895 185.617 104.939 185.653 104.989 185.677L106.934 186.772C106.994 186.812 107.064 186.832 107.136 186.831C107.211 186.829 107.285 186.809 107.35 186.77C107.415 186.732 107.469 186.677 107.507 186.612C107.559 186.514 107.571 186.4 107.542 186.294C107.512 186.187 107.442 186.096 107.347 186.039L106.041 185.307L109.763 183.16C109.811 183.132 109.853 183.095 109.887 183.051C109.921 183.007 109.946 182.957 109.96 182.904C109.975 182.85 109.979 182.794 109.972 182.739C109.964 182.684 109.947 182.631 109.919 182.583C109.891 182.535 109.854 182.493 109.81 182.459C109.767 182.425 109.716 182.4 109.663 182.386C109.609 182.371 109.553 182.368 109.498 182.375C109.443 182.382 109.39 182.4 109.342 182.427L109.3 182.444Z" fill="#E0E0E0"/>
</g>
<g style="mix-blend-mode:multiply" opacity="0.7">
<path d="M116.263 179.026C116.235 178.917 116.165 178.824 116.07 178.765L114.125 177.67C114.076 177.643 114.022 177.626 113.967 177.62C113.912 177.613 113.856 177.618 113.802 177.633C113.749 177.648 113.699 177.674 113.655 177.708C113.611 177.743 113.575 177.786 113.548 177.834C113.521 177.883 113.504 177.937 113.497 177.992C113.491 178.047 113.495 178.103 113.511 178.157C113.526 178.21 113.551 178.26 113.586 178.304C113.621 178.348 113.663 178.384 113.712 178.411L115.009 179.135L111.287 181.291C111.192 181.347 111.122 181.438 111.092 181.545C111.062 181.652 111.075 181.766 111.127 181.863C111.165 181.928 111.219 181.981 111.284 182.018C111.349 182.055 111.423 182.074 111.498 182.074C111.571 182.073 111.643 182.056 111.708 182.023L114.697 180.289L113.552 182.259C113.496 182.357 113.481 182.472 113.509 182.581C113.538 182.689 113.607 182.782 113.704 182.84C113.768 182.876 113.84 182.896 113.914 182.899C113.988 182.899 114.06 182.879 114.123 182.842C114.187 182.805 114.239 182.752 114.276 182.689L116.221 179.321C116.247 179.277 116.265 179.228 116.272 179.177C116.279 179.127 116.276 179.075 116.263 179.026Z" fill="#E0E0E0"/>
</g>
</g>
<path d="M122.595 173.519L255.766 96.6448C256.768 96.0638 257.585 96.4764 257.585 97.5625C257.54 98.175 257.353 98.7685 257.037 99.2951C256.721 99.8216 256.286 100.267 255.766 100.594L122.595 177.477C121.593 178.058 120.776 177.645 120.776 176.551C120.822 175.938 121.01 175.345 121.326 174.819C121.642 174.293 122.077 173.848 122.595 173.519Z" fill="#E0E0E0"/>
<path d="M262.704 92.6198C263.655 92.0725 264.388 92.5188 264.388 93.605C264.36 94.1967 264.193 94.7735 263.901 95.2885C263.608 95.8035 263.198 96.2422 262.704 96.5688C261.761 97.1161 261.02 96.6699 261.02 95.5837C261.049 94.9923 261.216 94.416 261.509 93.9012C261.801 93.3864 262.211 92.9475 262.704 92.6198Z" fill="#FAFAFA"/>
<path d="M269.558 88.6794C270.501 88.1321 271.242 88.5784 271.242 89.6646C271.213 90.2559 271.045 90.8322 270.753 91.347C270.46 91.8618 270.051 92.3008 269.558 92.6284C268.615 93.1757 267.874 92.7294 267.874 91.6433C267.903 91.0519 268.07 90.4756 268.363 89.9608C268.655 89.446 269.065 89.0071 269.558 88.6794Z" fill="#FAFAFA"/>
<path d="M276.395 84.7302C277.338 84.1829 278.079 84.6292 278.079 85.7153C278.05 86.3067 277.882 86.883 277.59 87.3978C277.297 87.9126 276.888 88.3515 276.395 88.6792C275.452 89.2265 274.711 88.7802 274.711 87.694C274.74 87.1027 274.907 86.5264 275.2 86.0115C275.492 85.4967 275.902 85.0578 276.395 84.7302Z" fill="#FAFAFA"/>
<g style="mix-blend-mode:multiply" opacity="0.7">
<g style="mix-blend-mode:multiply" opacity="0.7">
<path d="M206.29 115.354C206.29 116.44 207.132 116.853 208.117 116.272L228.409 104.56C228.931 104.234 229.368 103.789 229.686 103.263C230.003 102.736 230.192 102.142 230.236 101.528C230.236 100.442 229.394 100.03 228.409 100.611L208.117 112.323C207.595 112.649 207.158 113.093 206.841 113.62C206.523 114.146 206.334 114.741 206.29 115.354Z" fill="#E0E0E0"/>
</g>
<g style="mix-blend-mode:multiply" opacity="0.7">
<path d="M201.145 116.322C200.652 116.65 200.243 117.089 199.95 117.604C199.658 118.118 199.49 118.695 199.461 119.286C199.461 120.372 200.228 120.818 201.145 120.271C201.638 119.944 202.048 119.505 202.34 118.99C202.633 118.475 202.8 117.899 202.829 117.307C202.855 116.196 202.08 115.775 201.145 116.322Z" fill="#0EA5C6"/>
</g>
<g style="mix-blend-mode:multiply" opacity="0.7">
<path d="M237.057 99.9619C236.983 99.9581 236.911 99.938 236.846 99.903L233.428 97.9243C233.374 97.9 233.326 97.8647 233.287 97.8208C233.247 97.7768 233.218 97.7251 233.2 97.669C233.182 97.6129 233.176 97.5536 233.182 97.4951C233.189 97.4365 233.207 97.38 233.237 97.329C233.267 97.2781 233.307 97.234 233.354 97.1994C233.402 97.1649 233.456 97.1408 233.514 97.1287C233.572 97.1165 233.631 97.1166 233.689 97.1289C233.747 97.1412 233.801 97.1655 233.849 97.2001L237.267 99.1704C237.363 99.2282 237.433 99.3214 237.461 99.43C237.49 99.5386 237.474 99.654 237.419 99.7514C237.382 99.815 237.329 99.8679 237.266 99.9049C237.202 99.9418 237.13 99.9614 237.057 99.9619Z" fill="#E0E0E0"/>
</g>
<g style="mix-blend-mode:multiply" opacity="0.7">
<path d="M233.638 101.932C233.564 101.934 233.49 101.913 233.428 101.873C233.379 101.846 233.337 101.81 233.303 101.766C233.269 101.723 233.245 101.673 233.231 101.619C233.217 101.566 233.213 101.51 233.221 101.455C233.229 101.401 233.248 101.348 233.276 101.301L236.695 95.4068C236.719 95.3531 236.754 95.3051 236.798 95.2659C236.842 95.2267 236.894 95.1972 236.95 95.1792C237.006 95.1613 237.065 95.1553 237.124 95.1617C237.182 95.168 237.239 95.1866 237.29 95.2162C237.341 95.2458 237.385 95.2858 237.419 95.3335C237.454 95.3813 237.478 95.4357 237.49 95.4934C237.502 95.551 237.502 95.6106 237.49 95.6682C237.478 95.7258 237.453 95.7802 237.419 95.8278L234 101.722C233.963 101.785 233.911 101.838 233.847 101.875C233.784 101.912 233.712 101.932 233.638 101.932Z" fill="#E0E0E0"/>
</g>
</g>
<path d="M109.056 333.684L108.551 333.39C108.126 333.113 107.772 332.741 107.519 332.302C107.266 331.862 107.12 331.37 107.094 330.864V188.111C107.122 187.604 107.269 187.111 107.523 186.672C107.778 186.233 108.133 185.86 108.559 185.585L156.94 157.647C157.366 157.371 157.721 156.999 157.975 156.56C158.23 156.121 158.377 155.628 158.405 155.121V146.642C158.429 146.136 158.574 145.642 158.828 145.203C159.081 144.763 159.436 144.391 159.862 144.116L201.406 120.128C201.858 119.899 202.357 119.78 202.863 119.78C203.369 119.78 203.868 119.899 204.32 120.128L204.825 120.422C205.25 120.698 205.604 121.071 205.857 121.51C206.11 121.949 206.256 122.442 206.282 122.948V127.478C206.282 128.405 206.938 128.784 207.747 128.32L290.322 80.6295C290.775 80.4015 291.275 80.2827 291.782 80.2827C292.29 80.2827 292.79 80.4015 293.243 80.6295L293.74 80.9242C294.166 81.2003 294.52 81.573 294.775 82.0119C295.03 82.4508 295.177 82.9436 295.205 83.4502V226.211C295.176 226.718 295.028 227.21 294.773 227.649C294.519 228.087 294.165 228.46 293.74 228.737L111.986 333.684C111.532 333.916 111.03 334.036 110.521 334.036C110.012 334.036 109.51 333.916 109.056 333.684Z" fill="#E0E0E0"/>
<path d="M110.512 332.842V190.081C110.539 189.575 110.685 189.083 110.938 188.644C111.191 188.205 111.544 187.832 111.969 187.555L160.359 159.618C160.783 159.341 161.136 158.968 161.389 158.529C161.642 158.09 161.788 157.597 161.816 157.092V148.613C161.843 148.107 161.99 147.615 162.243 147.176C162.496 146.737 162.848 146.364 163.272 146.087L204.816 122.09C205.658 121.618 206.273 121.997 206.273 122.932V131.411C206.273 132.337 206.93 132.716 207.738 132.253L293.74 82.5746C294.582 82.1115 295.205 82.4904 295.205 83.4166V226.211C295.176 226.718 295.028 227.21 294.773 227.649C294.519 228.087 294.165 228.46 293.74 228.737L111.986 333.684C111.144 334.147 110.512 333.768 110.512 332.842Z" fill="#FAFAFA"/>
<path d="M107.094 197.028V198.274L110.513 200.244L295.205 93.6132V83.4502C295.177 82.9436 295.03 82.4508 294.775 82.0119C294.52 81.573 294.166 81.2003 293.74 80.9242L293.243 80.6295C292.79 80.4015 292.29 80.2827 291.782 80.2827C291.275 80.2827 290.775 80.4015 290.322 80.6295L207.738 128.32C206.896 128.784 206.273 128.405 206.273 127.478V122.932C206.247 122.425 206.102 121.933 205.848 121.494C205.595 121.054 205.242 120.682 204.816 120.406L204.311 120.111C203.86 119.882 203.361 119.763 202.855 119.763C202.349 119.763 201.85 119.882 201.398 120.111L159.854 144.099C159.428 144.375 159.073 144.748 158.818 145.187C158.563 145.626 158.416 146.119 158.389 146.625V155.104C158.36 155.611 158.213 156.104 157.958 156.543C157.704 156.982 157.349 157.354 156.924 157.63L108.542 185.568C108.117 185.844 107.764 186.217 107.51 186.656C107.257 187.095 107.112 187.588 107.086 188.094L107.094 197.028Z" fill="#F0F0F0"/>
<path d="M165.234 160.754V148.907L158.818 145.203C158.556 145.639 158.408 146.134 158.389 146.642V155.121C158.368 155.63 158.22 156.125 157.959 156.561L165.234 160.754Z" fill="#E0E0E0"/>
<path d="M113.931 190.376L107.515 186.671C107.254 187.108 107.109 187.603 107.094 188.111V198.274L110.513 200.244L113.931 190.376Z" fill="#E0E0E0"/>
<path d="M160.359 159.618L111.986 187.555C111.561 187.832 111.208 188.205 110.955 188.644C110.702 189.083 110.556 189.575 110.529 190.081V200.244L295.205 93.6132V83.4503C295.205 82.5241 294.548 82.1452 293.74 82.6083L207.738 132.286C206.896 132.749 206.273 132.37 206.273 131.444V122.932C206.273 121.997 205.625 121.618 204.816 122.09L163.272 146.087C162.848 146.364 162.496 146.737 162.243 147.176C161.99 147.615 161.843 148.107 161.816 148.613V157.092C161.788 157.597 161.642 158.09 161.389 158.529C161.136 158.968 160.783 159.341 160.359 159.618Z" fill="#E0E0E0"/>
<g style="mix-blend-mode:multiply" opacity="0.7">
<g style="mix-blend-mode:multiply" opacity="0.7">
<path d="M119.564 188.372L116.575 190.098L117.72 188.128C117.755 188.08 117.779 188.026 117.791 187.968C117.803 187.91 117.804 187.851 117.791 187.793C117.779 187.736 117.755 187.681 117.721 187.633C117.686 187.586 117.642 187.546 117.591 187.516C117.54 187.486 117.484 187.468 117.425 187.461C117.366 187.455 117.307 187.461 117.251 187.479C117.195 187.497 117.143 187.527 117.099 187.566C117.055 187.605 117.02 187.653 116.996 187.707L115.051 191.075C114.994 191.171 114.976 191.285 115 191.395C115.035 191.503 115.106 191.595 115.202 191.656L117.147 192.75C117.212 192.784 117.285 192.801 117.358 192.801C117.449 192.798 117.537 192.766 117.608 192.709C117.679 192.652 117.73 192.573 117.753 192.485C117.776 192.397 117.769 192.303 117.735 192.219C117.7 192.135 117.638 192.064 117.56 192.018L116.263 191.285L119.985 189.13C120.069 189.068 120.128 188.978 120.149 188.876C120.171 188.774 120.154 188.668 120.101 188.578C120.049 188.487 119.965 188.42 119.866 188.388C119.766 188.356 119.659 188.363 119.564 188.405V188.372Z" fill="#E0E0E0"/>
</g>
<g style="mix-blend-mode:multiply" opacity="0.7">
<path d="M126.527 184.945C126.513 184.891 126.487 184.841 126.453 184.798C126.418 184.754 126.374 184.718 126.325 184.692L124.38 183.598C124.283 183.543 124.168 183.529 124.061 183.559C123.953 183.589 123.862 183.661 123.808 183.758C123.753 183.855 123.739 183.97 123.769 184.077C123.799 184.184 123.871 184.276 123.968 184.33L125.273 185.063L121.543 187.218C121.464 187.265 121.402 187.337 121.367 187.422C121.333 187.507 121.327 187.601 121.351 187.69C121.375 187.779 121.427 187.857 121.5 187.913C121.572 187.97 121.661 188.001 121.753 188.001C121.828 188.003 121.901 187.982 121.964 187.943L124.961 186.216L123.816 188.187C123.788 188.234 123.769 188.287 123.761 188.341C123.753 188.396 123.757 188.452 123.771 188.505C123.785 188.558 123.81 188.608 123.843 188.652C123.877 188.696 123.919 188.732 123.968 188.759C124.03 188.8 124.104 188.821 124.178 188.818C124.252 188.818 124.324 188.798 124.387 188.761C124.451 188.724 124.503 188.671 124.54 188.608L126.485 185.24C126.535 185.15 126.55 185.045 126.527 184.945Z" fill="#E0E0E0"/>
</g>
</g>
<path d="M132.859 179.447L266.021 102.564C267.032 101.983 267.849 102.396 267.849 103.49C267.803 104.102 267.614 104.695 267.296 105.22C266.979 105.745 266.542 106.188 266.021 106.513L132.859 183.396C131.857 183.977 131.04 183.564 131.04 182.478C131.085 181.866 131.272 181.272 131.588 180.746C131.904 180.219 132.339 179.774 132.859 179.447Z" fill="#E0E0E0"/>
<path d="M272.976 98.5139C273.919 97.975 274.66 98.4129 274.66 99.5075C274.631 100.098 274.464 100.673 274.171 101.186C273.879 101.7 273.469 102.137 272.976 102.463C272.033 103.01 271.292 102.572 271.292 101.478C271.323 100.887 271.491 100.311 271.783 99.7962C272.075 99.2816 272.484 98.8425 272.976 98.5139Z" fill="#FAFAFA"/>
<path d="M279.813 94.5984C280.765 94.0595 281.497 94.4973 281.497 95.5919C281.469 96.1823 281.302 96.7577 281.009 97.2712C280.717 97.7848 280.307 98.222 279.813 98.5473C278.87 99.0946 278.129 98.6568 278.129 97.5622C278.16 96.9711 278.328 96.3953 278.62 95.8807C278.913 95.3661 279.321 94.927 279.813 94.5984Z" fill="#FAFAFA"/>
<path d="M286.659 90.6496C287.602 90.1108 288.343 90.5486 288.343 91.6432C288.314 92.2334 288.146 92.8086 287.854 93.322C287.561 93.8354 287.152 94.2728 286.659 94.5986C285.716 95.1459 284.975 94.7081 284.975 93.6135C285.005 93.0224 285.173 92.4466 285.466 91.932C285.758 91.4174 286.167 90.9783 286.659 90.6496Z" fill="#FAFAFA"/>
<g style="mix-blend-mode:multiply" opacity="0.7">
<g style="mix-blend-mode:multiply" opacity="0.7">
<path d="M172.071 146.928C172.071 148.023 172.913 148.436 173.898 147.855L194.19 136.134C194.711 135.809 195.148 135.366 195.465 134.841C195.783 134.316 195.972 133.723 196.018 133.111C196.018 132.017 195.176 131.604 194.19 132.185L173.898 143.906C173.378 144.231 172.941 144.674 172.624 145.199C172.306 145.724 172.117 146.317 172.071 146.928Z" fill="#E0E0E0"/>
</g>
<g style="mix-blend-mode:multiply" opacity="0.7">
<path d="M166.943 147.914C166.451 148.242 166.042 148.681 165.75 149.196C165.458 149.711 165.29 150.286 165.259 150.877C165.259 151.972 166.025 152.41 166.943 151.863C167.436 151.537 167.846 151.099 168.138 150.586C168.431 150.073 168.598 149.497 168.627 148.907C168.653 147.813 167.886 147.35 166.943 147.914Z" fill="#0EA5C6"/>
</g>
<g style="mix-blend-mode:multiply" opacity="0.7">
<path d="M202.855 131.554C202.78 131.554 202.707 131.534 202.644 131.495L199.226 129.525C199.177 129.497 199.135 129.46 199.101 129.416C199.068 129.372 199.043 129.322 199.028 129.268C199.014 129.215 199.01 129.159 199.017 129.104C199.024 129.049 199.042 128.996 199.07 128.948C199.097 128.9 199.134 128.858 199.178 128.824C199.222 128.79 199.272 128.765 199.326 128.75C199.379 128.736 199.435 128.732 199.49 128.739C199.545 128.746 199.598 128.764 199.647 128.792L203.065 130.771C203.144 130.818 203.206 130.889 203.24 130.974C203.275 131.059 203.281 131.153 203.257 131.242C203.233 131.331 203.181 131.409 203.108 131.466C203.035 131.522 202.946 131.553 202.855 131.554Z" fill="#E0E0E0"/>
</g>
<g style="mix-blend-mode:multiply" opacity="0.7">
<path d="M199.436 133.532C199.362 133.53 199.29 133.51 199.226 133.473C199.13 133.417 199.06 133.326 199.032 133.218C199.004 133.111 199.019 132.997 199.074 132.901L202.493 127.007C202.517 126.953 202.552 126.905 202.596 126.866C202.64 126.827 202.692 126.797 202.748 126.779C202.804 126.761 202.863 126.755 202.922 126.762C202.98 126.768 203.037 126.787 203.088 126.816C203.139 126.846 203.183 126.886 203.217 126.934C203.252 126.981 203.276 127.036 203.288 127.093C203.3 127.151 203.3 127.211 203.288 127.268C203.276 127.326 203.251 127.38 203.217 127.428L199.798 133.322C199.761 133.386 199.709 133.438 199.645 133.475C199.582 133.512 199.51 133.532 199.436 133.532Z" fill="#E0E0E0"/>
</g>
</g>
<path d="M119.311 339.604L118.815 339.318C118.389 339.042 118.034 338.669 117.78 338.23C117.525 337.791 117.378 337.298 117.349 336.792V194.031C117.378 193.525 117.525 193.033 117.778 192.595C118.031 192.156 118.383 191.783 118.806 191.505L122.73 189.24C123.155 188.964 123.509 188.591 123.762 188.152C124.015 187.713 124.161 187.22 124.187 186.714V178.235C124.215 177.728 124.362 177.235 124.617 176.796C124.871 176.357 125.226 175.985 125.652 175.709L167.196 151.72C167.647 151.491 168.146 151.372 168.653 151.372C169.159 151.372 169.658 151.491 170.109 151.72L170.614 152.015C171.04 152.291 171.393 152.664 171.646 153.103C171.9 153.542 172.045 154.035 172.071 154.541V159.071C172.071 159.997 172.728 160.376 173.528 159.913L300.594 86.5577C301.046 86.3291 301.545 86.21 302.051 86.21C302.557 86.21 303.056 86.3291 303.507 86.5577L304.012 86.8524C304.438 87.1284 304.791 87.5013 305.044 87.9403C305.298 88.3794 305.443 88.8722 305.469 89.3784V232.131C305.443 232.637 305.298 233.13 305.044 233.569C304.791 234.008 304.438 234.381 304.012 234.657L122.233 339.604C121.781 339.837 121.28 339.958 120.772 339.958C120.264 339.958 119.763 339.837 119.311 339.604Z" fill="#E0E0E0"/>
<path d="M120.776 338.762V196.009C120.804 195.502 120.951 195.009 121.206 194.57C121.46 194.131 121.815 193.759 122.242 193.483L126.165 191.218C126.589 190.94 126.941 190.567 127.194 190.128C127.447 189.689 127.593 189.198 127.622 188.692V180.188C127.648 179.682 127.793 179.189 128.047 178.75C128.3 178.311 128.654 177.938 129.079 177.662L170.623 153.673C171.465 153.21 172.08 153.581 172.08 154.515V162.994C172.08 163.929 172.736 164.299 173.536 163.836L304.046 88.511C304.888 88.0394 305.503 88.4183 305.503 89.353V232.131C305.477 232.637 305.331 233.13 305.078 233.569C304.825 234.008 304.471 234.381 304.046 234.657L122.233 339.604C121.425 340.075 120.776 339.696 120.776 338.762Z" fill="#FAFAFA"/>
<path d="M120.768 206.172L120.776 233.815L305.461 127.184V99.541L120.768 206.172Z" fill="#0EA5C6"/>
<path d="M117.349 204.193V231.845L120.776 233.815L120.768 206.172L117.349 204.193Z" fill="#0EA5C6"/>
<path opacity="0.2" d="M117.349 204.193V231.845L120.776 233.815L120.768 206.172L117.349 204.193Z" fill="black"/>
<path d="M180.735 183.396L240.517 148.874V152.823L180.735 187.345C179.725 187.926 178.908 187.513 178.908 186.427C178.953 185.814 179.142 185.22 179.46 184.693C179.777 184.167 180.214 183.722 180.735 183.396Z" fill="white"/>
<path d="M245.611 145.944L240.484 148.907V152.856L245.611 149.876C246.105 149.548 246.514 149.109 246.806 148.594C247.099 148.079 247.266 147.503 247.295 146.912C247.321 145.842 246.554 145.396 245.611 145.944Z" fill="white"/>
<path d="M131.032 235.76C132.918 234.665 134.451 235.549 134.451 237.73C134.38 238.911 134.035 240.059 133.441 241.083C132.847 242.106 132.022 242.977 131.032 243.624C129.146 244.71 127.614 243.826 127.614 241.645C127.685 240.466 128.031 239.319 128.625 238.297C129.218 237.275 130.043 236.406 131.032 235.76Z" fill="#0EA5C6"/>
<path d="M139.696 230.792L159.98 219.071C160.982 218.49 161.799 218.903 161.799 219.997C161.753 220.608 161.565 221.2 161.249 221.725C160.933 222.25 160.498 222.694 159.98 223.02L139.679 234.741C138.669 235.322 137.861 234.909 137.861 233.815C137.906 233.202 138.096 232.608 138.415 232.083C138.734 231.557 139.173 231.115 139.696 230.792Z" fill="#0EA5C6"/>
<path d="M137.877 238.749C137.899 238.444 137.993 238.148 138.151 237.886C138.309 237.624 138.527 237.403 138.787 237.242L150.642 230.396C151.147 230.102 151.552 230.312 151.552 230.851C151.53 231.158 151.437 231.455 151.279 231.718C151.121 231.982 150.903 232.204 150.642 232.367L138.787 239.212C138.282 239.507 137.877 239.296 137.877 238.749Z" fill="#0EA5C6"/>
<path opacity="0.3" d="M137.877 238.749C137.899 238.444 137.993 238.148 138.151 237.886C138.309 237.624 138.527 237.403 138.787 237.242L150.642 230.396C151.147 230.102 151.552 230.312 151.552 230.851C151.53 231.158 151.437 231.455 151.279 231.718C151.121 231.982 150.903 232.204 150.642 232.367L138.787 239.212C138.282 239.507 137.877 239.296 137.877 238.749Z" fill="white"/>
<path d="M131.032 250.916C132.918 249.821 134.451 250.706 134.451 252.886C134.38 254.067 134.035 255.216 133.441 256.239C132.847 257.263 132.022 258.133 131.032 258.78C129.146 259.866 127.614 258.982 127.614 256.802C127.685 255.622 128.031 254.475 128.625 253.453C129.218 252.431 130.043 251.563 131.032 250.916Z" fill="#0EA5C6"/>
<path d="M139.696 245.948L159.98 234.228C160.982 233.647 161.799 234.059 161.799 235.154C161.753 235.765 161.565 236.357 161.249 236.882C160.933 237.407 160.498 237.85 159.98 238.177L139.679 249.897C138.669 250.478 137.861 250.066 137.861 248.971C137.906 248.358 138.096 247.764 138.415 247.239C138.734 246.713 139.173 246.271 139.696 245.948Z" fill="#0EA5C6"/>
<path d="M137.877 253.905C137.899 253.6 137.993 253.304 138.151 253.042C138.309 252.78 138.527 252.559 138.787 252.398L150.642 245.552C151.147 245.257 151.552 245.468 151.552 246.007C151.53 246.313 151.437 246.61 151.279 246.874C151.121 247.137 150.903 247.36 150.642 247.522L138.787 254.368C138.282 254.663 137.877 254.452 137.877 253.905Z" fill="#0EA5C6"/>
<path opacity="0.3" d="M137.877 253.905C137.899 253.6 137.993 253.304 138.151 253.042C138.309 252.78 138.527 252.559 138.787 252.398L150.642 245.552C151.147 245.257 151.552 245.468 151.552 246.007C151.53 246.313 151.437 246.61 151.279 246.874C151.121 247.137 150.903 247.36 150.642 247.522L138.787 254.368C138.282 254.663 137.877 254.452 137.877 253.905Z" fill="white"/>
<path d="M131.032 267.756C132.918 266.661 134.451 267.545 134.451 269.726C134.38 270.907 134.035 272.056 133.441 273.079C132.847 274.103 132.022 274.973 131.032 275.62C129.146 276.706 127.614 275.822 127.614 273.641C127.685 272.462 128.031 271.315 128.625 270.293C129.218 269.271 130.043 268.402 131.032 267.756Z" fill="#0EA5C6"/>
<path d="M139.696 262.788L159.98 251.067C160.982 250.486 161.799 250.899 161.799 251.994C161.753 252.605 161.565 253.196 161.249 253.721C160.933 254.246 160.498 254.69 159.98 255.016L139.679 266.737C138.669 267.318 137.861 266.905 137.861 265.811C137.906 265.198 138.096 264.604 138.415 264.079C138.734 263.553 139.173 263.111 139.696 262.788Z" fill="#0EA5C6"/>
<path d="M137.877 270.745C137.899 270.44 137.993 270.144 138.151 269.882C138.309 269.62 138.527 269.399 138.787 269.238L150.642 262.392C151.147 262.098 151.552 262.308 151.552 262.847C151.53 263.154 151.437 263.451 151.279 263.714C151.121 263.978 150.903 264.2 150.642 264.363L138.787 271.208C138.282 271.503 137.877 271.292 137.877 270.745Z" fill="#0EA5C6"/>
<path opacity="0.3" d="M137.877 270.745C137.899 270.44 137.993 270.144 138.151 269.882C138.309 269.62 138.527 269.399 138.787 269.238L150.642 262.392C151.147 262.098 151.552 262.308 151.552 262.847C151.53 263.154 151.437 263.451 151.279 263.714C151.121 263.978 150.903 264.2 150.642 264.363L138.787 271.208C138.282 271.503 137.877 271.292 137.877 270.745Z" fill="white"/>
<path d="M131.032 294.7C132.918 293.605 134.451 294.489 134.451 296.67C134.38 297.851 134.035 298.999 133.441 300.023C132.847 301.046 132.022 301.917 131.032 302.564C129.146 303.65 127.614 302.766 127.614 300.585C127.685 299.406 128.031 298.259 128.625 297.237C129.218 296.215 130.043 295.346 131.032 294.7Z" fill="#0EA5C6"/>
<path d="M139.696 289.732L159.98 278.011C160.982 277.43 161.799 277.843 161.799 278.937C161.753 279.548 161.565 280.14 161.249 280.665C160.933 281.19 160.498 281.634 159.98 281.96L139.679 293.681C138.669 294.262 137.861 293.849 137.861 292.755C137.906 292.142 138.096 291.548 138.415 291.023C138.734 290.497 139.173 290.055 139.696 289.732Z" fill="#0EA5C6"/>
<path d="M137.877 297.689C137.899 297.384 137.993 297.088 138.151 296.826C138.309 296.564 138.527 296.343 138.787 296.182L150.642 289.336C151.147 289.042 151.552 289.252 151.552 289.791C151.53 290.098 151.437 290.395 151.279 290.658C151.121 290.922 150.903 291.144 150.642 291.307L138.787 298.152C138.282 298.447 137.877 298.236 137.877 297.689Z" fill="#0EA5C6"/>
<path opacity="0.3" d="M137.877 297.689C137.899 297.384 137.993 297.088 138.151 296.826C138.309 296.564 138.527 296.343 138.787 296.182L150.642 289.336C151.147 289.042 151.552 289.252 151.552 289.791C151.53 290.098 151.437 290.395 151.279 290.658C151.121 290.922 150.903 291.144 150.642 291.307L138.787 298.152C138.282 298.447 137.877 298.236 137.877 297.689Z" fill="white"/>
<path d="M131.032 309.014C132.918 307.919 134.451 308.803 134.451 310.984C134.38 312.165 134.035 313.313 133.441 314.337C132.847 315.36 132.022 316.231 131.032 316.878C129.146 317.964 127.614 317.08 127.614 314.899C127.685 313.72 128.031 312.573 128.625 311.551C129.218 310.529 130.043 309.66 131.032 309.014Z" fill="#0EA5C6"/>
<path d="M139.696 304.046L159.98 292.326C160.982 291.745 161.799 292.157 161.799 293.252C161.753 293.863 161.565 294.455 161.249 294.98C160.933 295.505 160.498 295.948 159.98 296.275L139.679 307.995C138.669 308.576 137.861 308.164 137.861 307.069C137.906 306.456 138.096 305.862 138.415 305.337C138.734 304.812 139.173 304.369 139.696 304.046Z" fill="#0EA5C6"/>
<path d="M137.877 312.003C137.899 311.698 137.993 311.402 138.151 311.14C138.309 310.878 138.527 310.657 138.787 310.496L150.642 303.65C151.147 303.356 151.552 303.566 151.552 304.105C151.53 304.411 151.437 304.709 151.279 304.972C151.121 305.235 150.903 305.458 150.642 305.621L138.787 312.466C138.282 312.761 137.877 312.55 137.877 312.003Z" fill="#0EA5C6"/>
<path opacity="0.3" d="M137.877 312.003C137.899 311.698 137.993 311.402 138.151 311.14C138.309 310.878 138.527 310.657 138.787 310.496L150.642 303.65C151.147 303.356 151.552 303.566 151.552 304.105C151.53 304.411 151.437 304.709 151.279 304.972C151.121 305.235 150.903 305.458 150.642 305.621L138.787 312.466C138.282 312.761 137.877 312.55 137.877 312.003Z" fill="white"/>
<path d="M124.195 290.49V290.582C124.195 290.86 124.389 290.978 124.633 290.835L144.277 279.493C144.404 279.41 144.51 279.298 144.586 279.167C144.662 279.035 144.706 278.887 144.715 278.735V278.643C144.715 278.365 144.521 278.247 144.277 278.39L124.616 289.698C124.487 289.787 124.382 289.905 124.308 290.042C124.235 290.18 124.196 290.334 124.195 290.49Z" fill="#E0E0E0"/>
<path d="M173.898 211.047L266.013 157.858C267.023 157.277 267.84 157.749 267.84 158.911V194.19C267.806 194.823 267.622 195.439 267.305 195.988C266.987 196.537 266.545 197.003 266.013 197.348L173.898 250.537C172.888 251.118 172.071 250.647 172.071 249.485V214.205C172.104 213.571 172.287 212.955 172.605 212.406C172.922 211.857 173.366 211.391 173.898 211.047Z" fill="#0EA5C6"/>
<path d="M178.917 214.07C178.917 215.156 179.758 215.569 180.735 214.988L202.855 202.223C203.375 201.898 203.812 201.455 204.129 200.93C204.447 200.405 204.636 199.812 204.682 199.2C204.682 198.106 203.84 197.693 202.855 198.274L180.735 211.039C180.217 211.367 179.782 211.812 179.466 212.338C179.15 212.865 178.962 213.458 178.917 214.07Z" fill="#F5F5F5"/>
<path d="M207.081 197.811C207.081 198.906 207.923 199.318 208.9 198.737L231.019 185.964C231.538 185.638 231.973 185.194 232.289 184.669C232.604 184.144 232.793 183.552 232.838 182.941C232.838 181.847 231.996 181.434 231.019 182.015L208.9 194.788C208.38 195.113 207.944 195.556 207.628 196.082C207.312 196.607 207.125 197.2 207.081 197.811Z" fill="#F5F5F5"/>
<path d="M235.238 181.552C235.238 182.646 236.08 183.059 237.065 182.478L259.176 169.705C259.695 169.385 260.133 168.948 260.453 168.429C260.773 167.91 260.967 167.323 261.02 166.716C261.02 165.621 260.178 165.209 259.193 165.79L237.065 178.504C236.541 178.831 236.102 179.278 235.785 179.808C235.467 180.338 235.28 180.935 235.238 181.552Z" fill="#F5F5F5"/>
<path d="M178.917 241.713C178.917 242.807 179.758 243.22 180.735 242.639L259.176 197.356C259.697 197.03 260.134 196.585 260.452 196.059C260.769 195.532 260.958 194.938 261.003 194.325C261.003 193.239 260.161 192.826 259.176 193.407L180.735 238.69C180.217 239.016 179.782 239.46 179.466 239.985C179.15 240.51 178.962 241.102 178.917 241.713Z" fill="#F5F5F5"/>
<path d="M180.373 219.155L259.521 173.443C260.321 172.98 260.978 173.359 260.978 174.285V186.713C260.951 187.219 260.804 187.711 260.551 188.15C260.298 188.589 259.945 188.962 259.521 189.239L180.373 234.951C179.573 235.414 178.917 235.036 178.917 234.109V221.681C178.944 221.176 179.09 220.683 179.343 220.244C179.596 219.806 179.949 219.432 180.373 219.155Z" fill="#F5F5F5"/>
<path d="M173.898 258.199L266.013 205.01C267.023 204.429 267.84 204.901 267.84 206.062V241.342C267.806 241.975 267.622 242.591 267.305 243.14C266.987 243.689 266.545 244.155 266.013 244.5L173.898 297.689C172.888 298.27 172.071 297.798 172.071 296.636V261.357C172.104 260.723 172.287 260.107 172.605 259.558C172.922 259.009 173.366 258.543 173.898 258.199Z" fill="#0EA5C6"/>
<path d="M178.917 261.222C178.917 262.308 179.758 262.72 180.735 262.139L202.855 249.375C203.375 249.05 203.812 248.607 204.129 248.082C204.447 247.556 204.636 246.964 204.682 246.352C204.682 245.257 203.84 244.845 202.855 245.426L180.735 258.191C180.217 258.519 179.782 258.964 179.466 259.49C179.15 260.017 178.962 260.61 178.917 261.222Z" fill="#F5F5F5"/>
<path d="M207.081 244.963C207.081 246.057 207.923 246.47 208.9 245.889L231.019 233.116C231.538 232.79 231.973 232.346 232.289 231.821C232.604 231.296 232.793 230.704 232.838 230.093C232.838 228.999 231.996 228.586 231.019 229.167L208.9 241.94C208.38 242.265 207.944 242.708 207.628 243.233C207.312 243.759 207.125 244.351 207.081 244.963Z" fill="#F5F5F5"/>
<path d="M235.238 228.704C235.238 229.799 236.08 230.211 237.065 229.63L259.176 216.857C259.695 216.537 260.133 216.101 260.453 215.582C260.773 215.062 260.967 214.476 261.02 213.868C261.02 212.773 260.178 212.361 259.193 212.942L237.065 225.656C236.541 225.984 236.102 226.43 235.785 226.96C235.467 227.49 235.28 228.088 235.238 228.704Z" fill="#F5F5F5"/>
<path d="M178.917 288.865C178.917 289.959 179.758 290.372 180.735 289.791L259.176 244.508C259.697 244.182 260.134 243.738 260.452 243.211C260.769 242.684 260.958 242.09 261.003 241.477C261.003 240.391 260.161 239.978 259.176 240.559L180.735 285.842C180.217 286.168 179.782 286.612 179.466 287.137C179.15 287.662 178.962 288.254 178.917 288.865Z" fill="#F5F5F5"/>
<path d="M180.373 266.308L259.521 220.596C260.321 220.132 260.978 220.511 260.978 221.438V233.866C260.951 234.371 260.804 234.864 260.551 235.303C260.298 235.741 259.945 236.114 259.521 236.392L180.373 282.104C179.573 282.567 178.917 282.188 178.917 281.262V268.834C178.944 268.328 179.09 267.836 179.343 267.397C179.596 266.958 179.949 266.585 180.373 266.308Z" fill="#F5F5F5"/>
<path d="M296.805 140.083L276.513 151.804C275.981 152.149 275.538 152.615 275.221 153.164C274.903 153.712 274.72 154.328 274.686 154.961V174.445C274.686 175.607 275.528 176.079 276.513 175.498L296.805 163.786C297.334 163.438 297.774 162.972 298.09 162.423C298.406 161.875 298.589 161.26 298.624 160.628V141.136C298.624 139.974 297.807 139.502 296.805 140.083Z" fill="#0EA5C6"/>
<path d="M280.613 153.395C282.003 152.553 283.139 153.244 283.139 154.844C283.091 155.717 282.837 156.566 282.398 157.323C281.959 158.079 281.348 158.722 280.613 159.197C279.224 160.039 278.087 159.348 278.087 157.748C278.137 156.876 278.392 156.027 278.831 155.271C279.27 154.514 279.88 153.872 280.613 153.395Z" fill="#F5F5F5"/>
<path d="M284.941 153.842C284.965 153.535 285.06 153.238 285.219 152.974C285.379 152.711 285.598 152.489 285.859 152.326L294.279 147.459C294.776 147.165 295.188 147.375 295.188 147.914C295.166 148.221 295.071 148.518 294.911 148.782C294.752 149.045 294.532 149.267 294.271 149.43L285.851 154.305C285.354 154.591 284.941 154.389 284.941 153.842Z" fill="#F5F5F5"/>
<path d="M279.013 162.203L294.287 153.379C294.793 153.092 295.205 153.328 295.205 153.909V159.702C295.188 160.017 295.096 160.324 294.938 160.598C294.78 160.871 294.56 161.104 294.296 161.276L279.013 170.084C278.508 170.379 278.104 170.143 278.104 169.562V163.769C278.123 163.455 278.216 163.15 278.374 162.878C278.531 162.606 278.751 162.375 279.013 162.203Z" fill="#F5F5F5"/>
<path d="M296.805 167.735L276.513 179.447C275.981 179.792 275.538 180.258 275.221 180.807C274.903 181.355 274.72 181.971 274.686 182.604V221.833C274.686 222.995 275.528 223.467 276.513 222.886L296.805 211.173C297.334 210.826 297.774 210.36 298.09 209.811C298.406 209.263 298.589 208.648 298.624 208.016V168.787C298.624 167.617 297.807 167.154 296.805 167.735Z" fill="#0EA5C6"/>
<path d="M280.613 181.03C282.003 180.23 283.139 180.878 283.139 182.487C283.089 183.359 282.834 184.208 282.396 184.964C281.957 185.721 281.346 186.363 280.613 186.84C279.224 187.682 278.087 186.991 278.087 185.383C278.138 184.51 278.393 183.662 278.832 182.906C279.271 182.15 279.881 181.507 280.613 181.03Z" fill="#F5F5F5"/>
<path d="M284.941 181.485C284.964 181.179 285.06 180.883 285.219 180.621C285.379 180.359 285.598 180.139 285.859 179.978L294.279 175.102C294.776 174.816 295.188 175.018 295.188 175.565C295.165 175.872 295.07 176.169 294.91 176.433C294.751 176.696 294.532 176.918 294.271 177.081L285.851 181.948C285.354 182.243 284.941 182.032 284.941 181.485Z" fill="#F5F5F5"/>
<path d="M279.013 189.846L294.287 181.03C294.793 180.735 295.205 180.971 295.205 181.552V187.345C295.186 187.661 295.095 187.969 294.937 188.243C294.779 188.518 294.56 188.752 294.296 188.928L279.013 197.744C278.508 198.038 278.104 197.803 278.104 197.222V191.429C278.121 191.112 278.212 190.804 278.37 190.529C278.528 190.254 278.748 190.02 279.013 189.846Z" fill="#F5F5F5"/>
<path d="M280.613 200.766C282.003 199.966 283.139 200.615 283.139 202.223C283.089 203.096 282.834 203.945 282.396 204.701C281.957 205.457 281.346 206.099 280.613 206.576C279.224 207.376 278.087 206.728 278.087 205.119C278.138 204.247 278.393 203.398 278.832 202.642C279.271 201.886 279.881 201.243 280.613 200.766Z" fill="#F5F5F5"/>
<path d="M284.941 201.238C284.964 200.932 285.06 200.636 285.219 200.374C285.379 200.112 285.598 199.892 285.859 199.731L294.279 194.855C294.776 194.569 295.188 194.771 295.188 195.318C295.165 195.624 295.07 195.92 294.91 196.182C294.751 196.444 294.532 196.665 294.271 196.826L285.851 201.701C285.354 201.97 284.941 201.76 284.941 201.238Z" fill="#F5F5F5"/>
<path d="M279.013 209.574L294.287 200.75C294.793 200.463 295.205 200.699 295.205 201.28V207.073C295.186 207.389 295.095 207.697 294.937 207.972C294.779 208.246 294.56 208.481 294.296 208.656L279.013 217.472C278.508 217.766 278.104 217.531 278.104 216.95V211.157C278.121 210.84 278.212 210.532 278.37 210.257C278.528 209.982 278.748 209.748 279.013 209.574Z" fill="#F5F5F5"/>
<path d="M296.805 215.114L276.513 226.826C275.981 227.171 275.538 227.637 275.221 228.186C274.903 228.735 274.72 229.351 274.686 229.984V237.637C274.686 238.799 275.528 239.271 276.513 238.69L296.805 226.969C297.334 226.622 297.774 226.156 298.09 225.607C298.406 225.059 298.589 224.444 298.624 223.812V216.166C298.624 215.005 297.807 214.533 296.805 215.114Z" fill="#0EA5C6"/>
<path d="M280.622 227.702C282.003 226.902 283.148 227.55 283.148 229.158C283.098 230.03 282.843 230.878 282.404 231.633C281.965 232.388 281.354 233.028 280.622 233.503C279.232 234.345 278.096 233.655 278.096 232.055C278.145 231.182 278.399 230.332 278.838 229.576C279.277 228.82 279.888 228.177 280.622 227.702Z" fill="#F5F5F5"/>
<path d="M284.95 228.182C284.971 227.875 285.065 227.579 285.223 227.315C285.381 227.052 285.599 226.83 285.859 226.666L294.279 221.799C294.784 221.505 295.188 221.715 295.188 222.263C295.165 222.567 295.07 222.862 294.912 223.124C294.754 223.386 294.537 223.607 294.279 223.77L285.859 228.645C285.354 228.906 284.95 228.695 284.95 228.182Z" fill="#F5F5F5"/>
<path d="M305.461 99.541V89.3696C305.435 88.8633 305.29 88.3702 305.037 87.931C304.784 87.4918 304.43 87.1191 304.004 86.8436L303.499 86.5489C303.047 86.3203 302.548 86.2012 302.042 86.2012C301.536 86.2012 301.037 86.3203 300.586 86.5489L173.528 159.904C172.686 160.367 172.071 159.988 172.071 159.062V154.532C172.045 154.026 171.9 153.533 171.646 153.094C171.393 152.655 171.04 152.282 170.614 152.006L170.109 151.711C169.658 151.483 169.159 151.364 168.653 151.364C168.146 151.364 167.647 151.483 167.196 151.711L125.652 175.7C125.226 175.976 124.871 176.349 124.617 176.788C124.362 177.226 124.215 177.719 124.187 178.226V186.705C124.161 187.211 124.015 187.704 123.762 188.143C123.509 188.582 123.155 188.955 122.73 189.231L118.806 191.496C118.383 191.774 118.031 192.147 117.778 192.586C117.525 193.024 117.378 193.516 117.349 194.022V204.185L120.768 206.163L305.461 99.541Z" fill="#F5F5F5"/>
<path d="M127.613 190.376H127.984L128.927 179.278L124.616 176.82C124.355 177.256 124.207 177.751 124.187 178.26V186.739C124.17 187.246 124.025 187.742 123.766 188.178L127.613 190.376Z" fill="#E0E0E0"/>
<path d="M117.779 192.599C117.517 193.032 117.369 193.525 117.349 194.031V204.193L120.768 206.172L124.195 196.295L117.779 192.599Z" fill="#E0E0E0"/>
<path d="M126.157 191.218L122.233 193.483C121.807 193.758 121.452 194.131 121.197 194.57C120.943 195.009 120.796 195.502 120.768 196.009V206.172L305.461 99.5408V89.3779C305.461 88.4432 304.812 88.0643 304.004 88.5359L173.494 163.861C172.652 164.324 172.037 163.954 172.037 163.019V154.54C172.037 153.606 171.389 153.235 170.581 153.698L129.07 177.662C128.645 177.938 128.291 178.31 128.038 178.75C127.785 179.189 127.64 179.681 127.614 180.188V188.692C127.585 189.197 127.438 189.689 127.185 190.128C126.932 190.566 126.58 190.94 126.157 191.218Z" fill="#F5F5F5"/>
<path d="M137.869 178.504C137.869 179.59 138.711 180.003 139.696 179.422L159.98 167.726C160.5 167.401 160.937 166.958 161.255 166.433C161.572 165.908 161.761 165.315 161.807 164.704C161.807 163.609 160.965 163.196 159.98 163.777L139.688 175.498C139.171 175.822 138.737 176.263 138.421 176.785C138.106 177.307 137.916 177.896 137.869 178.504Z" fill="#E0E0E0"/>
<path d="M132.741 179.514C132.248 179.842 131.839 180.281 131.546 180.796C131.254 181.311 131.086 181.887 131.057 182.478C131.057 183.564 131.823 184.011 132.741 183.463C133.234 183.136 133.644 182.697 133.936 182.182C134.229 181.667 134.396 181.091 134.425 180.5C134.451 179.413 133.684 178.967 132.741 179.514Z" fill="#0EA5C6"/>
<path d="M168.653 163.146C168.579 163.145 168.507 163.128 168.442 163.095L165.032 161.117C164.978 161.092 164.93 161.057 164.891 161.013C164.852 160.969 164.822 160.917 164.804 160.861C164.786 160.805 164.78 160.746 164.787 160.687C164.793 160.629 164.812 160.572 164.841 160.521C164.871 160.47 164.911 160.426 164.959 160.392C165.006 160.357 165.061 160.333 165.118 160.321C165.176 160.309 165.236 160.309 165.293 160.321C165.351 160.334 165.405 160.358 165.453 160.393L168.871 162.363C168.95 162.41 169.012 162.481 169.047 162.566C169.081 162.651 169.087 162.745 169.063 162.834C169.039 162.923 168.987 163.001 168.915 163.058C168.842 163.114 168.753 163.145 168.661 163.146H168.653Z" fill="#E0E0E0"/>
<path d="M165.234 165.125C165.159 165.115 165.089 165.082 165.032 165.032C164.984 165.005 164.942 164.969 164.908 164.925C164.874 164.881 164.849 164.831 164.835 164.778C164.821 164.724 164.818 164.669 164.825 164.614C164.833 164.559 164.852 164.507 164.88 164.459L168.299 158.565C168.36 158.481 168.451 158.423 168.553 158.401C168.655 158.38 168.761 158.397 168.851 158.449C168.941 158.502 169.009 158.585 169.04 158.685C169.072 158.784 169.066 158.892 169.023 158.986L165.605 164.88C165.572 164.952 165.52 165.012 165.454 165.055C165.389 165.098 165.312 165.122 165.234 165.125Z" fill="#E0E0E0"/>
<path d="M125.929 197.449C125.855 197.449 125.781 197.43 125.716 197.393C125.651 197.356 125.597 197.303 125.559 197.239C125.507 197.141 125.494 197.027 125.524 196.92C125.554 196.813 125.624 196.722 125.719 196.666L129.82 194.292C129.868 194.264 129.921 194.246 129.976 194.239C130.031 194.232 130.087 194.236 130.14 194.25C130.194 194.264 130.244 194.289 130.288 194.323C130.332 194.357 130.369 194.399 130.396 194.447C130.424 194.495 130.442 194.548 130.449 194.603C130.456 194.659 130.452 194.714 130.438 194.768C130.423 194.822 130.399 194.872 130.365 194.916C130.331 194.96 130.289 194.996 130.241 195.024L126.14 197.39C126.077 197.429 126.004 197.45 125.929 197.449Z" fill="#E0E0E0"/>
<path d="M127.614 198.712C127.539 198.713 127.466 198.693 127.403 198.653L125.088 197.356L127.251 193.643C127.313 193.559 127.403 193.5 127.505 193.479C127.607 193.457 127.713 193.474 127.804 193.527C127.894 193.579 127.961 193.663 127.993 193.762C128.025 193.862 128.019 193.969 127.976 194.064L126.241 197.028L127.816 197.87C127.913 197.925 127.984 198.016 128.014 198.123C128.044 198.23 128.03 198.345 127.976 198.443C127.948 198.518 127.899 198.583 127.835 198.631C127.77 198.679 127.694 198.707 127.614 198.712Z" fill="#E0E0E0"/>
<path d="M132.009 193.921C131.917 193.92 131.828 193.889 131.755 193.833C131.683 193.776 131.63 193.698 131.606 193.609C131.583 193.52 131.588 193.426 131.623 193.341C131.658 193.256 131.719 193.185 131.798 193.138L135.907 190.772C136.002 190.729 136.11 190.723 136.209 190.754C136.308 190.786 136.392 190.854 136.445 190.944C136.497 191.034 136.514 191.14 136.493 191.242C136.471 191.344 136.413 191.435 136.328 191.496L132.194 193.87C132.137 193.9 132.073 193.917 132.009 193.921Z" fill="#E0E0E0"/>
<path d="M134.434 194.746C134.359 194.748 134.286 194.728 134.223 194.687C134.128 194.631 134.058 194.539 134.03 194.432C134.001 194.325 134.016 194.211 134.072 194.114L135.798 191.142L134.223 190.3C134.128 190.244 134.058 190.153 134.028 190.046C133.998 189.939 134.011 189.825 134.063 189.728C134.118 189.631 134.209 189.559 134.316 189.529C134.424 189.499 134.539 189.513 134.636 189.568L136.951 190.864L134.796 194.502C134.763 194.572 134.713 194.631 134.649 194.674C134.585 194.717 134.511 194.742 134.434 194.746Z" fill="#E0E0E0"/>
<path d="M143.14 185.374L276.302 108.491C277.313 107.91 278.129 108.323 278.129 109.409C278.085 110.023 277.896 110.617 277.579 111.144C277.261 111.67 276.824 112.115 276.302 112.44L143.14 189.323C142.13 189.904 141.321 189.492 141.321 188.397C141.365 187.786 141.552 187.193 141.868 186.668C142.184 186.143 142.62 185.699 143.14 185.374Z" fill="#F5F5F5"/>
<path d="M283.232 104.475C284.175 103.928 284.916 104.374 284.916 105.46C284.887 106.052 284.719 106.628 284.427 107.143C284.134 107.658 283.725 108.097 283.232 108.424C282.289 108.972 281.548 108.525 281.548 107.439C281.577 106.848 281.744 106.271 282.037 105.757C282.329 105.242 282.739 104.803 283.232 104.475Z" fill="#FAFAFA"/>
<path d="M290.069 100.526C291.02 99.9788 291.753 100.425 291.753 101.511C291.725 102.103 291.557 102.679 291.265 103.194C290.972 103.709 290.563 104.148 290.069 104.475C289.126 105.022 288.385 104.576 288.385 103.49C288.414 102.899 288.582 102.322 288.874 101.807C289.167 101.293 289.576 100.854 290.069 100.526Z" fill="#FAFAFA"/>
<path d="M296.914 96.5774C297.857 96.0301 298.598 96.4763 298.598 97.5625C298.569 98.1539 298.402 98.7302 298.109 99.245C297.817 99.7598 297.408 100.199 296.914 100.526C295.971 101.074 295.23 100.627 295.23 99.5412C295.259 98.9498 295.427 98.3735 295.719 97.8587C296.012 97.3439 296.421 96.905 296.914 96.5774Z" fill="#FAFAFA"/>
<path d="M342.012 131.209L328.195 145.523C328.195 145.523 314.63 144.184 310.024 142.862C308.568 142.45 307.397 140.462 307.077 138.787C307.036 138.348 306.858 137.932 306.568 137.6C306.277 137.268 305.89 137.035 305.461 136.934V140.302C305.343 141.144 304.93 141.582 303.718 141.616C299.061 141.717 296.906 140.302 296.333 142.828C295.971 144.445 296.679 146.281 299.752 147.123C304.071 148.31 306.488 147.72 309.081 148.369C311.111 148.874 325.239 151.56 328.018 152.166C329.491 152.486 330.611 152.385 332.228 150.811C333.845 149.236 345.818 138.037 345.818 138.037C349.48 134.375 348.403 130.569 346.357 129.449C345.06 128.708 343.637 129.533 342.012 131.209Z" fill="#FFA8A7"/>
<path d="M346.239 129.331C347.131 129.693 348.217 130.644 348.31 133.111C348.403 135.578 346.576 137.81 344.428 140.369C342.281 142.929 341.641 143.611 341.641 143.611C341.641 143.611 336.211 141.641 335.293 137.608C335.293 137.608 339.385 133.28 340.606 131.891C341.827 130.501 344.083 128.379 346.239 129.331Z" fill="#0EA5C6"/>
<path d="M240.029 336.64L211.999 338.83C211.715 338.857 211.451 338.988 211.259 339.198C211.066 339.407 210.958 339.681 210.955 339.966V341.852C210.97 342.165 211.065 342.469 211.23 342.736C211.395 343.002 211.624 343.223 211.898 343.376L229.714 352.133C229.82 352.201 229.941 352.239 230.066 352.244C230.191 352.249 230.315 352.22 230.425 352.161C230.535 352.102 230.627 352.014 230.692 351.907C230.756 351.8 230.791 351.677 230.792 351.552L231.154 348.689C231.172 348.553 231.216 348.421 231.285 348.302C231.355 348.183 231.447 348.079 231.556 347.996C231.666 347.913 231.791 347.852 231.925 347.818C232.058 347.784 232.197 347.777 232.333 347.797L240.896 349.06C241.207 349.083 241.518 349.037 241.809 348.927C242.1 348.816 242.363 348.643 242.58 348.42L243.927 346.904C244.339 346.375 244.577 345.731 244.609 345.06V343.208C244.602 342.919 244.495 342.641 244.306 342.421C244.118 342.202 243.859 342.054 243.574 342.004L239.541 341.406L240.315 340.977C240.551 340.808 240.743 340.585 240.876 340.328C241.01 340.07 241.08 339.785 241.081 339.495V337.642C241.09 337.504 241.068 337.366 241.017 337.237C240.966 337.109 240.888 336.992 240.788 336.897C240.688 336.802 240.568 336.729 240.437 336.685C240.306 336.641 240.167 336.625 240.029 336.64Z" fill="#0EA5C6"/>
<path opacity="0.3" d="M240.029 336.64L211.999 338.83C211.715 338.857 211.451 338.988 211.259 339.198C211.066 339.407 210.958 339.681 210.955 339.966V341.852C210.97 342.165 211.065 342.469 211.23 342.736C211.395 343.002 211.624 343.223 211.898 343.376L229.714 352.133C229.82 352.201 229.941 352.239 230.066 352.244C230.191 352.249 230.315 352.22 230.425 352.161C230.535 352.102 230.627 352.014 230.692 351.907C230.756 351.8 230.791 351.677 230.792 351.552L231.154 348.689C231.172 348.553 231.216 348.421 231.285 348.302C231.355 348.183 231.447 348.079 231.556 347.996C231.666 347.913 231.791 347.852 231.925 347.818C232.058 347.784 232.197 347.777 232.333 347.797L240.896 349.06C241.207 349.083 241.518 349.037 241.809 348.927C242.1 348.816 242.363 348.643 242.58 348.42L243.927 346.904C244.339 346.375 244.577 345.731 244.609 345.06V343.208C244.602 342.919 244.495 342.641 244.306 342.421C244.118 342.202 243.859 342.054 243.574 342.004L239.541 341.406L240.315 340.977C240.551 340.808 240.743 340.585 240.876 340.328C241.01 340.07 241.08 339.785 241.081 339.495V337.642C241.09 337.504 241.068 337.366 241.017 337.237C240.966 337.109 240.888 336.992 240.788 336.897C240.688 336.802 240.568 336.729 240.437 336.685C240.306 336.641 240.167 336.625 240.029 336.64Z" fill="white"/>
<path d="M210.955 339.966V341.852C210.97 342.165 211.065 342.469 211.23 342.736C211.395 343.002 211.624 343.222 211.898 343.376L229.714 352.133C229.88 352.22 230.069 352.249 230.253 352.217V347.493L211.999 338.829C211.715 338.856 211.451 338.987 211.259 339.197C211.066 339.407 210.958 339.681 210.955 339.966Z" fill="#0EA5C6"/>
<path opacity="0.2" d="M210.955 339.966V341.852C210.97 342.165 211.065 342.469 211.23 342.736C211.395 343.002 211.624 343.222 211.898 343.376L229.714 352.133C229.88 352.22 230.069 352.249 230.253 352.217V347.493L211.999 338.829C211.715 338.856 211.451 338.987 211.259 339.197C211.066 339.407 210.958 339.681 210.955 339.966Z" fill="black"/>
<path d="M231.727 347.872C231.911 347.769 232.124 347.728 232.333 347.754L240.896 349.017C241.181 349.049 241.469 349.015 241.738 348.916V344.563L231.727 343.098V347.872Z" fill="#0EA5C6"/>
<path opacity="0.2" d="M231.727 347.872C231.911 347.769 232.124 347.728 232.333 347.754L240.896 349.017C241.181 349.049 241.469 349.015 241.738 348.916V344.563L231.727 343.098V347.872Z" fill="black"/>
<path d="M240.029 336.64L211.999 338.829C211.426 338.829 211.376 339.115 211.898 339.376L229.715 348.133C229.819 348.201 229.94 348.239 230.064 348.244C230.188 348.25 230.312 348.222 230.421 348.163C230.531 348.105 230.624 348.018 230.689 347.912C230.754 347.806 230.79 347.685 230.792 347.561L231.154 344.689C231.172 344.553 231.216 344.421 231.286 344.302C231.355 344.183 231.447 344.079 231.556 343.996C231.666 343.913 231.791 343.852 231.925 343.818C232.058 343.784 232.197 343.777 232.333 343.797L240.896 345.06C241.207 345.083 241.518 345.037 241.809 344.927C242.1 344.816 242.363 344.643 242.58 344.42L243.885 342.921C244.264 342.475 244.104 342.079 243.532 341.97L234.969 340.707C234.388 340.623 234.337 340.319 234.842 340.042L240.122 337.069C240.669 336.8 240.61 336.589 240.029 336.64Z" fill="#0EA5C6"/>
</svg>
