<svg width="501" height="519" viewBox="0 0 501 519" fill="none" xmlns="http://www.w3.org/2000/svg">
<path d="M426.922 272.306C329.22 215.899 171.353 215.899 74.2857 272.306C-22.781 328.712 -22.2569 420.158 75.4009 476.565C173.059 532.972 330.971 532.972 428.038 476.565C525.104 420.158 524.614 328.712 426.922 272.306Z" fill="#F5F5F5"/>
<path d="M360.713 413.423C385.972 428.009 386.106 451.651 361.014 466.238C335.922 480.825 295.095 480.825 269.824 466.238C244.554 451.651 244.431 428.009 269.534 413.423C294.638 398.836 335.454 398.836 360.713 413.423Z" fill="#E6E6E6"/>
<path d="M381.143 374.937C399.89 385.755 430.212 385.755 448.825 374.937C458.137 369.517 462.765 362.425 462.72 355.332C462.675 348.239 457.969 341.147 448.602 335.727C429.844 324.909 399.533 324.909 380.92 335.727C371.608 341.147 366.98 348.239 367.014 355.332C367.047 362.425 371.765 369.517 381.143 374.937Z" fill="#E6E6E6"/>
<path d="M28.0272 395.735C38.945 402.047 56.5985 402.047 67.4382 395.735C72.8693 392.591 75.568 388.453 75.5457 384.327C75.5234 380.201 72.78 376.052 67.3156 372.907C56.3978 366.595 38.7442 366.595 27.8933 372.907C22.4735 376.052 19.7747 380.19 19.797 384.327C19.8193 388.464 22.5627 392.591 28.0272 395.735Z" fill="#E6E6E6"/>
<path d="M68.6757 419.902L74.9765 423.582C75.6771 423.985 76.4712 424.197 77.2794 424.197C78.0877 424.197 78.8818 423.985 79.5823 423.582L251.947 325.211C252.13 325.117 252.283 324.975 252.39 324.8C252.497 324.625 252.554 324.423 252.554 324.218C252.554 324.013 252.497 323.811 252.39 323.636C252.283 323.461 252.13 323.319 251.947 323.225L245.635 319.545C244.938 319.14 244.145 318.926 243.338 318.926C242.531 318.926 241.738 319.14 241.041 319.545L68.6868 417.906C68.5007 417.997 68.3438 418.139 68.2337 418.314C68.1236 418.49 68.0647 418.693 68.0635 418.9C68.0623 419.108 68.119 419.311 68.2272 419.488C68.3353 419.665 68.4906 419.808 68.6757 419.902Z" fill="#E6E6E6"/>
<path d="M292.04 53.8718L295.921 51.6191L336.882 75.1833V79.6664L292.04 53.8718Z" fill="#F5F5F5"/>
<path d="M292.039 53.8721L336.882 79.6666V84.7742L292.028 59.0131L292.039 53.8721Z" fill="#E0E0E0"/>
<path d="M360.301 93.1379L364.182 90.8853L405.143 114.449V118.932L360.301 93.1379Z" fill="#F5F5F5"/>
<path d="M360.301 93.1382L405.143 118.933V124.051L360.29 98.2792L360.301 93.1382Z" fill="#E0E0E0"/>
<path d="M428.562 132.415L432.443 130.151L473.405 153.715V158.199L428.562 132.415Z" fill="#F5F5F5"/>
<path d="M428.562 132.416L473.404 158.199V163.318L428.551 137.557L428.562 132.416Z" fill="#E0E0E0"/>
<path d="M292.263 10.8142L296.132 8.56152L295.909 124.564L292.028 126.806L292.263 10.8142Z" fill="#F0F0F0"/>
<path d="M292.028 126.806L295.909 124.564L340.528 150.169L336.659 152.422L292.028 126.806Z" fill="#F5F5F5"/>
<path d="M287.813 3.1084L341.343 33.8767L341.086 160.128L287.557 129.36L287.813 3.1084ZM336.659 152.422L336.882 36.4416L292.274 10.7921L292.04 126.773L336.648 152.422" fill="#E0E0E0"/>
<path d="M287.813 3.10817L291.694 0.855469L345.235 31.6238L341.354 33.8765L287.813 3.10817Z" fill="#F5F5F5"/>
<path d="M341.354 33.8762L345.235 31.6235L344.979 157.875L341.098 160.128L341.354 33.8762Z" fill="#F0F0F0"/>
<path d="M360.524 50.0803L364.394 47.8276L364.171 163.83L360.29 166.083L360.524 50.0803Z" fill="#F0F0F0"/>
<path d="M360.29 166.083L364.171 163.831L408.79 189.447L404.92 191.699L360.29 166.083Z" fill="#F5F5F5"/>
<path d="M356.075 42.3853L409.604 73.1424L409.348 199.394L355.818 168.637L356.075 42.3853ZM404.921 191.699L405.144 75.7185L360.536 50.069L360.301 166.049L404.909 191.699" fill="#E0E0E0"/>
<path d="M356.074 42.3855L359.955 40.1328L413.496 70.9011L409.615 73.1538L356.074 42.3855Z" fill="#F5F5F5"/>
<path d="M409.615 73.1536L413.496 70.9009L413.239 197.141L409.358 199.394L409.615 73.1536Z" fill="#F0F0F0"/>
<path d="M428.785 89.3577L432.655 87.105L432.432 203.097L428.551 205.349L428.785 89.3577Z" fill="#F0F0F0"/>
<path d="M428.551 205.349L432.432 203.097L477.051 228.713L473.181 230.965L428.551 205.349Z" fill="#F5F5F5"/>
<path d="M424.336 81.707L477.865 112.475L477.609 238.727L424.079 207.959L424.336 81.707ZM473.181 231.021L473.404 115.04L428.796 89.3907L428.562 205.371L473.17 231.021" fill="#E0E0E0"/>
<path d="M424.336 81.6516L428.217 79.3989L481.757 110.167L477.877 112.42L424.336 81.6516Z" fill="#F5F5F5"/>
<path d="M477.877 112.42L481.758 110.167L481.501 236.418L477.62 238.671L477.877 112.42Z" fill="#F0F0F0"/>
<path d="M67.6723 347.448L46.4836 348.061L25.2949 347.448C24.3804 361.745 27.1684 376.309 31.0158 383.424C31.9253 385.254 33.394 386.746 35.209 387.684C41.4541 391.286 51.5466 391.286 57.7582 387.684C59.5999 386.733 61.0716 385.195 61.9402 383.313C65.81 376.119 68.5757 361.622 67.6723 347.448Z" fill="white"/>
<path d="M61.4167 338.783C69.7138 343.567 69.7584 351.329 61.5171 356.113C53.2758 360.897 39.8823 360.908 31.5852 356.113C23.2881 351.318 23.2435 343.567 31.4848 338.783C39.7261 333.999 53.1308 333.987 61.4167 338.783Z" fill="#EBEBEB"/>
<path d="M58.1379 340.679C64.6061 344.415 64.6395 350.481 58.216 354.206C51.7924 357.931 41.3319 357.942 34.8637 354.206C28.3956 350.47 28.3621 344.415 34.7857 340.679C41.2092 336.943 51.6698 336.954 58.1379 340.679Z" fill="#E0E0E0"/>
<g opacity="0.15">
<path opacity="0.15" d="M58.1379 340.679C64.6061 344.415 64.6395 350.481 58.216 354.206C51.7924 357.931 41.3319 357.942 34.8637 354.206C28.3956 350.47 28.3621 344.415 34.7857 340.679C41.2092 336.943 51.6698 336.954 58.1379 340.679Z" fill="black"/>
</g>
<path d="M81.3007 257.128C33.6037 272.741 33.1688 304.658 43.9193 327.385C46.6404 331.98 54.8482 334.456 61.9855 306.197L49.4618 307.802L64.0598 300.409L67.8514 289.067L55.6735 289.97L71.1301 283.469C73.9711 274.486 77.3678 265.689 81.3007 257.128Z" fill="#0EA5C6"/>
<path opacity="0.2" d="M81.3007 257.128C33.6037 272.741 33.1688 304.658 43.9193 327.385C46.6404 331.98 54.8482 334.456 61.9855 306.197L49.4618 307.802L64.0598 300.409L67.8514 289.067L55.6735 289.97L71.1301 283.469C73.9711 274.486 77.3678 265.689 81.3007 257.128Z" fill="black"/>
<path d="M67.8063 265.102C42.6363 284.194 40.4059 306.085 47.4874 328.935C44.9782 308.817 42.2571 288.476 67.8063 265.102Z" fill="white"/>
<path d="M0.515625 289.547C47.5323 296.16 53.231 325.813 46.9971 348.764C45.235 353.492 37.9974 357.161 26.6559 332.036L38.5885 331.445L23.7563 326.984L18.3476 317.014L29.8342 315.899L14.3664 312.408C10.2267 304.509 5.60085 296.874 0.515625 289.547Z" fill="#0EA5C6"/>
<path opacity="0.2" d="M0.515625 289.547C47.5323 296.16 53.231 325.813 46.9971 348.764C45.235 353.492 37.9974 357.161 26.6559 332.036L38.5885 331.445L23.7563 326.984L18.3476 317.014L29.8342 315.899L14.3664 312.408C10.2267 304.509 5.60085 296.874 0.515625 289.547Z" fill="white"/>
<path d="M14.3994 294.71C40.9969 308.315 46.7401 328.322 43.9298 350.782C42.9262 331.645 42.0786 312.252 14.3994 294.71Z" fill="white"/>
<path d="M95.0506 300.654C51.937 301.356 43.4727 327.419 46.5283 348.819C47.6435 353.28 53.699 357.395 66.7357 336.017L56.0186 334.154L69.8917 331.79L75.8803 323.448L65.654 321.095L79.9954 319.69C84.617 313.041 89.645 306.683 95.0506 300.654Z" fill="#0EA5C6"/>
<path d="M81.9585 303.777C56.4651 313.055 49.049 330.397 49.0713 351.005C52.1158 333.854 55.06 316.468 81.9585 303.777Z" fill="white"/>
<path d="M411.767 313.356C412.068 346.678 412.425 378.762 412.425 378.762C412.443 378.977 412.519 379.182 412.645 379.357C412.77 379.532 412.941 379.669 413.138 379.755C413.671 380.024 414.259 380.165 414.856 380.165C415.452 380.165 416.041 380.024 416.573 379.755C416.768 379.667 416.935 379.528 417.059 379.354C417.182 379.179 417.257 378.975 417.276 378.762C417.276 378.762 417.633 346.689 417.934 313.367C415.904 313.445 413.841 313.445 411.767 313.356Z" fill="#E0E0E0"/>
<path d="M371.296 354.73C371.315 354.944 371.392 355.149 371.517 355.324C371.643 355.498 371.813 355.636 372.01 355.723C372.542 355.992 373.13 356.133 373.727 356.133C374.324 356.133 374.912 355.992 375.444 355.723C375.638 355.633 375.805 355.495 375.929 355.321C376.052 355.146 376.127 354.943 376.147 354.73C376.147 354.73 377.697 331.813 379.905 304.546C377.824 303.257 375.878 301.763 374.095 300.085C372.311 329.281 371.296 354.73 371.296 354.73Z" fill="#E0E0E0"/>
<path d="M453.598 354.73C453.618 354.943 453.693 355.146 453.816 355.32C453.94 355.495 454.107 355.633 454.301 355.723C454.833 355.992 455.421 356.132 456.018 356.132C456.615 356.132 457.203 355.992 457.735 355.723C457.93 355.633 458.098 355.495 458.223 355.321C458.348 355.147 458.426 354.943 458.449 354.73C458.449 354.73 457.49 329.382 455.65 300.286C453.864 301.944 451.918 303.419 449.84 304.691C452.059 331.88 453.598 354.73 453.598 354.73Z" fill="#E0E0E0"/>
<path opacity="0.1" d="M411.767 313.356C412.068 346.678 412.425 378.762 412.425 378.762C412.443 378.977 412.519 379.182 412.645 379.357C412.77 379.532 412.941 379.669 413.138 379.755C413.671 380.024 414.259 380.165 414.856 380.165C415.452 380.165 416.041 380.024 416.573 379.755C416.768 379.667 416.935 379.528 417.059 379.354C417.182 379.179 417.257 378.975 417.276 378.762C417.276 378.762 417.633 346.689 417.934 313.367C415.904 313.445 413.841 313.445 411.767 313.356Z" fill="black"/>
<path opacity="0.1" d="M371.296 354.73C371.315 354.944 371.392 355.149 371.517 355.324C371.643 355.498 371.813 355.636 372.01 355.723C372.542 355.992 373.13 356.133 373.727 356.133C374.324 356.133 374.912 355.992 375.444 355.723C375.638 355.633 375.805 355.495 375.929 355.321C376.052 355.146 376.127 354.943 376.147 354.73C376.147 354.73 377.697 331.813 379.905 304.546C377.824 303.257 375.878 301.763 374.095 300.085C372.311 329.281 371.296 354.73 371.296 354.73Z" fill="black"/>
<path opacity="0.1" d="M453.598 354.73C453.618 354.943 453.693 355.146 453.816 355.32C453.94 355.495 454.107 355.633 454.301 355.723C454.833 355.992 455.421 356.132 456.018 356.132C456.615 356.132 457.203 355.992 457.735 355.723C457.93 355.633 458.098 355.495 458.223 355.321C458.348 355.147 458.426 354.943 458.449 354.73C458.449 354.73 457.49 329.382 455.65 300.286C453.864 301.944 451.918 303.419 449.84 304.691C452.059 331.88 453.598 354.73 453.598 354.73Z" fill="black"/>
<path d="M462.72 280.324C462.72 287.416 458.136 294.509 448.825 299.918C430.19 310.746 399.89 310.746 381.143 299.918C371.764 294.509 367.058 287.416 367.014 280.324V285.71C367.014 290.717 369.411 295.747 374.095 300.141C375.878 301.818 377.824 303.313 379.905 304.602L381.143 305.349C389.686 310.278 400.637 312.954 411.789 313.389C413.841 313.479 415.904 313.479 417.956 313.389C429.208 312.999 440.26 310.311 448.825 305.338L449.839 304.713C451.918 303.441 453.864 301.966 455.65 300.308C460.389 295.847 462.753 290.795 462.72 285.732V280.324Z" fill="#E0E0E0"/>
<path opacity="0.1" d="M462.72 280.324C462.72 287.416 458.136 294.509 448.825 299.918C430.19 310.746 399.89 310.746 381.143 299.918C371.764 294.509 367.058 287.416 367.014 280.324V285.71C367.014 290.717 369.411 295.747 374.095 300.141C375.878 301.818 377.824 303.313 379.905 304.602L381.143 305.349C389.686 310.278 400.637 312.954 411.789 313.389C413.841 313.479 415.904 313.479 417.956 313.389C429.208 312.999 440.26 310.311 448.825 305.338L449.839 304.713C451.918 303.441 453.864 301.966 455.65 300.308C460.389 295.847 462.753 290.795 462.72 285.732V280.324Z" fill="black"/>
<path d="M381.143 299.918C399.89 310.746 430.212 310.746 448.825 299.918C458.137 294.509 462.765 287.416 462.72 280.324C462.675 273.231 457.969 266.138 448.602 260.719C429.844 249.901 399.533 249.901 380.92 260.719C371.608 266.138 366.98 273.231 367.014 280.324C367.047 287.416 371.765 294.509 381.143 299.918Z" fill="#E0E0E0"/>
<g opacity="0.3">
<path opacity="0.3" d="M411.767 313.356C411.767 315.587 411.767 317.817 411.822 320.048C413.841 320.126 415.859 320.126 417.878 320.048C417.878 317.817 417.878 315.587 417.934 313.356C415.904 313.446 413.841 313.446 411.767 313.356Z" fill="black"/>
<path opacity="0.3" d="M374.095 300.141C373.972 302.271 373.838 304.379 373.716 306.453C375.455 308.129 377.361 309.624 379.403 310.914C379.559 308.829 379.738 306.71 379.905 304.568C377.826 303.29 375.879 301.807 374.095 300.141Z" fill="black"/>
<path opacity="0.3" d="M455.649 300.286C453.863 301.944 451.917 303.419 449.839 304.691C450.017 306.832 450.188 308.948 450.352 311.037C452.391 309.747 454.293 308.252 456.028 306.576C455.906 304.524 455.783 302.416 455.649 300.286Z" fill="black"/>
</g>
<g opacity="0.5">
<path opacity="0.5" d="M411.767 313.356C412.068 346.678 412.425 378.762 412.425 378.762C412.443 378.977 412.519 379.182 412.645 379.357C412.77 379.532 412.941 379.669 413.138 379.755C413.671 380.024 414.259 380.165 414.856 380.165C415.452 380.165 416.041 380.024 416.573 379.755C416.768 379.667 416.935 379.528 417.059 379.354C417.182 379.179 417.257 378.975 417.276 378.762C417.276 378.762 417.633 346.689 417.934 313.367C415.904 313.445 413.841 313.445 411.767 313.356Z" fill="#E0E0E0"/>
<path opacity="0.5" d="M371.296 354.73C371.315 354.944 371.392 355.149 371.517 355.323C371.643 355.498 371.813 355.635 372.01 355.722C372.542 355.992 373.13 356.132 373.727 356.132C374.324 356.132 374.912 355.992 375.444 355.722C375.638 355.633 375.805 355.494 375.929 355.32C376.052 355.146 376.127 354.942 376.147 354.73C376.147 354.73 377.697 331.812 379.905 304.546C377.824 303.257 375.878 301.762 374.095 300.085C372.311 329.281 371.296 354.73 371.296 354.73Z" fill="#E0E0E0"/>
<path opacity="0.5" d="M453.598 354.73C453.618 354.942 453.693 355.146 453.816 355.32C453.94 355.494 454.107 355.633 454.301 355.722C454.833 355.992 455.421 356.132 456.018 356.132C456.615 356.132 457.203 355.992 457.735 355.722C457.93 355.633 458.098 355.494 458.223 355.32C458.348 355.146 458.426 354.943 458.449 354.73C458.449 354.73 457.49 329.381 455.65 300.286C453.864 301.943 451.918 303.419 449.84 304.691C452.059 331.879 453.598 354.73 453.598 354.73Z" fill="#E0E0E0"/>
<path opacity="0.5" d="M462.72 280.324C462.72 287.416 458.136 294.509 448.825 299.918C430.19 310.746 399.89 310.746 381.143 299.918C371.764 294.509 367.058 287.416 367.014 280.324V285.71C367.014 290.717 369.411 295.747 374.095 300.141C375.878 301.818 377.824 303.313 379.905 304.602L381.143 305.349C389.686 310.278 400.637 312.954 411.789 313.389C413.841 313.479 415.904 313.479 417.956 313.389C429.208 312.999 440.26 310.311 448.825 305.338L449.839 304.713C451.918 303.441 453.864 301.966 455.65 300.308C460.389 295.847 462.753 290.795 462.72 285.732V280.324Z" fill="white"/>
<path opacity="0.5" d="M381.143 299.918C399.89 310.746 430.212 310.746 448.825 299.918C458.137 294.509 462.765 287.416 462.72 280.324C462.675 273.231 457.969 266.138 448.602 260.719C429.844 249.901 399.533 249.901 380.92 260.719C371.608 266.138 366.98 273.231 367.014 280.324C367.047 287.416 371.765 294.509 381.143 299.918Z" fill="white"/>
</g>
<path d="M430.904 250.76L414.778 251.217L398.652 250.749C397.961 261.633 400.08 272.741 403.013 278.161C403.707 279.552 404.823 280.687 406.202 281.406C408.864 282.759 411.808 283.465 414.795 283.465C417.781 283.465 420.725 282.759 423.387 281.406C424.793 280.676 425.915 279.499 426.577 278.06C429.498 272.629 431.595 261.589 430.904 250.76Z" fill="white"/>
<path d="M426.142 244.147C432.465 247.794 432.498 253.715 426.22 257.362C419.941 261.009 409.726 261.009 403.414 257.362C397.102 253.715 397.057 247.805 403.336 244.147C409.614 240.489 419.83 240.5 426.142 244.147Z" fill="#EBEBEB"/>
<path d="M423.643 245.641C428.573 248.485 428.606 253.102 423.699 255.946C418.792 258.789 410.841 258.789 405.912 255.946C400.983 253.102 400.949 248.485 405.856 245.641C410.763 242.798 418.714 242.753 423.643 245.641Z" fill="#E0E0E0"/>
<g opacity="0.15">
<path opacity="0.15" d="M423.643 245.641C428.573 248.485 428.606 253.102 423.699 255.946C418.792 258.789 410.841 258.789 405.912 255.946C400.983 253.102 400.949 248.485 405.856 245.641C410.763 242.798 418.714 242.753 423.643 245.641Z" fill="black"/>
</g>
<path d="M413.429 251.217C414.725 252.298 416.259 253.056 417.905 253.428C419.551 253.8 421.262 253.776 422.897 253.358C424.47 252.881 425.9 252.02 427.056 250.852C428.213 249.683 429.06 248.245 429.521 246.667C427.612 245.761 425.864 244.548 424.347 243.076C426.765 242.478 429.303 242.567 431.673 243.333C432.331 242.304 432.725 241.129 432.822 239.912C432.92 238.695 432.717 237.472 432.231 236.352C429.479 235.128 426.384 234.911 423.488 235.738C424.69 234.693 426.095 233.906 427.614 233.426C429.134 232.947 430.736 232.785 432.32 232.95C432.548 228.329 431.827 223.71 430.201 219.378C424.19 219.691 418.358 222.278 416.395 224.14C416.303 226.292 416.529 228.445 417.064 230.53C416.287 230.135 415.623 229.549 415.134 228.828C414.644 228.106 414.345 227.272 414.265 226.404C410.507 227.341 408.89 229.214 408.31 230.653C408.845 233.328 410.072 235.815 411.868 237.868C408.332 236.753 406.905 232.861 406.905 232.861C403.426 241.091 404.095 250.414 413.429 251.217Z" fill="#0EA5C6"/>
<path opacity="0.2" d="M413.429 251.217C414.725 252.298 416.259 253.056 417.905 253.428C419.551 253.8 421.262 253.776 422.897 253.358C424.47 252.881 425.9 252.02 427.056 250.852C428.213 249.683 429.06 248.245 429.521 246.667C427.612 245.761 425.864 244.548 424.347 243.076C426.765 242.478 429.303 242.567 431.673 243.333C432.331 242.304 432.725 241.129 432.822 239.912C432.92 238.695 432.717 237.472 432.231 236.352C429.479 235.128 426.384 234.911 423.488 235.738C424.69 234.693 426.095 233.906 427.614 233.426C429.134 232.947 430.736 232.785 432.32 232.95C432.548 228.329 431.827 223.71 430.201 219.378C424.19 219.691 418.358 222.278 416.395 224.14C416.303 226.292 416.529 228.445 417.064 230.53C416.287 230.135 415.623 229.549 415.134 228.828C414.644 228.106 414.345 227.272 414.265 226.404C410.507 227.341 408.89 229.214 408.31 230.653C408.845 233.328 410.072 235.815 411.868 237.868C408.332 236.753 406.905 232.861 406.905 232.861C403.426 241.091 404.095 250.414 413.429 251.217Z" fill="black"/>
<path opacity="0.3" d="M413.429 251.217C414.725 252.298 416.259 253.056 417.905 253.428C419.551 253.8 421.262 253.776 422.897 253.358C424.47 252.881 425.9 252.02 427.056 250.852C428.213 249.683 429.06 248.245 429.521 246.667C427.612 245.761 425.864 244.548 424.347 243.076C426.765 242.478 429.303 242.567 431.673 243.333C432.331 242.304 432.725 241.129 432.822 239.912C432.92 238.695 432.717 237.472 432.231 236.352C429.479 235.128 426.384 234.911 423.488 235.738C424.69 234.693 426.095 233.906 427.614 233.426C429.134 232.947 430.736 232.785 432.32 232.95C432.548 228.329 431.827 223.71 430.201 219.378C424.19 219.691 418.358 222.278 416.395 224.14C416.303 226.292 416.529 228.445 417.064 230.53C416.287 230.135 415.623 229.549 415.134 228.828C414.644 228.106 414.345 227.272 414.265 226.404C410.507 227.341 408.89 229.214 408.31 230.653C408.845 233.328 410.072 235.815 411.868 237.868C408.332 236.753 406.905 232.861 406.905 232.861C403.426 241.091 404.095 250.414 413.429 251.217Z" fill="white"/>
<path d="M413.228 252.109C413.182 252.106 413.138 252.095 413.097 252.075C413.056 252.054 413.019 252.027 412.989 251.992C412.959 251.958 412.936 251.918 412.922 251.875C412.907 251.832 412.901 251.787 412.904 251.741C413.484 244.147 417.822 231.612 428.182 221.274C428.215 221.242 428.253 221.216 428.295 221.199C428.337 221.181 428.382 221.172 428.428 221.172C428.473 221.172 428.518 221.181 428.56 221.199C428.603 221.216 428.641 221.242 428.673 221.274C428.705 221.306 428.731 221.344 428.748 221.387C428.766 221.429 428.775 221.474 428.775 221.519C428.775 221.565 428.766 221.61 428.748 221.652C428.731 221.694 428.705 221.732 428.673 221.765C418.458 231.969 414.175 244.314 413.607 251.797C413.595 251.888 413.55 251.971 413.479 252.029C413.409 252.087 413.319 252.116 413.228 252.109Z" fill="#F5F5F5"/>
<path d="M416.06 255.276C414.855 256.263 413.433 256.949 411.911 257.281C410.389 257.612 408.81 257.578 407.303 257.182C405.797 256.786 404.406 256.039 403.243 255.003C402.081 253.966 401.18 252.669 400.615 251.217C402.341 250.43 403.922 249.356 405.288 248.039C403.002 247.491 400.612 247.56 398.362 248.24C397.679 247.371 397.231 246.342 397.061 245.25C396.891 244.158 397.005 243.041 397.392 242.006C400.011 240.926 402.916 240.754 405.644 241.515C403.211 239.621 400.153 238.713 397.08 238.972C396.543 234.899 396.924 230.757 398.195 226.85C403.916 227.196 409.592 229.571 411.577 231.255C411.795 233.144 411.716 235.056 411.343 236.92C412.037 236.591 412.626 236.076 413.046 235.432C413.465 234.789 413.698 234.042 413.718 233.274C417.309 234.143 418.926 235.827 419.562 237.099C419.223 239.452 418.221 241.661 416.674 243.467C417.68 243.107 418.593 242.525 419.344 241.765C420.095 241.004 420.665 240.084 421.012 239.073C424.792 246.366 424.737 254.563 416.06 255.276Z" fill="#0EA5C6"/>
<path opacity="0.3" d="M416.06 255.276C414.855 256.263 413.433 256.949 411.911 257.281C410.389 257.612 408.81 257.578 407.303 257.182C405.797 256.786 404.406 256.039 403.243 255.003C402.081 253.966 401.18 252.669 400.615 251.217C402.341 250.43 403.922 249.356 405.288 248.039C403.002 247.491 400.612 247.56 398.362 248.24C397.679 247.371 397.231 246.342 397.061 245.25C396.891 244.158 397.005 243.041 397.392 242.006C400.011 240.926 402.916 240.754 405.644 241.515C403.211 239.621 400.153 238.713 397.08 238.972C396.543 234.899 396.924 230.757 398.195 226.85C403.916 227.196 409.592 229.571 411.577 231.255C411.795 233.144 411.716 235.056 411.343 236.92C412.037 236.591 412.626 236.076 413.046 235.432C413.465 234.789 413.698 234.042 413.718 233.274C417.309 234.143 418.926 235.827 419.562 237.099C419.223 239.452 418.221 241.661 416.674 243.467C417.68 243.107 418.593 242.525 419.344 241.765C420.095 241.004 420.665 240.084 421.012 239.073C424.792 246.366 424.737 254.563 416.06 255.276Z" fill="white"/>
<path d="M416.295 256.102C416.212 256.101 416.133 256.071 416.07 256.018C416.007 255.965 415.964 255.892 415.949 255.812C414.967 249.199 410.161 238.225 399.868 229.047C399.835 229.015 399.81 228.977 399.792 228.934C399.775 228.892 399.766 228.847 399.766 228.802C399.766 228.756 399.775 228.711 399.792 228.669C399.81 228.627 399.835 228.588 399.868 228.556C399.9 228.524 399.938 228.498 399.98 228.481C400.022 228.463 400.067 228.454 400.113 228.454C400.159 228.454 400.204 228.463 400.246 228.481C400.288 228.498 400.326 228.524 400.358 228.556C410.763 237.835 415.637 248.987 416.64 255.678C416.653 255.769 416.63 255.862 416.576 255.937C416.522 256.012 416.441 256.063 416.35 256.079L416.295 256.102Z" fill="white"/>
<path d="M253.108 25.8803C252.865 24.9362 252.489 24.0314 251.993 23.1926C250.878 21.5198 249.015 20.5385 244.51 20.6277C243.88 20.6488 243.259 20.7732 242.67 20.9957L73.3604 117.315C71.5011 118.394 69.9547 119.938 68.8734 121.795C67.792 123.653 67.213 125.76 67.1934 127.91V403.43C67.1934 408.348 70.0817 410.2 73.2935 410.411C74.6745 410.485 76.0575 410.308 77.3751 409.887C77.544 409.839 77.7082 409.775 77.8658 409.698L247.275 313.211C249.145 312.145 250.699 310.603 251.78 308.743C252.861 306.882 253.431 304.768 253.431 302.616V27.1627C253.418 26.7168 253.308 26.2791 253.108 25.8803Z" fill="#0EA5C6"/>
<path opacity="0.2" d="M253.108 25.8803C252.865 24.9362 252.489 24.0314 251.993 23.1926C250.878 21.5198 249.015 20.5385 244.51 20.6277C243.88 20.6488 243.259 20.7732 242.67 20.9957L73.3604 117.315C71.5011 118.394 69.9547 119.938 68.8734 121.795C67.792 123.653 67.213 125.76 67.1934 127.91V403.43C67.1934 408.348 70.0817 410.2 73.2935 410.411C74.6745 410.485 76.0575 410.308 77.3751 409.887C77.544 409.839 77.7082 409.775 77.8658 409.698L247.275 313.211C249.145 312.145 250.699 310.603 251.78 308.743C252.861 306.882 253.431 304.768 253.431 302.616V27.1627C253.418 26.7168 253.308 26.2791 253.108 25.8803Z" fill="black"/>
<path opacity="0.2" d="M68.4647 122.557C67.6377 124.221 67.2028 126.052 67.1934 127.91V403.431C67.1934 408.349 70.0817 410.2 73.2935 410.412C72.4147 409.075 71.9814 407.494 72.0556 405.895V130.363C72.0626 128.51 72.4936 126.683 73.3158 125.022C73.4496 124.743 73.6281 124.486 73.7842 124.219L69.078 121.498C68.8662 121.854 68.6431 122.189 68.4647 122.557Z" fill="black"/>
<path opacity="0.2" d="M244.554 20.6278C243.925 20.649 243.303 20.7733 242.714 20.9959L73.3605 117.315C71.6036 118.327 70.1305 119.765 69.0781 121.497L73.7843 124.219C74.8497 122.363 76.3892 120.823 78.245 119.758L247.565 23.4493C248.156 23.2352 248.777 23.1148 249.406 23.0924C250.284 23.071 251.163 23.1046 252.037 23.1928C250.978 21.4865 249.06 20.5386 244.554 20.6278Z" fill="white"/>
<path d="M245.703 34.4897L80.1074 130.062V389.87L245.703 294.297V34.4897Z" fill="#455A64"/>
<path d="M171.409 341.548C169.81 342.547 168.43 343.862 167.355 345.411C166.279 346.96 165.53 348.711 165.153 350.559C164.74 353.771 166.87 355.02 169.926 353.202C171.522 352.199 172.899 350.884 173.974 349.336C175.049 347.787 175.8 346.037 176.182 344.191C176.583 340.991 174.453 339.797 171.409 341.548Z" fill="#0EA5C6"/>
<g opacity="0.4">
<path opacity="0.4" d="M171.409 341.548C169.81 342.547 168.43 343.862 167.355 345.411C166.279 346.96 165.53 348.711 165.153 350.559C164.74 353.771 166.87 355.02 169.926 353.202C171.522 352.199 172.899 350.884 173.974 349.336C175.049 347.787 175.8 346.037 176.182 344.191C176.583 340.991 174.453 339.797 171.409 341.548Z" fill="black"/>
</g>
<path d="M261.617 20.8843V12.4535C261.606 12.0659 261.511 11.6853 261.338 11.3383C261.145 10.51 260.825 9.7164 260.39 8.98519C259.465 7.50198 257.77 6.64328 253.799 6.7548C253.247 6.76993 252.701 6.87541 252.182 7.06705L103.014 91.8109C101.379 92.761 100.02 94.1202 99.0693 95.7549C98.1191 97.3895 97.6106 99.2433 97.5938 101.134V110.792L101.865 113.256L261.617 20.8843Z" fill="#0EA5C6"/>
<path d="M101.865 113.256L97.5938 110.791V352.243C97.5938 356.57 100.136 358.209 102.958 358.388C104.176 358.456 105.397 358.301 106.56 357.93C106.709 357.881 106.854 357.821 106.995 357.752L256.197 272.774C257.844 271.838 259.213 270.481 260.165 268.844C261.117 267.206 261.618 265.345 261.617 263.451V20.8843L101.865 113.256Z" fill="#0EA5C6"/>
<path opacity="0.2" d="M98.7089 96.4276C97.9805 97.8897 97.5989 99.5001 97.5938 101.134V352.243C97.5938 356.57 100.136 358.209 102.958 358.387C102.175 357.211 101.785 355.818 101.843 354.406V103.308C101.852 101.675 102.233 100.066 102.958 98.6022C103.081 98.3569 103.237 98.1227 103.37 97.8885L99.2219 95.502C99.0339 95.8007 98.8626 96.1097 98.7089 96.4276Z" fill="black"/>
<path opacity="0.2" d="M253.799 6.65432C253.247 6.66945 252.701 6.77493 252.182 6.96657L103.014 91.8108C101.466 92.7033 100.169 93.9732 99.2441 95.5021L103.393 97.8886C104.334 96.2612 105.688 94.9109 107.318 93.9743L256.454 9.14121C256.974 8.94489 257.525 8.83928 258.082 8.82895C258.852 8.80422 259.624 8.83403 260.39 8.91817C259.465 7.43495 257.769 6.57625 253.799 6.65432Z" fill="white"/>
<path opacity="0.05" d="M261.617 20.8843V12.4535C261.606 12.0659 261.511 11.6853 261.338 11.3383C261.145 10.51 260.825 9.7164 260.39 8.98519C259.465 7.50198 257.77 6.64328 253.799 6.7548C253.247 6.76993 252.701 6.87541 252.182 7.06705L103.014 91.8109C101.379 92.761 100.02 94.1202 99.0693 95.7549C98.1191 97.3895 97.6106 99.2433 97.5938 101.134V110.792L101.865 113.256L261.617 20.8843Z" fill="white"/>
<path opacity="0.3" d="M101.865 113.256L97.5938 110.791V352.243C97.5938 356.57 100.136 358.209 102.958 358.388C104.176 358.456 105.397 358.301 106.56 357.93C106.709 357.881 106.854 357.821 106.995 357.752L256.197 272.774C257.844 271.838 259.213 270.481 260.165 268.844C261.117 267.206 261.618 265.345 261.617 263.451V20.8843L101.865 113.256Z" fill="white"/>
<path d="M179.984 108.951L114.399 146.79V256.291L179.984 218.441V108.951Z" fill="white"/>
<path d="M118.047 148.898L176.349 115.252V216.345L118.047 249.979V148.898Z" fill="#455A64"/>
<path opacity="0.3" d="M118.047 148.898L176.349 115.252V216.345L118.047 249.979V148.898Z" fill="white"/>
<path d="M176.349 216.423L118.047 250.102V211.393L135.009 198.067L156.867 189.77L162.276 188.42C164.673 187.821 167.172 187.747 169.602 188.203C172.031 188.659 174.332 189.635 176.349 191.063V216.423Z" fill="#E0E0E0"/>
<path d="M131.239 168.692C129.544 163.016 129.912 156.503 133.302 151.641C135.539 148.539 138.678 146.203 142.291 144.95C145.876 143.734 149.666 143.241 153.443 143.5C156.437 143.557 159.384 144.269 162.074 145.585C163.687 146.445 165.113 147.614 166.273 149.026C167.433 150.438 168.303 152.065 168.834 153.813C169.364 155.562 169.544 157.398 169.364 159.216C169.184 161.034 168.647 162.799 167.784 164.41C166.315 166.89 164.397 169.076 162.13 170.856C157.779 174.58 152.998 177.77 147.889 180.357C146.618 181.004 145.324 181.617 144.008 182.186C143.116 182.576 141.432 183.669 140.428 183.469C139.425 183.268 138.376 181.406 137.774 180.636C136.904 179.521 136.079 178.406 135.309 177.224C133.545 174.593 132.174 171.719 131.239 168.692Z" fill="#263238"/>
<path d="M161.696 216.367C161.273 214.659 160.69 212.993 159.956 211.394L157.168 212.052C157.38 213.613 157.491 215.241 157.547 216.858C157.547 217.973 157.458 222.099 157.246 227.441L163.502 223.839C162.945 221.386 162.354 218.877 161.696 216.367Z" fill="#0EA5C6"/>
<path opacity="0.2" d="M157.235 212.643C157.235 212.453 157.235 212.252 157.168 212.052L159.956 211.394L160.123 211.806C159.746 212.17 159.286 212.436 158.783 212.582C158.279 212.728 157.748 212.748 157.235 212.643Z" fill="black"/>
<path d="M155.673 204.747L153.443 203.342L148.335 206.13C150.084 207.473 152.174 208.3 154.368 208.516L155.673 204.747Z" fill="#0EA5C6"/>
<path d="M159.063 204.212L159.733 202.706L162.309 204.323C162.033 205.301 161.446 206.163 160.636 206.777L159.063 204.212Z" fill="#0EA5C6"/>
<path opacity="0.2" d="M155.673 204.747L153.443 203.342L148.335 206.13C150.084 207.473 152.174 208.3 154.368 208.516L155.673 204.747Z" fill="black"/>
<path opacity="0.2" d="M159.063 204.212L159.733 202.706L162.309 204.323C162.033 205.301 161.446 206.163 160.636 206.777L159.063 204.212Z" fill="black"/>
<path d="M154.402 208.516C154.618 207.199 155.048 205.926 155.674 204.747L159.019 204.211C159.638 205.005 160.166 205.865 160.592 206.776C160.665 208.345 160.434 209.913 159.911 211.393C159.05 211.837 158.093 212.063 157.123 212.051C155.871 211.184 154.921 209.948 154.402 208.516Z" fill="#0EA5C6"/>
<path d="M140.083 178.573V194.052C143.161 198.301 156.108 203.687 156.867 203.565C157.803 203.398 156.867 195.056 156.867 194.331V188.064C154.346 187.684 151.882 187.238 149.663 186.77C147.504 186.322 145.494 185.336 143.819 183.903C142.144 182.47 140.859 180.636 140.083 178.573Z" fill="#9C5C5C"/>
<path d="M151.235 190.439C153.082 190.925 154.965 191.26 156.867 191.443V188.097C154.346 187.718 151.882 187.272 149.662 186.803C147.639 186.378 145.745 185.479 144.136 184.18C142.527 182.882 141.249 181.22 140.406 179.332C140.814 181.936 141.978 184.363 143.752 186.313C145.826 188.341 148.413 189.767 151.235 190.439Z" fill="#803E3E"/>
<path d="M166.535 154.195C164 156.648 160.638 158.064 157.112 158.165C153.766 158.165 150.599 157.105 147.398 156.224C147.106 157.78 146.324 159.203 145.168 160.284C143.89 161.373 142.319 162.06 140.651 162.258C141.12 165.247 141.12 168.291 140.651 171.28C140.61 171.591 140.484 171.886 140.288 172.132C140.091 172.377 139.831 172.565 139.536 172.674C138.421 172.986 137.752 171.882 137.228 170.99C136.666 169.945 135.863 169.051 134.886 168.38C134.396 168.059 133.837 167.86 133.255 167.8C132.673 167.74 132.085 167.82 131.54 168.034C131.106 168.264 130.723 168.58 130.416 168.964C130.109 169.348 129.884 169.79 129.756 170.265C129.506 171.196 129.46 172.17 129.622 173.12C129.814 174.723 130.455 176.238 131.473 177.491C131.983 178.115 132.615 178.628 133.33 178.998C134.046 179.368 134.829 179.588 135.633 179.644C136.415 179.711 137.201 179.563 137.905 179.215C138.609 178.867 139.204 178.332 139.625 177.67L139.703 177.96C140.234 180.159 141.374 182.163 142.994 183.741C144.614 185.32 146.647 186.408 148.859 186.881C150.889 187.305 153.141 187.707 155.428 188.063C156.543 188.231 157.658 188.387 158.773 188.521C160.849 188.769 162.94 188.215 164.62 186.971C166.3 185.727 167.44 183.887 167.806 181.829C169.334 173.008 169.847 162.838 166.535 154.195Z" fill="#9C5C5C"/>
<path d="M159.933 165.224H157.97C155.996 163.886 153.721 163.058 151.349 162.814C148.976 162.571 146.58 162.92 144.376 163.83V165.904L144.922 166.194C145.219 167.532 145.387 168.895 145.424 170.265C145.461 171.611 145.998 172.895 146.93 173.867C148.113 174.675 149.54 175.045 150.967 174.915C152.105 175.004 153.248 174.836 154.312 174.425C155.531 173.767 156.45 172.664 156.877 171.347C157.368 170.053 157.279 169.306 157.881 167.756C157.964 167.531 158.118 167.339 158.319 167.209C158.52 167.078 158.757 167.016 158.996 167.031C159.216 167.039 159.429 167.112 159.608 167.241C159.787 167.37 159.923 167.549 160 167.756C160.558 169.306 160.491 170.053 160.937 171.347C161.323 172.636 162.179 173.734 163.334 174.425C164.331 174.84 165.414 175.009 166.49 174.915C167.837 175.043 169.182 174.669 170.271 173.867C171.154 172.872 171.652 171.595 171.676 170.265C171.708 168.897 171.864 167.534 172.144 166.194L172.657 165.904V163.83C170.602 162.92 168.342 162.569 166.108 162.814C163.873 163.059 161.743 163.89 159.933 165.224ZM156.978 166.339L156.9 167.075C156.719 168.414 156.386 169.727 155.907 170.99C155.56 172.038 154.837 172.92 153.877 173.465C153.109 173.77 152.283 173.903 151.457 173.856H151.011C149.837 173.98 148.656 173.697 147.666 173.053C146.939 172.268 146.54 171.234 146.551 170.165C146.551 169.819 146.484 169.462 146.461 169.049C146.394 168.057 146.461 165.893 146.539 164.321C147.662 164.01 148.821 163.852 149.985 163.852C152.437 163.863 154.837 164.562 156.911 165.871C157.011 165.938 156.978 166.284 156.978 166.284V166.339ZM170.717 169.105C170.717 169.462 170.717 169.819 170.639 170.22C170.634 171.287 170.237 172.315 169.524 173.109C168.615 173.747 167.505 174.033 166.401 173.912H165.989C165.225 173.954 164.462 173.821 163.758 173.521C162.842 172.959 162.167 172.077 161.862 171.046C161.413 169.778 161.102 168.466 160.937 167.131L160.859 166.395C160.859 166.395 160.859 166.049 160.937 165.983C162.849 164.683 165.104 163.98 167.416 163.964C168.507 163.963 169.593 164.121 170.639 164.432C170.728 165.893 170.773 168.057 170.717 169.049V169.105Z" fill="#37474F"/>
<path d="M144.376 163.83L133.313 167.811C134.112 167.963 134.859 168.312 135.488 168.826C135.6 168.927 144.41 165.904 144.41 165.904L144.376 163.83Z" fill="#37474F"/>
<path d="M158.93 167.198L164.517 173.956L159.398 175.763L158.93 167.198Z" fill="#9C5C5C"/>
<path d="M158.93 167.198L164.517 173.956L159.398 175.763L158.93 167.198Z" fill="#803E3E"/>
<path d="M151.057 168.046C151.054 168.247 151.091 168.446 151.166 168.633C151.241 168.819 151.352 168.989 151.493 169.132C151.634 169.276 151.802 169.389 151.988 169.467C152.173 169.545 152.372 169.585 152.573 169.585C152.786 169.603 153 169.577 153.201 169.508C153.403 169.439 153.588 169.329 153.745 169.185C153.902 169.041 154.028 168.865 154.113 168.67C154.199 168.475 154.243 168.264 154.243 168.051C154.243 167.838 154.199 167.627 154.113 167.432C154.028 167.237 153.902 167.062 153.745 166.918C153.588 166.773 153.403 166.663 153.201 166.595C153 166.526 152.786 166.5 152.573 166.518C152.17 166.521 151.784 166.683 151.5 166.969C151.216 167.255 151.057 167.642 151.057 168.046Z" fill="#263238"/>
<path d="M163.926 167.577C163.923 167.779 163.96 167.979 164.035 168.166C164.109 168.353 164.221 168.524 164.362 168.668C164.503 168.812 164.671 168.927 164.856 169.006C165.042 169.085 165.241 169.126 165.443 169.127C165.85 169.127 166.241 168.967 166.531 168.681C166.821 168.395 166.987 168.007 166.993 167.599C166.96 167.215 166.784 166.858 166.5 166.597C166.216 166.336 165.845 166.191 165.459 166.191C165.074 166.191 164.702 166.336 164.418 166.597C164.134 166.858 163.959 167.215 163.926 167.599V167.577Z" fill="#263238"/>
<path d="M163.078 160.886L167.182 161.343C167.108 160.906 166.905 160.5 166.599 160.178C166.293 159.856 165.898 159.633 165.465 159.537C164.981 159.517 164.501 159.633 164.079 159.871C163.657 160.11 163.311 160.461 163.078 160.886Z" fill="#263238"/>
<path d="M154.157 161.187H150.02C150.147 160.761 150.398 160.382 150.742 160.1C151.086 159.818 151.506 159.645 151.949 159.604C152.427 159.638 152.887 159.804 153.276 160.084C153.666 160.363 153.971 160.745 154.157 161.187Z" fill="#263238"/>
<path d="M153.498 178.473L159.398 180.29C159.024 180.985 158.434 181.538 157.718 181.868C157.002 182.198 156.198 182.286 155.428 182.119C153.978 181.718 153.32 179.967 153.498 178.473Z" fill="#9C5C5C"/>
<path d="M153.498 178.473L159.398 180.29C159.024 180.985 158.434 181.538 157.718 181.868C157.002 182.198 156.198 182.286 155.428 182.119C153.978 181.718 153.32 179.967 153.498 178.473Z" fill="#5E2828"/>
<path d="M157.357 181.997C156.74 182.227 156.069 182.269 155.428 182.12C154.88 181.915 154.406 181.552 154.065 181.078C153.723 180.603 153.53 180.038 153.51 179.454C154.355 179.304 155.225 179.484 155.942 179.957C156.658 180.43 157.165 181.16 157.357 181.997Z" fill="#9C5C5C"/>
<path d="M157.357 181.997C156.74 182.227 156.069 182.269 155.428 182.12C154.88 181.915 154.406 181.552 154.065 181.078C153.723 180.603 153.53 180.038 153.51 179.454C154.355 179.304 155.225 179.484 155.942 179.957C156.658 180.43 157.165 181.16 157.357 181.997Z" fill="#803E3E"/>
<path d="M156.866 203.565C151.491 203.476 150.71 212.163 145.804 213.602L133.291 198.379L137.172 192.614C137.948 191.464 138.955 190.488 140.127 189.748V191.833C140.142 192.444 140.312 193.042 140.623 193.569C140.933 194.096 141.373 194.535 141.9 194.844L156.866 203.565Z" fill="#FAFAFA"/>
<path d="M156.866 203.565C159.844 202.639 164.305 206.364 164.305 206.364C162.743 197.732 158.015 189.77 156.866 189.77V203.565Z" fill="#FAFAFA"/>
<path d="M152.54 94.7882C154.157 93.8514 155.16 94.2306 155.172 95.7695C155.121 96.6059 154.854 97.4148 154.397 98.1168C153.939 98.8187 153.307 99.3895 152.562 99.7731L151.536 100.364V102.137L149.863 103.096V96.3383L152.54 94.7882ZM152.462 98.3233C152.76 98.1794 153.013 97.9569 153.193 97.6798C153.374 97.4028 153.476 97.0816 153.488 96.7509C153.488 96.1264 153.142 95.948 152.451 96.3494L151.525 96.8847V98.8586L152.451 98.3233" fill="white"/>
<path d="M160.134 95.0893L161.416 96.4833L159.632 97.5093L158.517 96.3272L157.613 96.8513V98.6468L155.94 99.617V92.8478L158.617 91.253C160.223 90.3274 161.226 90.7066 161.238 92.2456C161.235 93.2977 160.842 94.3113 160.134 95.0893ZM158.572 94.844C158.87 94.6972 159.123 94.4725 159.304 94.1937C159.484 93.9149 159.586 93.5924 159.598 93.2604C159.598 92.6359 159.253 92.4686 158.561 92.8589L157.636 93.3942V95.3793L158.561 94.844" fill="white"/>
<path d="M165.153 87.3611C167.038 86.2459 168.432 86.9708 168.443 88.9893C168.386 90.0903 168.058 91.1601 167.488 92.1037C166.918 93.0473 166.123 93.8354 165.175 94.398C163.302 95.5132 161.908 94.7995 161.896 92.7698C161.957 91.6711 162.285 90.6038 162.853 89.6611C163.421 88.7184 164.21 87.9288 165.153 87.3611ZM165.153 92.8144C165.633 92.5073 166.029 92.0855 166.306 91.5872C166.582 91.0888 166.73 90.5294 166.736 89.9595C166.736 88.8443 166.034 88.4317 165.142 88.9559C164.674 89.2579 164.287 89.6699 164.015 90.1558C163.742 90.6418 163.593 91.187 163.58 91.7439C163.58 92.926 164.283 93.2828 165.175 92.7698" fill="white"/>
<path d="M173.918 82.4434L173.929 83.9154L170.974 85.6217L170.985 87.1049L173.584 85.6105V87.0937L170.985 88.5881L170.996 90.9077L169.324 91.8668L169.312 85.1087L173.918 82.4434Z" fill="white"/>
<path d="M176.372 81.0269L176.394 87.7849L174.721 88.7552L174.71 81.9859L176.372 81.0269Z" fill="white"/>
<path d="M179.215 79.3877L179.238 84.6291L182.037 83.0121L182.048 84.5288L177.576 87.1049L177.554 80.3468L179.215 79.3877Z" fill="white"/>
<path d="M187.301 74.7148V76.198L184.334 77.9043L184.345 79.0418L186.955 77.5363V78.9637L184.345 80.4693V81.7071L187.423 79.9451V81.4172L182.706 84.1494L182.684 77.3802L187.301 74.7148Z" fill="white"/>
<path d="M193.567 71.1013C195.519 69.9861 196.846 70.5103 196.857 72.5846C196.812 73.6718 196.486 74.7289 195.912 75.6532C195.337 76.5774 194.533 77.3374 193.579 77.8594L190.802 79.4765V72.7184L193.567 71.1013ZM193.512 76.3762C194.009 76.0891 194.425 75.6787 194.718 75.1846C195.011 74.6904 195.171 74.1291 195.184 73.5548C195.184 72.4396 194.504 72.0939 193.501 72.6738L192.452 73.276V76.9784L193.501 76.3762" fill="white"/>
<path d="M201.173 66.7075L203.794 71.9601L202.066 72.9638L201.597 71.9155L199.11 73.3541L198.653 74.9377L196.958 75.919L199.534 67.6554L201.173 66.7075ZM199.601 71.6701L201.107 70.8003L200.348 69.0717L199.601 71.6701Z" fill="white"/>
<path d="M212.537 60.1504L215.157 65.403L213.429 66.4066L212.96 65.3584L210.474 66.797L210.016 68.3806L208.321 69.3508L210.897 61.0983L212.537 60.1504ZM210.953 65.1019L212.47 64.232L211.7 62.5035L210.953 65.1019Z" fill="white"/>
<path d="M208.667 62.3809L208.678 63.8975L206.883 64.9347L206.894 70.1761L205.232 71.1352L205.21 65.8937L203.414 66.9309L203.403 65.4142L208.667 62.3809Z" fill="white"/>
<path d="M159.833 101.569V106.23L206.995 79.0083V74.3579L159.833 101.569Z" fill="#0EA5C6"/>
<g opacity="0.6">
<path opacity="0.6" d="M159.833 101.569V106.23L206.995 79.0083V74.3579L159.833 101.569Z" fill="white"/>
</g>
<path d="M171.62 103.096V107.747L199.054 91.8218V87.1714L171.62 103.096Z" fill="#0EA5C6"/>
<g opacity="0.6">
<path opacity="0.6" d="M171.62 103.096V107.747L199.054 91.8218V87.1714L171.62 103.096Z" fill="white"/>
</g>
<path d="M186.073 132.973V137.623L250.688 100.375V95.7251L186.073 132.973Z" fill="#0EA5C6"/>
<path d="M186.073 140.947V145.597L236.324 116.646V111.996L186.073 140.947Z" fill="#0EA5C6"/>
<path d="M186.073 155.087V159.737L250.688 122.501V117.851L186.073 155.087Z" fill="#0EA5C6"/>
<path d="M186.073 163.072V167.722L250.688 130.52V125.869L186.073 163.072Z" fill="#0EA5C6"/>
<path d="M186.073 170.778V175.428L234.807 147.437V142.787L186.073 170.778Z" fill="#0EA5C6"/>
<path d="M186.073 106.253V114.215L233.235 87.0045V79.042L186.073 106.253Z" fill="#0EA5C6"/>
<path d="M186.073 118.297V123.304L217.41 105.305V100.297L186.073 118.297Z" fill="#0EA5C6"/>
<g opacity="0.6">
<path opacity="0.6" d="M186.073 132.973V137.624L250.688 100.376V95.7256L186.073 132.973Z" fill="white"/>
<path opacity="0.6" d="M186.073 140.947V145.597L236.324 116.646V111.996L186.073 140.947Z" fill="white"/>
<path opacity="0.6" d="M186.073 155.088V159.738L250.688 122.501V117.851L186.073 155.088Z" fill="white"/>
<path opacity="0.6" d="M186.073 163.072V167.722L250.688 130.52V125.869L186.073 163.072Z" fill="white"/>
<path opacity="0.6" d="M186.073 170.778V175.428L234.807 147.437V142.787L186.073 170.778Z" fill="white"/>
<path opacity="0.6" d="M186.073 106.253V114.215L233.235 87.0045V79.042L186.073 106.253Z" fill="white"/>
<path opacity="0.6" d="M186.073 118.297V123.304L217.41 105.305V100.298L186.073 118.297Z" fill="white"/>
</g>
<path d="M190.512 180.369L191.973 182.922L195.229 181.584L192.887 185.588L193.445 188.989L190.534 188.911L187.623 192.357L188.17 188.309L185.806 187.026L189.062 184.606L190.512 180.369Z" fill="#0EA5C6"/>
<path d="M204.642 172.216L206.103 174.77L209.359 173.432L207.006 177.435L207.575 180.837L204.664 180.759L201.753 184.194L202.3 180.145L199.936 178.874L203.181 176.454L204.642 172.216Z" fill="#0EA5C6"/>
<path d="M218.76 164.053L220.232 166.607L223.477 165.269L221.135 169.272L221.704 172.674L218.793 172.596L215.871 176.042L216.429 171.993L214.054 170.711L217.31 168.291L218.76 164.053Z" fill="#0EA5C6"/>
<path d="M232.89 155.901L234.351 158.455L237.607 157.117L235.265 161.121L235.834 164.522L232.912 164.444L230.001 167.89L230.548 163.842L228.184 162.559L231.451 160.139L232.89 155.901Z" fill="#0EA5C6"/>
<path d="M247.019 147.749L248.48 150.303L251.736 148.965L249.394 152.968L249.963 156.358L247.041 156.291L244.13 159.726L244.677 155.678L242.312 154.407L245.569 151.976L247.019 147.749Z" fill="#0EA5C6"/>
<path d="M190.512 192.691L191.973 195.245L195.229 193.896L192.887 197.899L193.445 201.312L190.534 201.234L187.623 204.669L188.17 200.632L185.806 199.349L189.062 196.929L190.512 192.691Z" fill="#0EA5C6"/>
<path d="M204.642 184.528L206.103 187.082L209.359 185.744L207.006 189.747L207.575 193.16L204.664 193.071L201.753 196.517L202.3 192.469L199.936 191.186L203.181 188.766L204.642 184.528Z" fill="#0EA5C6"/>
<path d="M218.76 176.376L220.232 178.93L223.477 177.592L221.135 181.595L221.704 184.996L218.793 184.918L215.871 188.353L216.429 184.316L214.054 183.034L217.31 180.614L218.76 176.376Z" fill="#0EA5C6"/>
<path d="M232.89 168.224L234.351 170.778L237.607 169.44L235.265 173.443L235.834 176.833L232.912 176.767L230.001 180.201L230.548 176.153L228.184 174.871L231.451 172.451L232.89 168.224Z" fill="#0EA5C6"/>
<path d="M247.019 160.061L248.48 162.615L251.736 161.277L249.394 165.28L249.963 168.682L247.041 168.603L244.13 172.049L244.677 168.001L242.312 166.719L245.569 164.299L247.019 160.061Z" fill="#0EA5C6"/>
<path d="M190.512 205.003L191.973 207.557L195.229 206.219L192.887 210.223L193.445 213.624L190.534 213.546L187.623 216.992L188.17 212.944L185.806 211.661L189.062 209.241L190.512 205.003Z" fill="#0EA5C6"/>
<path d="M204.642 196.851L206.103 199.405L209.359 198.067L207.006 202.07L207.575 205.472L204.664 205.393L201.753 208.828L202.3 204.791L199.936 203.509L203.181 201.089L204.642 196.851Z" fill="#0EA5C6"/>
<path d="M218.76 188.699L220.232 191.253L223.477 189.915L221.135 193.918L221.704 197.309L218.793 197.242L215.871 200.676L216.429 196.628L214.054 195.346L217.31 192.937L218.76 188.699Z" fill="#0EA5C6"/>
<path d="M232.89 180.536L234.351 183.09L237.607 181.752L235.265 185.755L235.834 189.157L232.912 189.079L230.001 192.525L230.548 188.476L228.184 187.194L231.451 184.774L232.89 180.536Z" fill="#0EA5C6"/>
<path d="M247.019 172.384L248.48 174.938L251.736 173.599L249.394 177.603L249.963 181.004L247.041 180.926L244.13 184.372L244.677 180.324L242.312 179.042L245.569 176.61L247.019 172.384Z" fill="#0EA5C6"/>
<g opacity="0.8">
<path opacity="0.8" d="M190.512 180.369L191.973 182.922L195.229 181.584L192.887 185.588L193.445 188.989L190.534 188.911L187.623 192.357L188.17 188.309L185.806 187.026L189.062 184.606L190.512 180.369Z" fill="white"/>
<path opacity="0.8" d="M204.642 172.216L206.103 174.77L209.359 173.432L207.006 177.435L207.575 180.837L204.664 180.759L201.753 184.194L202.3 180.145L199.936 178.874L203.181 176.454L204.642 172.216Z" fill="white"/>
<path opacity="0.8" d="M218.76 164.053L220.232 166.607L223.477 165.269L221.135 169.272L221.704 172.674L218.793 172.596L215.871 176.042L216.429 171.993L214.054 170.711L217.31 168.291L218.76 164.053Z" fill="white"/>
</g>
<g opacity="0.8">
<path opacity="0.8" d="M190.512 192.691L191.973 195.245L195.229 193.896L192.887 197.899L193.445 201.312L190.534 201.234L187.623 204.669L188.17 200.632L185.806 199.349L189.062 196.929L190.512 192.691Z" fill="white"/>
<path opacity="0.8" d="M204.642 184.528L206.103 187.082L209.359 185.744L207.006 189.747L207.575 193.16L204.664 193.071L201.753 196.517L202.3 192.469L199.936 191.186L203.181 188.766L204.642 184.528Z" fill="white"/>
<path opacity="0.8" d="M218.76 176.376L220.232 178.93L223.477 177.592L221.135 181.595L221.704 184.996L218.793 184.918L215.871 188.353L216.429 184.316L214.054 183.034L217.31 180.614L218.76 176.376Z" fill="white"/>
<path opacity="0.8" d="M232.89 168.224L234.351 170.778L237.607 169.44L235.265 173.443L235.834 176.833L232.912 176.767L230.001 180.201L230.548 176.153L228.184 174.871L231.451 172.451L232.89 168.224Z" fill="white"/>
</g>
<g opacity="0.8">
<path opacity="0.8" d="M190.512 205.003L191.973 207.557L195.229 206.219L192.887 210.223L193.445 213.624L190.534 213.546L187.623 216.992L188.17 212.944L185.806 211.661L189.062 209.241L190.512 205.003Z" fill="white"/>
<path opacity="0.8" d="M204.642 196.851L206.103 199.405L209.359 198.067L207.006 202.07L207.575 205.472L204.664 205.393L201.753 208.828L202.3 204.791L199.936 203.509L203.181 201.089L204.642 196.851Z" fill="white"/>
<path opacity="0.8" d="M218.76 188.699L220.232 191.253L223.477 189.915L221.135 193.918L221.704 197.309L218.793 197.242L215.871 200.676L216.429 196.628L214.054 195.346L217.31 192.937L218.76 188.699Z" fill="white"/>
</g>
<path d="M131.105 256.537L114.444 266.205V285.487L128.206 277.525L131.105 271.536V256.537Z" fill="#0EA5C6"/>
<path opacity="0.1" d="M131.105 256.537L114.444 266.205V285.487L128.206 277.525L131.105 271.536V256.537Z" fill="black"/>
<path d="M128.206 277.525L131.106 271.536L128.206 273.209V277.525Z" fill="#0EA5C6"/>
<path opacity="0.3" d="M128.206 277.525L131.106 271.536L128.206 273.209V277.525Z" fill="black"/>
<path d="M134.507 254.596V258.667L179.985 232.437V228.367L134.507 254.596Z" fill="#0EA5C6"/>
<path d="M134.507 261.577V265.648L179.985 239.452V235.381L134.507 261.577Z" fill="#0EA5C6"/>
<path d="M134.507 268.313V272.384L166.1 254.251V250.18L134.507 268.313Z" fill="#0EA5C6"/>
<g opacity="0.6">
<path opacity="0.6" d="M134.507 254.596V258.667L179.985 232.437V228.367L134.507 254.596Z" fill="white"/>
<path opacity="0.6" d="M134.507 261.577V265.648L179.985 239.452V235.381L134.507 261.577Z" fill="white"/>
<path opacity="0.6" d="M134.507 268.313V272.384L166.1 254.251V250.18L134.507 268.313Z" fill="white"/>
</g>
<path d="M131.105 282.42L114.444 292.078V311.371L128.206 303.397L131.105 297.409V282.42Z" fill="#0EA5C6"/>
<path opacity="0.1" d="M131.105 282.42L114.444 292.078V311.371L128.206 303.397L131.105 297.409V282.42Z" fill="black"/>
<path d="M128.206 303.397L131.106 297.409L128.206 299.093V303.397Z" fill="#0EA5C6"/>
<path opacity="0.3" d="M128.206 303.397L131.106 297.409L128.206 299.093V303.397Z" fill="black"/>
<path d="M134.507 280.48V284.55L180.486 258.042V253.972L134.507 280.48Z" fill="#0EA5C6"/>
<path d="M134.507 287.461V291.52L180.486 265.057V260.986L134.507 287.461Z" fill="#0EA5C6"/>
<path d="M134.507 294.197V298.267L144.466 292.658V288.587L134.507 294.197Z" fill="#0EA5C6"/>
<g opacity="0.6">
<path opacity="0.6" d="M134.507 280.48V284.55L180.486 258.042V253.972L134.507 280.48Z" fill="white"/>
<path opacity="0.6" d="M134.507 287.461V291.52L180.486 265.057V260.986L134.507 287.461Z" fill="white"/>
<path opacity="0.6" d="M134.507 294.197V298.267L144.466 292.658V288.587L134.507 294.197Z" fill="white"/>
</g>
<path d="M131.105 308.304L114.444 317.962V337.244L128.206 329.281L131.105 323.292V308.304Z" fill="#0EA5C6"/>
<path opacity="0.1" d="M131.105 308.304L114.444 317.962V337.244L128.206 329.281L131.105 323.292V308.304Z" fill="black"/>
<path d="M128.206 329.281L131.106 323.292L128.206 324.965V329.281Z" fill="#0EA5C6"/>
<path opacity="0.3" d="M128.206 329.281L131.106 323.292L128.206 324.965V329.281Z" fill="black"/>
<path d="M134.507 306.364V310.423L180.921 283.48V279.409L134.507 306.364Z" fill="#0EA5C6"/>
<path d="M134.507 313.334V317.404L180.921 290.494V286.424L134.507 313.334Z" fill="#0EA5C6"/>
<path d="M134.507 320.069V324.14L180.921 297.286V293.215L134.507 320.069Z" fill="#0EA5C6"/>
<g opacity="0.6">
<path opacity="0.6" d="M134.507 306.364V310.423L180.921 283.48V279.409L134.507 306.364Z" fill="white"/>
<path opacity="0.6" d="M134.507 313.334V317.404L180.921 290.494V286.424L134.507 313.334Z" fill="white"/>
<path opacity="0.6" d="M134.507 320.069V324.14L180.921 297.286V293.215L134.507 320.069Z" fill="white"/>
</g>
<path d="M249.918 263.485L187.969 299.171C187.785 299.28 187.576 299.338 187.363 299.339C187.149 299.34 186.939 299.284 186.754 299.178C186.569 299.071 186.416 298.917 186.31 298.732C186.204 298.546 186.149 298.336 186.151 298.123V228.255C186.15 227.616 186.317 226.987 186.637 226.433C186.956 225.879 187.415 225.419 187.969 225.099L249.918 189.346C250.104 189.241 250.313 189.186 250.526 189.187C250.739 189.188 250.949 189.245 251.133 189.352C251.317 189.459 251.47 189.613 251.575 189.798C251.681 189.983 251.737 190.192 251.736 190.406V260.295C251.743 260.94 251.579 261.576 251.259 262.136C250.94 262.697 250.477 263.162 249.918 263.485Z" fill="#0EA5C6"/>
<path d="M208.132 219.412L191.471 229.08V248.362L205.243 240.4L208.132 234.411V219.412Z" fill="#0EA5C6"/>
<path opacity="0.3" d="M208.132 219.412L191.471 229.08V248.362L205.243 240.4L208.132 234.411V219.412Z" fill="black"/>
<path d="M205.244 240.4L208.132 234.411L205.244 236.084V240.4Z" fill="#0EA5C6"/>
<path opacity="0.5" d="M205.244 240.4L208.132 234.411L205.244 236.084V240.4Z" fill="black"/>
<path d="M212.068 219.824V222.534L248.112 201.736V199.026L212.068 219.824Z" fill="#0EA5C6"/>
<path d="M212.068 227.174L248.112 206.397V203.688L212.068 224.464V227.174Z" fill="#0EA5C6"/>
<path d="M212.068 231.958L248.112 211.159V208.46L212.068 229.259V231.958Z" fill="#0EA5C6"/>
<path d="M231.74 222.534L212.068 233.898V236.608L231.74 225.233V222.534Z" fill="#0EA5C6"/>
<path d="M191.471 255.232L248.112 222.668V219.969L191.471 252.522V255.232Z" fill="#0EA5C6"/>
<path d="M233.491 233.051L191.471 257.172V259.871L233.491 235.761V233.051Z" fill="#0EA5C6"/>
<path d="M191.471 277.145L248.112 244.582V241.883L191.471 274.435V277.145Z" fill="#0EA5C6"/>
<path d="M222.942 261.02L191.471 279.075V281.785L222.942 263.718V261.02Z" fill="#0EA5C6"/>
<path d="M191.471 286.569L248.112 254.016V251.306L191.471 283.87V286.569Z" fill="#0EA5C6"/>
<path d="M191.471 291.219L219.797 274.949V272.239L191.471 288.509V291.219Z" fill="#0EA5C6"/>
<path d="M223.7 272.696L232.577 267.6V264.89L223.7 269.997V272.696Z" fill="#0EA5C6"/>
<path d="M191.471 264.666L248.112 232.103V229.404L191.471 261.956V264.666Z" fill="#0EA5C6"/>
<path d="M211.232 255.243L191.471 266.596V269.306L211.232 257.953V255.243Z" fill="#0EA5C6"/>
<g opacity="0.3">
<path opacity="0.3" d="M212.068 219.824V222.534L248.112 201.736V199.026L212.068 219.824Z" fill="white"/>
<path opacity="0.3" d="M212.068 227.174L248.112 206.397V203.688L212.068 224.464V227.174Z" fill="white"/>
<path opacity="0.3" d="M212.068 231.958L248.112 211.159V208.46L212.068 229.259V231.958Z" fill="white"/>
<path opacity="0.3" d="M231.74 222.534L212.068 233.898V236.608L231.74 225.233V222.534Z" fill="white"/>
<path opacity="0.3" d="M191.471 255.232L248.112 222.668V219.969L191.471 252.522V255.232Z" fill="white"/>
<path opacity="0.3" d="M233.491 233.051L191.471 257.172V259.871L233.491 235.761V233.051Z" fill="white"/>
<path opacity="0.3" d="M191.471 277.145L248.112 244.582V241.883L191.471 274.435V277.145Z" fill="white"/>
<path opacity="0.3" d="M222.942 261.02L191.471 279.075V281.785L222.942 263.718V261.02Z" fill="white"/>
<path opacity="0.3" d="M191.471 286.569L248.112 254.016V251.306L191.471 283.87V286.569Z" fill="white"/>
<path opacity="0.3" d="M191.471 291.219L219.797 274.949V272.239L191.471 288.509V291.219Z" fill="white"/>
<path opacity="0.3" d="M223.7 272.696L232.577 267.6V264.89L223.7 269.997V272.696Z" fill="white"/>
<path opacity="0.3" d="M191.471 264.666L248.112 232.103V229.404L191.471 261.956V264.666Z" fill="white"/>
<path opacity="0.3" d="M211.232 255.243L191.471 266.596V269.306L211.232 257.953V255.243Z" fill="white"/>
</g>
<path d="M269.646 432.069C270.908 433.279 272.406 434.217 274.047 434.821C275.688 435.426 277.436 435.684 279.181 435.581C282.672 435.355 286.092 434.493 289.274 433.039C292.497 431.712 296.545 427.998 300.035 428.065C303.462 428.058 306.884 427.842 310.284 427.418C310.402 422.769 309.915 418.124 308.834 413.601L292.553 413.166C288.159 419.188 279.605 424.195 273.137 426.08C272.142 426.361 271.242 426.909 270.534 427.663C269.827 428.418 269.339 429.351 269.122 430.362C269.117 430.396 269.117 430.43 269.122 430.463C269.228 431.018 269.405 431.558 269.646 432.069Z" fill="#37474F"/>
<path d="M300.035 428.065C296.545 427.998 292.497 431.712 289.274 433.039C286.092 434.493 282.672 435.355 279.181 435.581C277.436 435.684 275.688 435.426 274.047 434.821C272.406 434.217 270.908 433.279 269.646 432.069C269.389 431.545 269.202 430.99 269.089 430.418C269.083 430.385 269.083 430.351 269.089 430.318C268.933 431.03 268.933 431.769 269.089 432.481C269.201 433.057 269.388 433.616 269.646 434.143C270.91 435.35 272.409 436.284 274.049 436.886C275.69 437.489 277.437 437.747 279.181 437.645C282.672 437.418 286.092 436.556 289.274 435.102C292.497 433.775 296.545 430.061 300.035 430.128C303.39 430.164 306.744 429.97 310.072 429.548C310.161 428.823 310.206 428.099 310.239 427.318C306.856 427.774 303.449 428.023 300.035 428.065Z" fill="#263238"/>
<path d="M350.197 441.146C350.213 442.926 350.037 444.702 349.673 446.443C349.121 449.546 347.396 452.318 344.855 454.183C342.507 455.518 339.851 456.222 337.149 456.224C334.779 456.478 332.382 456.231 330.113 455.499C328.397 454.886 326.941 453.705 325.986 452.153C325.986 452.153 325.986 452.22 325.986 452.242C326.317 453.388 326.921 454.437 327.747 455.297C328.572 456.158 329.595 456.805 330.726 457.183C332.999 457.914 335.4 458.161 337.774 457.908C340.473 457.908 343.125 457.204 345.469 455.867C348.015 454.008 349.748 451.241 350.309 448.138C350.673 446.397 350.849 444.621 350.833 442.841C350.843 441.625 351.101 440.423 351.59 439.31C352.078 438.196 352.788 437.193 353.677 436.362C354.112 435.957 354.525 435.529 354.915 435.079C355.189 434.765 355.398 434.399 355.528 434.002C355.659 433.606 355.708 433.187 355.673 432.771C355.673 432.451 355.639 432.128 355.573 431.801C354.926 432.559 353.42 434.343 353.041 434.7C352.157 435.527 351.449 436.525 350.96 437.633C350.472 438.74 350.212 439.935 350.197 441.146Z" fill="#263238"/>
<path d="M336.837 422.679C337.411 426.315 336.939 430.04 335.476 433.418C334.007 436.777 332.094 439.924 329.789 442.775C328.662 444.124 327.665 445.576 326.811 447.113C325.979 448.641 325.68 450.403 325.964 452.12C326.918 453.672 328.374 454.852 330.09 455.466C332.359 456.197 334.756 456.444 337.127 456.19C339.833 456.202 342.497 455.511 344.855 454.183C347.402 452.325 349.135 449.557 349.695 446.455C350.059 444.713 350.235 442.937 350.219 441.158C350.23 439.941 350.487 438.74 350.976 437.626C351.465 436.512 352.175 435.509 353.063 434.678C353.442 434.321 354.948 432.537 355.594 431.779C355.239 429.129 354.347 426.579 352.974 424.285L336.837 422.679Z" fill="#37474F"/>
<path d="M290.378 270.376C290.378 270.376 286.051 324.463 286.43 339.519C286.809 354.574 288.393 414.014 288.393 414.014C297.236 418.943 310.016 415.274 310.016 415.274C311.053 367.811 315.748 357.607 312.559 340.232C314.789 327.341 317.923 297.286 317.923 297.286C322.328 333.43 325.529 352.053 325.529 352.053L336.056 424.407C344.699 428.701 355.606 424.407 355.606 424.407C355.606 383.145 356.542 365.715 352.026 338.537C351.99 314.492 350.5 290.472 347.565 266.607L290.378 270.376Z" fill="#455A64"/>
<path opacity="0.2" d="M300.827 284.35C303.849 291.387 313.306 291.387 313.306 291.387L315.001 299.405L314.366 327.887C316.183 314.036 317.923 297.275 317.923 297.275L316.752 288.71C311.11 289.032 305.518 287.5 300.827 284.35Z" fill="black"/>
<path d="M304.808 186.536C290.032 186.536 287.612 192.279 283.876 201.803C280.14 211.326 277.252 228.333 277.252 228.333L291.538 225.255L297.114 193.082L304.808 186.536Z" fill="#455A64"/>
<path d="M291.538 222.924C287.802 222.669 284.061 223.348 280.653 224.898C279.303 225.438 278.104 226.299 277.163 227.408C276.704 227.971 276.407 228.647 276.301 229.366C276.195 230.084 276.284 230.818 276.56 231.489C275.2 233.987 275.323 237.701 275.601 240.756C275.629 241.346 275.758 241.927 275.981 242.474C276.097 242.742 276.272 242.981 276.492 243.174C276.711 243.366 276.971 243.508 277.252 243.589L291.538 230.742V222.924Z" fill="#37474F"/>
<path opacity="0.2" d="M286.642 226.092C281.568 225.69 277.899 228.612 276.248 230.106C276.252 230.584 276.359 231.056 276.56 231.489C277.731 229.716 282.716 226.493 286.642 226.092Z" fill="black"/>
<path opacity="0.2" d="M281.1 230.932C284.273 229.104 287.876 228.157 291.538 228.188V227.006C287.712 227.082 284.028 228.468 281.1 230.932Z" fill="black"/>
<path d="M345.759 187.473L338.822 186.737L304.809 186.502C292.887 186.502 291.36 201.167 290.679 214.148C289.999 227.129 292.185 253.236 289.229 270.678L303.426 279.844L307.407 275.551L313.764 281.473C335.343 281.473 348.056 269.495 349.673 267.432L345.759 187.473Z" fill="#0EA5C6"/>
<path opacity="0.2" d="M345.759 187.473L338.822 186.737L304.809 186.502C292.887 186.502 291.36 201.167 290.679 214.148C289.999 227.129 292.185 253.236 289.229 270.678L303.426 279.844L307.407 275.551L313.764 281.473C335.343 281.473 348.056 269.495 349.673 267.432L345.759 187.473Z" fill="white"/>
<path d="M310.362 190.996C307.184 201.122 309.18 215.241 310.362 221.586C318.425 210.512 325.975 199.394 328.328 195.045L317.087 189.591L310.362 190.996Z" fill="#455A64"/>
<path opacity="0.2" d="M309.292 222.367L305.634 227.274C304.632 228.618 304.139 230.273 304.24 231.947L306.693 272.752L302.478 232.259C302.357 231.121 302.514 229.97 302.936 228.906C303.357 227.841 304.031 226.895 304.898 226.148L309.292 222.367Z" fill="black"/>
<path d="M345.758 187.473L350.375 188.209C353.101 188.647 355.628 189.905 357.62 191.816C359.612 193.727 360.975 196.199 361.527 198.903C364.11 211.785 365.117 224.933 364.527 238.058L343.472 228.356C341.22 211.895 336.893 198.301 345.758 187.473Z" fill="#455A64"/>
<path d="M342.736 228.991C342.736 228.795 342.775 228.6 342.851 228.418C342.927 228.237 343.038 228.072 343.179 227.934C343.319 227.796 343.485 227.688 343.667 227.614C343.85 227.541 344.045 227.505 344.242 227.508C353.777 227.631 363.033 232.17 365.564 237.545C366.141 239.214 366.141 241.028 365.564 242.697C367.26 244.927 366.379 246.043 365.486 247.637C364.594 249.232 365.932 252.845 363.055 252.678L363.724 251.306C358.026 240.255 343.651 235.694 343.651 235.694L343.573 233.865C343.564 233.699 343.521 233.536 343.448 233.387C343.376 233.238 343.274 233.104 343.149 232.995C343.018 232.876 342.914 232.732 342.843 232.57C342.772 232.409 342.736 232.234 342.736 232.058V228.991Z" fill="#37474F"/>
<path opacity="0.2" d="M353.521 233.541C358.196 235.589 362.322 238.711 365.565 242.652C365.748 242.089 365.879 241.511 365.955 240.924C364.371 238.95 360.948 235.314 353.521 233.541Z" fill="black"/>
<path opacity="0.2" d="M342.792 232.404C342.86 232.621 342.983 232.817 343.149 232.973C343.274 233.082 343.376 233.215 343.448 233.365C343.521 233.514 343.563 233.677 343.573 233.842V233.987C350.237 235.016 356.401 238.141 361.17 242.909C356.765 236.519 347.086 233.24 342.792 232.404Z" fill="black"/>
<path d="M343.65 235.671L343.572 233.987C327.424 228.411 298.964 229.526 290.623 229.415C284.489 229.415 275.913 239.217 276.549 243.098C277.185 246.979 277.252 250.314 284.746 250.905C290.043 251.239 300.247 249.21 300.247 249.21C328.383 257.852 355.527 256.325 359.732 255.555C361.739 255.265 363.077 252.589 363.077 252.589L363.746 251.217C358.025 240.21 343.65 235.671 343.65 235.671Z" fill="#9C5C5C"/>
<path d="M354.334 243.678C353.906 242.276 353.23 240.961 352.338 239.797C349.605 238.103 346.691 236.719 343.651 235.671L343.572 233.987L342.524 233.642L342.736 235.727C338.141 236.039 311.209 247.057 300.247 249.254C302.399 249.912 304.529 250.503 306.648 251.05C318.915 246.801 335.777 238.437 343.572 237.233C349.004 238.627 351.791 240.065 354.334 243.678Z" fill="#803E3E"/>
<path d="M340.874 157.206C342.558 151.563 342.19 145.073 338.811 140.244C336.587 137.178 333.471 134.872 329.889 133.642C326.305 132.422 322.513 131.933 318.737 132.203C315.759 132.26 312.829 132.964 310.15 134.266C308.546 135.122 307.126 136.287 305.972 137.692C304.819 139.097 303.953 140.716 303.426 142.457C302.899 144.197 302.72 146.024 302.9 147.834C303.08 149.643 303.614 151.399 304.474 153.002C305.919 155.467 307.809 157.641 310.05 159.414C314.379 163.117 319.133 166.292 324.213 168.871C325.484 169.518 326.778 170.12 328.082 170.689C328.963 171.079 330.647 172.172 331.64 171.971C332.632 171.77 333.681 169.908 334.283 169.15C335.142 168.035 335.978 166.919 336.736 165.804C338.527 163.155 339.921 160.258 340.874 157.206Z" fill="#263238"/>
<path d="M315.057 200.32L312.291 199.662C310.952 203.202 309.834 206.822 308.945 210.501C309.237 214.242 309.724 217.964 310.406 221.653C311.99 219.479 313.551 217.315 315.057 215.185C314.557 210.243 314.557 205.262 315.057 200.32Z" fill="#0EA5C6"/>
<path opacity="0.2" d="M315.001 200.911C315.001 200.71 315.001 200.509 315.001 200.32L312.235 199.662C312.235 199.662 312.168 199.818 312.079 200.074C312.524 200.479 313.065 200.764 313.652 200.899C314.097 200.988 314.554 200.992 315.001 200.911Z" fill="black"/>
<path d="M316.552 193.059L318.782 191.654L323.867 194.42C322.131 195.763 320.052 196.59 317.868 196.807L316.552 193.059Z" fill="#0EA5C6"/>
<path d="M313.183 192.513L312.514 190.997L309.949 192.602C310.227 193.577 310.814 194.434 311.622 195.045L313.183 192.513Z" fill="#0EA5C6"/>
<path opacity="0.2" d="M316.552 193.059L318.782 191.654L323.867 194.42C322.131 195.763 320.052 196.59 317.868 196.807L316.552 193.059Z" fill="black"/>
<path opacity="0.2" d="M313.183 192.513L312.514 190.997L309.949 192.602C310.227 193.577 310.814 194.434 311.622 195.045L313.183 192.513Z" fill="black"/>
<path d="M317.823 196.807C317.605 195.497 317.176 194.232 316.552 193.06L313.206 192.513C312.59 193.302 312.066 194.159 311.645 195.067C311.57 196.627 311.797 198.188 312.314 199.662C313.168 200.104 314.118 200.33 315.08 200.32C316.339 199.464 317.298 198.236 317.823 196.807Z" fill="#0EA5C6"/>
<path d="M332.064 167.009V182.41C328.997 186.636 316.117 192 315.336 191.867C314.399 191.71 315.336 183.413 315.336 182.688V176.499C317.834 176.12 320.299 175.685 322.507 175.217C324.665 174.769 326.673 173.782 328.345 172.346C330.017 170.911 331.296 169.074 332.064 167.009Z" fill="#9C5C5C"/>
<path d="M320.978 178.819C319.148 179.293 317.284 179.624 315.402 179.811V176.465C317.9 176.086 320.365 175.651 322.573 175.183C324.587 174.762 326.471 173.867 328.071 172.574C329.671 171.281 330.94 169.625 331.773 167.745C331.364 170.339 330.201 172.755 328.428 174.692C326.361 176.712 323.787 178.138 320.978 178.819Z" fill="#803E3E"/>
<path d="M305.745 142.753C308.27 145.185 311.608 146.593 315.113 146.701C318.458 146.701 321.603 145.641 324.781 144.771C325.081 146.319 325.861 147.732 327.012 148.808C328.277 149.882 329.827 150.564 331.473 150.771C331.01 153.727 331.01 156.737 331.473 159.693C331.511 160.004 331.636 160.299 331.833 160.543C332.03 160.788 332.291 160.972 332.588 161.076C333.703 161.388 334.372 160.295 334.885 159.403C335.44 158.364 336.24 157.475 337.216 156.816C337.702 156.486 338.261 156.283 338.845 156.222C339.429 156.162 340.019 156.247 340.561 156.47C340.989 156.687 341.367 156.991 341.672 157.361C341.977 157.732 342.203 158.161 342.335 158.622C342.594 159.551 342.644 160.527 342.48 161.477C342.279 163.071 341.638 164.577 340.628 165.826C340.119 166.443 339.49 166.95 338.779 167.317C338.067 167.683 337.289 167.9 336.491 167.956C335.713 168.025 334.931 167.878 334.231 167.531C333.531 167.185 332.939 166.653 332.521 165.994L332.443 166.284C332.333 166.755 332.188 167.217 332.008 167.666C331.305 169.536 330.141 171.199 328.624 172.499C327.108 173.799 325.287 174.696 323.332 175.105C321.313 175.529 319.072 175.93 316.797 176.22C315.681 176.387 314.566 176.555 313.451 176.688C311.382 176.936 309.297 176.38 307.627 175.135C305.956 173.889 304.828 172.05 304.474 169.997C302.957 161.466 302.477 151.351 305.745 142.753Z" fill="#9C5C5C"/>
<path d="M299.667 152.344V154.396L300.169 154.686C300.449 156.018 300.606 157.373 300.637 158.734C300.67 160.058 301.168 161.329 302.042 162.325C303.124 163.124 304.463 163.493 305.801 163.362C306.869 163.458 307.944 163.293 308.934 162.882C310.087 162.197 310.939 161.102 311.321 159.816C311.778 158.533 311.7 157.786 312.258 156.236C312.328 156.026 312.463 155.844 312.644 155.716C312.824 155.588 313.04 155.52 313.261 155.522C313.499 155.506 313.736 155.567 313.936 155.696C314.137 155.824 314.291 156.013 314.376 156.236C314.968 157.786 314.889 158.533 315.369 159.816C315.799 161.125 316.712 162.222 317.923 162.882C318.988 163.291 320.131 163.455 321.268 163.362C322.687 163.497 324.107 163.13 325.283 162.325C326.211 161.356 326.744 160.075 326.777 158.734C326.815 157.371 326.983 156.016 327.279 154.686L327.826 154.396V152.344C325.635 151.435 323.254 151.085 320.895 151.325C318.535 151.564 316.273 152.386 314.31 153.715H312.347C310.543 152.386 308.42 151.559 306.192 151.318C303.965 151.077 301.713 151.431 299.667 152.344ZM315.28 154.362C317.349 153.064 319.74 152.369 322.183 152.355C323.34 152.356 324.492 152.513 325.606 152.823C325.696 154.385 325.751 156.548 325.685 157.529C325.685 157.886 325.685 158.243 325.606 158.589C325.605 159.65 325.207 160.672 324.491 161.455C323.5 162.096 322.32 162.38 321.146 162.258H320.7C319.881 162.306 319.063 162.172 318.302 161.868C317.34 161.33 316.616 160.45 316.272 159.403C315.798 158.147 315.469 156.841 315.291 155.511L315.213 154.775C315.213 154.775 315.224 154.429 315.336 154.362H315.28ZM301.596 152.823C302.639 152.514 303.72 152.356 304.808 152.355C307.108 152.373 309.351 153.071 311.254 154.362C311.365 154.429 311.332 154.775 311.332 154.775L311.265 155.511C311.098 156.838 310.788 158.143 310.339 159.403C310.035 160.431 309.359 161.309 308.444 161.868C307.741 162.171 306.977 162.304 306.213 162.258H305.823C304.723 162.372 303.619 162.087 302.711 161.455C302.005 160.666 301.609 159.648 301.596 158.589C301.596 158.243 301.596 157.886 301.518 157.529C301.518 156.548 301.574 154.385 301.652 152.823H301.596Z" fill="#37474F"/>
<path d="M327.793 152.344L338.8 156.303C338.008 156.446 337.266 156.792 336.648 157.306C336.525 157.407 327.793 154.396 327.793 154.396V152.344Z" fill="#37474F"/>
<path d="M313.307 155.689L307.753 162.414L312.849 164.21L313.307 155.689Z" fill="#9C5C5C"/>
<path d="M313.307 155.689L307.753 162.414L312.849 164.21L313.307 155.689Z" fill="#803E3E"/>
<path d="M321.146 156.525C321.149 156.828 321.061 157.125 320.894 157.377C320.728 157.63 320.49 157.828 320.211 157.945C319.932 158.062 319.625 158.094 319.327 158.036C319.03 157.979 318.757 157.834 318.542 157.621C318.327 157.408 318.181 157.136 318.121 156.839C318.061 156.542 318.091 156.234 318.206 155.955C318.321 155.675 318.517 155.435 318.769 155.267C319.02 155.099 319.316 155.009 319.619 155.009C319.819 155.007 320.017 155.046 320.202 155.121C320.388 155.197 320.556 155.308 320.698 155.449C320.84 155.59 320.953 155.758 321.03 155.943C321.107 156.127 321.146 156.325 321.146 156.525Z" fill="#263238"/>
<path d="M308.344 156.113C308.346 156.415 308.258 156.711 308.092 156.964C307.926 157.216 307.689 157.414 307.411 157.531C307.133 157.649 306.826 157.681 306.529 157.625C306.232 157.568 305.959 157.424 305.744 157.212C305.528 157 305.381 156.729 305.32 156.433C305.259 156.137 305.287 155.83 305.4 155.55C305.514 155.27 305.708 155.03 305.958 154.86C306.208 154.69 306.503 154.598 306.805 154.596C307.005 154.595 307.204 154.633 307.39 154.708C307.576 154.784 307.745 154.895 307.888 155.036C308.031 155.177 308.145 155.344 308.223 155.529C308.301 155.714 308.342 155.912 308.344 156.113Z" fill="#263238"/>
<path d="M309.169 149.344L305.087 149.812C305.161 149.375 305.364 148.969 305.67 148.647C305.976 148.325 306.371 148.102 306.804 148.006C307.284 147.985 307.76 148.1 308.178 148.336C308.596 148.573 308.939 148.922 309.169 149.344Z" fill="#263238"/>
<path d="M318.091 149.734H322.195C322.076 149.306 321.828 148.925 321.485 148.644C321.142 148.362 320.719 148.194 320.277 148.162C319.802 148.195 319.347 148.36 318.961 148.638C318.575 148.916 318.274 149.295 318.091 149.734Z" fill="#263238"/>
<path d="M318.715 166.908L312.849 168.693C313.22 169.383 313.807 169.933 314.519 170.261C315.231 170.589 316.03 170.677 316.796 170.51C318.235 170.142 318.893 168.391 318.715 166.908Z" fill="#9C5C5C"/>
<path d="M318.715 166.908L312.849 168.693C313.22 169.383 313.807 169.933 314.519 170.261C315.231 170.589 316.03 170.677 316.796 170.51C318.235 170.142 318.893 168.391 318.715 166.908Z" fill="#5E2828"/>
<path d="M314.879 170.421C315.494 170.645 316.161 170.684 316.797 170.533C317.342 170.328 317.813 169.967 318.153 169.494C318.492 169.022 318.684 168.46 318.704 167.878C317.935 167.769 317.152 167.914 316.474 168.291C315.681 168.762 315.107 169.528 314.879 170.421Z" fill="#9C5C5C"/>
<path d="M314.879 170.421C315.494 170.645 316.161 170.684 316.797 170.533C317.342 170.328 317.813 169.967 318.153 169.494C318.492 169.022 318.684 168.46 318.704 167.878C317.935 167.769 317.152 167.914 316.474 168.291C315.681 168.762 315.107 169.528 314.879 170.421Z" fill="#803E3E"/>
<path d="M315.369 191.866C320.711 191.777 323.978 196.037 328.863 197.442L338.822 186.692L334.963 180.959C334.19 179.818 333.187 178.849 332.019 178.116V180.19C332.007 180.798 331.839 181.392 331.53 181.915C331.221 182.439 330.783 182.874 330.257 183.179L315.369 191.866Z" fill="#37474F"/>
<path d="M315.37 191.867C312.403 190.952 307.965 194.666 307.965 194.666C309.515 186.068 314.21 182.688 315.359 182.688L315.37 191.867Z" fill="#37474F"/>
</svg>
