<svg width="51" height="50" viewBox="0 0 51 50" fill="none" xmlns="http://www.w3.org/2000/svg">
<path fill-rule="evenodd" clip-rule="evenodd" d="M25.1621 44C37.3124 44 47.1621 34.1503 47.1621 22C47.1621 9.84974 37.3124 0 25.1621 0C13.0118 0 3.16211 9.84974 3.16211 22C3.16211 28.8414 6.28491 34.9534 11.1828 38.9885C11.1906 38.9949 11.1837 39.0074 11.1741 39.0041C11.1682 39.0021 11.1621 39.0065 11.1621 39.0127V45.9401C11.1621 47.8021 13.1247 49.0107 14.7874 48.1725L22.5963 44.2361C23.011 44.0271 23.4755 43.9412 23.9391 43.9666C24.344 43.9888 24.7517 44 25.1621 44Z" fill="#005E38"/>
<path fill-rule="evenodd" clip-rule="evenodd" d="M33.4748 15.2071C34.131 15.7102 34.2562 16.6496 33.7548 17.3071L24.9771 28.8158C24.6727 29.2149 24.2114 29.4629 23.7114 29.4962C23.2114 29.5294 22.7214 29.3448 22.3671 28.9895L16.7186 23.3261C16.1347 22.7406 16.1347 21.7931 16.7186 21.2076L17.0584 20.8669C17.6445 20.2792 18.5964 20.2792 19.1825 20.8669L23.4215 25.117L30.9884 15.1957C31.4917 14.5358 32.4352 14.41 33.0938 14.915L33.4748 15.2071Z" fill="white"/>
</svg>
