<svg width="33" height="33" viewBox="0 0 33 33" fill="none" xmlns="http://www.w3.org/2000/svg">
<path d="M5.76725 5.97461C4.29392 5.97461 3.10059 7.16794 3.10059 8.64128V24.6413C3.10059 26.1146 4.29392 27.3079 5.76725 27.3079H27.1006C28.5739 27.3079 29.7673 26.1146 29.7673 24.6413V8.64128C29.7673 7.16794 28.5739 5.97461 27.1006 5.97461H5.76725ZM19.6188 12.6413C20.4455 12.6413 21.4105 13.0553 21.4105 13.0553L20.9964 14.709C20.9964 14.709 20.3068 14.1569 19.6188 14.1569C18.6548 14.1569 18.3792 14.5717 18.3792 14.985C18.3792 15.949 21.1344 16.0843 21.1344 18.0137C21.1331 19.6643 19.2052 20.7669 17.9652 20.6283C16.5878 20.6283 15.9001 20.2168 15.9001 20.2168L16.1761 18.5632C16.1761 18.5632 17.0019 18.9772 18.1032 18.9772C19.2045 18.9772 19.3428 18.5618 19.3428 18.2871C19.3428 17.0471 16.5876 17.4611 16.5876 14.9824C16.5876 13.7424 17.5521 12.6413 19.6188 12.6413ZM10.9417 12.7793H12.8688L9.97559 20.4928H7.91048L6.39486 14.2949C6.39486 14.2949 8.04804 15.2583 9.01204 17.5996C9.01204 17.8756 9.15007 18.2897 9.15007 18.2897L10.9417 12.7793ZM24.3011 12.7793H26.3662L27.8818 20.4928H26.2282L25.9521 19.3913H23.473L23.0615 20.4928H21.1318L24.3011 12.7793ZM13.6943 12.9147H15.7594L14.5199 20.6283H12.5928L13.6943 12.9147ZM4.05371 12.9173H7.08496C7.91163 12.9173 8.18652 13.6048 8.18652 13.6048L8.87402 17.0475C8.04736 14.1555 4.05371 12.9173 4.05371 12.9173ZM24.9886 15.1204L23.887 18.0137H25.5381L24.9886 15.1204Z" fill="black"/>
</svg>
