<svg width="51" height="50" viewBox="0 0 51 50" fill="none" xmlns="http://www.w3.org/2000/svg">
<g clip-path="url(#clip0)">
<path fill-rule="evenodd" clip-rule="evenodd" d="M25.1622 44C37.3124 44 47.1622 34.1503 47.1622 22C47.1622 9.84974 37.3124 0 25.1622 0C13.0119 0 3.16217 9.84974 3.16217 22C3.16217 27.7294 5.3523 32.9472 8.94101 36.862C9.39116 37.3531 9.66211 37.9871 9.66211 38.6532V47.017C9.66211 48.8603 11.589 50.0698 13.249 49.2684L24.1463 44.0076C24.1525 44.0046 24.1524 43.9957 24.1461 43.9928C24.1378 43.9891 24.1408 43.9767 24.1498 43.9771C24.4854 43.9923 24.8229 44 25.1622 44Z" fill="#B15500"/>
<path fill-rule="evenodd" clip-rule="evenodd" d="M22.9127 24.5002C22.9127 25.3287 23.5843 26.0002 24.4127 26.0002H25.9127C26.7411 26.0002 27.4127 25.3287 27.4127 24.5002L27.4127 13.5002C27.4127 12.6718 26.7411 12.0002 25.9127 12.0002H24.4127C23.5843 12.0002 22.9127 12.6718 22.9127 13.5002L22.9127 24.5002ZM25.1622 32.0005C26.4049 32.0005 27.4122 30.9932 27.4122 29.7505C27.4122 28.5079 26.4049 27.5005 25.1622 27.5005C23.9196 27.5005 22.9122 28.5079 22.9122 29.7505C22.9122 30.9932 23.9196 32.0005 25.1622 32.0005Z" fill="white"/>
</g>
<defs>
<clipPath id="clip0">
<rect width="50" height="50" fill="white" transform="translate(0.162109)"/>
</clipPath>
</defs>
</svg>
