<?xml version="1.0" encoding="utf-8"?>
<svg viewBox="182.691 327.72 967.952 411.227" width="967.952" height="411.227" xmlns="http://www.w3.org/2000/svg">
  <g id="g10" transform="matrix(1.333333, 0, 0, -1.333333, 0, 1066.666748)">
    <g id="g12" transform="scale(0.1)">
      <path d="m 1474.35,3461.97 v 0 c 57.53,0 104.17,46.63 104.17,104.17 v 842.29 c 0,57.53 -46.64,104.16 -104.17,104.16 v 0 c -57.53,0 -104.17,-46.63 -104.17,-104.16 v -842.29 c 0,-57.54 46.64,-104.17 104.17,-104.17" style="fill: #fff;fill-opacity:1;fill-rule:nonzero;stroke:none" id="path14"/>
      <path d="m 1826.91,3679.47 v 0 c 57.53,0 104.17,46.64 104.17,104.17 v 482.58 c 0,57.53 -46.64,104.17 -104.17,104.17 v 0 c -57.53,0 -104.16,-46.64 -104.16,-104.17 v -482.58 c 0,-57.53 46.63,-104.17 104.16,-104.17" style="fill: #fff;fill-opacity:1;fill-rule:nonzero;stroke:none" id="path16"/>
      <path d="m 2179.48,2910.2 v 0 c 57.53,0 104.17,46.64 104.17,104.17 v 1892.91 c 0,57.53 -46.64,104.17 -104.17,104.17 v 0 c -57.53,0 -104.17,-46.64 -104.17,-104.17 V 3014.37 c 0,-57.53 46.64,-104.17 104.17,-104.17" style="fill: #fff;fill-opacity:1;fill-rule:nonzero;stroke:none" id="path18"/>
      <path d="m 2532.05,3350.26 v 0 c 57.53,0 104.16,46.64 104.16,104.17 v 1983.51 c 0,57.53 -46.63,104.16 -104.16,104.16 v 0 c -57.53,0 -104.17,-46.63 -104.17,-104.16 V 3454.43 c 0,-57.53 46.64,-104.17 104.17,-104.17" style="fill: #fff;fill-opacity:1;fill-rule:nonzero;stroke:none" id="path20"/>
      <path d="m 2884.61,2457.9 v 0 c 57.53,0 104.16,46.63 104.16,104.16 v 1958.08 c 0,57.52 -46.63,104.16 -104.16,104.16 v 0 c -57.53,0 -104.17,-46.64 -104.17,-104.16 V 2562.06 c 0,-57.53 46.64,-104.16 104.17,-104.16" style="fill: #fff;fill-opacity:1;fill-rule:nonzero;stroke:none" id="path22"/>
      <path d="m 3237.17,2829.43 v 0 c 57.53,0 104.17,46.63 104.17,104.16 v 2147.44 c 0,57.53 -46.64,104.17 -104.17,104.17 v 0 c -57.53,0 -104.16,-46.64 -104.16,-104.17 V 2933.59 c 0,-57.53 46.63,-104.16 104.16,-104.16" style="fill: #fff;fill-opacity:1;fill-rule:nonzero;stroke:none" id="path24"/>
      <path d="m 3589.74,3679.47 v 0 c 57.53,0 104.17,46.64 104.17,104.17 v 558.38 c 0,57.52 -46.64,104.16 -104.17,104.16 v 0 c -57.53,0 -104.17,-46.64 -104.17,-104.16 v -558.38 c 0,-57.53 46.64,-104.17 104.17,-104.17" style="fill: #fff;fill-opacity:1;fill-rule:nonzero;stroke:none" id="path26"/>
      <path d="m 3942.3,3461.97 v 0 c 57.53,0 104.17,46.63 104.17,104.16 v 842.3 c 0,57.53 -46.64,104.16 -104.17,104.16 v 0 c -57.52,0 -104.16,-46.63 -104.16,-104.16 v -842.3 c 0,-57.53 46.64,-104.16 104.16,-104.16" style="fill: #fff;fill-opacity:1;fill-rule:nonzero;stroke:none" id="path28"/>
      <path d="m 4294.87,3679.47 v 0 c 57.53,0 104.17,46.64 104.17,104.17 v 482.58 c 0,57.53 -46.64,104.17 -104.17,104.17 v 0 c -57.53,0 -104.17,-46.64 -104.17,-104.17 v -482.58 c 0,-57.53 46.64,-104.17 104.17,-104.17" style="fill: #fff;fill-opacity:1;fill-rule:nonzero;stroke:none" id="path30"/>
      <path d="m 4647.44,2910.2 v 0 c 57.53,0 104.16,46.64 104.16,104.17 v 1892.91 c 0,57.53 -46.63,104.17 -104.16,104.17 v 0 c -57.53,0 -104.17,-46.64 -104.17,-104.17 V 3014.37 c 0,-57.53 46.64,-104.17 104.17,-104.17" style="fill: #fff;fill-opacity:1;fill-rule:nonzero;stroke:none" id="path32"/>
      <path d="m 5000,3350.26 v 0 c 57.53,0 104.17,46.64 104.17,104.17 v 1983.51 c 0,57.53 -46.64,104.16 -104.17,104.16 v 0 c -57.53,0 -104.17,-46.63 -104.17,-104.16 V 3454.43 c 0,-57.53 46.64,-104.17 104.17,-104.17" style="fill: #fff;fill-opacity:1;fill-rule:nonzero;stroke:none" id="path34"/>
      <path d="m 5352.56,2457.9 h 0.01 c 57.53,0 104.16,46.63 104.16,104.16 v 1958.08 c 0,57.52 -46.63,104.16 -104.16,104.16 h -0.01 c -57.53,0 -104.16,-46.64 -104.16,-104.16 V 2562.06 c 0,-57.53 46.63,-104.16 104.16,-104.16" style="fill: #fff;fill-opacity:1;fill-rule:nonzero;stroke:none" id="path36"/>
      <path d="m 5705.13,2829.43 v 0 c 57.53,0 104.17,46.63 104.17,104.16 v 2147.44 c 0,57.53 -46.64,104.17 -104.17,104.17 v 0 c -57.53,0 -104.17,-46.64 -104.17,-104.17 V 2933.59 c 0,-57.53 46.64,-104.16 104.17,-104.16" style="fill: #fff;fill-opacity:1;fill-rule:nonzero;stroke:none" id="path38"/>
      <path d="m 6057.7,3679.47 v 0 c 57.52,0 104.16,46.64 104.16,104.17 v 558.38 c 0,57.53 -46.64,104.16 -104.16,104.16 v 0 c -57.53,0 -104.17,-46.63 -104.17,-104.16 v -558.38 c 0,-57.53 46.64,-104.17 104.17,-104.17" style="fill: #fff;fill-opacity:1;fill-rule:nonzero;stroke:none" id="path40"/>
      <path d="m 6410.26,3461.97 v 0 c 57.53,0 104.17,46.63 104.17,104.16 v 842.3 c 0,57.53 -46.64,104.16 -104.17,104.16 v 0 c -57.53,0 -104.17,-46.63 -104.17,-104.16 v -842.3 c 0,-57.53 46.64,-104.16 104.17,-104.16" style="fill: #fff;fill-opacity:1;fill-rule:nonzero;stroke:none" id="path42"/>
      <path d="m 6762.83,3679.47 v 0 c 57.53,0 104.16,46.64 104.16,104.17 v 482.58 c 0,57.53 -46.63,104.17 -104.16,104.17 v 0 c -57.53,0 -104.17,-46.64 -104.17,-104.17 v -482.58 c 0,-57.53 46.64,-104.17 104.17,-104.17" style="fill: #fff;fill-opacity:1;fill-rule:nonzero;stroke:none" id="path44"/>
      <path d="m 7115.39,2910.2 v 0 c 57.53,0 104.17,46.64 104.17,104.17 v 1892.91 c 0,57.53 -46.64,104.17 -104.17,104.17 v 0 c -57.53,0 -104.16,-46.64 -104.16,-104.17 V 3014.37 c 0,-57.53 46.63,-104.17 104.16,-104.17" style="fill: #fff;fill-opacity:1;fill-rule:nonzero;stroke:none" id="path46"/>
      <path d="m 7467.95,3350.26 h 0.01 c 57.53,0 104.16,46.64 104.16,104.17 v 1983.51 c 0,57.53 -46.63,104.16 -104.16,104.16 h -0.01 c -57.53,0 -104.16,-46.63 -104.16,-104.16 V 3454.43 c 0,-57.53 46.63,-104.17 104.16,-104.17" style="fill: #fff;fill-opacity:1;fill-rule:nonzero;stroke:none" id="path48"/>
      <path d="m 7820.52,2457.9 v 0 c 57.53,0 104.17,46.63 104.17,104.16 v 1958.07 c 0,57.53 -46.64,104.17 -104.17,104.17 v 0 c -57.53,0 -104.17,-46.64 -104.17,-104.17 V 2562.06 c 0,-57.53 46.64,-104.16 104.17,-104.16" style="fill: #fff;fill-opacity:1;fill-rule:nonzero;stroke:none" id="path50"/>
      <path d="m 8173.09,2829.43 v 0 c 57.53,0 104.16,46.63 104.16,104.16 v 2147.45 c 0,57.52 -46.63,104.16 -104.16,104.16 v 0 c -57.53,0 -104.17,-46.64 -104.17,-104.16 V 2933.59 c 0,-57.53 46.64,-104.16 104.17,-104.16" style="fill: #fff;fill-opacity:1;fill-rule:nonzero;stroke:none" id="path52"/>
      <path d="m 8421.48,4342.02 v -558.38 c 0,-57.53 46.64,-104.17 104.17,-104.17 v 0 c 57.53,0 104.17,46.64 104.17,104.17 v 558.38 c 0,57.53 -46.64,104.16 -104.17,104.16 v 0 c -57.53,0 -104.17,-46.63 -104.17,-104.16" style="fill: #fff;fill-opacity:1;fill-rule:nonzero;stroke:none" id="path54"/>
    </g>
  </g>
</svg>