<svg width="32" height="27" viewBox="0 0 32 27" fill="none" xmlns="http://www.w3.org/2000/svg">
<path d="M30.9256 0.234375H4.04126C3.76476 0.234375 3.54126 0.458373 3.54126 0.734371V3.35085H0.925778C0.64928 3.35085 0.425781 3.57485 0.425781 3.85085V25.7422C0.425781 26.0182 0.64928 26.2422 0.925778 26.2422H27.8101C28.0866 26.2422 28.3101 26.0182 28.3101 25.7422V23.1262H30.9256C31.2021 23.1262 31.4256 22.9022 31.4256 22.6262V0.734371C31.4256 0.458373 31.2021 0.234375 30.9256 0.234375ZM27.3101 4.35085V17.7652L22.0796 13.3548C21.8906 13.1958 21.6131 13.1983 21.4271 13.3618L15.9787 18.1562L10.0907 12.3003C9.90071 12.1108 9.59422 12.1053 9.39722 12.2888L1.42577 19.7062V4.35135L27.3101 4.35085ZM1.42577 25.2422V21.0722L9.72671 13.3483L18.0322 21.6092C18.1297 21.7062 18.2572 21.7547 18.3847 21.7547C18.5132 21.7547 18.6416 21.7057 18.7391 21.6072C18.9341 21.4112 18.9331 21.0952 18.7372 20.9002L16.6887 18.8627L21.7636 14.3968L27.3096 19.0732V25.2422H1.42577ZM30.4256 22.1262H28.3101V3.85085C28.3101 3.57485 28.0866 3.35085 27.8101 3.35085H4.54125V1.23437H30.4256V22.1262Z" fill="#0EA5C6"/>
<path d="M15.969 13.1544C17.6185 13.1544 18.9605 11.8119 18.9605 10.1619C18.9605 8.51191 17.618 7.16992 15.969 7.16992C14.3186 7.16992 12.9766 8.51241 12.9766 10.1619C12.9766 11.8114 14.3186 13.1544 15.969 13.1544ZM15.969 8.16941C17.067 8.16941 17.9605 9.06341 17.9605 10.1614C17.9605 11.2604 17.067 12.1539 15.969 12.1539C14.8705 12.1539 13.9766 11.2599 13.9766 10.1614C13.9766 9.06291 14.8705 8.16941 15.969 8.16941Z" fill="#0EA5C6"/>
</svg>
