<svg width="25" height="25" viewBox="0 0 25 25" fill="none" xmlns="http://www.w3.org/2000/svg">
<path d="M23.1736 6.9256C22.2709 5.80293 20.9429 5.0456 19.4883 4.77227C18.7976 1.93627 16.2696 0.641602 13.8269 0.641602H5.84293C5.00026 0.641602 4.27093 1.18693 4.01893 1.98693C3.99893 2.04027 3.98426 2.09627 3.97093 2.1536L0.478927 18.3243C0.466927 18.3789 0.458927 18.4349 0.453594 18.4909C0.441594 18.5736 0.433594 18.6589 0.433594 18.7216C0.433594 19.7803 1.29759 20.6416 2.35893 20.6416H5.44693L5.09093 22.3243C5.08026 22.3776 5.07226 22.4323 5.06693 22.4856C5.05493 22.5696 5.04559 22.6536 5.04559 22.7163C5.04826 23.7789 5.91226 24.6416 6.97359 24.6416H11.3189C11.3936 24.6416 11.4669 24.6349 11.5403 24.6216C12.2723 24.5376 12.8883 24.0389 13.1283 23.3376C13.1563 23.2709 13.1789 23.2003 13.1949 23.1296L14.4003 17.9749H16.2643C20.7509 17.9749 23.4376 16.0483 24.2496 12.2483C24.8043 9.64427 23.9709 7.91627 23.1736 6.9256ZM3.28293 17.9749L6.44959 3.30827H13.8269C14.2176 3.30827 15.8269 3.3896 16.5976 4.65894H10.3229C9.48826 4.65894 8.76293 5.1936 8.50559 5.97893C8.48026 6.04427 8.46159 6.11227 8.44826 6.18027L7.06959 12.9709L6.01093 17.9749H3.28293ZM21.6416 11.6909C21.1003 14.2256 19.4909 15.3083 16.2643 15.3083H13.7883C12.6909 15.3083 12.0043 16.1776 11.9149 16.9056L10.7283 21.9749H7.89226L9.58693 13.9749H11.5123C17.1909 13.9749 19.0656 10.7829 19.6376 8.1056C19.6736 7.93493 19.6976 7.76427 19.7136 7.59627C20.2176 7.7976 20.7123 8.12027 21.0976 8.5976C21.7283 9.38427 21.9109 10.4243 21.6416 11.6909Z" fill="black"/>
</svg>
