<svg width="65" height="66" viewBox="0 0 65 66" fill="none" xmlns="http://www.w3.org/2000/svg">
<path d="M34.4703 15.7777L33.9703 15.3777H33.7703L33.4703 15.1777H31.2703L30.9703 15.3777H30.7703L30.2703 15.7777L16.6703 29.3777C16.237 29.9555 16.0267 30.6701 16.0779 31.3904C16.1291 32.1107 16.4384 32.7884 16.949 33.2991C17.4596 33.8097 18.1373 34.119 18.8576 34.1702C19.578 34.2214 20.2926 34.011 20.8703 33.5777L29.3703 25.1777V50.0777C29.3703 50.8734 29.6864 51.6364 30.249 52.1991C30.8116 52.7617 31.5747 53.0777 32.3703 53.0777C33.166 53.0777 33.929 52.7617 34.4916 52.1991C35.0542 51.6364 35.3703 50.8734 35.3703 50.0777V25.1777L43.7703 33.5777C44.0282 33.9216 44.357 34.206 44.7344 34.4117C45.1117 34.6175 45.5289 34.7397 45.9577 34.7702C46.3864 34.8007 46.8167 34.7386 47.2193 34.5883C47.622 34.4381 47.9877 34.203 48.2916 33.8991C48.5956 33.5951 48.8306 33.2294 48.9809 32.8268C49.1312 32.4241 49.1932 31.9938 49.1628 31.5651C49.1323 31.1363 49.0101 30.7192 48.8043 30.3418C48.5986 29.9644 48.3142 29.6356 47.9703 29.3777L34.4703 15.7777Z" fill="#0EA5C6"/>
<path d="M64.6703 12.877C64.6703 9.69436 63.406 6.64211 61.1556 4.39167C58.9052 2.14123 55.8529 0.876953 52.6703 0.876953H12.0703C8.88771 0.876953 5.83547 2.14123 3.58503 4.39167C1.33459 6.64211 0.0703125 9.69436 0.0703125 12.877V53.477C0.0703125 56.6596 1.33459 59.7118 3.58503 61.9622C5.83547 64.2127 8.88771 65.477 12.0703 65.477H52.6703C55.8529 65.477 58.9052 64.2127 61.1556 61.9622C63.406 59.7118 64.6703 56.6596 64.6703 53.477V12.877ZM58.6703 53.477C58.6703 55.0683 58.0382 56.5944 56.913 57.7196C55.7877 58.8448 54.2616 59.477 52.6703 59.477H12.0703C10.479 59.477 8.95289 58.8448 7.82767 57.7196C6.70245 56.5944 6.07031 55.0683 6.07031 53.477V12.877C6.07031 11.2857 6.70245 9.75953 7.82767 8.63431C8.95289 7.50909 10.479 6.87695 12.0703 6.87695H52.6703C54.2616 6.87695 55.7877 7.50909 56.913 8.63431C58.0382 9.75953 58.6703 11.2857 58.6703 12.877V53.477Z" fill="#0EA5C6"/>
</svg>
